<svg xmlns="http://www.w3.org/2000/svg" viewBox="0 0 485 485"><path d="M483.8 46.25H181.6c-.6 0-1.2.5-1.2 1.2v28.3c0 .6.5 1.2 1.2 1.2h302.2c.6 0 1.2-.5 1.2-1.2v-28.3c0-.7-.5-1.2-1.2-1.2z"/><circle cx="71.5" cy="253.35" r="37.9"/><circle cx="71.5" cy="419.55" r="38.1"/><path d="M181.6 128.15h142.8c.6 0 1.2-.5 1.2-1.2v-28.3c0-.6-.5-1.2-1.2-1.2H181.6c-.6 0-1.2.5-1.2 1.2v28.3c.1.7.6 1.2 1.2 1.2zm302.2 84.3H181.6c-.6 0-1.2.5-1.2 1.2v28.3c0 .6.5 1.2 1.2 1.2h302.2c.6 0 1.2-.5 1.2-1.2v-28.3c0-.7-.5-1.2-1.2-1.2zm-302.2 81.9h142.8c.6 0 1.2-.5 1.2-1.2v-28.3c0-.6-.5-1.2-1.2-1.2H181.6c-.6 0-1.2.5-1.2 1.2v28.3c.1.6.6 1.2 1.2 1.2zm302.2 84.2H181.6c-.6 0-1.2.5-1.2 1.2v28.3c0 .6.5 1.2 1.2 1.2h302.2c.6 0 1.2-.5 1.2-1.2v-28.3c0-.7-.5-1.2-1.2-1.2zm-159.4 51.3H181.6c-.6 0-1.2.5-1.2 1.2v28.3c0 .6.5 1.2 1.2 1.2h142.8c.6 0 1.2-.5 1.2-1.2v-28.3c0-.7-.5-1.2-1.2-1.2zm-271-343.3l-26.1-26.3L0 87.45l26.2 26.2 27.1 27.3 27.2-27.1 62.5-62.1-27.1-27.3z"/></svg>