<svg xmlns="http://www.w3.org/2000/svg" shape-rendering="geometricPrecision" text-rendering="geometricPrecision" image-rendering="optimizeQuality" fill-rule="evenodd" clip-rule="evenodd" viewBox="0 0 10600 3011"><path fill="#fff" fill-rule="nonzero" d="M10491 171H109V50h10382l62 61-62 60zm0-121h62v61l-62-61zm-63 2850V111h125v2789l-62 61-63-61zm125 0v61h-62l62-61zM109 2840h10382v121H109l-62-61 62-60zm0 121H47v-61l62 61zm63-2850v2789H47V111l62-61 63 61zm-125 0V50h62l-62 61zm975 649c9-2 20-3 34-4 14 0 25-1 33-1 7 0 18 1 33 1 15 1 26 2 34 4v641c14-25 31-49 53-74s47-48 75-68c29-21 61-37 97-49 35-12 75-18 118-18 119 0 207 35 263 106s84 171 84 300v653c-8 1-19 2-33 3s-26 1-34 1c-6 0-17 0-32-1s-26-2-35-3v-613c0-115-19-197-56-247-38-50-93-75-165-75-47 0-91 8-133 26-41 18-76 44-106 78-30 35-53 78-70 130s-26 112-26 180v521c-8 1-19 2-33 3s-25 1-34 1c-6 0-17 0-32-1s-26-2-35-3V760zm1209 456c8-1 20-2 34-3 15-1 26-1 33-1 8 0 19 0 33 1 15 1 26 2 34 3v583c0 73 7 132 22 179s37 83 66 110c29 26 65 44 107 55 42 10 89 15 142 15 44 0 84-3 119-7 36-5 67-12 94-20v-915c8-1 19-2 34-3s26-1 33-1c8 0 19 0 33 1s26 2 34 3v1009c-50 13-106 25-168 35-61 10-124 15-189 15-64 0-124-6-180-18s-105-35-146-70c-41-34-74-82-99-143-24-61-36-140-36-237v-591zm1365 911c31 11 64 19 98 24 35 4 71 7 111 7 54 0 106-9 155-27 49-17 93-44 130-81 37-36 67-83 89-139s34-123 34-202c0-123-24-220-70-290-47-70-123-105-227-105-32 0-67 5-105 16s-73 29-105 55c-32 25-58 59-79 102s-31 96-31 161v479zM3462 760c8-2 19-3 33-4 14 0 26-1 34-1 6 0 17 1 32 1 15 1 27 2 35 4v600c28-43 69-82 122-116 54-35 123-52 208-52 64 0 122 10 175 29 53 20 98 51 135 93 37 41 66 94 87 158 21 63 32 140 32 229 0 180-50 321-149 422-98 102-241 152-428 152-61 0-119-5-176-17-57-11-104-24-140-37V760zm1255 32c46-5 101-10 166-15s129-7 191-7c256 0 447 65 573 194 127 130 190 317 190 561 0 254-65 443-194 566s-321 184-577 184c-64 0-127-2-189-7-62-4-115-10-160-17V792zm207 1289c19 2 42 5 70 7s57 3 88 3c80 0 153-9 218-28 66-18 122-49 170-92 47-43 84-102 109-175 26-74 39-167 39-277 0-102-13-189-39-260-25-72-62-130-108-176-47-45-103-78-168-98-65-21-136-31-215-31-25 0-54 1-84 1-30 1-57 3-80 7v1119zm1226-51c44 16 91 30 140 43 48 12 108 18 178 18 111 0 194-23 249-68 55-46 82-107 82-184 0-38-6-70-17-97-12-27-29-51-52-70-23-20-52-38-86-54-35-16-75-34-121-53l-116-46c-39-17-75-35-107-54-33-20-61-44-84-72-24-29-43-62-56-99-14-37-20-81-20-133 0-123 42-219 125-289 84-70 202-104 354-104 64 0 126 5 184 16s110 24 154 40c-6 57-21 113-44 169-37-14-79-26-127-37-48-10-103-16-163-16-86 0-151 17-197 52-46 34-69 86-69 155 0 29 5 54 17 76 11 23 27 42 46 59s41 32 67 46c25 13 52 25 81 36l113 45c55 22 103 44 145 68 41 24 77 51 107 83s52 69 68 113c16 43 23 94 23 152 0 139-48 249-144 330-96 80-230 120-404 120-41 0-79-1-113-4-34-2-65-6-95-12-29-5-57-12-84-20s-55-17-83-26c3-30 9-61 18-92 10-31 20-61 31-91zM7345 790c20-3 44-5 72-8s57-5 87-7c31-2 61-4 92-5 30-2 60-2 88-2 74 0 145 7 212 22s126 41 177 77c50 37 91 85 120 145 30 60 45 136 45 226 0 95-16 174-48 237-31 63-73 113-125 151-53 38-112 65-178 80-66 16-134 24-203 24-26 0-48-1-68-1-20-1-41-3-64-6v528c-32 4-67 6-103 6-17 0-34 0-52-1-18 0-36-2-52-5V790zm207 753c22 3 41 5 57 6s40 2 71 2c42 0 84-4 125-13s78-25 110-48c33-23 59-54 79-94 19-40 29-92 29-156 0-55-8-102-25-140-17-37-41-68-70-91-30-23-66-39-108-49-42-9-87-14-136-14-50 0-94 2-132 6v591zm1076 732c-1-9-3-23-4-41-2-19-4-38-6-59-2-20-4-41-5-62s-1-40-1-57c0-115 22-204 67-266 44-62 114-93 208-93 30 0 58 5 83 14 25 10 47 22 68 38 20 16 37 34 50 55 14 21 24 43 31 66 4-31 12-60 24-89 13-28 30-53 52-75 22-23 49-40 82-53 33-14 73-20 119-20 53 0 98 10 136 31 39 21 71 51 96 89 25 37 44 82 57 133 12 52 18 108 18 169 0 16 0 33-1 53-1 19-3 39-4 59-2 20-4 40-6 59s-5 36-7 49H8628zm450-241c0-79-18-137-53-174s-81-55-138-55c-53 0-98 19-133 58-36 39-54 100-54 183 0 26 1 50 3 73s4 41 6 55h369v-140zm525 140c2-14 4-32 5-55 2-23 2-47 2-73 0-38-3-76-10-112-7-37-19-70-35-98-17-29-39-52-66-69-28-17-62-25-103-25-42 0-76 7-104 22-28 14-51 34-68 60-18 25-31 55-39 90-8 34-11 71-11 110v150h429zm-310-985l-665 340c-1-6-2-14-2-25-1-11-1-21-1-31 0-9 0-19 1-31 0-13 1-22 2-29l559-277-559-272c-1-8-2-16-2-25-1-10-1-19-1-28s0-20 1-31c0-10 1-19 2-25l665 333h392c1 7 2 15 3 23v56c-1 9-2 16-3 22h-392z"/></svg>