<svg xmlns="http://www.w3.org/2000/svg" shape-rendering="geometricPrecision" text-rendering="geometricPrecision" image-rendering="optimizeQuality" fill-rule="evenodd" clip-rule="evenodd" viewBox="0 0 11130 3011"><path fill="#fff" fill-rule="nonzero" d="M11012 171H118V50h10894l63 61-63 60zm0-121h63v61l-63-61zm-62 2850V111h125v2789l-63 61-62-61zm125 0v61h-63l63-61zM118 2840h10894v121H118l-63-61 63-60zm0 121H55v-61l63 61zm62-2850v2789H55V111l63-61 62 61zm-125 0V50h63l-63 61zm1000 655c8-2 19-3 33-3 15-1 26-1 34-1 7 0 18 0 32 1 15 0 27 1 35 3v641c13-24 31-49 53-74 21-25 46-48 75-68 28-20 60-36 96-49 36-12 76-18 119-18 119 0 207 36 263 107s84 170 84 299v653c-8 2-19 3-34 3-14 1-25 1-33 1-7 0-18 0-33-1-14 0-26-1-34-3v-612c0-115-19-198-57-248s-93-75-164-75c-48 0-92 9-133 26-41 18-77 44-107 78-29 35-53 78-70 130s-25 112-25 180v521c-8 2-19 3-34 3-14 1-25 1-33 1-7 0-18 0-33-1-14 0-26-1-34-3V766zm1208 456c9-1 20-2 35-3 15 0 26-1 32-1 9 0 20 1 34 1 14 1 25 2 33 3v583c0 73 8 133 23 179 15 47 37 84 66 110s64 45 106 55 90 15 142 15c45 0 85-2 120-7s66-11 93-19v-916c8-1 20-2 35-3 15 0 26-1 32-1 8 0 20 1 34 1 14 1 25 2 33 3v1009c-50 14-106 25-167 36-62 10-125 15-190 15-63 0-123-6-179-19-57-12-105-35-147-70-41-34-74-82-98-143-24-60-37-140-37-237v-591zm1365 912c31 10 64 18 99 23 34 5 71 7 110 7 54 0 106-9 155-26 50-18 93-45 130-82 38-36 67-82 90-139 22-56 33-123 33-201 0-124-23-220-70-291-47-70-122-105-226-105-33 0-68 5-106 16s-72 29-104 55-58 60-79 102c-21 43-32 97-32 162v479zM3494 766c8-2 20-3 34-3 14-1 25-1 33-1 7 0 18 0 33 1 15 0 26 1 34 3v601c29-44 70-83 123-117 53-35 123-52 208-52 64 0 122 10 175 30 52 19 97 50 134 92 38 42 67 95 88 158 21 64 31 140 31 229 0 180-49 321-148 423-99 101-241 152-428 152-61 0-120-6-177-17-57-12-103-25-140-38V766zm1255 32c46-5 102-10 167-15s128-7 191-7c255 0 446 65 573 195 126 130 190 316 190 560 0 254-65 443-194 566s-322 185-578 185c-63 0-126-3-188-7-62-5-116-11-161-18V798zm207 1289c19 3 43 5 70 7 28 2 58 3 89 3 80 0 152-9 218-27 65-19 122-49 169-93 48-43 84-101 110-175s38-166 38-277c0-102-12-188-38-260s-62-130-109-175c-46-46-102-79-167-99s-137-30-215-30c-26 0-54 0-84 1-31 0-58 3-81 7v1118zm1226-51c45 16 92 31 140 43 49 12 109 18 179 18 111 0 194-23 249-68 54-45 82-106 82-184 0-37-6-70-18-97-11-27-28-50-51-70s-52-38-87-54c-34-16-74-34-120-53l-116-46c-39-16-75-34-108-54-32-20-60-44-84-72-23-28-42-61-56-98-13-38-20-82-20-133 0-123 42-220 126-290 84-69 202-104 353-104 65 0 127 5 185 16s109 25 154 41c-7 57-22 113-45 168-36-13-78-26-126-36-49-11-103-17-164-17-85 0-151 18-197 52-46 35-69 86-69 155 0 29 6 54 18 77 11 22 26 41 45 58s41 33 67 46c26 14 53 26 81 37l114 44c54 22 102 45 144 68 42 24 78 52 108 83 29 32 52 70 68 113 15 43 23 94 23 152 0 140-48 250-144 330-96 81-231 121-404 121-42 0-80-2-114-4-33-3-65-7-94-12-29-6-57-13-84-21s-55-17-83-26c2-30 8-60 18-91 9-32 19-62 30-92zM7378 796c20-2 44-5 72-8s57-5 87-7 61-4 91-5c31-1 60-2 89-2 74 0 145 7 212 22s126 41 176 77c51 37 91 85 121 145 30 61 45 136 45 227 0 94-16 173-48 236s-74 113-126 151-111 65-177 81c-67 15-134 23-203 23-26 0-49 0-68-1-20-1-41-3-64-5v527c-33 4-67 6-104 6-16 0-33 0-52-1-18 0-35-2-51-5V796zm207 753c21 3 40 5 57 6 16 2 39 2 71 2 42 0 83-4 124-13 42-9 79-25 111-48s59-54 78-94c20-40 30-92 30-155 0-56-9-102-26-140s-40-69-70-92-65-39-107-48c-42-10-88-14-136-14-50 0-94 2-132 6v590zm652 708c-3-19-5-37-7-55-3-19-4-37-4-56s1-38 4-58c2-20 4-39 7-58 19-3 37-5 55-6 19-1 37-2 56-2s38 1 57 2 38 3 57 6c3 19 5 38 7 57s3 38 3 57-1 38-3 57-4 37-7 56c-19 3-38 5-56 6-18 2-37 3-56 3s-38-1-57-3c-19-1-37-3-56-6zm827 18c-1-9-3-23-5-41-2-19-4-38-5-59-2-20-4-41-5-62s-1-40-1-57c0-115 22-204 67-266 44-62 114-93 208-93 30 0 58 5 83 14 25 10 47 22 67 38 21 16 37 34 51 55s24 43 31 66c4-31 12-60 24-89 13-28 30-53 52-75 22-23 49-40 82-53 33-14 72-20 119-20 52 0 98 10 136 31 39 21 70 51 96 89 25 37 44 82 57 133 12 52 18 108 18 169 0 16-1 33-2 53-1 19-2 39-3 59-2 20-4 40-6 59-3 19-5 36-7 49H9064zm450-241c0-79-18-137-53-174s-81-55-138-55c-53 0-98 19-133 58-36 39-54 100-54 183 0 26 1 50 3 73s4 41 6 55h369v-140zm525 140c2-14 4-32 5-55 2-23 2-47 2-73 0-38-3-76-10-112-7-37-19-70-35-98-17-29-39-52-67-69-27-17-61-25-102-25-42 0-76 7-104 22-28 14-51 34-69 60-17 25-30 55-38 90-8 34-12 71-12 110v150h430zm-310-985l-665 340c-1-6-2-14-2-25-1-11-1-21-1-31 0-9 0-19 1-31 0-13 1-22 2-29l559-277-559-272c-1-8-2-16-2-25-1-10-1-19-1-28s0-20 1-31c0-10 1-19 2-25l665 333h392c1 7 2 15 2 23 1 9 1 18 1 27 0 10 0 19-1 29 0 9-1 16-2 22h-392z"/></svg>