<svg xmlns="http://www.w3.org/2000/svg" viewBox="0 0 399.44 399.44"><path d="M269.083 27.199a9 9 0 0 1 1.024-12.687l14.54-12.368a9.001 9.001 0 0 1 11.663 13.711l-14.54 12.368a8.967 8.967 0 0 1-5.827 2.145 8.98 8.98 0 0 1-6.86-3.169zm26.174 38.08c-4.973-.004-9.026 3.969-9.06 8.939s3.969 9.058 8.939 9.092l19.089.16h.062c4.942 0 8.965-4.021 8.999-8.971.033-4.97-3.969-9.043-8.939-9.076l-19.09-.144zm-11.412-16.828a9.002 9.002 0 0 0 8.458 5.924 8.98 8.98 0 0 0 3.078-.545l31.626-11.511a9 9 0 0 0 5.379-11.535 9 9 0 0 0-11.535-5.379l-31.626 11.511a8.998 8.998 0 0 0-5.38 11.535zm-64.571 284.84c-.93 4.818-3.157 10.442-6.272 15.837-8.634 14.958-19.1 21.5-27.453 17.235l-13.208-5.902a76.547 76.547 0 0 1-16.337 9.438l-1.489 14.339c-.443 9.395-11.337 15.201-28.655 15.201-17.274 0-28.174-5.793-28.654-15.163L95.713 369.9a76.526 76.526 0 0 1-16.336-9.439l-13.171 5.885c-8.356 4.312-18.832-2.221-27.49-17.217-8.642-14.968-9.071-27.308-1.186-32.404l11.65-8.44a78.053 78.053 0 0 1-.018-18.948l-11.652-8.441c-7.864-5.105-7.428-17.436 1.206-32.39 8.658-14.997 19.134-21.528 27.491-17.217l13.036 5.825a76.505 76.505 0 0 1 16.489-9.547l1.474-14.218c.487-9.364 11.385-15.154 28.654-15.154 17.317 0 28.21 5.807 28.655 15.2l1.472 14.171a76.518 76.518 0 0 1 16.488 9.546l13.067-5.838c8.355-4.272 18.825 2.269 27.462 17.233 3.114 5.393 5.342 11.018 6.271 15.835 1.942 10.063-2.114 14.628-5.088 16.565l-11.63 8.427a78.118 78.118 0 0 1-.018 18.954l11.65 8.441c2.972 1.935 7.027 6.5 5.085 16.562zm-31.756-55.292l14.095-10.213c-.412-2.107-1.613-5.804-4.199-10.283-2.587-4.482-5.189-7.371-6.808-8.781l-15.86 7.087a8.997 8.997 0 0 1-9.635-1.476c-5.989-5.299-12.842-9.267-20.369-11.794a9 9 0 0 1-6.087-7.602l-1.79-17.24c-2.031-.697-5.833-1.505-11.006-1.505-5.175 0-8.978.809-11.009 1.506l-1.787 17.238a9.003 9.003 0 0 1-6.086 7.604c-7.528 2.528-14.382 6.497-20.371 11.795a8.999 8.999 0 0 1-9.635 1.476l-15.86-7.086c-1.619 1.41-4.22 4.299-6.806 8.78-2.588 4.481-3.789 8.179-4.2 10.286L64.2 278.002a9 9 0 0 1 3.545 9.053 59.685 59.685 0 0 0-1.151 11.681c0 3.973.396 7.945 1.175 11.805a9 9 0 0 1-3.542 9.07l-14.122 10.232c.412 2.107 1.613 5.805 4.2 10.287 2.586 4.48 5.188 7.369 6.806 8.779l15.982-7.141a9 9 0 0 1 9.619 1.462c5.962 5.25 12.775 9.185 20.25 11.698a9 9 0 0 1 6.084 7.602l1.805 17.405c2.031.697 5.833 1.506 11.009 1.506 5.173 0 8.975-.809 11.005-1.505l1.808-17.407a9 9 0 0 1 6.084-7.602c7.477-2.514 14.289-6.449 20.249-11.698a9 9 0 0 1 9.62-1.462l15.98 7.142c1.619-1.41 4.221-4.298 6.808-8.78 2.587-4.48 3.788-8.178 4.2-10.285l-14.122-10.231a9 9 0 0 1-3.542-9.069 59.783 59.783 0 0 0 1.175-11.808c0-3.93-.387-7.861-1.151-11.684a9.001 9.001 0 0 1 3.544-9.053zm-27.416 20.727c0 18.882-15.361 34.243-34.243 34.243s-34.244-15.361-34.244-34.243c0-18.881 15.362-34.243 34.244-34.243 18.882.001 34.243 15.362 34.243 34.243zm-18 0c0-8.956-7.287-16.243-16.243-16.243-8.957 0-16.244 7.287-16.244 16.243 0 8.957 7.287 16.243 16.244 16.243 8.956.001 16.243-7.286 16.243-16.243zm224.212 54.698l-28.891-78.914a9.207 9.207 0 0 0-.49-1.103 19.794 19.794 0 0 0-15.801-11.78c-4.385-.543-8.691-.782-12.856-1.012-2.044-.113-4.09-.226-6.142-.376-7.04-.515-13.122-1.456-18.595-2.877-11.282-2.928-18.685-7.112-24.006-13.565-9.513-11.536-24.521-52.528-24.705-67.48-.104-8.365 2.849-16.34 9.572-25.858 3.351-4.745 7.157-9.125 12.342-14.204 1.453-1.423 2.934-2.82 4.413-4.216 2.699-2.548 5.487-5.18 8.171-8.013 5.909-5.483 7.932-13.854 5.148-21.453l-28.89-78.916c-3.779-10.318-15.249-15.637-25.567-11.861l-19.973 7.31c-5.364 1.953-8.056 2.933-14.264 6.717-36.001 21.968-55.741 64.59-55.583 120.015.029 9.935.705 20.283 2.008 30.756a9 9 0 0 0 10.042 7.82 9 9 0 0 0 7.82-10.042c-1.214-9.756-1.843-19.374-1.87-28.586-.14-48.888 16.537-86.035 46.955-104.596 4.676-2.85 6.026-3.342 11.049-5.17l20.004-7.321a1.932 1.932 0 0 1 2.476 1.147l28.89 78.917c.333.911-.078 1.704-.531 2.106a9.048 9.048 0 0 0-.579.563c-2.393 2.543-4.953 4.959-7.663 7.518-1.559 1.472-3.118 2.944-4.651 4.445-5.911 5.79-10.503 11.09-14.451 16.68-8.93 12.643-13.019 24.23-12.868 36.464.236 19.102 16.664 63.974 28.816 78.709 7.782 9.439 18.386 15.647 33.369 19.537 6.537 1.698 13.67 2.813 21.806 3.407 2.156.158 4.309.278 6.46.397 4.043.224 7.862.435 11.657.905a1.889 1.889 0 0 1 1.544 1.23c.103.28.218.551.345.814l28.584 78.076a1.932 1.932 0 0 1-1.149 2.475l-18.166 6.651c-7.004 2.565-9.118 3.339-16.242 4.221-24.517 3.033-48.947-4.591-72.606-22.668a9.001 9.001 0 0 0-10.929 14.303c23.282 17.79 48.405 26.993 73.346 26.993 4.142 0 8.278-.253 12.4-.764 8.816-1.091 12.358-2.303 20.22-5.182l18.167-6.651c10.319-3.781 15.641-15.25 11.864-25.568z"/></svg>