<?xml version="1.0" standalone="no"?>
<!DOCTYPE svg PUBLIC "-//W3C//DTD SVG 1.1//EN" "http://www.w3.org/Graphics/SVG/1.1/DTD/svg11.dtd" >
<svg xmlns="http://www.w3.org/2000/svg" xmlns:xlink="http://www.w3.org/1999/xlink" version="1.1">
<metadata>
Created by FontForge 20170910 at Wed Jun 10 14:54:23 2015
 By Jimmy Wärting
(c) 2015 The Monotype Corporation. All Rights Reserved. 

Hebrew OpenType Layout logic copyright (c) 2003 &#38; 2007, Ralph Hancock &#38; John Hudson. This layout logic for Biblical Hebrew is open source software under the MIT License; see embedded license description for details.
</metadata>
<defs>
<font id="Arial-ItalicMT" horiz-adv-x="1139" >
  <font-face 
    font-family="Arial"
    font-weight="400"
    font-style="italic"
    font-stretch="normal"
    units-per-em="2048"
    panose-1="2 11 6 4 2 2 2 9 2 4"
    ascent="1638"
    descent="-410"
    x-height="1062"
    cap-height="1466"
    bbox="-1059 -665 2783 2043"
    underline-thickness="150"
    underline-position="-292"
    slope="-12"
    unicode-range="U+0020-FFFC"
  />
<missing-glyph horiz-adv-x="1536" 
d="M256 0v1280h1024v-1280h-1024zM288 32h960v1216h-960v-1216z" />
    <glyph glyph-name="uniFB4F" unicode="&#x5d0;&#x200d;&#x5dc;" horiz-adv-x="1179" 
d="M1048 0h-236l-283 573q-104 -51 -155 -206l-121 -367h-198l121 367q84 256 282 346l-94 188h-188l120 565h190l-86 -405h120l239 -475q69 40 107 96q36 52 73 166l71 213h198l-71 -219q-49 -153 -123 -243q-69 -86 -189 -150z" />
    <glyph glyph-name=".notdef" horiz-adv-x="1536" 
d="M256 0v1280h1024v-1280h-1024zM288 32h960v1216h-960v-1216z" />
    <glyph glyph-name="glyph1" horiz-adv-x="0" 
 />
    <glyph glyph-name="glyph2" horiz-adv-x="569" 
 />
    <glyph glyph-name="space" unicode=" " horiz-adv-x="569" 
 />
    <glyph glyph-name="space" unicode="&#xa0;" horiz-adv-x="569" 
 />
    <glyph glyph-name="exclam" unicode="!" horiz-adv-x="569" 
d="M229 370l111 796l63 300h219l-68 -325l-212 -771h-113zM115 0l43 205h204l-43 -205h-204z" />
    <glyph glyph-name="quotedbl" unicode="&#x22;" horiz-adv-x="727" 
d="M277 947l12 274l52 245h206l-53 -245l-105 -274h-112zM608 947l12 274l52 245h206l-53 -245l-105 -274h-112z" />
    <glyph glyph-name="numbersign" unicode="#" 
d="M177 -25l87 426h-169v149h199l74 363h-273v149h303l87 429h150l-87 -429h315l87 429h151l-87 -429h173v-149h-203l-75 -363h278v-149h-308l-87 -426h-150l86 426h-314l-87 -426h-150zM444 550h314l75 363h-315z" />
    <glyph glyph-name="dollar" unicode="$" 
d="M454 -13q-146 30 -243 148t-106 289l182 11q9 -120 62.5 -195t135.5 -104l116 553q-118 51 -171 94q-74 59 -113 139t-39 164q0 158 129 279.5t320 121.5q6 0 40 -1l16 78h100l-19 -91q136 -34 214 -123.5t95 -237.5l-173 -9q-14 89 -53 142t-114 79l-105 -503
q202 -83 277.5 -181t75.5 -218q0 -114 -67.5 -228t-178.5 -167t-256 -53q-10 0 -28 1l-36 -171h-99zM636 861l101 480q-77 3 -143 -27.5t-102 -88.5t-36 -127q0 -76 37.5 -131t142.5 -106zM692 650l-111 -531q135 -5 227 80.5t92 203.5q0 78 -42 135t-166 112z" />
    <glyph glyph-name="percent" unicode="%" horiz-adv-x="1821" 
d="M286 -54l1211 1545h164l-1206 -1545h-169zM199 1015q0 41 18.5 126t54.5 152t80 107t96 59t118 19q141 0 213.5 -71.5t72.5 -209.5q0 -115 -48.5 -243t-133 -187.5t-202.5 -59.5q-131 0 -200 74.5t-69 233.5zM353 982q0 -84 31.5 -119t84.5 -35q63 0 114.5 48.5t81 156.5
t29.5 185q0 67 -34 103t-89 36q-58 0 -107 -46.5t-80 -147.5t-31 -181zM1093 254q0 41 18.5 126t54.5 152t80 107t96 59t118 19q141 0 213.5 -71.5t72.5 -209.5q0 -115 -48.5 -243t-133 -187.5t-202.5 -59.5q-131 0 -200 74t-69 234zM1247 220q0 -83 31.5 -118.5t84.5 -35.5
q63 0 114 48.5t81 156t30 185.5q0 68 -34 104t-89 36q-58 0 -107 -46.5t-80 -147.5t-31 -182z" />
    <glyph glyph-name="ampersand" unicode="&#x26;" horiz-adv-x="1366" 
d="M1016 143q-125 -102 -214 -138.5t-197 -36.5q-200 0 -322 117.5t-122 295.5q0 116 45.5 205t135.5 161q69 54 204 115q-52 115 -63 154q-14 56 -14 120q0 84 47 170.5t133 135.5t187 49q141 0 227.5 -82t86.5 -199q0 -99 -74 -196.5t-291 -206.5q131 -237 252 -389
q73 89 139 209l158 -81q-66 -139 -183 -272q65 -83 169 -200l-136 -109q-102 87 -168 178zM719 942q147 75 210 154q44 54 44 110q0 59 -40.5 99.5t-98.5 40.5q-70 0 -123.5 -56.5t-53.5 -134.5q0 -95 62 -213zM911 282q-187 245 -291 439q-136 -64 -194 -124
q-81 -84 -81 -195q0 -114 77.5 -192.5t189.5 -78.5q151 0 299 151z" />
    <glyph glyph-name="quotesingle" unicode="'" horiz-adv-x="391" 
d="M260 947l12 274l52 245h206l-53 -245l-105 -274h-112z" />
    <glyph glyph-name="parenleft" unicode="(" horiz-adv-x="682" 
d="M330 -431q-157 344 -157 707q0 242 63.5 450.5t193.5 412.5q86 136 275 352h141q-117 -125 -247.5 -352t-189.5 -446t-59 -440q0 -330 115 -684h-135z" />
    <glyph glyph-name="parenright" unicode=")" horiz-adv-x="682" 
d="M406 1491q158 -344 158 -706q0 -243 -63.5 -451t-193.5 -413q-87 -136 -275 -352h-141q116 126 247 353t189.5 445.5t58.5 440.5q0 330 -115 683h135z" />
    <glyph glyph-name="asterisk" unicode="*" horiz-adv-x="797" 
d="M236 1197l46 142q159 -56 231 -97q-19 181 -20 249h145q-3 -99 -23 -248q103 52 236 96l46 -142q-127 -42 -249 -56q61 -53 172 -189l-120 -85q-58 79 -137 215q-74 -141 -130 -215l-118 85q116 143 166 189q-129 25 -245 56z" />
    <glyph glyph-name="plus" unicode="+" horiz-adv-x="1196" 
d="M583 237v402h-399v168h399v399h170v-399h399v-168h-399v-402h-170z" />
    <glyph glyph-name="comma" unicode="," horiz-adv-x="569" 
d="M111 0l43 205h206l-37 -179q-34 -161 -105.5 -236t-168.5 -86l17 79q119 33 157 217h-112z" />
    <glyph glyph-name="hyphen" unicode="-" horiz-adv-x="682" 
d="M95 440l38 181h552l-37 -181h-553z" />
    <glyph glyph-name="hyphen" unicode="&#xad;" horiz-adv-x="682" 
d="M95 440l38 181h552l-37 -181h-553z" />
    <glyph glyph-name="period" unicode="." horiz-adv-x="569" 
d="M118 0l43 205h205l-44 -205h-204z" />
    <glyph glyph-name="slash" unicode="/" horiz-adv-x="569" 
d="M-104 -24l788 1515h157l-788 -1515h-157z" />
    <glyph glyph-name="zero" unicode="0" 
d="M145 481q0 186 55.5 378t123.5 307t141 180t143.5 95.5t156.5 30.5q168 0 280.5 -125t112.5 -361q0 -243 -78 -481q-92 -282 -256 -423q-126 -107 -287 -107q-165 0 -278.5 129.5t-113.5 376.5zM320 435q0 -135 45 -211q61 -105 181 -105q105 0 191 95
q124 134 186.5 392.5t62.5 422.5q0 158 -60.5 228t-159.5 70q-72 0 -134.5 -37t-119.5 -127q-81 -127 -141 -380q-51 -216 -51 -348z" />
    <glyph glyph-name="one" unicode="1" 
d="M493 0l232 1107q-150 -118 -422 -189l34 164q135 54 266.5 141t197.5 152q40 40 76 97h105l-307 -1472h-182z" />
    <glyph glyph-name="two" unicode="2" 
d="M120 0q28 131 77.5 219.5t131.5 168t316 266.5q142 113 194 167q75 78 109 153q23 51 23 111q0 101 -71.5 171.5t-175.5 70.5q-103 0 -180 -71.5t-110 -229.5l-177 26q26 195 151.5 307.5t312.5 112.5q125 0 226.5 -52t152.5 -146t51 -194q0 -146 -104 -281
q-64 -84 -376 -331q-134 -106 -199.5 -174t-98.5 -128h656l-35 -166h-874z" />
    <glyph glyph-name="three" unicode="3" 
d="M112 384l176 22q20 -154 88.5 -220.5t179.5 -66.5q134 0 231.5 96t97.5 220q0 108 -73 178.5t-196 70.5q-14 0 -58 -4l31 151q26 -4 50 -4q155 0 238.5 75.5t83.5 185.5q0 101 -68.5 170t-167.5 69q-97 0 -174.5 -70.5t-99.5 -199.5l-178 36q44 181 169 280t296 99
q180 0 291.5 -109t111.5 -268q0 -116 -60.5 -202.5t-181.5 -143.5q86 -51 128.5 -123t42.5 -165q0 -197 -147.5 -341.5t-352.5 -144.5q-199 0 -321.5 111.5t-136.5 297.5z" />
    <glyph glyph-name="four" unicode="4" 
d="M612 0l79 374h-598l38 179l821 913h148l-195 -932h206l-33 -160h-206l-79 -374h-181zM724 534l128 612l-546 -612h418z" />
    <glyph glyph-name="five" unicode="5" 
d="M143 419l184 18q-2 -39 -2 -47q0 -66 33.5 -133t91 -102.5t121.5 -35.5q84 0 171 58t141 169t54 220q0 123 -72.5 197t-190.5 74q-79 0 -149.5 -38t-131.5 -114l-158 11l221 750h716l-35 -166h-557l-110 -373q62 45 127.5 67.5t134.5 22.5q168 0 276 -111t108 -304
q0 -169 -74 -311.5t-203.5 -219t-279.5 -76.5q-126 0 -223 57t-145.5 157t-48.5 200q0 10 1 30z" />
    <glyph glyph-name="six" unicode="6" 
d="M412 850q76 63 151.5 94.5t149.5 31.5q167 0 276 -114t109 -307q0 -249 -162 -427q-140 -153 -340 -153q-182 0 -303.5 133.5t-121.5 380.5q0 221 78 457q60 181 148.5 298.5t188 172.5t224.5 55q150 0 245 -93.5t108 -267.5l-168 -16q-14 119 -67.5 172t-130.5 53
q-81 0 -163 -63t-141 -186.5t-81 -220.5zM349 412q0 -124 77 -208.5t174 -84.5q68 0 144 51.5t129 156.5t53 209q0 134 -73.5 214.5t-177.5 80.5q-120 0 -223 -117.5t-103 -301.5z" />
    <glyph glyph-name="seven" unicode="7" 
d="M297 0q24 148 102 356q93 251 244 498.5t336 425.5h-731l35 166h936l-34 -166q-238 -209 -416 -539q-207 -381 -283 -741h-189z" />
    <glyph glyph-name="eight" unicode="8" 
d="M462 806q-82 45 -123 115.5t-41 151.5q0 133 96 246q128 153 347 153q193 0 304 -103.5t111 -253.5q0 -107 -60 -193t-188 -137q88 -55 126 -117q49 -81 49 -189q0 -197 -139.5 -351t-371.5 -154q-185 0 -302 114t-117 285q0 161 83 276.5t226 156.5zM476 1065
q0 -94 60.5 -151.5t166.5 -57.5q124 0 201.5 75.5t77.5 185.5q0 93 -60.5 151.5t-166.5 58.5q-80 0 -147 -37t-99.5 -100.5t-32.5 -124.5zM335 358q0 -61 29.5 -117t89.5 -89t137 -33q147 0 238 138q72 108 72 233q0 102 -66.5 167t-174.5 65q-136 0 -230.5 -101t-94.5 -263
z" />
    <glyph glyph-name="nine" unicode="9" 
d="M138 336l170 17q17 -123 70 -175t126 -52q104 0 193 90q131 132 193 379q-91 -68 -161.5 -97t-144.5 -29q-134 0 -240 90q-140 117 -140 336q0 248 162 425q139 152 341 152q182 0 302 -134.5t120 -380.5q0 -239 -80 -472q-95 -274 -257 -404q-132 -106 -297 -106
q-152 0 -248.5 94.5t-108.5 266.5zM379 916q0 -138 73.5 -220t174.5 -82q75 0 149 51t127 152.5t53 208.5q0 84 -35 156t-95.5 108.5t-122.5 36.5q-60 0 -118 -32t-107.5 -94t-74 -142.5t-24.5 -142.5z" />
    <glyph glyph-name="colon" unicode=":" horiz-adv-x="569" 
d="M296 857l43 205h204l-42 -205h-205zM117 0l43 205h205l-44 -205h-204z" />
    <glyph glyph-name="semicolon" unicode=";" horiz-adv-x="569" 
d="M290 857l43 205h204l-43 -205h-204zM111 0l43 205h206l-37 -179q-34 -161 -105.5 -236t-168.5 -86l17 79q119 33 157 217h-112z" />
    <glyph glyph-name="semicolon" unicode="&#x37e;" horiz-adv-x="569" 
d="M290 857l43 205h204l-43 -205h-204zM111 0l43 205h206l-37 -179q-34 -161 -105.5 -236t-168.5 -86l17 79q119 33 157 217h-112z" />
    <glyph glyph-name="less" unicode="&#x3c;" horiz-adv-x="1196" 
d="M184 641v168l971 410v-179l-770 -316l770 -319v-179z" />
    <glyph glyph-name="equal" unicode="=" horiz-adv-x="1196" 
d="M1152 862h-968v168h968v-168zM1152 417h-968v168h968v-168z" />
    <glyph glyph-name="greater" unicode="&#x3e;" horiz-adv-x="1196" 
d="M1155 641l-971 -415v179l769 319l-769 316v179l971 -410v-168z" />
    <glyph glyph-name="question" unicode="?" 
d="M429 367q10 91 41 161.5t96 144.5q38 42 179 156.5t182.5 185t41.5 130.5q0 80 -66.5 140.5t-171.5 60.5q-114 0 -189.5 -71.5t-100.5 -239.5l-181 30q43 214 166.5 320t299.5 106q121 0 220.5 -49t150.5 -134t51 -176q0 -111 -74 -212q-55 -76 -247 -229
q-131 -106 -171 -166t-56 -158h-171zM340 0l43 205h205l-43 -205h-205z" />
    <glyph glyph-name="at" unicode="@" horiz-adv-x="2079" 
d="M1161 163q-65 -75 -145.5 -120.5t-161.5 -45.5q-89 0 -173 52t-136.5 160t-52.5 237q0 159 81.5 318.5t202.5 239.5t235 80q87 0 166 -45.5t136 -138.5l34 155h179l-144 -671q-30 -140 -30 -155q0 -27 20.5 -46.5t49.5 -19.5q53 0 139 61q114 80 180.5 214.5t66.5 277.5
q0 167 -85.5 312t-255 232t-374.5 87q-234 0 -427.5 -109.5t-300 -314t-106.5 -438.5q0 -245 106.5 -422t308 -261.5t446.5 -84.5q262 0 439 88t265 214h181q-51 -105 -175 -214t-295 -172.5t-412 -63.5q-222 0 -409.5 57t-319.5 171.5t-199 263.5q-84 189 -84 408
q0 244 100 465q122 271 346.5 415t544.5 144q248 0 445.5 -101.5t311.5 -302.5q97 -173 97 -376q0 -290 -204 -515q-182 -202 -398 -202q-69 0 -111.5 21t-62.5 60q-13 25 -19 86zM677 434q0 -137 65 -213t149 -76q56 0 118 33.5t118.5 99.5t92.5 167.5t36 203.5
q0 136 -67.5 211t-164.5 75q-64 0 -120.5 -32.5t-109.5 -104.5t-85 -175t-32 -189z" />
    <glyph glyph-name="A" unicode="A" horiz-adv-x="1366" 
d="M-41 0l831 1466h231l242 -1466h-190l-71 422h-593l-235 -422h-215zM493 573h485l-57 368q-33 219 -41 365q-50 -126 -146 -299z" />
    <glyph glyph-name="B" unicode="B" horiz-adv-x="1366" 
d="M89 0l307 1466h454q124 0 184 -10q98 -17 165.5 -59.5t104.5 -116t37 -162.5q0 -121 -66.5 -213t-203.5 -140q119 -39 178 -117.5t59 -183.5q0 -121 -69.5 -232t-184 -171.5t-255.5 -60.5h-710zM461 840h297q213 0 306.5 68t93.5 198q0 62 -29 107t-77.5 65.5
t-182.5 20.5h-312zM320 166h334q133 0 179 9q93 16 151 54.5t91 101.5t33 132q0 103 -64.5 156.5t-245.5 53.5h-372z" />
    <glyph glyph-name="C" unicode="C" horiz-adv-x="1479" 
d="M1235 516l194 -27q-92 -254 -268 -384t-395 -130q-267 0 -423.5 163t-156.5 467q0 396 238 655q212 231 527 231q233 0 377.5 -125t167.5 -336l-183 -17q-29 159 -119.5 237.5t-233.5 78.5q-269 0 -435 -239q-144 -206 -144 -489q0 -226 111 -345t289 -119q152 0 275 99
t179 280z" />
    <glyph glyph-name="D" unicode="D" horiz-adv-x="1479" 
d="M91 0l306 1466h442q159 0 243 -23q120 -31 205 -110.5t128 -198.5t43 -267q0 -177 -53.5 -322.5t-140 -256t-181 -173t-223.5 -92.5q-98 -23 -241 -23h-528zM322 166h232q157 0 279 29q76 18 130 53q71 45 129 119q76 98 121.5 223.5t45.5 285.5q0 178 -62 273.5
t-158 126.5q-71 23 -221 23h-259z" />
    <glyph glyph-name="E" unicode="E" horiz-adv-x="1366" 
d="M92 0l307 1466h1058l-35 -167h-862l-96 -456h840l-35 -167h-840l-106 -510h923l-35 -166h-1119z" />
    <glyph glyph-name="F" unicode="F" horiz-adv-x="1251" 
d="M93 0l306 1466h953l-35 -167h-757l-97 -467h771l-35 -167h-771l-139 -665h-196z" />
    <glyph glyph-name="G" unicode="G" horiz-adv-x="1593" 
d="M839 578l35 166h642l-125 -597q-121 -76 -276 -124t-305 -48q-320 0 -478 193q-133 163 -133 419q0 264 116.5 480.5t294 320t394.5 103.5q156 0 280 -56.5t190 -151t95 -246.5l-192 -21q-31 151 -128.5 231.5t-250.5 80.5q-159 0 -297 -86.5t-220.5 -261t-82.5 -396.5
q0 -221 109 -334t301 -113q191 0 411 126l66 315h-446z" />
    <glyph glyph-name="H" unicode="H" horiz-adv-x="1479" 
d="M86 0l307 1466h195l-127 -609h760l127 609h196l-306 -1466h-196l144 691h-759l-145 -691h-196z" />
    <glyph glyph-name="I" unicode="I" horiz-adv-x="569" 
d="M117 0l307 1466h195l-306 -1466h-196z" />
    <glyph glyph-name="J" unicode="J" horiz-adv-x="1024" 
d="M83 427l182 13q-16 -85 -16 -125q0 -81 50.5 -129.5t140.5 -48.5q65 0 114.5 29.5t80.5 91.5q24 47 49 169l218 1039h195l-223 -1071q-47 -226 -157 -323t-281 -97q-182 0 -275 84t-93 236q0 67 15 132z" />
    <glyph glyph-name="K" unicode="K" horiz-adv-x="1366" 
d="M91 0l306 1466h196l-147 -706l796 706h276l-681 -597l499 -869h-219l-423 743l-307 -267l-100 -476h-196z" />
    <glyph glyph-name="L" unicode="L" 
d="M82 0l306 1466h196l-271 -1300h761l-35 -166h-957z" />
    <glyph glyph-name="M" unicode="M" horiz-adv-x="1706" 
d="M90 0l306 1466h241l148 -950q29 -187 38 -359q61 148 204 401l514 908h245l-306 -1466h-193l153 713q53 247 152 554q-63 -143 -156 -308l-546 -959h-189l-147 940q-20 129 -29 301q-25 -193 -49 -306l-195 -935h-191z" />
    <glyph glyph-name="N" unicode="N" horiz-adv-x="1479" 
d="M100 0l307 1466h190l247 -550q113 -252 179 -424q38 -100 88 -270q27 185 68 382l180 862h191l-306 -1466h-194l-364 847q-97 224 -151 395q-15 -143 -58 -351l-186 -891h-191z" />
    <glyph glyph-name="O" unicode="O" horiz-adv-x="1593" 
d="M187 614q0 392 226.5 634.5t549.5 242.5q274 0 446.5 -178.5t172.5 -478.5q0 -214 -87 -397q-65 -137 -164 -236.5t-212 -153.5q-150 -72 -318 -72q-176 0 -320.5 84t-219 234.5t-74.5 320.5zM380 604q0 -129 53.5 -237t159.5 -169t223 -61q113 0 215 53.5t182.5 149
t127 235t46.5 274.5q0 219 -122.5 349t-302.5 130q-230 0 -406 -196.5t-176 -527.5z" />
    <glyph glyph-name="P" unicode="P" horiz-adv-x="1366" 
d="M88 0l307 1466h612q159 0 238.5 -36.5t131.5 -125t52 -198.5q0 -91 -37 -185t-93.5 -155t-114.5 -92t-124 -46q-141 -33 -285 -33h-367l-124 -595h-196zM443 761h323q188 0 276 40.5t141 123.5t53 176q0 72 -28 117.5t-79 67t-196 21.5h-376z" />
    <glyph glyph-name="Q" unicode="Q" horiz-adv-x="1593" 
d="M1238 118q74 -88 200 -170l-87 -116q-133 87 -239 211q-149 -70 -284 -70q-108 0 -237 41t-216 124t-136.5 213.5t-49.5 288.5q0 191 73 366q61 144 158.5 248.5t213.5 161.5q153 75 331 75q274 0 446.5 -178.5t172.5 -478.5q0 -221 -92 -407.5t-254 -308.5zM1118 244
q121 94 196 258.5t75 342.5q0 222 -122 352.5t-299 130.5q-148 0 -285 -86.5t-219 -253.5t-82 -364q0 -247 154 -382q120 -105 257 -105q109 0 196 34q-91 83 -187 133l71 122q65 -28 117.5 -66.5t127.5 -115.5z" />
    <glyph glyph-name="R" unicode="R" horiz-adv-x="1479" 
d="M96 0l307 1466h615q182 0 276 -30.5t147.5 -114.5t53.5 -212q0 -179 -117 -297t-378 -153q80 -59 121 -116q92 -129 148 -267l112 -276h-219l-105 273q-57 148 -130 256q-50 75 -102 98.5t-169 23.5h-228l-136 -651h-196zM461 810h271q188 0 245 5q111 11 182 50t110 105
t39 142q0 64 -29 111.5t-76 64.5t-160 17h-478z" />
    <glyph glyph-name="S" unicode="S" horiz-adv-x="1366" 
d="M144 474l192 18l-2 -51q0 -85 39 -155.5t129 -109t214 -38.5q176 0 268.5 77t92.5 176q0 69 -49 126q-50 56 -273 152q-173 75 -236 115q-99 65 -146 141.5t-47 174.5q0 113 62 204t181.5 139t269.5 48q179 0 302 -60t178.5 -160t55.5 -191q0 -9 -1 -30l-189 -15
q0 62 -11 97q-20 61 -62 103t-115.5 67.5t-164.5 25.5q-160 0 -249 -72q-68 -55 -68 -146q0 -54 28 -96.5t101 -83.5q52 -29 247 -115q158 -70 218 -110q80 -53 123 -128.5t43 -171.5q0 -119 -72.5 -219.5t-200.5 -155.5t-293 -55q-249 0 -406.5 108.5t-158.5 390.5z" />
    <glyph glyph-name="T" unicode="T" horiz-adv-x="1251" 
d="M465 0l271 1299h-481l35 167h1154l-35 -167h-477l-271 -1299h-196z" />
    <glyph glyph-name="U" unicode="U" horiz-adv-x="1479" 
d="M406 1466h196l-188 -901q-23 -112 -23 -166q0 -118 93 -190t234 -72q112 0 208.5 51.5t152.5 151.5t101 319l169 807h196l-179 -860q-46 -220 -121 -348.5t-208 -206t-309 -77.5q-166 0 -287.5 55t-182 152t-60.5 220q0 77 41 265z" />
    <glyph glyph-name="V" unicode="V" horiz-adv-x="1366" 
d="M536 0l-282 1466h189l170 -874q47 -238 61 -384q92 188 151 298l523 960h202l-804 -1466h-210z" />
    <glyph glyph-name="W" unicode="W" horiz-adv-x="1933" 
d="M346 0l-90 1466h199l34 -725q3 -52 10 -282q2 -64 2 -90q0 -17 -1 -99q122 250 176 352l446 844h202l49 -857q8 -147 11 -354q18 51 64 152q73 163 108 233l418 826h200l-746 -1466h-210l-49 888q-7 114 -11 280q-61 -139 -102 -216l-508 -952h-202z" />
    <glyph glyph-name="X" unicode="X" horiz-adv-x="1366" 
d="M-65 0l700 741l-415 725h216l189 -332q75 -131 86 -153q26 -49 57 -117q74 100 229 263l322 339h256l-709 -757l402 -709h-213l-238 429q-35 63 -81 162q-54 -73 -132 -155l-409 -436h-260z" />
    <glyph glyph-name="Y" unicode="Y" horiz-adv-x="1366" 
d="M572 0l118 567l-451 899h210l216 -428q71 -140 138 -300q74 136 202 297l344 431h234l-700 -914l-115 -552h-196z" />
    <glyph glyph-name="Z" unicode="Z" horiz-adv-x="1251" 
d="M50 0l19 147l734 877l152 184q46 56 89 103q-93 -11 -130 -11l-48 1l-58 -1l-57 -1h-493l35 167h1011l-17 -153l-787 -935q-145 -173 -184 -217q44 6 57 6h799l-35 -167h-1087z" />
    <glyph glyph-name="bracketleft" unicode="[" horiz-adv-x="569" 
d="M13 -401l385 1867h403l-29 -139h-219l-332 -1589h221l-29 -139h-400z" />
    <glyph glyph-name="backslash" unicode="\" horiz-adv-x="569" 
d="M420 -24l-246 1515h140l246 -1515h-140z" />
    <glyph glyph-name="bracketright" unicode="]" horiz-adv-x="569" 
d="M280 -401h-400l29 139h221l332 1589h-220l29 139h403z" />
    <glyph glyph-name="asciicircum" unicode="^" horiz-adv-x="961" 
d="M329 690h-185l353 801h145l355 -801h-181l-247 597z" />
    <glyph glyph-name="underscore" unicode="_" 
d="M-130 -407v130h1193v-130h-1193z" />
    <glyph glyph-name="grave" unicode="`" horiz-adv-x="682" 
d="M493 1191l-195 275h220l116 -275h-141z" />
    <glyph glyph-name="a" unicode="a" 
d="M784 132q-94 -81 -181 -118.5t-186 -37.5q-147 0 -237 86.5t-90 221.5q0 89 40.5 157.5t107.5 110t164 59.5q61 12 231.5 19t244.5 36q21 74 21 123q0 63 -46 99q-63 50 -184 50q-114 0 -186.5 -50.5t-105.5 -143.5l-183 16q56 158 177.5 242t306.5 84q197 0 312 -94
q88 -70 88 -182q0 -85 -25 -197l-59 -264q-28 -126 -28 -205q0 -50 22 -144h-183q-15 52 -21 132zM851 538q-38 -15 -81.5 -23t-145.5 -17q-158 -14 -223 -35.5t-98 -68.5t-33 -104q0 -76 52.5 -125t149.5 -49q90 0 173 47.5t131 132.5t75 242z" />
    <glyph glyph-name="b" unicode="b" 
d="M68 0l306 1466h181l-109 -524q86 79 156 111.5t146 32.5q149 0 248.5 -111t99.5 -323q0 -141 -40 -258t-99 -196.5t-122 -127t-129 -71t-127 -23.5q-105 0 -185 55.5t-125 169.5l-42 -201h-159zM336 436l-1 -34q0 -136 65 -207t162 -71q95 0 174.5 66.5t130.5 207.5
t51 260q0 134 -64.5 208t-159.5 74q-98 0 -180 -75.5t-137 -232.5q-41 -117 -41 -196z" />
    <glyph glyph-name="c" unicode="c" horiz-adv-x="1024" 
d="M801 387l181 -19q-68 -199 -193.5 -295.5t-285.5 -96.5q-173 0 -280.5 112t-107.5 313q0 174 69 342t197.5 255.5t293.5 87.5q171 0 271 -96.5t100 -255.5l-178 -12q-1 101 -58.5 158t-151.5 57q-109 0 -189 -69t-125.5 -209.5t-45.5 -270.5q0 -136 60 -204t148 -68
t168.5 67t126.5 204z" />
    <glyph glyph-name="d" unicode="d" 
d="M784 154q-155 -178 -324 -178q-151 0 -251.5 111.5t-100.5 323.5q0 194 79.5 354.5t199 240.5t239.5 80q198 0 299 -191l120 571h180l-306 -1466h-167zM288 445q0 -111 22 -175t75 -106.5t127 -42.5q123 0 223 128q134 170 134 420q0 126 -66 197t-166 71
q-65 0 -118.5 -29t-106 -98.5t-88.5 -176.5t-36 -188z" />
    <glyph glyph-name="e" unicode="e" 
d="M848 361l176 -18q-38 -131 -174.5 -249t-325.5 -118q-118 0 -216.5 54.5t-150 158.5t-51.5 237q0 174 80.5 337.5t208.5 243t277 79.5q190 0 303.5 -118t113.5 -322q0 -78 -14 -160h-782q-4 -31 -4 -56q0 -149 68.5 -227.5t167.5 -78.5q93 0 183 61t140 176zM322 624h596
q1 28 1 40q0 136 -68 208.5t-175 72.5q-116 0 -211.5 -80t-142.5 -241z" />
    <glyph glyph-name="f" unicode="f" horiz-adv-x="569" 
d="M93 0l193 922h-162l29 140h162l31 151q24 113 49.5 163t83 82.5t156.5 32.5q69 0 200 -29l-33 -158q-92 24 -154 24q-53 0 -80.5 -26.5t-47.5 -125.5l-24 -114h202l-29 -140h-202l-193 -922h-181z" />
    <glyph glyph-name="g" unicode="g" 
d="M58 -96l183 -17q-2 -62 15 -93t54 -48q49 -22 127 -22q164 0 236 85q47 57 87 248l18 86q-141 -143 -300 -143q-161 0 -269.5 118.5t-108.5 335.5q0 179 85.5 329t203.5 226.5t243 76.5q209 0 322 -198l36 174h166l-214 -1025q-35 -169 -92 -263.5t-158.5 -146.5
t-234.5 -52q-128 0 -220.5 33t-138 96.5t-45.5 145.5q0 25 5 54zM284 470q0 -109 21 -164q30 -77 85.5 -117.5t123.5 -40.5q89 0 177 62.5t142.5 193.5t54.5 250q0 131 -72.5 208.5t-179.5 77.5q-66 0 -128 -35.5t-115.5 -108t-81 -173.5t-27.5 -153z" />
    <glyph glyph-name="h" unicode="h" 
d="M68 0l306 1466h181l-117 -563q101 98 188 140.5t179 42.5q132 0 205 -69.5t73 -183.5q0 -56 -32 -206l-131 -627h-181l135 643q29 140 29 176q0 52 -36 85t-104 33q-98 0 -187 -51.5t-139.5 -141t-92.5 -288.5l-95 -456h-181z" />
    <glyph glyph-name="i" unicode="i" horiz-adv-x="455" 
d="M325 1261l43 205h180l-43 -205h-180zM61 0l222 1062h181l-222 -1062h-181z" />
    <glyph glyph-name="j" unicode="j" horiz-adv-x="455" 
d="M325 1261l43 205h179l-43 -205h-179zM-248 -399l32 154q62 -17 110 -17q58 0 92.5 38.5t71.5 213.5l223 1072h181l-230 -1105q-43 -207 -99 -282q-75 -100 -209 -100q-71 0 -172 26z" />
    <glyph glyph-name="k" unicode="k" horiz-adv-x="1024" 
d="M70 0l307 1466h180l-190 -909l528 505h239l-453 -396l274 -666h-198l-212 545l-220 -190l-74 -355h-181z" />
    <glyph glyph-name="l" unicode="l" horiz-adv-x="455" 
d="M54 0l306 1466h181l-306 -1466h-181z" />
    <glyph glyph-name="m" unicode="m" horiz-adv-x="1706" 
d="M67 0l222 1062h181l-37 -175q101 113 180.5 156t172.5 43q99 0 165.5 -52.5t87.5 -146.5q81 100 170.5 149.5t188.5 49.5q133 0 199.5 -63t66.5 -177q0 -49 -23 -162l-143 -684h-181l146 702q19 86 19 123q0 52 -33 82t-93 30q-81 0 -165 -49t-130.5 -128.5t-81.5 -244.5
l-108 -515h-181l150 717q16 73 16 104q0 52 -32.5 84t-84.5 32q-77 0 -161.5 -49t-137.5 -136.5t-87 -249.5l-105 -502h-181z" />
    <glyph glyph-name="n" unicode="n" 
d="M68 0l222 1062h164l-39 -185q107 109 200 159t190 50q129 0 202.5 -70t73.5 -187q0 -59 -26 -186l-135 -643h-181l141 673q21 98 21 145q0 53 -36.5 86t-105.5 33q-139 0 -247.5 -100t-159.5 -343l-103 -494h-181z" />
    <glyph glyph-name="o" unicode="o" 
d="M100 403q0 311 183 515q151 168 396 168q192 0 309.5 -120t117.5 -324q0 -183 -74 -340.5t-210.5 -241.5t-287.5 -84q-124 0 -225.5 53t-155 150t-53.5 224zM281 421q0 -150 72 -227.5t183 -77.5q58 0 115 23.5t106 71.5t83.5 109.5t55.5 132.5q31 99 31 190
q0 144 -72.5 223.5t-182.5 79.5q-85 0 -155 -40.5t-126.5 -118.5t-83 -181.5t-26.5 -184.5z" />
    <glyph glyph-name="p" unicode="p" 
d="M-21 -407l307 1469h167l-31 -148q93 97 166.5 134.5t155.5 37.5q152 0 252 -110.5t100 -316.5q0 -166 -55 -302.5t-135 -219.5t-162 -122t-168 -39q-191 0 -296 194l-120 -577h-181zM337 434q0 -119 17 -165q25 -65 82 -105t132 -40q156 0 252 175.5t96 358.5
q0 135 -64.5 208.5t-160.5 73.5q-69 0 -128 -36.5t-109.5 -109t-83.5 -177.5t-33 -183z" />
    <glyph glyph-name="q" unicode="q" 
d="M754 120q-155 -144 -297 -144q-148 0 -250 112.5t-102 319.5q0 198 77.5 358t198 240t248.5 80q97 0 176.5 -54.5t128.5 -164.5l41 195h156l-306 -1469h-181zM284 432q0 -157 65 -232.5t162 -75.5q82 0 165.5 68t137 204t53.5 263q0 130 -67 204t-164 74q-95 0 -166 -62
q-93 -80 -146 -231q-40 -116 -40 -212z" />
    <glyph glyph-name="r" unicode="r" horiz-adv-x="682" 
d="M68 0l222 1062h160l-45 -217q82 123 160.5 182t160.5 59q54 0 133 -39l-74 -168q-47 34 -103 34q-95 0 -195 -106t-157 -381l-90 -426h-172z" />
    <glyph glyph-name="s" unicode="s" horiz-adv-x="1024" 
d="M85 363l181 11q0 -78 24 -133t88.5 -90t150.5 -35q120 0 180 48t60 113q0 47 -36 89q-37 42 -180.5 103.5t-183.5 86.5q-67 41 -101 96.5t-34 127.5q0 126 100 216t280 90q200 0 304.5 -92.5t108.5 -243.5l-177 -12q-4 96 -68 152t-181 56q-94 0 -146 -43t-52 -93t45 -88
q30 -26 155 -80q208 -90 262 -142q86 -83 86 -202q0 -79 -48.5 -155t-148 -121.5t-234.5 -45.5q-184 0 -313 91t-122 296z" />
    <glyph glyph-name="t" unicode="t" horiz-adv-x="569" 
d="M491 147l-30 -148q-65 -17 -126 -17q-108 0 -172 53q-48 40 -48 109q0 35 26 161l129 617h-143l29 140h143l55 261l207 125l-81 -386h178l-30 -140h-177l-123 -587q-23 -112 -23 -134q0 -32 18.5 -49t60.5 -17q60 0 107 12z" />
    <glyph glyph-name="u" unicode="u" 
d="M793 192q-191 -216 -391 -216q-123 0 -198.5 70.5t-75.5 172.5q0 67 34 230l128 613h181l-142 -679q-18 -85 -18 -132q0 -60 36.5 -93.5t107.5 -33.5q76 0 148.5 37t125 100t85.5 149q22 55 51 193l96 459h181l-222 -1062h-167z" />
    <glyph glyph-name="v" unicode="v" horiz-adv-x="1024" 
d="M336 0l-174 1062h176l91 -585q15 -96 37 -313q52 113 133 259l355 639h191l-608 -1062h-201z" />
    <glyph glyph-name="w" unicode="w" horiz-adv-x="1479" 
d="M270 0l-111 1062h174l48 -477l19 -268q2 -30 6 -121q30 102 51 156.5t67 155.5l253 554h197l35 -531q8 -121 10 -323q50 134 163 372l228 482h181l-519 -1062h-188l-40 623q-4 58 -6 226q-41 -107 -97 -231l-281 -618h-190z" />
    <glyph glyph-name="x" unicode="x" horiz-adv-x="1024" 
d="M-3 0l462 539l-265 523h200l90 -189q50 -106 90 -203l306 392h221l-446 -537l268 -525h-200l-106 216q-34 69 -77 171l-316 -387h-227z" />
    <glyph glyph-name="y" unicode="y" horiz-adv-x="1024" 
d="M0 -410l11 170q56 -16 109 -16q55 0 89 25q44 33 96 124l58 104l-177 1065h178l80 -537q24 -159 41 -318l475 855h189l-677 -1203q-98 -176 -174 -233t-175 -57q-63 0 -123 21z" />
    <glyph glyph-name="z" unicode="z" horiz-adv-x="1024" 
d="M40 0l29 140l571 643q61 68 136 141q-129 -13 -185 -13h-395l32 151h821l-24 -114l-576 -647q-49 -55 -146 -151q151 9 207 9h418l-33 -159h-855z" />
    <glyph glyph-name="braceleft" unicode="{" horiz-adv-x="684" 
d="M142 612q77 2 134 41t93 119q28 61 64.5 227.5t56.5 226.5q27 83 64.5 134.5t80.5 79.5t105 43q35 8 116 8h56l-34 -157h-31q-85 0 -122.5 -20.5t-57.5 -65t-53 -193.5q-42 -198 -78 -285.5t-90.5 -142t-154.5 -97.5q72 -33 106.5 -89.5t34.5 -149.5q0 -78 -45 -285
q-32 -146 -32 -184t15 -60q11 -17 38.5 -26.5t120.5 -9.5l-34 -157h-55q-94 0 -132 13q-58 20 -91 67.5t-33 125.5q0 68 46 286q35 165 35 223q0 80 -40 121.5t-118 43.5z" />
    <glyph glyph-name="bar" unicode="|" horiz-adv-x="532" 
d="M188 -431v1922h157v-1922h-157z" />
    <glyph glyph-name="braceright" unicode="}" horiz-adv-x="684" 
d="M633 612l-35 -163q-76 -2 -133.5 -41t-89.5 -109t-68.5 -237.5t-54.5 -223.5q-28 -85 -66 -137t-81.5 -80.5t-105.5 -43.5q-34 -8 -115 -8h-56l34 157h31q85 0 122.5 21t60.5 71q17 37 49 188q41 189 70 262q39 102 100 164t154 98q-78 41 -109.5 93.5t-31.5 147.5
q0 77 45 284q32 145 32 184q0 51 -27.5 73t-115.5 22h-31l34 157h55q94 0 132 -13q59 -20 91.5 -67t32.5 -126q0 -66 -33 -222q-48 -231 -48 -287q0 -80 40 -121t118 -43z" />
    <glyph glyph-name="asciitilde" unicode="~" horiz-adv-x="1196" 
d="M164 557v205q106 120 278 120q60 0 126 -17.5t188 -69.5q69 -29 103.5 -38t69.5 -9q65 0 134.5 39t123.5 98v-212q-64 -60 -129.5 -87t-147.5 -27q-60 0 -114.5 14t-173 67t-197.5 53q-64 0 -120.5 -27.5t-140.5 -108.5z" />
    <glyph glyph-name="Adieresis" unicode="&#xc4;" horiz-adv-x="1366" 
d="M-41 0l831 1466h231l242 -1466h-190l-71 422h-593l-235 -422h-215zM493 573h485l-57 368q-33 219 -41 365q-50 -126 -146 -299zM617 1556l43 205h189l-43 -205h-189zM986 1556l43 205h188l-42 -205h-189z" />
    <glyph glyph-name="Aring" unicode="&#xc5;" horiz-adv-x="1366" 
d="M-41 0l831 1466h231l242 -1466h-190l-71 422h-593l-235 -422h-215zM493 573h485l-57 368q-33 219 -41 365q-50 -126 -146 -299zM751 1586q0 76 53.5 129t128.5 53q76 0 129 -53.5t53 -128.5q0 -76 -53.5 -129t-128.5 -53t-128.5 53t-53.5 129zM826 1586q0 -45 31.5 -76.5
t75.5 -31.5q45 0 76.5 31.5t31.5 76.5q0 44 -31.5 75.5t-76.5 31.5q-44 0 -75.5 -31.5t-31.5 -75.5z" />
    <glyph glyph-name="Ccedilla" unicode="&#xc7;" horiz-adv-x="1479" 
d="M1235 516l194 -27q-92 -254 -268 -384t-395 -130q-267 0 -423.5 163t-156.5 467q0 396 238 655q212 231 527 231q233 0 377.5 -125t167.5 -336l-183 -17q-29 159 -119.5 237.5t-233.5 78.5q-269 0 -435 -239q-144 -206 -144 -489q0 -226 111 -345t289 -119q152 0 275 99
t179 280zM552 -155l41 161h140l-24 -90q88 -12 134 -60.5t46 -109.5q0 -72 -61 -115q-88 -62 -281 -62q-97 0 -170 12l22 112q61 -3 146 -3q103 0 136.5 22t33.5 49q0 32 -29 53q-43 30 -134 31z" />
    <glyph glyph-name="Eacute" unicode="&#xc9;" horiz-adv-x="1366" 
d="M92 0l307 1466h1058l-35 -167h-862l-96 -456h840l-35 -167h-840l-106 -510h923l-35 -166h-1119zM745 1556l188 275h228l-266 -275h-150z" />
    <glyph glyph-name="Ntilde" unicode="&#xd1;" horiz-adv-x="1479" 
d="M100 0l307 1466h190l247 -550q113 -252 179 -424q38 -100 88 -270q27 185 68 382l180 862h191l-306 -1466h-194l-364 847q-97 224 -151 395q-15 -143 -58 -351l-186 -891h-191zM661 1553q33 133 81.5 178.5t121.5 45.5q33 0 64.5 -8t109.5 -42.5t107 -34.5q23 0 41 16.5
t30 62.5h121q-10 -103 -66.5 -161t-130.5 -58q-40 0 -101 26q-138 60 -170 60t-53 -20.5t-30 -64.5h-125z" />
    <glyph glyph-name="Odieresis" unicode="&#xd6;" horiz-adv-x="1593" 
d="M187 614q0 392 226.5 634.5t549.5 242.5q274 0 446.5 -178.5t172.5 -478.5q0 -214 -87 -397q-65 -137 -164 -236.5t-212 -153.5q-150 -72 -318 -72q-176 0 -320.5 84t-219 234.5t-74.5 320.5zM380 604q0 -129 53.5 -237t159.5 -169t223 -61q113 0 215 53.5t182.5 149
t127 235t46.5 274.5q0 219 -122.5 349t-302.5 130q-230 0 -406 -196.5t-176 -527.5zM684 1556l43 205h189l-43 -205h-189zM1053 1556l43 205h188l-42 -205h-189z" />
    <glyph glyph-name="Udieresis" unicode="&#xdc;" horiz-adv-x="1479" 
d="M406 1466h196l-188 -901q-23 -112 -23 -166q0 -118 93 -190t234 -72q112 0 208.5 51.5t152.5 151.5t101 319l169 807h196l-179 -860q-46 -220 -121 -348.5t-208 -206t-309 -77.5q-166 0 -287.5 55t-182 152t-60.5 220q0 77 41 265zM703 1556l43 205h189l-43 -205h-189z
M1072 1556l43 205h188l-42 -205h-189z" />
    <glyph glyph-name="aacute" unicode="&#xe1;" 
d="M784 132q-94 -81 -181 -118.5t-186 -37.5q-147 0 -237 86.5t-90 221.5q0 89 40.5 157.5t107.5 110t164 59.5q61 12 231.5 19t244.5 36q21 74 21 123q0 63 -46 99q-63 50 -184 50q-114 0 -186.5 -50.5t-105.5 -143.5l-183 16q56 158 177.5 242t306.5 84q197 0 312 -94
q88 -70 88 -182q0 -85 -25 -197l-59 -264q-28 -126 -28 -205q0 -50 22 -144h-183q-15 52 -21 132zM851 538q-38 -15 -81.5 -23t-145.5 -17q-158 -14 -223 -35.5t-98 -68.5t-33 -104q0 -76 52.5 -125t149.5 -49q90 0 173 47.5t131 132.5t75 242zM555 1191l188 275h228
l-266 -275h-150z" />
    <glyph glyph-name="agrave" unicode="&#xe0;" 
d="M784 132q-94 -81 -181 -118.5t-186 -37.5q-147 0 -237 86.5t-90 221.5q0 89 40.5 157.5t107.5 110t164 59.5q61 12 231.5 19t244.5 36q21 74 21 123q0 63 -46 99q-63 50 -184 50q-114 0 -186.5 -50.5t-105.5 -143.5l-183 16q56 158 177.5 242t306.5 84q197 0 312 -94
q88 -70 88 -182q0 -85 -25 -197l-59 -264q-28 -126 -28 -205q0 -50 22 -144h-183q-15 52 -21 132zM851 538q-38 -15 -81.5 -23t-145.5 -17q-158 -14 -223 -35.5t-98 -68.5t-33 -104q0 -76 52.5 -125t149.5 -49q90 0 173 47.5t131 132.5t75 242zM766 1191l-195 275h220
l116 -275h-141z" />
    <glyph glyph-name="acircumflex" unicode="&#xe2;" 
d="M784 132q-94 -81 -181 -118.5t-186 -37.5q-147 0 -237 86.5t-90 221.5q0 89 40.5 157.5t107.5 110t164 59.5q61 12 231.5 19t244.5 36q21 74 21 123q0 63 -46 99q-63 50 -184 50q-114 0 -186.5 -50.5t-105.5 -143.5l-183 16q56 158 177.5 242t306.5 84q197 0 312 -94
q88 -70 88 -182q0 -85 -25 -197l-59 -264q-28 -126 -28 -205q0 -50 22 -144h-183q-15 52 -21 132zM851 538q-38 -15 -81.5 -23t-145.5 -17q-158 -14 -223 -35.5t-98 -68.5t-33 -104q0 -76 52.5 -125t149.5 -49q90 0 173 47.5t131 132.5t75 242zM432 1191l265 275h200
l124 -275h-158l-80 178l-165 -178h-186z" />
    <glyph glyph-name="adieresis" unicode="&#xe4;" 
d="M784 132q-94 -81 -181 -118.5t-186 -37.5q-147 0 -237 86.5t-90 221.5q0 89 40.5 157.5t107.5 110t164 59.5q61 12 231.5 19t244.5 36q21 74 21 123q0 63 -46 99q-63 50 -184 50q-114 0 -186.5 -50.5t-105.5 -143.5l-183 16q56 158 177.5 242t306.5 84q197 0 312 -94
q88 -70 88 -182q0 -85 -25 -197l-59 -264q-28 -126 -28 -205q0 -50 22 -144h-183q-15 52 -21 132zM851 538q-38 -15 -81.5 -23t-145.5 -17q-158 -14 -223 -35.5t-98 -68.5t-33 -104q0 -76 52.5 -125t149.5 -49q90 0 173 47.5t131 132.5t75 242zM446 1227l43 205h189
l-43 -205h-189zM815 1227l43 205h188l-42 -205h-189z" />
    <glyph glyph-name="atilde" unicode="&#xe3;" 
d="M784 132q-94 -81 -181 -118.5t-186 -37.5q-147 0 -237 86.5t-90 221.5q0 89 40.5 157.5t107.5 110t164 59.5q61 12 231.5 19t244.5 36q21 74 21 123q0 63 -46 99q-63 50 -184 50q-114 0 -186.5 -50.5t-105.5 -143.5l-183 16q56 158 177.5 242t306.5 84q197 0 312 -94
q88 -70 88 -182q0 -85 -25 -197l-59 -264q-28 -126 -28 -205q0 -50 22 -144h-183q-15 52 -21 132zM851 538q-38 -15 -81.5 -23t-145.5 -17q-158 -14 -223 -35.5t-98 -68.5t-33 -104q0 -76 52.5 -125t149.5 -49q90 0 173 47.5t131 132.5t75 242zM431 1223q33 133 81.5 178.5
t121.5 45.5q33 0 64.5 -8t109.5 -42.5t107 -34.5q23 0 41 16.5t30 62.5h121q-10 -103 -66.5 -161t-130.5 -58q-40 0 -101 26q-138 60 -170 60t-53 -20.5t-30 -64.5h-125z" />
    <glyph glyph-name="aring" unicode="&#xe5;" 
d="M784 132q-94 -81 -181 -118.5t-186 -37.5q-147 0 -237 86.5t-90 221.5q0 89 40.5 157.5t107.5 110t164 59.5q61 12 231.5 19t244.5 36q21 74 21 123q0 63 -46 99q-63 50 -184 50q-114 0 -186.5 -50.5t-105.5 -143.5l-183 16q56 158 177.5 242t306.5 84q197 0 312 -94
q88 -70 88 -182q0 -85 -25 -197l-59 -264q-28 -126 -28 -205q0 -50 22 -144h-183q-15 52 -21 132zM851 538q-38 -15 -81.5 -23t-145.5 -17q-158 -14 -223 -35.5t-98 -68.5t-33 -104q0 -76 52.5 -125t149.5 -49q90 0 173 47.5t131 132.5t75 242zM545 1320q0 76 53.5 129
t128.5 53q76 0 129 -53.5t53 -128.5q0 -76 -53.5 -129t-128.5 -53t-128.5 53t-53.5 129zM620 1320q0 -45 31.5 -76.5t75.5 -31.5q45 0 76.5 31.5t31.5 76.5q0 44 -31.5 75.5t-76.5 31.5q-44 0 -75.5 -31.5t-31.5 -75.5z" />
    <glyph glyph-name="ccedilla" unicode="&#xe7;" horiz-adv-x="1024" 
d="M801 387l181 -19q-68 -199 -193.5 -295.5t-285.5 -96.5q-173 0 -280.5 112t-107.5 313q0 174 69 342t197.5 255.5t293.5 87.5q171 0 271 -96.5t100 -255.5l-178 -12q-1 101 -58.5 158t-151.5 57q-109 0 -189 -69t-125.5 -209.5t-45.5 -270.5q0 -136 60 -204t148 -68
t168.5 67t126.5 204zM353 -131l41 161h140l-24 -90q88 -12 134 -60.5t46 -109.5q0 -72 -61 -115q-88 -62 -281 -62q-97 0 -170 12l22 112q61 -3 146 -3q103 0 136.5 22t33.5 49q0 32 -29 53q-43 30 -134 31z" />
    <glyph glyph-name="eacute" unicode="&#xe9;" 
d="M848 361l176 -18q-38 -131 -174.5 -249t-325.5 -118q-118 0 -216.5 54.5t-150 158.5t-51.5 237q0 174 80.5 337.5t208.5 243t277 79.5q190 0 303.5 -118t113.5 -322q0 -78 -14 -160h-782q-4 -31 -4 -56q0 -149 68.5 -227.5t167.5 -78.5q93 0 183 61t140 176zM322 624h596
q1 28 1 40q0 136 -68 208.5t-175 72.5q-116 0 -211.5 -80t-142.5 -241zM572 1191l188 275h228l-266 -275h-150z" />
    <glyph glyph-name="egrave" unicode="&#xe8;" 
d="M848 361l176 -18q-38 -131 -174.5 -249t-325.5 -118q-118 0 -216.5 54.5t-150 158.5t-51.5 237q0 174 80.5 337.5t208.5 243t277 79.5q190 0 303.5 -118t113.5 -322q0 -78 -14 -160h-782q-4 -31 -4 -56q0 -149 68.5 -227.5t167.5 -78.5q93 0 183 61t140 176zM322 624h596
q1 28 1 40q0 136 -68 208.5t-175 72.5q-116 0 -211.5 -80t-142.5 -241zM767 1191l-195 275h220l116 -275h-141z" />
    <glyph glyph-name="ecircumflex" unicode="&#xea;" 
d="M848 361l176 -18q-38 -131 -174.5 -249t-325.5 -118q-118 0 -216.5 54.5t-150 158.5t-51.5 237q0 174 80.5 337.5t208.5 243t277 79.5q190 0 303.5 -118t113.5 -322q0 -78 -14 -160h-782q-4 -31 -4 -56q0 -149 68.5 -227.5t167.5 -78.5q93 0 183 61t140 176zM322 624h596
q1 28 1 40q0 136 -68 208.5t-175 72.5q-116 0 -211.5 -80t-142.5 -241zM445 1191l265 275h200l124 -275h-158l-80 178l-165 -178h-186z" />
    <glyph glyph-name="edieresis" unicode="&#xeb;" 
d="M848 361l176 -18q-38 -131 -174.5 -249t-325.5 -118q-118 0 -216.5 54.5t-150 158.5t-51.5 237q0 174 80.5 337.5t208.5 243t277 79.5q190 0 303.5 -118t113.5 -322q0 -78 -14 -160h-782q-4 -31 -4 -56q0 -149 68.5 -227.5t167.5 -78.5q93 0 183 61t140 176zM322 624h596
q1 28 1 40q0 136 -68 208.5t-175 72.5q-116 0 -211.5 -80t-142.5 -241zM447 1227l43 205h189l-43 -205h-189zM816 1227l43 205h188l-42 -205h-189z" />
    <glyph glyph-name="iacute" unicode="&#xed;" horiz-adv-x="569" 
d="M125 0l222 1062h181l-222 -1062h-181zM299 1191l188 275h228l-266 -275h-150z" />
    <glyph glyph-name="igrave" unicode="&#xec;" horiz-adv-x="569" 
d="M125 0l222 1062h181l-222 -1062h-181zM494 1191l-195 275h220l116 -275h-141z" />
    <glyph glyph-name="icircumflex" unicode="&#xee;" horiz-adv-x="569" 
d="M125 0l222 1062h181l-222 -1062h-181zM152 1191l265 275h200l124 -275h-158l-80 178l-165 -178h-186z" />
    <glyph glyph-name="idieresis" unicode="&#xef;" horiz-adv-x="569" 
d="M125 0l222 1062h181l-222 -1062h-181zM174 1227l43 205h189l-43 -205h-189zM543 1227l43 205h188l-42 -205h-189z" />
    <glyph glyph-name="ntilde" unicode="&#xf1;" 
d="M68 0l222 1062h164l-39 -185q107 109 200 159t190 50q129 0 202.5 -70t73.5 -187q0 -59 -26 -186l-135 -643h-181l141 673q21 98 21 145q0 53 -36.5 86t-105.5 33q-139 0 -247.5 -100t-159.5 -343l-103 -494h-181zM414 1222q33 133 81.5 178.5t121.5 45.5q33 0 64.5 -8
t109.5 -42.5t107 -34.5q23 0 41 16.5t30 62.5h121q-10 -103 -66.5 -161t-130.5 -58q-40 0 -101 26q-138 60 -170 60t-53 -20.5t-30 -64.5h-125z" />
    <glyph glyph-name="oacute" unicode="&#xf3;" 
d="M100 403q0 311 183 515q151 168 396 168q192 0 309.5 -120t117.5 -324q0 -183 -74 -340.5t-210.5 -241.5t-287.5 -84q-124 0 -225.5 53t-155 150t-53.5 224zM281 421q0 -150 72 -227.5t183 -77.5q58 0 115 23.5t106 71.5t83.5 109.5t55.5 132.5q31 99 31 190
q0 144 -72.5 223.5t-182.5 79.5q-85 0 -155 -40.5t-126.5 -118.5t-83 -181.5t-26.5 -184.5zM536 1191l188 275h228l-266 -275h-150z" />
    <glyph glyph-name="ograve" unicode="&#xf2;" 
d="M100 403q0 311 183 515q151 168 396 168q192 0 309.5 -120t117.5 -324q0 -183 -74 -340.5t-210.5 -241.5t-287.5 -84q-124 0 -225.5 53t-155 150t-53.5 224zM281 421q0 -150 72 -227.5t183 -77.5q58 0 115 23.5t106 71.5t83.5 109.5t55.5 132.5q31 99 31 190
q0 144 -72.5 223.5t-182.5 79.5q-85 0 -155 -40.5t-126.5 -118.5t-83 -181.5t-26.5 -184.5zM771 1191l-195 275h220l116 -275h-141z" />
    <glyph glyph-name="ocircumflex" unicode="&#xf4;" 
d="M100 403q0 311 183 515q151 168 396 168q192 0 309.5 -120t117.5 -324q0 -183 -74 -340.5t-210.5 -241.5t-287.5 -84q-124 0 -225.5 53t-155 150t-53.5 224zM281 421q0 -150 72 -227.5t183 -77.5q58 0 115 23.5t106 71.5t83.5 109.5t55.5 132.5q31 99 31 190
q0 144 -72.5 223.5t-182.5 79.5q-85 0 -155 -40.5t-126.5 -118.5t-83 -181.5t-26.5 -184.5zM413 1191l265 275h200l124 -275h-158l-80 178l-165 -178h-186z" />
    <glyph glyph-name="odieresis" unicode="&#xf6;" 
d="M100 403q0 311 183 515q151 168 396 168q192 0 309.5 -120t117.5 -324q0 -183 -74 -340.5t-210.5 -241.5t-287.5 -84q-124 0 -225.5 53t-155 150t-53.5 224zM281 421q0 -150 72 -227.5t183 -77.5q58 0 115 23.5t106 71.5t83.5 109.5t55.5 132.5q31 99 31 190
q0 144 -72.5 223.5t-182.5 79.5q-85 0 -155 -40.5t-126.5 -118.5t-83 -181.5t-26.5 -184.5zM427 1227l43 205h189l-43 -205h-189zM796 1227l43 205h188l-42 -205h-189z" />
    <glyph glyph-name="otilde" unicode="&#xf5;" 
d="M100 403q0 311 183 515q151 168 396 168q192 0 309.5 -120t117.5 -324q0 -183 -74 -340.5t-210.5 -241.5t-287.5 -84q-124 0 -225.5 53t-155 150t-53.5 224zM281 421q0 -150 72 -227.5t183 -77.5q58 0 115 23.5t106 71.5t83.5 109.5t55.5 132.5q31 99 31 190
q0 144 -72.5 223.5t-182.5 79.5q-85 0 -155 -40.5t-126.5 -118.5t-83 -181.5t-26.5 -184.5zM388 1222q33 133 81.5 178.5t121.5 45.5q33 0 64.5 -8t109.5 -42.5t107 -34.5q23 0 41 16.5t30 62.5h121q-10 -103 -66.5 -161t-130.5 -58q-40 0 -101 26q-138 60 -170 60
t-53 -20.5t-30 -64.5h-125z" />
    <glyph glyph-name="uacute" unicode="&#xfa;" 
d="M793 192q-191 -216 -391 -216q-123 0 -198.5 70.5t-75.5 172.5q0 67 34 230l128 613h181l-142 -679q-18 -85 -18 -132q0 -60 36.5 -93.5t107.5 -33.5q76 0 148.5 37t125 100t85.5 149q22 55 51 193l96 459h181l-222 -1062h-167zM585 1191l188 275h228l-266 -275h-150z
" />
    <glyph glyph-name="ugrave" unicode="&#xf9;" 
d="M793 192q-191 -216 -391 -216q-123 0 -198.5 70.5t-75.5 172.5q0 67 34 230l128 613h181l-142 -679q-18 -85 -18 -132q0 -60 36.5 -93.5t107.5 -33.5q76 0 148.5 37t125 100t85.5 149q22 55 51 193l96 459h181l-222 -1062h-167zM772 1191l-195 275h220l116 -275h-141z
" />
    <glyph glyph-name="ucircumflex" unicode="&#xfb;" 
d="M793 192q-191 -216 -391 -216q-123 0 -198.5 70.5t-75.5 172.5q0 67 34 230l128 613h181l-142 -679q-18 -85 -18 -132q0 -60 36.5 -93.5t107.5 -33.5q76 0 148.5 37t125 100t85.5 149q22 55 51 193l96 459h181l-222 -1062h-167zM426 1191l265 275h200l124 -275h-158
l-80 178l-165 -178h-186z" />
    <glyph glyph-name="udieresis" unicode="&#xfc;" 
d="M793 192q-191 -216 -391 -216q-123 0 -198.5 70.5t-75.5 172.5q0 67 34 230l128 613h181l-142 -679q-18 -85 -18 -132q0 -60 36.5 -93.5t107.5 -33.5q76 0 148.5 37t125 100t85.5 149q22 55 51 193l96 459h181l-222 -1062h-167zM452 1227l43 205h189l-43 -205h-189z
M821 1227l43 205h188l-42 -205h-189z" />
    <glyph glyph-name="dagger" unicode="&#x2020;" 
d="M331 -349l255 1218h-400l31 150h400l89 427h181l-89 -427h397l-31 -150h-397l-255 -1218h-181z" />
    <glyph glyph-name="degree" unicode="&#xb0;" horiz-adv-x="819" 
d="M273 1214q0 115 81.5 196t195.5 81q116 0 197 -81t81 -196t-81.5 -196.5t-196.5 -81.5q-114 0 -195.5 81t-81.5 197zM382 1214q0 -70 49.5 -119.5t119.5 -49.5q69 0 118.5 49.5t49.5 119.5t-49.5 119.5t-118.5 49.5q-70 0 -119.5 -49.5t-49.5 -119.5z" />
    <glyph glyph-name="cent" unicode="&#xa2;" 
d="M338 27q-184 108 -184 374q0 174 69 342t198 255.5t293 87.5q30 0 61 -4l168 404l106 -45l-161 -389q96 -41 146.5 -121t50.5 -197l-178 -12q-1 64 -20 105.5t-62 72.5l-322 -780q23 -4 42 -4q88 0 168.5 67t126.5 204l181 -19q-68 -199 -193.5 -295.5t-285.5 -96.5
q-47 0 -94 10l-163 -393l-108 47zM401 180l314 757h-16q-112 0 -191.5 -69.5t-125 -210.5t-45.5 -266q0 -141 64 -211z" />
    <glyph glyph-name="sterling" unicode="&#xa3;" 
d="M85 -25l-21 177q110 71 192 164q62 70 90 150t28 140q0 13 -4 45h-221l31 151h173q-18 135 -18 227q0 195 138.5 328.5t346.5 133.5q164 0 283 -96.5t141 -292.5l-165 -17q-15 128 -85.5 194.5t-175.5 66.5q-124 0 -211 -93.5t-87 -255.5q0 -71 20 -195h290l-32 -151
h-251l1 -44q0 -103 -47.5 -205t-164.5 -190q54 7 78 7q81 0 127.5 -7.5t128 -35t136.5 -27.5q113 0 221 63l54 -163q-152 -74 -267 -74q-43 0 -87 10q-32 8 -103 37.5t-120.5 40.5t-105.5 11q-85 0 -153.5 -21t-159.5 -78z" />
    <glyph glyph-name="section" unicode="&#xa7;" 
d="M62 -90l166 42q24 -120 99.5 -184t177.5 -64q99 0 162.5 58t63.5 132q0 31 -13 61.5t-39 61.5q-37 45 -292 249q-101 80 -136 119q-53 58 -75 108.5t-22 114.5q0 109 64 191.5t220 160.5q-79 96 -79 202q0 140 102.5 234.5t286.5 94.5q174 0 267.5 -80t121.5 -259
l-181 -21q-1 102 -59 158.5t-159 56.5q-92 0 -150 -53t-58 -125q0 -52 38.5 -114t185.5 -181q214 -173 271.5 -245t57.5 -164q0 -95 -68.5 -185t-210.5 -157q50 -55 75 -112t25 -116q0 -130 -107.5 -227.5t-292.5 -97.5q-175 0 -291.5 91.5t-150.5 249.5zM714 217
q108 50 154 110.5t46 114.5q0 43 -21.5 78.5t-144.5 136.5q-168 139 -237 216q-194 -110 -194 -245q0 -41 21 -79q31 -53 146 -146z" />
    <glyph glyph-name="bullet" unicode="&#x2022;" horiz-adv-x="717" 
d="M109 718q0 105 74.5 179t178.5 74q105 0 179.5 -74t74.5 -179t-74.5 -179.5t-179.5 -74.5q-104 0 -178.5 74.5t-74.5 179.5z" />
    <glyph glyph-name="paragraph" unicode="&#xb6;" horiz-adv-x="1100" 
d="M546 -407v1045q-187 10 -295.5 121.5t-108.5 284.5q0 193 120.5 307.5t352.5 114.5h633v-173h-144v-1700h-170v1700h-223v-1700h-165z" />
    <glyph glyph-name="germandbls" unicode="&#xdf;" horiz-adv-x="1251" 
d="M74 0l216 1033q36 172 94.5 259t171.5 143t240 56q151 0 240 -75t89 -160q0 -50 -26.5 -110t-105 -160t-97.5 -138.5t-19 -70.5q0 -29 13.5 -53.5t97.5 -111.5q122 -125 148 -176.5t26 -111.5q0 -82 -50.5 -165.5t-146.5 -133.5t-199 -50q-212 0 -354 235l152 82
q51 -98 100 -133.5t99 -35.5q83 0 149 65.5t66 140.5q0 33 -17 63t-138 148q-88 87 -110.5 130.5t-22.5 84.5q0 48 30.5 111t127.5 184t97 188q0 44 -42 79t-113 35q-45 0 -95.5 -17.5t-88.5 -45.5t-64 -62t-45 -88q-9 -25 -30 -127l-212 -1012h-181z" />
    <glyph glyph-name="registered" unicode="&#xae;" horiz-adv-x="1509" 
d="M838 1491q190 0 371 -97.5t282 -279t101 -378.5q0 -195 -99.5 -375t-279 -279.5t-375.5 -99.5t-375.5 99.5t-279.5 279.5t-100 375q0 197 101.5 378.5t282.5 279t371 97.5zM838 1366q-159 0 -309.5 -81.5t-235.5 -233t-85 -315.5q0 -163 83.5 -312.5t233.5 -233
t313 -83.5t313 83.5t233 233t83 312.5q0 164 -84.5 315.5t-235.5 233t-309 81.5zM507 319v812h279q143 0 207 -22.5t102 -78.5t38 -119q0 -89 -63.5 -155t-168.5 -74q43 -18 69 -43q49 -48 120 -161l99 -159h-160l-72 128q-85 151 -137 189q-36 28 -105 28h-77v-345h-131z
M638 776h159q114 0 155.5 34t41.5 90q0 36 -20 64.5t-55.5 42.5t-131.5 14h-149v-245z" />
    <glyph glyph-name="copyright" unicode="&#xa9;" horiz-adv-x="1509" 
d="M838 1491q190 0 371 -97.5t282 -279t101 -378.5q0 -195 -99.5 -375t-279 -279.5t-375.5 -99.5t-375.5 99.5t-279.5 279.5t-100 375q0 197 101.5 378.5t282.5 279t371 97.5zM838 1366q-159 0 -309.5 -81.5t-235.5 -233t-85 -315.5q0 -163 83.5 -312.5t233.5 -233
t313 -83.5t313 83.5t233 233t83 312.5q0 164 -84.5 315.5t-235.5 233t-309 81.5zM1080 614l123 -36q-30 -125 -127.5 -199.5t-236.5 -74.5q-176 0 -286 114t-110 316q0 132 50 229.5t142.5 147t211.5 49.5q133 0 221 -63.5t120 -172.5l-119 -29q-30 74 -88.5 113.5
t-137.5 39.5q-115 0 -189.5 -82t-74.5 -235t70.5 -231.5t182.5 -78.5q90 0 158 52t90 141z" />
    <glyph glyph-name="trademark" unicode="&#x2122;" horiz-adv-x="2048" 
d="M544 651v694h-264v121h666v-121h-266v-694h-136zM1037 651v815h200l206 -651l199 651h196v-815h-124v684l-210 -684h-123l-219 694v-694h-125z" />
    <glyph glyph-name="acute" unicode="&#xb4;" horiz-adv-x="682" 
d="M346 1191l188 275h228l-266 -275h-150z" />
    <glyph glyph-name="dieresis" unicode="&#xa8;" horiz-adv-x="682" 
d="M237 1227l43 205h189l-43 -205h-189zM606 1227l43 205h188l-42 -205h-189z" />
    <glyph glyph-name="notequal" unicode="&#x2260;" horiz-adv-x="1124" 
d="M541 417l-194 -445h-136l195 445h-282v168h356l122 277h-478v168h551l196 444h134l-195 -444h282v-168h-356l-121 -277h477v-168h-551z" />
    <glyph glyph-name="AE" unicode="&#xc6;" horiz-adv-x="2048" 
d="M-83 0l902 1466h1318l-35 -167h-756l-95 -456h765l-35 -166h-765l-107 -511h845l-35 -166h-1051l88 418h-566l-250 -418h-223zM491 584h499l150 715h-211z" />
    <glyph glyph-name="Oslash" unicode="&#xd8;" horiz-adv-x="1593" 
d="M341 175q-154 183 -154 465q0 191 73 365q60 144 157.5 248.5t212.5 161.5q153 76 329 76q226 0 382 -117l160 192l89 -79l-162 -195q154 -176 154 -463q0 -207 -85 -389q-65 -139 -165 -238.5t-213 -154.5q-150 -72 -318 -72q-212 0 -371 117l-161 -195l-95 79zM462 320
l762 914q-114 94 -260 94q-147 0 -284 -87t-219 -254t-82 -359q0 -185 83 -308zM1306 1145l-760 -914q121 -94 270 -94q113 0 215 53.5t182.5 149t127 235t46.5 274.5q0 169 -81 296z" />
    <glyph glyph-name="infinity" unicode="&#x221e;" horiz-adv-x="1460" 
d="M689 812q105 132 164 174q80 58 169 58q105 0 196.5 -76t91.5 -245q0 -118 -34 -185.5t-106 -108.5t-148 -41q-89 0 -169 57q-59 43 -164 175q-136 -171 -289 -171q-101 0 -173.5 76.5t-72.5 190.5q0 113 72.5 190t173.5 77q153 0 289 -171zM758 717q87 -135 159 -185
q46 -33 103 -33q76 0 127.5 56t51.5 158q0 106 -52.5 162t-130.5 56q-49 0 -92 -28q-58 -39 -166 -186zM620 716q-80 100 -128 128.5t-92 28.5q-58 0 -96.5 -41t-38.5 -113q0 -71 40 -113.5t97 -42.5q101 0 218 153z" />
    <glyph glyph-name="plusminus" unicode="&#xb1;" horiz-adv-x="1124" 
d="M523 260v403h-399v167h399v399h170v-399h399v-167h-399v-403h-170zM1092 0h-968v168h968v-168z" />
    <glyph glyph-name="lessequal" unicode="&#x2264;" horiz-adv-x="1124" 
d="M124 762v168l971 410v-180l-770 -315l770 -319v-179zM1093 106h-968v167h968v-167z" />
    <glyph glyph-name="greaterequal" unicode="&#x2265;" horiz-adv-x="1124" 
d="M1095 762l-971 -415v179l769 319l-769 315v180l971 -410v-168zM1093 106h-968v167h968v-167z" />
    <glyph glyph-name="yen" unicode="&#xa5;" 
d="M416 0l68 327h-409l29 138h409l31 147h-409l28 138h344l-273 716h182l116 -315q83 -227 90 -246q27 -77 42 -133q41 93 129 214l349 480h224l-540 -716h334l-29 -138h-406l-31 -147h406l-29 -138h-406l-68 -327h-181z" />
    <glyph glyph-name="mu" unicode="&#xb5;" horiz-adv-x="1180" 
d="M323 1062h179l-106 -499q-39 -182 -39 -255q0 -80 53 -130.5t145 -50.5q123 0 209 89q64 68 108 274l120 572h179l-226 -1062h-161l18 84q-136 -109 -266 -109q-74 0 -129.5 30t-108.5 95l-108 -510h-178z" />
    <glyph glyph-name="partialdiff" unicode="&#x2202;" horiz-adv-x="1012" 
d="M426 1138l-135 60q70 157 168 225t192 68q76 0 137.5 -39.5t92.5 -90.5q47 -79 69.5 -187t22.5 -248q0 -288 -86.5 -512.5t-233.5 -331.5t-289 -107q-137 0 -222.5 91t-85.5 256q0 226 153 387q197 207 649 215q-4 168 -24 256t-68 135.5t-113 47.5q-62 0 -121 -49.5
t-106 -175.5zM854 796q-244 -14 -357.5 -68t-187 -176.5t-73.5 -248.5q0 -83 51 -137t119 -54q75 0 160 55q117 76 190.5 234.5t97.5 394.5z" />
    <glyph glyph-name="summation" unicode="&#x2211;" horiz-adv-x="1460" 
d="M139 1491h1237v-164h-988l607 -775l-649 -822h1040v-161h-1264v187l620 788l-603 772v175z" />
    <glyph glyph-name="product" unicode="&#x220f;" horiz-adv-x="1686" 
d="M241 1491h1362v-1922h-191v1748h-978v-1748h-193v1922z" />
    <glyph glyph-name="glyph155" horiz-adv-x="1124" 
d="M126 914l44 149h1061l-48 -150h-120l-281 -913h-201l280 913l-378 1l-280 -914h-203l282 914h-156z" />
    <glyph glyph-name="integral" unicode="&#x222b;" horiz-adv-x="561" 
d="M201 948l17 531q9 153 50 254q27 65 74.5 97.5t92.5 32.5q50 0 87.5 -33.5t37.5 -73.5q0 -47 -26.5 -75.5t-65.5 -28.5q-35 0 -76 36q-23 20 -40 20t-28.5 -14.5t-11.5 -49.5q0 -42 9 -145q37 -410 37 -665q0 -67 -16 -588q-8 -295 -90 -399q-54 -67 -134 -67
q-52 0 -85 34t-33 87q0 45 25.5 72t64.5 27q40 0 69 -32t49 -32q17 0 28 14t11 47q0 42 -9 120q-37 315 -37 831z" />
    <glyph glyph-name="ordfeminine" unicode="&#xaa;" horiz-adv-x="758" 
d="M624 823q-38 -34 -103 -60.5t-129 -26.5q-104 0 -164.5 59t-60.5 146q0 65 34.5 120t103 82.5t204.5 35.5q104 6 173 22q15 44 15 65q0 43 -36.5 73.5t-100.5 30.5q-59 0 -108.5 -30t-75.5 -90l-141 23q47 104 125 161t202 57q136 0 206 -58t70 -141q0 -77 -54 -276
q-29 -106 -29 -161q0 -59 20 -98h-138q-7 23 -13 66zM655 1087q-55 -16 -164.5 -26t-144.5 -39q-36 -29 -36 -70q0 -40 30.5 -68t78.5 -28q82 0 146 56.5t90 174.5z" />
    <glyph glyph-name="ordmasculine" unicode="&#xba;" horiz-adv-x="748" 
d="M143 1068q0 78 40 179.5t131.5 172.5t215.5 71q139 0 226 -87.5t87 -224.5q0 -150 -99 -295.5t-277 -145.5q-102 0 -179 41t-111 109.5t-34 179.5zM290 1073q0 -94 32 -138q48 -66 129 -66q55 0 112 36.5t94.5 115t37.5 159.5q0 80 -47.5 130t-117.5 50
q-61 0 -118.5 -42.5t-89.5 -117t-32 -127.5z" />
    <glyph glyph-name="Omega" unicode="&#x2126;" horiz-adv-x="1573" 
d="M556 160q-108 67 -165 130q-87 96 -134 225.5t-47 286.5q0 196 79.5 360.5t231 252.5t347.5 88q336 0 516 -254q131 -186 131 -448q0 -168 -54 -297.5t-141 -222.5q-53 -58 -149 -121l364 6v-166h-575v177q80 40 124 78q72 61 122 145t75.5 179t25.5 198
q0 138 -49.5 277.5t-150 212.5t-243.5 73q-191 0 -296 -120q-146 -169 -146 -440q0 -217 91 -372.5t251 -227.5v-180h-577v168z" />
    <glyph glyph-name="ae" unicode="&#xe6;" horiz-adv-x="1821" 
d="M1530 359l183 -17q-87 -181 -211.5 -273.5t-290.5 -92.5q-116 0 -216.5 57t-165.5 179q-79 -123 -186.5 -180t-219.5 -57q-160 0 -248 85t-88 225q0 87 38 156t96.5 104.5t152.5 54.5q60 12 225.5 25.5t237.5 35.5q23 72 23 123q0 74 -48 118t-142 44q-114 0 -187.5 -49
t-112.5 -151l-179 15q52 155 174.5 240.5t308.5 85.5q108 0 191 -36.5t140 -109.5q140 145 349 145q123 0 219.5 -55.5t147.5 -160.5t51 -227q0 -60 -15 -158h-773q-4 -30 -4 -60q0 -150 66 -225.5t168 -75.5q90 0 173 57.5t143 177.5zM1019 624h583q1 33 1 43
q0 80 -29.5 145t-87 99.5t-123.5 34.5q-103 0 -203 -85.5t-141 -236.5zM809 525q-106 -25 -259 -39q-113 -10 -153 -24q-62 -21 -93.5 -62.5t-31.5 -104.5q0 -80 50.5 -129t143.5 -49q120 0 202 84q106 110 141 324z" />
    <glyph glyph-name="oslash" unicode="&#xf8;" horiz-adv-x="1251" 
d="M993 1018l112 141l91 -72l-117 -147q93 -117 93 -304q0 -176 -73 -333.5t-210 -242t-288 -84.5q-136 0 -244 63l-114 -141l-90 69l115 144q-101 116 -101 305q0 175 75 339.5t208 247.5t296 83q140 0 247 -68zM893 894q-65 52 -154 52q-103 0 -194 -66t-144 -198
t-53 -264q0 -101 33 -166zM455 162q65 -46 148 -46q74 0 140.5 36t124.5 108.5t92 181t34 202.5q0 84 -30 153z" />
    <glyph glyph-name="questiondown" unicode="&#xbf;" horiz-adv-x="1251" 
d="M980 1062l-43 -205h-205l43 205h205zM891 695q-10 -91 -41.5 -162t-96.5 -144q-37 -43 -178 -157.5t-182.5 -185t-41.5 -129.5q0 -80 66.5 -141t170.5 -61q115 0 190.5 72t100.5 240l181 -30q-43 -214 -166.5 -320t-300.5 -106q-120 0 -219.5 49t-150.5 133.5t-51 176.5
q0 110 74 212q55 76 246 229q132 105 171.5 165t56.5 159h171z" />
    <glyph glyph-name="exclamdown" unicode="&#xa1;" horiz-adv-x="682" 
d="M625 1062l-43 -205h-204l43 205h204zM511 692l-111 -796l-62 -300h-220l68 325l212 771h113z" />
    <glyph glyph-name="logicalnot" unicode="&#xac;" horiz-adv-x="1196" 
d="M1152 424h-170v438h-798v168h968v-606z" />
    <glyph glyph-name="radical" unicode="&#x221a;" horiz-adv-x="1124" 
d="M1050 1869h74l-312 -1947l-496 1021l-198 -91l-34 64l301 151l405 -823z" />
    <glyph glyph-name="florin" unicode="&#x192;" 
d="M46 -405l35 155q101 -22 152 -22q54 0 83 28t45 124l177 1042h-201l24 140h201l24 133q22 120 45 165q31 62 88.5 97t150.5 35q80 0 215 -38l-35 -153q-103 24 -154 24q-56 0 -84 -27.5t-47 -132.5l-19 -103h204l-25 -140h-204l-191 -1092q-26 -148 -87 -204.5
t-173 -56.5q-94 0 -224 26z" />
    <glyph glyph-name="approxequal" unicode="&#x2248;" horiz-adv-x="1124" 
d="M124 738v205q106 120 278 120q60 0 125.5 -17t188.5 -70q69 -30 103.5 -38.5t69.5 -8.5q65 0 134.5 39t123.5 98v-212q-64 -60 -129.5 -87t-147.5 -27q-60 0 -114 13.5t-173 67t-198 53.5q-64 0 -120.5 -27.5t-140.5 -108.5zM124 376v205q106 120 278 120q60 0 125.5 -17
t188.5 -70q69 -29 103.5 -38t69.5 -9q65 0 134.5 39t123.5 98v-212q-64 -60 -129.5 -87t-147.5 -27q-60 0 -114 14t-173 67t-198 53q-64 0 -120.5 -27.5t-140.5 -108.5z" />
    <glyph glyph-name="Delta" unicode="&#x2206;" horiz-adv-x="1253" 
d="M1226 0h-1200l628 1387zM990 82l-399 967l-440 -967h839z" />
    <glyph glyph-name="guillemotleft" unicode="&#xab;" 
d="M350 527l159 -455h-136l-212 477l401 431h143zM745 527l156 -455h-146l-198 479l388 429h155z" />
    <glyph glyph-name="guillemotright" unicode="&#xbb;" 
d="M450 521l-148 459h144l192 -483l-392 -425h-163zM841 513l-149 467h136l206 -485l-407 -423h-144z" />
    <glyph glyph-name="ellipsis" unicode="&#x2026;" horiz-adv-x="2048" 
d="M294 0l43 205h205l-44 -205h-204zM978 0l43 205h205l-43 -205h-205zM1663 0l43 205h204l-43 -205h-204z" />
    <glyph glyph-name="Agrave" unicode="&#xc0;" horiz-adv-x="1366" 
d="M-41 0l831 1466h231l242 -1466h-190l-71 422h-593l-235 -422h-215zM493 573h485l-57 368q-33 219 -41 365q-50 -126 -146 -299zM990 1557l-195 275h220l116 -275h-141z" />
    <glyph glyph-name="Atilde" unicode="&#xc3;" horiz-adv-x="1366" 
d="M-41 0l831 1466h231l242 -1466h-190l-71 422h-593l-235 -422h-215zM493 573h485l-57 368q-33 219 -41 365q-50 -126 -146 -299zM579 1553q33 133 81.5 178.5t121.5 45.5q33 0 64.5 -8t109.5 -42.5t107 -34.5q23 0 41 16.5t30 62.5h121q-10 -103 -66.5 -161t-130.5 -58
q-40 0 -101 26q-138 60 -170 60t-53 -20.5t-30 -64.5h-125z" />
    <glyph glyph-name="Otilde" unicode="&#xd5;" horiz-adv-x="1593" 
d="M187 614q0 392 226.5 634.5t549.5 242.5q274 0 446.5 -178.5t172.5 -478.5q0 -214 -87 -397q-65 -137 -164 -236.5t-212 -153.5q-150 -72 -318 -72q-176 0 -320.5 84t-219 234.5t-74.5 320.5zM380 604q0 -129 53.5 -237t159.5 -169t223 -61q113 0 215 53.5t182.5 149
t127 235t46.5 274.5q0 219 -122.5 349t-302.5 130q-230 0 -406 -196.5t-176 -527.5zM639 1553q33 133 81.5 178.5t121.5 45.5q33 0 64.5 -8t109.5 -42.5t107 -34.5q23 0 41 16.5t30 62.5h121q-10 -103 -66.5 -161t-130.5 -58q-40 0 -101 26q-138 60 -170 60t-53 -20.5
t-30 -64.5h-125z" />
    <glyph glyph-name="OE" unicode="&#x152;" horiz-adv-x="2048" 
d="M1023 108q-72 -68 -150.5 -101t-187.5 -33q-232 0 -376.5 158.5t-144.5 459.5q0 254 102.5 468t273 322.5t353.5 108.5q113 0 210.5 -51t167.5 -148l36 174h831l-34 -167h-636l-97 -463h642l-35 -167h-641l-106 -503h710l-35 -166h-906zM357 615q0 -188 38 -280.5
t121.5 -145t184.5 -52.5q142 0 256 105t170 345q70 301 70 417q0 139 -92 231.5t-226 92.5q-77 0 -144.5 -29.5t-127 -83t-105.5 -122.5q-61 -91 -97 -202q-48 -151 -48 -276z" />
    <glyph glyph-name="oe" unicode="&#x153;" horiz-adv-x="1933" 
d="M965 183q-88 -102 -188.5 -154.5t-229.5 -52.5q-192 0 -305 116t-113 327q0 182 72.5 339.5t202 242.5t287.5 85q122 0 219 -52t152 -148q94 100 162 138q111 62 243 62q183 0 299 -119.5t116 -319.5q0 -83 -18 -163h-769q-3 -36 -3 -68q0 -112 59 -202t177 -90
q89 0 173 65.5t132 170.5l187 -17q-74 -169 -209 -268t-287 -99q-116 0 -210 50.5t-149 156.5zM306 428q0 -161 67 -236.5t176 -75.5q97 0 190.5 71t145 212t51.5 263q0 110 -60.5 197.5t-183.5 87.5q-83 0 -156.5 -43t-127.5 -123.5t-78 -188.5t-24 -164zM1125 623h581
q3 31 3 48q0 134 -66.5 205t-173.5 71q-99 0 -193.5 -79t-150.5 -245z" />
    <glyph glyph-name="endash" unicode="&#x2013;" 
d="M-4 458v145h1139v-145h-1139z" />
    <glyph glyph-name="emdash" unicode="&#x2014;" horiz-adv-x="2048" 
d="M0 458v145h2048v-145h-2048z" />
    <glyph glyph-name="quotedblleft" unicode="&#x201c;" horiz-adv-x="682" 
d="M784 1194l-43 -205h-206l38 180q33 161 104.5 236t168.5 86l-16 -79q-117 -32 -158 -218h112zM465 1194l-43 -205h-206l38 180q33 161 104.5 236t168.5 86l-16 -79q-117 -32 -158 -218h112z" />
    <glyph glyph-name="quotedblright" unicode="&#x201d;" horiz-adv-x="682" 
d="M276 1255l43 205h206l-37 -180q-34 -161 -105.5 -235.5t-168.5 -86.5l17 79q118 33 157 218h-112zM606 1255l43 205h206l-38 -180q-33 -161 -104.5 -235.5t-168.5 -86.5l16 79q118 33 158 218h-112z" />
    <glyph glyph-name="quoteleft" unicode="&#x2018;" horiz-adv-x="455" 
d="M513 1194l-43 -205h-206l38 180q33 161 104.5 236t168.5 86l-16 -79q-117 -32 -158 -218h112z" />
    <glyph glyph-name="quoteright" unicode="&#x2019;" horiz-adv-x="455" 
d="M318 1255l43 205h206l-37 -180q-34 -161 -105.5 -235.5t-168.5 -86.5l17 79q118 33 157 218h-112z" />
    <glyph glyph-name="divide" unicode="&#xf7;" horiz-adv-x="1124" 
d="M509 922v205h205v-205h-205zM1096 639h-968v168h968v-168zM509 319v205h205v-205h-205z" />
    <glyph glyph-name="lozenge" unicode="&#x25ca;" horiz-adv-x="1012" 
d="M622 1422l418 -713l-418 -709h-111l-391 709l391 713h111zM568 1325l-340 -616l340 -615l359 615z" />
    <glyph glyph-name="ydieresis" unicode="&#xff;" horiz-adv-x="1024" 
d="M0 -410l11 170q56 -16 109 -16q55 0 89 25q44 33 96 124l58 104l-177 1065h178l80 -537q24 -159 41 -318l475 855h189l-677 -1203q-98 -176 -174 -233t-175 -57q-63 0 -123 21zM408 1227l43 205h189l-43 -205h-189zM777 1227l43 205h188l-42 -205h-189z" />
    <glyph glyph-name="Ydieresis" unicode="&#x178;" horiz-adv-x="1366" 
d="M572 0l118 567l-451 899h210l216 -428q71 -140 138 -300q74 136 202 297l344 431h234l-700 -914l-115 -552h-196zM637 1553l43 205h189l-43 -205h-189zM1006 1553l43 205h188l-42 -205h-189z" />
    <glyph glyph-name="fraction" unicode="&#x2044;" horiz-adv-x="342" 
d="M-536 -61l1396 1552h175l-1409 -1552h-162z" />
    <glyph glyph-name="fraction" unicode="&#x2215;" horiz-adv-x="342" 
d="M-536 -61l1396 1552h175l-1409 -1552h-162z" />
    <glyph glyph-name="Euro" unicode="&#x20ac;" 
d="M766 -25q-261 0 -413 150q-148 147 -165 410h-107l28 134h79q3 68 14 132h-121l28 134h126q59 183 189 325q212 231 527 231q225 0 370 -118l-83 -170q-92 126 -278 126q-269 0 -435 -239q-51 -74 -83 -155h629l-29 -134h-641q-13 -64 -18 -132h632l-29 -134h-602
q14 -181 114 -286q105 -112 283 -112q156 0 275 99l-45 -214q-115 -47 -245 -47z" />
    <glyph glyph-name="guilsinglleft" unicode="&#x2039;" horiz-adv-x="682" 
d="M280 526l160 -454h-136l-207 477l397 431h149z" />
    <glyph glyph-name="guilsinglright" unicode="&#x203a;" horiz-adv-x="682" 
d="M395 523l-150 457h145l200 -479l-401 -429h-156z" />
    <glyph glyph-name="uniFB01" unicode="&#xfb01;" horiz-adv-x="1024" 
d="M111 0l193 922h-163l29 140h163l31 150q24 114 43 152q28 58 85.5 92.5t162.5 34.5q95 0 197 -29l-33 -158q-97 31 -158 31q-36 0 -60.5 -16.5t-39.5 -49.5q-7 -18 -25 -101l-22 -106h204l-29 -140h-204l-193 -922h-181zM891 1254l44 212h181l-44 -212h-181zM629 0
l222 1062h181l-222 -1062h-181z" />
    <glyph glyph-name="uniFB02" unicode="&#xfb02;" horiz-adv-x="1024" 
d="M111 0l193 922h-163l29 140h163l31 150q24 114 43 152q28 58 85.5 92.5t162.5 34.5q95 0 197 -29l-33 -158q-97 31 -158 31q-36 0 -60.5 -16.5t-39.5 -49.5q-7 -18 -25 -101l-22 -106h201l-29 -140h-201l-193 -922h-181zM629 0l306 1466h181l-306 -1466h-181z" />
    <glyph glyph-name="daggerdbl" unicode="&#x2021;" 
d="M333 -349l78 373h-400l33 157h399l153 732h-399l33 157h399l79 376h181l-79 -376h395l-33 -157h-395l-153 -732h395l-32 -157h-395l-78 -373h-181z" />
    <glyph glyph-name="uni2219" unicode="&#x2219;" horiz-adv-x="569" 
d="M185 619v205h205v-205h-205z" />
    <glyph glyph-name="quotesinglbase" unicode="&#x201a;" horiz-adv-x="455" 
d="M47 0l43 205h206l-37 -179q-34 -161 -105.5 -236t-168.5 -86l17 79q119 33 157 217h-112z" />
    <glyph glyph-name="quotedblbase" unicode="&#x201e;" horiz-adv-x="682" 
d="M22 0l43 205h206l-37 -179q-34 -161 -105.5 -236t-168.5 -86l17 79q119 33 157 217h-112zM348 0l43 205h206l-37 -179q-34 -161 -105.5 -236t-168.5 -86l16 79q119 33 158 217h-112z" />
    <glyph glyph-name="perthousand" unicode="&#x2030;" horiz-adv-x="2048" 
d="M136 997q0 110 45.5 238t124.5 192t191 64q118 0 185 -69.5t67 -192.5q0 -113 -46 -247.5t-127.5 -199t-185.5 -64.5q-119 0 -186.5 70.5t-67.5 208.5zM281 994q0 -87 29 -121t80 -34q91 0 144 116q66 145 66 280q0 69 -30 102.5t-78 33.5q-52 0 -99.5 -45.5
t-79.5 -155.5t-32 -176zM201 -54l951 1545h152l-953 -1545h-150zM755 225q0 110 45.5 238t124.5 192t191 64q118 0 185 -70t67 -193q0 -113 -46 -247t-127.5 -199t-185.5 -65q-119 0 -186.5 70.5t-67.5 209.5zM900 222q0 -87 29 -121.5t80 -34.5q91 0 144 117q66 145 66 280
q0 69 -30 102t-78 33q-52 0 -99.5 -45t-79.5 -155t-32 -176zM1442 225q0 110 45.5 238t124.5 192t192 64q117 0 184 -70t67 -193q0 -113 -46 -247.5t-127.5 -199t-185.5 -64.5q-119 0 -186.5 70.5t-67.5 209.5zM1587 222q0 -87 29.5 -121.5t79.5 -34.5q92 0 144 117
q66 145 66 280q0 69 -29.5 102t-78.5 33q-52 0 -99.5 -45t-79.5 -155t-32 -176z" />
    <glyph glyph-name="Acircumflex" unicode="&#xc2;" horiz-adv-x="1366" 
d="M-41 0l831 1466h231l242 -1466h-190l-71 422h-593l-235 -422h-215zM493 573h485l-57 368q-33 219 -41 365q-50 -126 -146 -299zM595 1556l265 275h200l124 -275h-158l-80 178l-165 -178h-186z" />
    <glyph glyph-name="Ecircumflex" unicode="&#xca;" horiz-adv-x="1366" 
d="M92 0l307 1466h1058l-35 -167h-862l-96 -456h840l-35 -167h-840l-106 -510h923l-35 -166h-1119zM613 1556l265 275h200l124 -275h-158l-80 178l-165 -178h-186z" />
    <glyph glyph-name="Aacute" unicode="&#xc1;" horiz-adv-x="1366" 
d="M-41 0l831 1466h231l242 -1466h-190l-71 422h-593l-235 -422h-215zM493 573h485l-57 368q-33 219 -41 365q-50 -126 -146 -299zM786 1556l188 275h228l-266 -275h-150z" />
    <glyph glyph-name="Edieresis" unicode="&#xcb;" horiz-adv-x="1366" 
d="M92 0l307 1466h1058l-35 -167h-862l-96 -456h840l-35 -167h-840l-106 -510h923l-35 -166h-1119zM656 1553l43 205h189l-43 -205h-189zM1025 1553l43 205h188l-42 -205h-189z" />
    <glyph glyph-name="Egrave" unicode="&#xc8;" horiz-adv-x="1366" 
d="M92 0l307 1466h1058l-35 -167h-862l-96 -456h840l-35 -167h-840l-106 -510h923l-35 -166h-1119zM1028 1557l-195 275h220l116 -275h-141z" />
    <glyph glyph-name="Iacute" unicode="&#xcd;" horiz-adv-x="569" 
d="M117 0l307 1466h195l-306 -1466h-196zM381 1556l188 275h228l-266 -275h-150z" />
    <glyph glyph-name="Icircumflex" unicode="&#xce;" horiz-adv-x="569" 
d="M117 0l307 1466h195l-306 -1466h-196zM245 1556l265 275h200l124 -275h-158l-80 178l-165 -178h-186z" />
    <glyph glyph-name="Idieresis" unicode="&#xcf;" horiz-adv-x="569" 
d="M117 0l307 1466h195l-306 -1466h-196zM247 1556l43 205h189l-43 -205h-189zM616 1556l43 205h188l-42 -205h-189z" />
    <glyph glyph-name="Igrave" unicode="&#xcc;" horiz-adv-x="569" 
d="M117 0l307 1466h195l-306 -1466h-196zM556 1557l-195 275h220l116 -275h-141z" />
    <glyph glyph-name="Oacute" unicode="&#xd3;" horiz-adv-x="1593" 
d="M187 614q0 392 226.5 634.5t549.5 242.5q274 0 446.5 -178.5t172.5 -478.5q0 -214 -87 -397q-65 -137 -164 -236.5t-212 -153.5q-150 -72 -318 -72q-176 0 -320.5 84t-219 234.5t-74.5 320.5zM380 604q0 -129 53.5 -237t159.5 -169t223 -61q113 0 215 53.5t182.5 149
t127 235t46.5 274.5q0 219 -122.5 349t-302.5 130q-230 0 -406 -196.5t-176 -527.5zM821 1556l188 275h228l-266 -275h-150z" />
    <glyph glyph-name="Ocircumflex" unicode="&#xd4;" horiz-adv-x="1593" 
d="M187 614q0 392 226.5 634.5t549.5 242.5q274 0 446.5 -178.5t172.5 -478.5q0 -214 -87 -397q-65 -137 -164 -236.5t-212 -153.5q-150 -72 -318 -72q-176 0 -320.5 84t-219 234.5t-74.5 320.5zM380 604q0 -129 53.5 -237t159.5 -169t223 -61q113 0 215 53.5t182.5 149
t127 235t46.5 274.5q0 219 -122.5 349t-302.5 130q-230 0 -406 -196.5t-176 -527.5zM665 1556l265 275h200l124 -275h-158l-80 178l-165 -178h-186z" />
    <glyph glyph-name="Ograve" unicode="&#xd2;" horiz-adv-x="1593" 
d="M187 614q0 392 226.5 634.5t549.5 242.5q274 0 446.5 -178.5t172.5 -478.5q0 -214 -87 -397q-65 -137 -164 -236.5t-212 -153.5q-150 -72 -318 -72q-176 0 -320.5 84t-219 234.5t-74.5 320.5zM380 604q0 -129 53.5 -237t159.5 -169t223 -61q113 0 215 53.5t182.5 149
t127 235t46.5 274.5q0 219 -122.5 349t-302.5 130q-230 0 -406 -196.5t-176 -527.5zM1044 1557l-195 275h220l116 -275h-141z" />
    <glyph glyph-name="Uacute" unicode="&#xda;" horiz-adv-x="1479" 
d="M406 1466h196l-188 -901q-23 -112 -23 -166q0 -118 93 -190t234 -72q112 0 208.5 51.5t152.5 151.5t101 319l169 807h196l-179 -860q-46 -220 -121 -348.5t-208 -206t-309 -77.5q-166 0 -287.5 55t-182 152t-60.5 220q0 77 41 265zM802 1556l188 275h228l-266 -275h-150z
" />
    <glyph glyph-name="Ucircumflex" unicode="&#xdb;" horiz-adv-x="1479" 
d="M406 1466h196l-188 -901q-23 -112 -23 -166q0 -118 93 -190t234 -72q112 0 208.5 51.5t152.5 151.5t101 319l169 807h196l-179 -860q-46 -220 -121 -348.5t-208 -206t-309 -77.5q-166 0 -287.5 55t-182 152t-60.5 220q0 77 41 265zM674 1556l265 275h200l124 -275h-158
l-80 178l-165 -178h-186z" />
    <glyph glyph-name="Ugrave" unicode="&#xd9;" horiz-adv-x="1479" 
d="M406 1466h196l-188 -901q-23 -112 -23 -166q0 -118 93 -190t234 -72q112 0 208.5 51.5t152.5 151.5t101 319l169 807h196l-179 -860q-46 -220 -121 -348.5t-208 -206t-309 -77.5q-166 0 -287.5 55t-182 152t-60.5 220q0 77 41 265zM1009 1557l-195 275h220l116 -275h-141
z" />
    <glyph glyph-name="dotlessi" unicode="&#x131;" horiz-adv-x="569" 
d="M125 0l222 1062h181l-222 -1062h-181z" />
    <glyph glyph-name="circumflex" unicode="&#x2c6;" horiz-adv-x="682" 
d="M205 1191l265 275h200l124 -275h-158l-80 178l-165 -178h-186z" />
    <glyph glyph-name="tilde" unicode="&#x2dc;" horiz-adv-x="682" 
d="M192 1222q33 133 81.5 178.5t121.5 45.5q33 0 64.5 -8t109.5 -42.5t107 -34.5q23 0 41 16.5t30 62.5h121q-10 -103 -66.5 -161t-130.5 -58q-40 0 -101 26q-138 60 -170 60t-53 -20.5t-30 -64.5h-125z" />
    <glyph glyph-name="uni02C9" unicode="&#x2c9;" horiz-adv-x="682" 
d="M201 1229l29 139h621l-29 -139h-621z" />
    <glyph glyph-name="breve" unicode="&#x2d8;" horiz-adv-x="682" 
d="M219 1422h118q11 -73 49 -106.5t107 -33.5q72 0 124.5 37t80.5 103h120q-34 -120 -123.5 -190t-207.5 -70q-116 0 -189 70.5t-79 189.5z" />
    <glyph glyph-name="dotaccent" unicode="&#x2d9;" horiz-adv-x="682" 
d="M398 1209l47 223h223l-48 -223h-222z" />
    <glyph glyph-name="ring" unicode="&#x2da;" horiz-adv-x="682" 
d="M328 1320q0 76 53.5 129t128.5 53q76 0 129 -53.5t53 -128.5q0 -76 -53.5 -129t-128.5 -53t-128.5 53t-53.5 129zM403 1320q0 -45 31.5 -76.5t75.5 -31.5q45 0 76.5 31.5t31.5 76.5q0 44 -31.5 75.5t-76.5 31.5q-44 0 -75.5 -31.5t-31.5 -75.5z" />
    <glyph glyph-name="cedilla" unicode="&#xb8;" horiz-adv-x="682" 
d="M252 -149l41 161h140l-24 -90q88 -12 134 -60.5t46 -109.5q0 -72 -61 -115q-88 -62 -281 -62q-97 0 -170 12l22 112q61 -3 146 -3q103 0 136.5 22t33.5 49q0 32 -29 53q-43 30 -134 31z" />
    <glyph glyph-name="hungarumlaut" unicode="&#x2dd;" horiz-adv-x="682" 
d="M176 1191l186 275h231l-268 -275h-149zM513 1191l183 275h233l-273 -275h-143z" />
    <glyph glyph-name="ogonek" unicode="&#x2db;" horiz-adv-x="682" 
d="M403 -267l-27 -128q-80 -35 -144 -35q-98 0 -141 55q-27 34 -27 86q0 84 68 172q49 63 127 117h132q-136 -74 -161 -191q-3 -14 -3 -28q0 -72 80 -72q47 0 96 24z" />
    <glyph glyph-name="caron" unicode="&#x2c7;" horiz-adv-x="682" 
d="M852 1466l-265 -275h-200l-123 275h158l76 -178l166 178h188z" />
    <glyph glyph-name="Lslash" unicode="&#x141;" 
d="M211 602l-187 -104l35 169l187 104l145 695h196l-119 -572l390 217l-35 -167l-390 -218l-117 -560h757l-35 -166h-953z" />
    <glyph glyph-name="lslash" unicode="&#x142;" horiz-adv-x="455" 
d="M190 623l-152 -81l33 156l152 80l143 688h181l-121 -580l158 84l-32 -155l-158 -84l-153 -731h-181z" />
    <glyph glyph-name="Scaron" unicode="&#x160;" horiz-adv-x="1366" 
d="M144 474l192 18l-2 -51q0 -85 39 -155.5t129 -109t214 -38.5q176 0 268.5 77t92.5 176q0 69 -49 126q-50 56 -273 152q-173 75 -236 115q-99 65 -146 141.5t-47 174.5q0 113 62 204t181.5 139t269.5 48q179 0 302 -60t178.5 -160t55.5 -191q0 -9 -1 -30l-189 -15
q0 62 -11 97q-20 61 -62 103t-115.5 67.5t-164.5 25.5q-160 0 -249 -72q-68 -55 -68 -146q0 -54 28 -96.5t101 -83.5q52 -29 247 -115q158 -70 218 -110q80 -53 123 -128.5t43 -171.5q0 -119 -72.5 -219.5t-200.5 -155.5t-293 -55q-249 0 -406.5 108.5t-158.5 390.5z
M1225 1831l-265 -275h-200l-123 275h158l76 -178l166 178h188z" />
    <glyph glyph-name="scaron" unicode="&#x161;" horiz-adv-x="1024" 
d="M85 363l181 11q0 -78 24 -133t88.5 -90t150.5 -35q120 0 180 48t60 113q0 47 -36 89q-37 42 -180.5 103.5t-183.5 86.5q-67 41 -101 96.5t-34 127.5q0 126 100 216t280 90q200 0 304.5 -92.5t108.5 -243.5l-177 -12q-4 96 -68 152t-181 56q-94 0 -146 -43t-52 -93t45 -88
q30 -26 155 -80q208 -90 262 -142q86 -83 86 -202q0 -79 -48.5 -155t-148 -121.5t-234.5 -45.5q-184 0 -313 91t-122 296zM1032 1466l-265 -275h-200l-123 275h158l76 -178l166 178h188z" />
    <glyph glyph-name="Zcaron" unicode="&#x17d;" horiz-adv-x="1251" 
d="M50 0l19 147l734 877l152 184q46 56 89 103q-93 -11 -130 -11l-48 1l-58 -1l-57 -1h-493l35 167h1011l-17 -153l-787 -935q-145 -173 -184 -217q44 6 57 6h799l-35 -167h-1087zM1121 1831l-265 -275h-200l-123 275h158l76 -178l166 178h188z" />
    <glyph glyph-name="zcaron" unicode="&#x17e;" horiz-adv-x="1024" 
d="M40 0l29 140l571 643q61 68 136 141q-129 -13 -185 -13h-395l32 151h821l-24 -114l-576 -647q-49 -55 -146 -151q151 9 207 9h418l-33 -159h-855zM996 1466l-265 -275h-200l-123 275h158l76 -178l166 178h188z" />
    <glyph glyph-name="brokenbar" unicode="&#xa6;" horiz-adv-x="532" 
d="M345 1491v-790h-157v790h157zM345 360v-791h-157v791h157z" />
    <glyph glyph-name="Eth" unicode="&#xd0;" horiz-adv-x="1479" 
d="M108 0l141 666h-158l28 134h159l141 666h437q138 0 194 -10q88 -16 167 -59.5t139.5 -123t89.5 -184t29 -222.5q0 -177 -54 -322.5t-140 -256.5t-180.5 -173t-223.5 -92q-98 -23 -242 -23h-527zM339 166h231q157 0 279 29q76 18 130 53q71 45 130 119q76 98 121 223.5
t45 285.5q0 178 -62 273.5t-157 126.5q-72 23 -221 23h-256l-106 -499h404l-28 -134h-404z" />
    <glyph glyph-name="eth" unicode="&#xf0;" 
d="M626 1466h188q37 -35 74 -75l177 75l46 -98l-156 -70q83 -136 123 -274t40 -319q0 -209 -83.5 -388t-207 -260.5t-292.5 -81.5q-198 0 -316.5 118.5t-118.5 316.5q0 173 76 332t202.5 239.5t248.5 80.5q89 0 165 -31q58 -24 128 -86q-27 143 -106 286l-228 -100l-48 100
l210 95q-69 90 -122 140zM925 633q0 135 -71.5 210t-187.5 75q-97 0 -183 -58t-142 -184t-56 -260q0 -146 69 -220.5t185 -74.5q111 0 204.5 79t137.5 208t44 225z" />
    <glyph glyph-name="Yacute" unicode="&#xdd;" horiz-adv-x="1366" 
d="M572 0l118 567l-451 899h210l216 -428q71 -140 138 -300q74 136 202 297l344 431h234l-700 -914l-115 -552h-196zM756 1556l188 275h228l-266 -275h-150z" />
    <glyph glyph-name="yacute" unicode="&#xfd;" horiz-adv-x="1024" 
d="M0 -410l11 170q56 -16 109 -16q55 0 89 25q44 33 96 124l58 104l-177 1065h178l80 -537q24 -159 41 -318l475 855h189l-677 -1203q-98 -176 -174 -233t-175 -57q-63 0 -123 21zM523 1191l188 275h228l-266 -275h-150z" />
    <glyph glyph-name="Thorn" unicode="&#xde;" horiz-adv-x="1366" 
d="M88 0l312 1466l196 -1l-63 -296h411q159 0 238.5 -36.5t131.5 -125t52 -198.5q0 -90 -37 -184.5t-93.5 -155.5t-115 -92t-124.5 -46q-141 -33 -284 -33h-365l-63 -298h-196zM383 464h320q188 0 276 40.5t141 123.5t53 176q0 73 -28.5 118t-79 66.5t-195.5 21.5h-371z" />
    <glyph glyph-name="thorn" unicode="&#xfe;" 
d="M-21 -407l393 1873h181l-112 -531q82 82 154 116.5t148 34.5q153 0 253 -110.5t100 -316.5q0 -166 -55 -302.5t-135 -219.5t-162 -122t-168 -39q-191 0 -296 194l-120 -577h-181zM337 434q0 -119 17 -165q25 -65 82 -105t132 -40q156 0 252 175.5t96 358.5
q0 135 -64.5 208.5t-160.5 73.5q-69 0 -128 -36.5t-109.5 -109t-83.5 -177.5t-33 -183z" />
    <glyph glyph-name="minus" unicode="&#x2212;" horiz-adv-x="1196" 
d="M1152 639h-968v168h968v-168z" />
    <glyph glyph-name="multiply" unicode="&#xd7;" horiz-adv-x="1196" 
d="M261 409l315 315l-314 314l122 122l314 -314l313 313l120 -121l-312 -313l314 -314l-122 -122l-314 314l-315 -315z" />
    <glyph glyph-name="uni00B9" unicode="&#xb9;" horiz-adv-x="682" 
d="M419 733l111 532q-103 -72 -251 -102l27 127q76 22 167 76.5t141 117.5h112l-157 -751h-150z" />
    <glyph glyph-name="uni00B2" unicode="&#xb2;" horiz-adv-x="682" 
d="M152 733q31 104 107 190.5t251 185.5q101 57 125 82q35 37 35 79q0 38 -31.5 65.5t-92.5 27.5q-72 0 -111 -28t-58 -86l-153 15q30 107 109 163.5t211 56.5q138 0 207.5 -60.5t69.5 -149.5q0 -81 -60 -149q-45 -49 -194 -139q-89 -53 -122.5 -79t-54.5 -53h379l-25 -121
h-592z" />
    <glyph glyph-name="uni00B3" unicode="&#xb3;" horiz-adv-x="682" 
d="M169 930l143 16q23 -57 64 -84t99 -27q73 0 112.5 36t39.5 89q0 46 -32.5 74t-107.5 28h-41l23 107l33 -1q65 0 115 29t50 84q0 40 -32 67.5t-91 27.5q-57 0 -93 -24.5t-58 -77.5l-147 19q26 86 101 138.5t196 52.5q138 0 207 -57.5t69 -139.5q0 -62 -40 -108.5
t-128 -67.5q74 -30 103.5 -71t29.5 -97q0 -88 -81.5 -158t-221.5 -70q-123 0 -205 60t-107 155z" />
    <glyph glyph-name="onehalf" unicode="&#xbd;" horiz-adv-x="1708" 
d="M123 -61l1396 1552h175l-1409 -1552h-162zM419 733l111 532q-103 -72 -251 -102l27 127q76 22 167 76.5t141 117.5h112l-157 -751h-150zM1020 -35q31 104 107 190.5t251 185.5q101 57 124 82q36 37 36 79q0 38 -32 65.5t-92 27.5q-72 0 -111.5 -28t-57.5 -86l-153 15
q30 107 108.5 163.5t211.5 56.5q138 0 207.5 -60.5t69.5 -149.5q0 -82 -61 -149q-44 -49 -194 -139q-88 -53 -121.5 -79t-54.5 -53h379l-26 -121h-591z" />
    <glyph glyph-name="onequarter" unicode="&#xbc;" horiz-adv-x="1708" 
d="M171 -61l1396 1552h175l-1409 -1552h-162zM419 733l111 532q-103 -72 -251 -102l27 127q76 22 167 76.5t141 117.5h112l-157 -751h-150zM1361 -35l32 152h-387l25 121l512 478h117l-99 -484h100l-26 -115h-100l-31 -152h-143zM1418 232l64 265l-285 -265h221z" />
    <glyph glyph-name="threequarters" unicode="&#xbe;" horiz-adv-x="1708" 
d="M201 -61l1396 1552h175l-1409 -1552h-162zM169 930l143 16q23 -57 64 -84t99 -27q73 0 112.5 36t39.5 89q0 46 -32.5 74t-107.5 28h-41l23 107l33 -1q65 0 115 29t50 84q0 40 -32 67.5t-91 27.5q-57 0 -93 -24.5t-58 -77.5l-147 19q26 86 101 138.5t196 52.5
q138 0 207 -57.5t69 -139.5q0 -62 -40 -108.5t-128 -67.5q74 -30 103.5 -71t29.5 -97q0 -88 -81.5 -158t-221.5 -70q-123 0 -205 60t-107 155zM1361 -35l32 152h-387l25 121l512 478h117l-99 -484h99l-25 -115h-100l-31 -152h-143zM1418 232l64 265l-285 -265h221z" />
    <glyph glyph-name="franc" unicode="&#x20a3;" 
d="M145 245h-169l35 167h169l220 1054h833l-35 -167h-637l-97 -467h651l-35 -167h-651l-53 -253h334l-35 -167h-334l-51 -245h-196z" />
    <glyph glyph-name="Gbreve" unicode="&#x11e;" horiz-adv-x="1593" 
d="M839 578l35 166h642l-125 -597q-121 -76 -276 -124t-305 -48q-320 0 -478 193q-133 163 -133 419q0 264 116.5 480.5t294 320t394.5 103.5q156 0 280 -56.5t190 -151t95 -246.5l-192 -21q-31 151 -128.5 231.5t-250.5 80.5q-159 0 -297 -86.5t-220.5 -261t-82.5 -396.5
q0 -221 109 -334t301 -113q191 0 411 126l66 315h-446zM797 1815h118q11 -73 49 -106.5t107 -33.5q72 0 124.5 37t80.5 103h120q-34 -120 -123.5 -190t-207.5 -70q-116 0 -189 70.5t-79 189.5z" />
    <glyph glyph-name="gbreve" unicode="&#x11f;" 
d="M58 -96l183 -17q-2 -62 15 -93t54 -48q49 -22 127 -22q164 0 236 85q47 57 87 248l18 86q-141 -143 -300 -143q-161 0 -269.5 118.5t-108.5 335.5q0 179 85.5 329t203.5 226.5t243 76.5q209 0 322 -198l36 174h166l-214 -1025q-35 -169 -92 -263.5t-158.5 -146.5
t-234.5 -52q-128 0 -220.5 33t-138 96.5t-45.5 145.5q0 25 5 54zM284 470q0 -109 21 -164q30 -77 85.5 -117.5t123.5 -40.5q89 0 177 62.5t142.5 193.5t54.5 250q0 131 -72.5 208.5t-179.5 77.5q-66 0 -128 -35.5t-115.5 -108t-81 -173.5t-27.5 -153zM483 1422h118
q11 -73 49 -106.5t107 -33.5q72 0 124.5 37t80.5 103h120q-34 -120 -123.5 -190t-207.5 -70q-116 0 -189 70.5t-79 189.5z" />
    <glyph glyph-name="Idotaccent" unicode="&#x130;" horiz-adv-x="569" 
d="M117 0l307 1466h195l-306 -1466h-196zM414 1546l47 223h223l-48 -223h-222z" />
    <glyph glyph-name="Scedilla" unicode="&#x15e;" horiz-adv-x="1366" 
d="M144 474l192 18l-2 -51q0 -85 39 -155.5t129 -109t214 -38.5q176 0 268.5 77t92.5 176q0 69 -49 126q-50 56 -273 152q-173 75 -236 115q-99 65 -146 141.5t-47 174.5q0 113 62 204t181.5 139t269.5 48q179 0 302 -60t178.5 -160t55.5 -191q0 -9 -1 -30l-189 -15
q0 62 -11 97q-20 61 -62 103t-115.5 67.5t-164.5 25.5q-160 0 -249 -72q-68 -55 -68 -146q0 -54 28 -96.5t101 -83.5q52 -29 247 -115q158 -70 218 -110q80 -53 123 -128.5t43 -171.5q0 -119 -72.5 -219.5t-200.5 -155.5t-293 -55q-249 0 -406.5 108.5t-158.5 390.5z
M499 -155l41 161h140l-24 -90q88 -12 134 -60.5t46 -109.5q0 -72 -61 -115q-88 -62 -281 -62q-97 0 -170 12l22 112q61 -3 146 -3q103 0 136.5 22t33.5 49q0 32 -29 53q-43 30 -134 31z" />
    <glyph glyph-name="scedilla" unicode="&#x15f;" horiz-adv-x="1024" 
d="M85 363l181 11q0 -78 24 -133t88.5 -90t150.5 -35q120 0 180 48t60 113q0 47 -36 89q-37 42 -180.5 103.5t-183.5 86.5q-67 41 -101 96.5t-34 127.5q0 126 100 216t280 90q200 0 304.5 -92.5t108.5 -243.5l-177 -12q-4 96 -68 152t-181 56q-94 0 -146 -43t-52 -93t45 -88
q30 -26 155 -80q208 -90 262 -142q86 -83 86 -202q0 -79 -48.5 -155t-148 -121.5t-234.5 -45.5q-184 0 -313 91t-122 296zM358 -131l41 161h140l-24 -90q88 -12 134 -60.5t46 -109.5q0 -72 -61 -115q-88 -62 -281 -62q-97 0 -170 12l22 112q61 -3 146 -3q103 0 136.5 22
t33.5 49q0 32 -29 53q-43 30 -134 31z" />
    <glyph glyph-name="Cacute" unicode="&#x106;" horiz-adv-x="1479" 
d="M1235 516l194 -27q-92 -254 -268 -384t-395 -130q-267 0 -423.5 163t-156.5 467q0 396 238 655q212 231 527 231q233 0 377.5 -125t167.5 -336l-183 -17q-29 159 -119.5 237.5t-233.5 78.5q-269 0 -435 -239q-144 -206 -144 -489q0 -226 111 -345t289 -119q152 0 275 99
t179 280zM836 1556l188 275h228l-266 -275h-150z" />
    <glyph glyph-name="cacute" unicode="&#x107;" horiz-adv-x="1024" 
d="M801 387l181 -19q-68 -199 -193.5 -295.5t-285.5 -96.5q-173 0 -280.5 112t-107.5 313q0 174 69 342t197.5 255.5t293.5 87.5q171 0 271 -96.5t100 -255.5l-178 -12q-1 101 -58.5 158t-151.5 57q-109 0 -189 -69t-125.5 -209.5t-45.5 -270.5q0 -136 60 -204t148 -68
t168.5 67t126.5 204zM585 1191l188 275h228l-266 -275h-150z" />
    <glyph glyph-name="Ccaron" unicode="&#x10c;" horiz-adv-x="1479" 
d="M1235 516l194 -27q-92 -254 -268 -384t-395 -130q-267 0 -423.5 163t-156.5 467q0 396 238 655q212 231 527 231q233 0 377.5 -125t167.5 -336l-183 -17q-29 159 -119.5 237.5t-233.5 78.5q-269 0 -435 -239q-144 -206 -144 -489q0 -226 111 -345t289 -119q152 0 275 99
t179 280zM1321 1831l-265 -275h-200l-123 275h158l76 -178l166 178h188z" />
    <glyph glyph-name="ccaron" unicode="&#x10d;" horiz-adv-x="1024" 
d="M801 387l181 -19q-68 -199 -193.5 -295.5t-285.5 -96.5q-173 0 -280.5 112t-107.5 313q0 174 69 342t197.5 255.5t293.5 87.5q171 0 271 -96.5t100 -255.5l-178 -12q-1 101 -58.5 158t-151.5 57q-109 0 -189 -69t-125.5 -209.5t-45.5 -270.5q0 -136 60 -204t148 -68
t168.5 67t126.5 204zM1055 1466l-265 -275h-200l-123 275h158l76 -178l166 178h188z" />
    <glyph glyph-name="dcroat" unicode="&#x111;" 
d="M993 1219h-326l29 134h325l24 113h180l-23 -113h135l-29 -134h-134l-255 -1219h-167l32 154q-155 -178 -325 -178q-150 0 -250.5 111.5t-100.5 323.5q0 196 80.5 356t199 239.5t240.5 79.5q196 0 297 -191zM288 445q0 -111 22 -175t75 -106.5t127 -42.5q123 0 223 128
q134 170 134 420q0 126 -66 197t-164 71q-67 0 -120.5 -29t-105.5 -97.5t-88.5 -175.5t-36.5 -190z" />
    <glyph glyph-name="macron" unicode="&#xaf;" horiz-adv-x="1131" 
d="M181 1566v129h1193v-129h-1193z" />
    <glyph glyph-name="periodcentered" unicode="&#xb7;" horiz-adv-x="682" 
d="M310 630l43 205h205l-44 -205h-204z" />
    <glyph glyph-name="Abreve" unicode="&#x102;" horiz-adv-x="1366" 
d="M-41 0l831 1466h231l242 -1466h-190l-71 422h-593l-235 -422h-215zM493 573h485l-57 368q-33 219 -41 365q-50 -126 -146 -299zM644 1815h118q11 -73 49 -106.5t107 -33.5q72 0 124.5 37t80.5 103h120q-34 -120 -123.5 -190t-207.5 -70q-116 0 -189 70.5t-79 189.5z" />
    <glyph glyph-name="abreve" unicode="&#x103;" 
d="M784 132q-94 -81 -181 -118.5t-186 -37.5q-147 0 -237 86.5t-90 221.5q0 89 40.5 157.5t107.5 110t164 59.5q61 12 231.5 19t244.5 36q21 74 21 123q0 63 -46 99q-63 50 -184 50q-114 0 -186.5 -50.5t-105.5 -143.5l-183 16q56 158 177.5 242t306.5 84q197 0 312 -94
q88 -70 88 -182q0 -85 -25 -197l-59 -264q-28 -126 -28 -205q0 -50 22 -144h-183q-15 52 -21 132zM851 538q-38 -15 -81.5 -23t-145.5 -17q-158 -14 -223 -35.5t-98 -68.5t-33 -104q0 -76 52.5 -125t149.5 -49q90 0 173 47.5t131 132.5t75 242zM462 1422h118
q11 -73 49 -106.5t107 -33.5q72 0 124.5 37t80.5 103h120q-34 -120 -123.5 -190t-207.5 -70q-116 0 -189 70.5t-79 189.5z" />
    <glyph glyph-name="Aogonek" unicode="&#x104;" horiz-adv-x="1366" 
d="M-41 0l831 1466h231l242 -1466h-190l-71 422h-593l-235 -422h-215zM493 573h485l-57 368q-33 219 -41 365q-50 -126 -146 -299zM1243 -267l-27 -128q-80 -35 -144 -35q-98 0 -141 55q-27 34 -27 86q0 84 68 172q49 63 127 117h132q-136 -74 -161 -191q-3 -14 -3 -28
q0 -72 80 -72q47 0 96 24z" />
    <glyph glyph-name="aogonek" unicode="&#x105;" 
d="M784 132q-94 -81 -181 -118.5t-186 -37.5q-147 0 -237 86.5t-90 221.5q0 89 40.5 157.5t107.5 110t164 59.5q61 12 231.5 19t244.5 36q21 74 21 123q0 63 -46 99q-63 50 -184 50q-114 0 -186.5 -50.5t-105.5 -143.5l-183 16q56 158 177.5 242t306.5 84q197 0 312 -94
q88 -70 88 -182q0 -85 -25 -197l-59 -264q-28 -126 -28 -205q0 -50 22 -144h-183q-15 52 -21 132zM851 538q-38 -15 -81.5 -23t-145.5 -17q-158 -14 -223 -35.5t-98 -68.5t-33 -104q0 -76 52.5 -125t149.5 -49q90 0 173 47.5t131 132.5t75 242zM973 -267l-27 -128
q-80 -35 -144 -35q-98 0 -141 55q-27 34 -27 86q0 84 68 172q49 63 127 117h132q-136 -74 -161 -191q-3 -14 -3 -28q0 -72 80 -72q47 0 96 24z" />
    <glyph glyph-name="Dcaron" unicode="&#x10e;" horiz-adv-x="1479" 
d="M91 0l306 1466h442q159 0 243 -23q120 -31 205 -110.5t128 -198.5t43 -267q0 -177 -53.5 -322.5t-140 -256t-181 -173t-223.5 -92.5q-98 -23 -241 -23h-528zM322 166h232q157 0 279 29q76 18 130 53q71 45 129 119q76 98 121.5 223.5t45.5 285.5q0 178 -62 273.5
t-158 126.5q-71 23 -221 23h-259zM1182 1831l-265 -275h-200l-123 275h158l76 -178l166 178h188z" />
    <glyph glyph-name="dcaron" unicode="&#x10f;" horiz-adv-x="1280" 
d="M788 154q-155 -178 -325 -178q-150 0 -250.5 111.5t-100.5 323.5q0 196 80.5 356t199 239.5t240.5 79.5q196 0 297 -191l120 571h180l-306 -1466h-167zM292 445q0 -111 22 -175t75 -106.5t127 -42.5q123 0 223 128q134 170 134 420q0 126 -66 197t-164 71
q-67 0 -120.5 -29t-105.5 -97.5t-88.5 -175.5t-36.5 -190zM1297 1281l39 185h186l-34 -162q-30 -145 -94.5 -212t-151.5 -77l15 71q106 30 142 195h-102z" />
    <glyph glyph-name="Dcroat" unicode="&#x110;" horiz-adv-x="1479" 
d="M108 0l141 666h-158l28 134h159l141 666h437q138 0 194 -10q88 -16 167 -59.5t139.5 -123t89.5 -184t29 -222.5q0 -177 -54 -322.5t-140 -256.5t-180.5 -173t-223.5 -92q-98 -23 -242 -23h-527zM339 166h231q157 0 279 29q76 18 130 53q71 45 130 119q76 98 121 223.5
t45 285.5q0 178 -62 273.5t-157 126.5q-72 23 -221 23h-256l-106 -499h404l-28 -134h-404z" />
    <glyph glyph-name="Eogonek" unicode="&#x118;" horiz-adv-x="1366" 
d="M92 0l307 1466h1058l-35 -167h-862l-96 -456h840l-35 -167h-840l-106 -510h923l-35 -166h-1119zM1103 -267l-27 -128q-80 -35 -144 -35q-98 0 -141 55q-27 34 -27 86q0 84 68 172q49 63 127 117h132q-136 -74 -161 -191q-3 -14 -3 -28q0 -72 80 -72q47 0 96 24z" />
    <glyph glyph-name="eogonek" unicode="&#x119;" 
d="M848 361l176 -18q-38 -131 -174.5 -249t-325.5 -118q-118 0 -216.5 54.5t-150 158.5t-51.5 237q0 174 80.5 337.5t208.5 243t277 79.5q190 0 303.5 -118t113.5 -322q0 -78 -14 -160h-782q-4 -31 -4 -56q0 -149 68.5 -227.5t167.5 -78.5q93 0 183 61t140 176zM322 624h596
q1 28 1 40q0 136 -68 208.5t-175 72.5q-116 0 -211.5 -80t-142.5 -241zM686 -267l-27 -128q-80 -35 -144 -35q-98 0 -141 55q-27 34 -27 86q0 84 68 172q49 63 127 117h132q-136 -74 -161 -191q-3 -14 -3 -28q0 -72 80 -72q47 0 96 24z" />
    <glyph glyph-name="Ecaron" unicode="&#x11a;" horiz-adv-x="1366" 
d="M92 0l307 1466h1058l-35 -167h-862l-96 -456h840l-35 -167h-840l-106 -510h923l-35 -166h-1119zM1254 1831l-265 -275h-200l-123 275h158l76 -178l166 178h188z" />
    <glyph glyph-name="ecaron" unicode="&#x11b;" 
d="M848 361l176 -18q-38 -131 -174.5 -249t-325.5 -118q-118 0 -216.5 54.5t-150 158.5t-51.5 237q0 174 80.5 337.5t208.5 243t277 79.5q190 0 303.5 -118t113.5 -322q0 -78 -14 -160h-782q-4 -31 -4 -56q0 -149 68.5 -227.5t167.5 -78.5q93 0 183 61t140 176zM322 624h596
q1 28 1 40q0 136 -68 208.5t-175 72.5q-116 0 -211.5 -80t-142.5 -241zM1055 1466l-265 -275h-200l-123 275h158l76 -178l166 178h188z" />
    <glyph glyph-name="Lacute" unicode="&#x139;" 
d="M82 0l306 1466h196l-271 -1300h761l-35 -166h-957zM512 1556l188 275h228l-266 -275h-150z" />
    <glyph glyph-name="lacute" unicode="&#x13a;" horiz-adv-x="455" 
d="M54 0l306 1466h181l-306 -1466h-181zM302 1541l188 275h228l-266 -275h-150z" />
    <glyph glyph-name="Lcaron" unicode="&#x13d;" 
d="M896 1261l43 205h206l-37 -179q-33 -161 -104.5 -236t-169.5 -86l17 79q119 32 158 217h-113zM82 0l306 1466h196l-271 -1300h761l-35 -166h-957z" />
    <glyph glyph-name="lcaron" unicode="&#x13e;" horiz-adv-x="576" 
d="M56 0l306 1466h181l-306 -1466h-181zM594 1281l38 185h186l-34 -162q-30 -145 -94.5 -212t-151.5 -77l15 71q107 30 142 195h-101z" />
    <glyph glyph-name="Ldot" unicode="&#x13f;" 
d="M82 0l306 1466h196l-271 -1300h761l-35 -166h-957zM538 630l43 205h205l-44 -205h-204z" />
    <glyph glyph-name="ldot" unicode="&#x140;" horiz-adv-x="819" 
d="M54 0l306 1466h181l-306 -1466h-181zM507 630l43 205h205l-44 -205h-204z" />
    <glyph glyph-name="Nacute" unicode="&#x143;" horiz-adv-x="1479" 
d="M100 0l307 1466h190l247 -550q113 -252 179 -424q38 -100 88 -270q27 185 68 382l180 862h191l-306 -1466h-194l-364 847q-97 224 -151 395q-15 -143 -58 -351l-186 -891h-191zM795 1556l188 275h228l-266 -275h-150z" />
    <glyph glyph-name="nacute" unicode="&#x144;" 
d="M68 0l222 1062h164l-39 -185q107 109 200 159t190 50q129 0 202.5 -70t73.5 -187q0 -59 -26 -186l-135 -643h-181l141 673q21 98 21 145q0 53 -36.5 86t-105.5 33q-139 0 -247.5 -100t-159.5 -343l-103 -494h-181zM579 1191l188 275h228l-266 -275h-150z" />
    <glyph glyph-name="Ncaron" unicode="&#x147;" horiz-adv-x="1479" 
d="M100 0l307 1466h190l247 -550q113 -252 179 -424q38 -100 88 -270q27 185 68 382l180 862h191l-306 -1466h-194l-364 847q-97 224 -151 395q-15 -143 -58 -351l-186 -891h-191zM1304 1831l-265 -275h-200l-123 275h158l76 -178l166 178h188z" />
    <glyph glyph-name="ncaron" unicode="&#x148;" 
d="M68 0l222 1062h164l-39 -185q107 109 200 159t190 50q129 0 202.5 -70t73.5 -187q0 -59 -26 -186l-135 -643h-181l141 673q21 98 21 145q0 53 -36.5 86t-105.5 33q-139 0 -247.5 -100t-159.5 -343l-103 -494h-181zM1085 1466l-265 -275h-200l-123 275h158l76 -178
l166 178h188z" />
    <glyph glyph-name="Ohungarumlaut" unicode="&#x150;" horiz-adv-x="1593" 
d="M187 614q0 392 226.5 634.5t549.5 242.5q274 0 446.5 -178.5t172.5 -478.5q0 -214 -87 -397q-65 -137 -164 -236.5t-212 -153.5q-150 -72 -318 -72q-176 0 -320.5 84t-219 234.5t-74.5 320.5zM380 604q0 -129 53.5 -237t159.5 -169t223 -61q113 0 215 53.5t182.5 149
t127 235t46.5 274.5q0 219 -122.5 349t-302.5 130q-230 0 -406 -196.5t-176 -527.5zM715 1556l186 275h231l-268 -275h-149zM1052 1556l183 275h233l-273 -275h-143z" />
    <glyph glyph-name="ohungarumlaut" unicode="&#x151;" 
d="M100 403q0 311 183 515q151 168 396 168q192 0 309.5 -120t117.5 -324q0 -183 -74 -340.5t-210.5 -241.5t-287.5 -84q-124 0 -225.5 53t-155 150t-53.5 224zM281 421q0 -150 72 -227.5t183 -77.5q58 0 115 23.5t106 71.5t83.5 109.5t55.5 132.5q31 99 31 190
q0 144 -72.5 223.5t-182.5 79.5q-85 0 -155 -40.5t-126.5 -118.5t-83 -181.5t-26.5 -184.5zM438 1191l186 275h231l-268 -275h-149zM775 1191l183 275h233l-273 -275h-143z" />
    <glyph glyph-name="Racute" unicode="&#x154;" horiz-adv-x="1479" 
d="M96 0l307 1466h615q182 0 276 -30.5t147.5 -114.5t53.5 -212q0 -179 -117 -297t-378 -153q80 -59 121 -116q92 -129 148 -267l112 -276h-219l-105 273q-57 148 -130 256q-50 75 -102 98.5t-169 23.5h-228l-136 -651h-196zM461 810h271q188 0 245 5q111 11 182 50t110 105
t39 142q0 64 -29 111.5t-76 64.5t-160 17h-478zM694 1556l188 275h228l-266 -275h-150z" />
    <glyph glyph-name="racute" unicode="&#x155;" horiz-adv-x="682" 
d="M68 0l222 1062h160l-45 -217q82 123 160.5 182t160.5 59q54 0 133 -39l-74 -168q-47 34 -103 34q-95 0 -195 -106t-157 -381l-90 -426h-172zM420 1191l188 275h228l-266 -275h-150z" />
    <glyph glyph-name="Rcaron" unicode="&#x158;" horiz-adv-x="1479" 
d="M96 0l307 1466h615q182 0 276 -30.5t147.5 -114.5t53.5 -212q0 -179 -117 -297t-378 -153q80 -59 121 -116q92 -129 148 -267l112 -276h-219l-105 273q-57 148 -130 256q-50 75 -102 98.5t-169 23.5h-228l-136 -651h-196zM461 810h271q188 0 245 5q111 11 182 50t110 105
t39 142q0 64 -29 111.5t-76 64.5t-160 17h-478zM1239 1831l-265 -275h-200l-123 275h158l76 -178l166 178h188z" />
    <glyph glyph-name="rcaron" unicode="&#x159;" horiz-adv-x="682" 
d="M68 0l222 1062h160l-45 -217q82 123 160.5 182t160.5 59q54 0 133 -39l-74 -168q-47 34 -103 34q-95 0 -195 -106t-157 -381l-90 -426h-172zM926 1466l-265 -275h-200l-123 275h158l76 -178l166 178h188z" />
    <glyph glyph-name="Sacute" unicode="&#x15a;" horiz-adv-x="1366" 
d="M144 474l192 18l-2 -51q0 -85 39 -155.5t129 -109t214 -38.5q176 0 268.5 77t92.5 176q0 69 -49 126q-50 56 -273 152q-173 75 -236 115q-99 65 -146 141.5t-47 174.5q0 113 62 204t181.5 139t269.5 48q179 0 302 -60t178.5 -160t55.5 -191q0 -9 -1 -30l-189 -15
q0 62 -11 97q-20 61 -62 103t-115.5 67.5t-164.5 25.5q-160 0 -249 -72q-68 -55 -68 -146q0 -54 28 -96.5t101 -83.5q52 -29 247 -115q158 -70 218 -110q80 -53 123 -128.5t43 -171.5q0 -119 -72.5 -219.5t-200.5 -155.5t-293 -55q-249 0 -406.5 108.5t-158.5 390.5z
M718 1556l188 275h228l-266 -275h-150z" />
    <glyph glyph-name="sacute" unicode="&#x15b;" horiz-adv-x="1024" 
d="M85 363l181 11q0 -78 24 -133t88.5 -90t150.5 -35q120 0 180 48t60 113q0 47 -36 89q-37 42 -180.5 103.5t-183.5 86.5q-67 41 -101 96.5t-34 127.5q0 126 100 216t280 90q200 0 304.5 -92.5t108.5 -243.5l-177 -12q-4 96 -68 152t-181 56q-94 0 -146 -43t-52 -93t45 -88
q30 -26 155 -80q208 -90 262 -142q86 -83 86 -202q0 -79 -48.5 -155t-148 -121.5t-234.5 -45.5q-184 0 -313 91t-122 296zM500 1191l188 275h228l-266 -275h-150z" />
    <glyph glyph-name="uni0162" unicode="&#x162;" horiz-adv-x="1251" 
d="M465 0l271 1299h-481l35 167h1154l-35 -167h-477l-271 -1299h-196zM462 -155l41 161h140l-24 -90q88 -12 134 -60.5t46 -109.5q0 -72 -61 -115q-88 -62 -281 -62q-97 0 -170 12l22 112q61 -3 146 -3q103 0 136.5 22t33.5 49q0 32 -29 53q-43 30 -134 31z" />
    <glyph glyph-name="uni0163" unicode="&#x163;" horiz-adv-x="569" 
d="M491 147l-30 -148q-65 -17 -126 -17q-108 0 -172 53q-48 40 -48 109q0 35 26 161l129 617h-143l29 140h143l55 261l207 125l-81 -386h178l-30 -140h-177l-123 -587q-23 -112 -23 -134q0 -32 18.5 -49t60.5 -17q60 0 107 12zM202 -155l41 161h140l-24 -90
q88 -12 134 -60.5t46 -109.5q0 -72 -61 -115q-88 -62 -281 -62q-97 0 -170 12l22 112q61 -3 146 -3q103 0 136.5 22t33.5 49q0 32 -29 53q-43 30 -134 31z" />
    <glyph glyph-name="Tcaron" unicode="&#x164;" horiz-adv-x="1251" 
d="M465 0l271 1299h-481l35 167h1154l-35 -167h-477l-271 -1299h-196zM1208 1831l-265 -275h-200l-123 275h158l76 -178l166 178h188z" />
    <glyph glyph-name="tcaron" unicode="&#x165;" horiz-adv-x="725" 
d="M745 1281l39 185h185l-33 -162q-31 -145 -95 -212t-152 -77l15 71q107 30 142 195h-101zM485 147l-30 -148q-65 -17 -126 -17q-108 0 -172 53q-48 40 -48 109q0 35 26 161l129 617h-143l29 140h143l55 261l207 125l-81 -386h178l-30 -140h-177l-123 -587
q-23 -112 -23 -134q0 -32 18.5 -49t60.5 -17q60 0 107 12z" />
    <glyph glyph-name="Uring" unicode="&#x16e;" horiz-adv-x="1479" 
d="M406 1466h196l-188 -901q-23 -112 -23 -166q0 -118 93 -190t234 -72q112 0 208.5 51.5t152.5 151.5t101 319l169 807h196l-179 -860q-46 -220 -121 -348.5t-208 -206t-309 -77.5q-166 0 -287.5 55t-182 152t-60.5 220q0 77 41 265zM794 1648q0 76 53.5 129t128.5 53
q76 0 129 -53.5t53 -128.5q0 -76 -53.5 -129t-128.5 -53t-128.5 53t-53.5 129zM869 1648q0 -45 31.5 -76.5t75.5 -31.5q45 0 76.5 31.5t31.5 76.5q0 44 -31.5 75.5t-76.5 31.5q-44 0 -75.5 -31.5t-31.5 -75.5z" />
    <glyph glyph-name="uring" unicode="&#x16f;" 
d="M793 192q-191 -216 -391 -216q-123 0 -198.5 70.5t-75.5 172.5q0 67 34 230l128 613h181l-142 -679q-18 -85 -18 -132q0 -60 36.5 -93.5t107.5 -33.5q76 0 148.5 37t125 100t85.5 149q22 55 51 193l96 459h181l-222 -1062h-167zM543 1320q0 76 53.5 129t128.5 53
q76 0 129 -53.5t53 -128.5q0 -76 -53.5 -129t-128.5 -53t-128.5 53t-53.5 129zM618 1320q0 -45 31.5 -76.5t75.5 -31.5q45 0 76.5 31.5t31.5 76.5q0 44 -31.5 75.5t-76.5 31.5q-44 0 -75.5 -31.5t-31.5 -75.5z" />
    <glyph glyph-name="Uhungarumlaut" unicode="&#x170;" horiz-adv-x="1479" 
d="M406 1466h196l-188 -901q-23 -112 -23 -166q0 -118 93 -190t234 -72q112 0 208.5 51.5t152.5 151.5t101 319l169 807h196l-179 -860q-46 -220 -121 -348.5t-208 -206t-309 -77.5q-166 0 -287.5 55t-182 152t-60.5 220q0 77 41 265zM702 1556l186 275h231l-268 -275h-149z
M1039 1556l183 275h233l-273 -275h-143z" />
    <glyph glyph-name="uhungarumlaut" unicode="&#x171;" 
d="M793 192q-191 -216 -391 -216q-123 0 -198.5 70.5t-75.5 172.5q0 67 34 230l128 613h181l-142 -679q-18 -85 -18 -132q0 -60 36.5 -93.5t107.5 -33.5q76 0 148.5 37t125 100t85.5 149q22 55 51 193l96 459h181l-222 -1062h-167zM410 1191l186 275h231l-268 -275h-149z
M747 1191l183 275h233l-273 -275h-143z" />
    <glyph glyph-name="Zacute" unicode="&#x179;" horiz-adv-x="1251" 
d="M50 0l19 147l734 877l152 184q46 56 89 103q-93 -11 -130 -11l-48 1l-58 -1l-57 -1h-493l35 167h1011l-17 -153l-787 -935q-145 -173 -184 -217q44 6 57 6h799l-35 -167h-1087zM623 1556l188 275h228l-266 -275h-150z" />
    <glyph glyph-name="zacute" unicode="&#x17a;" horiz-adv-x="1024" 
d="M40 0l29 140l571 643q61 68 136 141q-129 -13 -185 -13h-395l32 151h821l-24 -114l-576 -647q-49 -55 -146 -151q151 9 207 9h418l-33 -159h-855zM489 1191l188 275h228l-266 -275h-150z" />
    <glyph glyph-name="Zdotaccent" unicode="&#x17b;" horiz-adv-x="1251" 
d="M50 0l19 147l734 877l152 184q46 56 89 103q-93 -11 -130 -11l-48 1l-58 -1l-57 -1h-493l35 167h1011l-17 -153l-787 -935q-145 -173 -184 -217q44 6 57 6h799l-35 -167h-1087zM662 1546l47 223h223l-48 -223h-222z" />
    <glyph glyph-name="zdotaccent" unicode="&#x17c;" horiz-adv-x="1024" 
d="M40 0l29 140l571 643q61 68 136 141q-129 -13 -185 -13h-395l32 151h821l-24 -114l-576 -647q-49 -55 -146 -151q151 9 207 9h418l-33 -159h-855zM517 1209l47 223h223l-48 -223h-222z" />
    <glyph glyph-name="Gamma" unicode="&#x393;" horiz-adv-x="1168" 
d="M87 0l306 1466h957l-35 -167h-761l-271 -1299h-196z" />
    <glyph glyph-name="Theta" unicode="&#x398;" horiz-adv-x="1593" 
d="M187 639q0 340 215 596t561 256q294 0 456.5 -189t162.5 -469q0 -362 -230 -610t-548 -248q-273 0 -445 181t-172 483zM380 626q0 -246 134.5 -367.5t302.5 -121.5q146 0 279.5 92.5t212 265.5t78.5 352q0 232 -127.5 356.5t-297.5 124.5q-239 0 -410.5 -203t-171.5 -499
zM594 650l35 166h544l-35 -166h-544z" />
    <glyph glyph-name="Phi" unicode="&#x3a6;" horiz-adv-x="1714" 
d="M1000 1507h196l-40 -189q262 -23 399 -158.5t137 -334.5q0 -158 -90 -307t-256 -234t-435 -102l-52 -239h-196l52 248q-258 22 -396.5 154t-138.5 332q0 249 194.5 441.5t585.5 205.5zM925 1154q-282 -24 -417.5 -157.5t-135.5 -317.5q0 -300 379 -326zM947 354
q298 28 427 168.5t129 317.5q0 130 -95 215t-287 96z" />
    <glyph glyph-name="alpha" unicode="&#x3b1;" horiz-adv-x="1168" 
d="M1034 1062h193l-238 -515v-192q0 -169 14 -355h-181l-20 158q-148 -182 -346 -182q-113 0 -189 54t-120.5 144t-44.5 235q0 282 156 479.5t373 197.5q207 0 314 -217zM281 395q0 -137 62 -204t154 -67q151 0 258.5 170t107.5 368q0 118 -57.5 196.5t-160.5 78.5
q-158 0 -261 -173.5t-103 -368.5z" />
    <glyph glyph-name="delta" unicode="&#x3b4;" horiz-adv-x="1138" 
d="M402 1466h807l-31 -151h-596q107 -124 274 -266q165 -140 206 -234.5t41 -191.5q0 -244 -152 -445.5t-423 -201.5q-210 0 -320 128t-110 310q0 243 150 437t390 203q-191 180 -262 293zM281 413q0 -142 71.5 -219.5t181.5 -77.5q166 0 274.5 160t108.5 354
q0 124 -64.5 204t-178.5 80q-160 0 -276.5 -145t-116.5 -356z" />
    <glyph glyph-name="epsilon" unicode="&#x3b5;" horiz-adv-x="900" 
d="M937 934l-138 -93q-90 96 -204 96q-92 0 -147.5 -52t-55.5 -120q0 -141 239 -156l-28 -136q-37 2 -56 2q-128 0 -209.5 -62t-81.5 -148q0 -71 48.5 -110t127.5 -39q150 0 286 129l110 -117q-172 -152 -390 -152q-181 0 -275 83t-94 202q0 203 249 301q-107 92 -107 215
q0 129 110 219t265 90q212 0 351 -152z" />
    <glyph glyph-name="sigma" unicode="&#x3c3;" horiz-adv-x="1235" 
d="M1320 1062l-31 -151h-265q77 -112 77 -278q0 -260 -152 -458.5t-417 -198.5q-201 0 -316.5 118.5t-115.5 310.5q0 285 157.5 483t411.5 198q81 0 147 -24h504zM280 409q0 -129 68 -211t186 -82q180 0 283.5 172.5t103.5 352.5q0 147 -66.5 226t-180.5 79
q-179 0 -286.5 -164.5t-107.5 -372.5z" />
    <glyph glyph-name="tau" unicode="&#x3c4;" horiz-adv-x="766" 
d="M207 1062h643l-32 -151h-230l-191 -911h-181l191 911h-231z" />
    <glyph glyph-name="phi" unicode="&#x3c6;" horiz-adv-x="1336" 
d="M662 1086l-75 -175q-132 -27 -213.5 -166t-81.5 -299q0 -127 71 -208t180 -104l105 494q36 171 74 260t108.5 143.5t158.5 54.5q127 0 224.5 -111.5t97.5 -311.5q0 -201 -96 -366t-215.5 -234.5t-310.5 -86.5l-79 -383h-181l79 383q-190 28 -293.5 166t-103.5 323
q0 237 156.5 426.5t394.5 194.5zM722 135q199 27 308 189t109 363q0 123 -38.5 186.5t-101.5 63.5q-64 0 -98 -62t-71 -238z" />
    <glyph glyph-name="underscoredbl" unicode="&#x2017;" horiz-adv-x="1131" 
d="M-130 -407v130h1193v-130h-1193zM-130 -665v129h1193v-129h-1193z" />
    <glyph glyph-name="exclamdbl" unicode="&#x203c;" horiz-adv-x="1024" 
d="M229 370l111 796l63 300h219l-68 -325l-212 -771h-113zM115 0l43 205h204l-43 -205h-204zM677 370l111 796l63 300h219l-68 -325l-212 -771h-113zM563 0l43 205h204l-43 -205h-204z" />
    <glyph glyph-name="uni207F" unicode="&#x207f;" horiz-adv-x="747" 
d="M119 519l151 665h131l-20 -88q70 57 123.5 79.5t112.5 22.5q88 0 138 -46.5t50 -123.5q0 -35 -17 -112l-90 -397h-143l96 420q13 58 13 85q0 25 -20 41t-61 16q-88 0 -154 -58t-98 -196l-69 -308h-143z" />
    <glyph glyph-name="peseta" unicode="&#x20a7;" horiz-adv-x="2240" 
d="M340 1466h320q162 0 262 -42t157.5 -131.5t66.5 -226.5h75l67 309h181l-67 -309h270q78 29 161 29q102 0 179 -37t118 -86t56.5 -104t15.5 -142h-165q-7 130 -62.5 180t-151.5 50q-81 0 -124.5 -40.5t-43.5 -100.5q0 -32 21 -61q16 -21 66 -49q225 -125 303.5 -206
t78.5 -188q0 -136 -106.5 -236.5t-270.5 -100.5q-111 0 -205 43q-70 32 -140 103l-30 -120q-79 -11 -125 -11q-108 0 -161 45.5t-53 108.5q0 39 19 132l138 649h-64q-38 -119 -112 -195.5t-187 -111.5q-80 -24 -299 -24h-179l-127 -593h-197zM500 1302l-115 -545h115
q204 0 280 32t120.5 102.5t44.5 165.5q0 118 -68 181.5t-218 63.5h-159zM1372 924l-139 -656q-9 -46 -9 -68q0 -25 22 -44t64 -19q29 0 74 8q-30 41 -43 82.5t-13 103.5q0 31 6 70h172q-3 -38 -3 -54q0 -101 63.5 -163.5t169.5 -62.5q94 0 151 50.5t57 116.5q0 49 -45 95
q-32 33 -143 95q-161 90 -214.5 159.5t-53.5 154.5q0 63 32 132h-148z" />
    <glyph glyph-name="arrowleft" unicode="&#x2190;" horiz-adv-x="2048" 
d="M492 876h76q-59 -118 -88.5 -165.5t-106.5 -143.5h1595v-101h-1595q104 -108 198 -309h-78q-129 144 -222 218.5t-192 122.5v45q87 37 184 113t229 220z" />
    <glyph glyph-name="arrowup" unicode="&#x2191;" horiz-adv-x="1024" 
d="M153 926q145 133 220.5 230t112.5 183h46q47 -99 121.5 -192t218.5 -222v-77q-201 94 -309 197v-1474h-101v1474q-96 -76 -143.5 -106t-165.5 -89v76z" />
    <glyph glyph-name="arrowright" unicode="&#x2192;" horiz-adv-x="2048" 
d="M1555 876q133 -145 230 -220.5t183 -112.5v-45q-99 -48 -192 -122.5t-222 -218.5h-77q94 201 197 309h-1595v101h1595q-76 97 -106 144t-89 165h76z" />
    <glyph glyph-name="arrowdown" unicode="&#x2193;" horiz-adv-x="1024" 
d="M153 -16v76q119 -59 166 -89t143 -106v1474h101v-1474q108 103 309 197v-77q-144 -129 -218.5 -222t-121.5 -192h-46q-37 86 -112.5 183t-220.5 230z" />
    <glyph glyph-name="arrowboth" unicode="&#x2194;" horiz-adv-x="2048" 
d="M1968 540v-45q-94 -43 -185 -116t-221 -221h-80q69 172 194 311h-1305q125 -139 194 -311h-80q-130 148 -221 221t-185 116v45q94 44 185 116.5t221 221.5h80q-69 -172 -194 -311h1305q-125 139 -194 311h80q130 -149 221 -221.5t185 -116.5z" />
    <glyph glyph-name="arrowupdn" unicode="&#x2195;" horiz-adv-x="1024" 
d="M489 1463h45q44 -94 116.5 -185.5t220.5 -221.5v-80q-171 69 -311 195v-1306q140 126 311 194v-79q-148 -130 -220.5 -221.5t-116.5 -185.5h-45q-43 94 -116 185.5t-221 221.5v79q171 -68 311 -194v1306q-140 -126 -311 -195v80q148 130 221 221.5t116 185.5z" />
    <glyph glyph-name="arrowupdnbse" unicode="&#x21a8;" horiz-adv-x="1024" 
d="M489 1463h45q44 -94 116.5 -185.5t220.5 -221.5v-80q-171 69 -311 195v-1306q140 126 311 194v-79q-148 -130 -220.5 -221.5t-116.5 -185.5h-45q-43 94 -116 185.5t-221 221.5v79q171 -68 311 -194v1306q-140 -126 -311 -195v80q148 130 221 221.5t116 185.5zM154 -522
h717v-98h-717v98z" />
    <glyph glyph-name="orthogonal" unicode="&#x221f;" horiz-adv-x="2005" 
d="M362 1279h100v-1179h1181v-100h-1281v1279z" />
    <glyph glyph-name="intersection" unicode="&#x2229;" horiz-adv-x="1472" 
d="M373 0h-135v621q0 261 7 330q12 125 46 206t108.5 159t184 127t233.5 49q119 0 226.5 -46.5t187.5 -126.5t114.5 -170t45.5 -225q4 -52 4 -303v-621h-134v628q0 227 -6 290q-10 114 -36.5 181.5t-82 126.5t-142 97t-178.5 38t-182 -40t-147.5 -105.5t-80.5 -143.5
t-30 -182q-3 -54 -3 -262v-628z" />
    <glyph glyph-name="equivalence" unicode="&#x2261;" horiz-adv-x="1196" 
d="M1152 1085h-968v167h968v-167zM1152 639h-968v168h968v-168zM1152 194h-968v168h968v-168z" />
    <glyph glyph-name="house" unicode="&#x2302;" horiz-adv-x="1237" 
d="M157 0v634l461 519l462 -519v-634h-923zM238 81h761v519l-381 427l-380 -427v-519z" />
    <glyph glyph-name="revlogicalnot" unicode="&#x2310;" horiz-adv-x="1196" 
d="M113 424v606h968v-168h-798v-438h-170z" />
    <glyph glyph-name="integraltp" unicode="&#x2320;" horiz-adv-x="1237" 
d="M691 -515h-145v1811q0 219 89.5 330t202.5 111q67 0 102.5 -32.5t35.5 -76.5q0 -40 -25.5 -66t-62.5 -26q-30 0 -57 15q-18 10 -41.5 46.5t-46.5 36.5q-17 0 -31 -12q-10 -8 -14 -27q-7 -33 -7 -139v-1971z" />
    <glyph glyph-name="integralbt" unicode="&#x2321;" horiz-adv-x="1237" 
d="M546 1737h145v-1811q0 -219 -89.5 -330t-202.5 -111q-67 0 -102.5 32.5t-35.5 76.5q0 40 25.5 66t61.5 26q31 0 59 -16q18 -10 41 -46t46 -36q17 0 31 12q10 7 14 28q7 32 7 138v1971z" />
    <glyph glyph-name="SF100000" unicode="&#x2500;" horiz-adv-x="1451" 
d="M1473 534h-1496v175h1496v-175z" />
    <glyph glyph-name="SF110000" unicode="&#x2502;" horiz-adv-x="1280" 
d="M457 -621v2485h175v-2485h-175z" />
    <glyph glyph-name="SF010000" unicode="&#x250c;" horiz-adv-x="1451" 
d="M1474 709v-175h-661v-1155h-175v1330h836z" />
    <glyph glyph-name="SF030000" unicode="&#x2510;" horiz-adv-x="1451" 
d="M637 534h-660v175h835v-1330h-175v1155z" />
    <glyph glyph-name="SF020000" unicode="&#x2514;" horiz-adv-x="1451" 
d="M638 534v1330h175v-1155h661v-175h-836z" />
    <glyph glyph-name="SF040000" unicode="&#x2518;" horiz-adv-x="1451" 
d="M812 534h-835v175h660v1155h175v-1330z" />
    <glyph glyph-name="SF080000" unicode="&#x251c;" horiz-adv-x="1451" 
d="M638 -621v2485h175v-1155h661v-175h-661v-1155h-175z" />
    <glyph glyph-name="SF090000" unicode="&#x2524;" horiz-adv-x="1451" 
d="M637 -621v1155h-660v175h660v1155h175v-2485h-175z" />
    <glyph glyph-name="SF060000" unicode="&#x252c;" horiz-adv-x="1451" 
d="M637 534h-660v175h1496v-175h-661v-1155h-175v1155z" />
    <glyph glyph-name="SF070000" unicode="&#x2534;" horiz-adv-x="1451" 
d="M1473 534h-1496v175h660v1155h175v-1155h661v-175z" />
    <glyph glyph-name="SF050000" unicode="&#x253c;" horiz-adv-x="1451" 
d="M637 534h-660v175h660v1155h175v-1155h661v-175h-661v-1155h-175v1155z" />
    <glyph glyph-name="SF430000" unicode="&#x2550;" horiz-adv-x="1451" 
d="M1473 724h-1496v175h1496v-175zM1473 344h-1496v175h1496v-175z" />
    <glyph glyph-name="SF240000" unicode="&#x2551;" horiz-adv-x="1451" 
d="M828 -621v2485h175v-2485h-175zM448 -621v2485h175v-2485h-175z" />
    <glyph glyph-name="SF510000" unicode="&#x2552;" horiz-adv-x="1451" 
d="M638 -621v1520h836v-175h-661v-205h661v-175h-661v-965h-175z" />
    <glyph glyph-name="SF520000" unicode="&#x2553;" horiz-adv-x="1451" 
d="M448 -621v1330h1026v-175h-471v-1155h-175v1140h-205v-1140h-175z" />
    <glyph glyph-name="SF390000" unicode="&#x2554;" horiz-adv-x="1451" 
d="M623 -621h-175v1520h1025v-175h-850v-1345zM1003 344v-965h-175v1140h645v-175h-470z" />
    <glyph glyph-name="SF220000" unicode="&#x2555;" horiz-adv-x="1451" 
d="M637 344h-660v175h660v205h-660v175h835v-1520h-175v965z" />
    <glyph glyph-name="SF210000" unicode="&#x2556;" horiz-adv-x="1451" 
d="M447 -621l1 1155h-471v175h1025v-1330h-175v1155h-205v-1155h-175z" />
    <glyph glyph-name="SF250000" unicode="&#x2557;" horiz-adv-x="1451" 
d="M827 -621v1345h-850v175h1025v-1520h-175zM447 344h-470v175h645v-1140h-175v965z" />
    <glyph glyph-name="SF500000" unicode="&#x2558;" horiz-adv-x="1451" 
d="M638 344v1520h175v-965h661v-175h-661v-205h661v-175h-836z" />
    <glyph glyph-name="SF490000" unicode="&#x2559;" horiz-adv-x="1451" 
d="M1474 534h-1026v1330h175v-1155h205v1155h175v-1155h471v-175z" />
    <glyph glyph-name="SF380000" unicode="&#x255a;" horiz-adv-x="1451" 
d="M623 1864v-1345h850v-175h-1025v1520h175zM1003 899h470v-175h-645v1140h175v-965z" />
    <glyph glyph-name="SF280000" unicode="&#x255b;" horiz-adv-x="1451" 
d="M812 344h-835v175h660v205h-660v175h660v965h175v-1520z" />
    <glyph glyph-name="SF270000" unicode="&#x255c;" horiz-adv-x="1451" 
d="M1002 534h-1025v175h470v1155h175v-1155h205v1155h175v-1330z" />
    <glyph glyph-name="SF260000" unicode="&#x255d;" horiz-adv-x="1451" 
d="M827 1864h175v-1520h-1025v175h850v1345zM447 899v965h175v-1140h-645v175h470z" />
    <glyph glyph-name="SF360000" unicode="&#x255e;" horiz-adv-x="1451" 
d="M638 -621v2485h175v-965h661v-175h-661v-205h661v-175h-661v-965h-175z" />
    <glyph glyph-name="SF370000" unicode="&#x255f;" horiz-adv-x="1451" 
d="M828 -621v2485h175v-1155h471v-175h-471v-1155h-175zM448 -621v2485h175v-2485h-175z" />
    <glyph glyph-name="SF420000" unicode="&#x2560;" horiz-adv-x="1451" 
d="M448 -621v2485h175v-2485h-175zM828 724v1140h175v-965h471v-175h-646zM828 -621v1140h646v-175h-471v-965h-175z" />
    <glyph glyph-name="SF190000" unicode="&#x2561;" horiz-adv-x="1451" 
d="M637 344h-660v175h661l-1 205h-660v175h660v965h175v-2485h-175v965z" />
    <glyph glyph-name="SF200000" unicode="&#x2562;" horiz-adv-x="1451" 
d="M447 -621l1 1155h-471v175h470v1155h175v-2485h-175zM827 -621v2485h175v-2485h-175z" />
    <glyph glyph-name="SF230000" unicode="&#x2563;" horiz-adv-x="1451" 
d="M827 -621v2485h175v-2485h-175zM622 1864v-1140h-645v175h470v965h175zM447 344h-470v175h645v-1140h-175v965z" />
    <glyph glyph-name="SF470000" unicode="&#x2564;" horiz-adv-x="1451" 
d="M1473 724h-1496v175h1496v-175zM637 344h-660v175h1496v-175h-661v-965h-175v965z" />
    <glyph glyph-name="SF480000" unicode="&#x2565;" horiz-adv-x="1451" 
d="M447 -621l1 1155h-471v175h1496v-175h-471v-1155h-175v1140h-205v-1140h-175z" />
    <glyph glyph-name="SF410000" unicode="&#x2566;" horiz-adv-x="1451" 
d="M1473 724h-1496v175h1496v-175zM447 344h-470v175h645v-1140h-175v965zM827 -621v1140h646v-175h-471v-965h-175z" />
    <glyph glyph-name="SF450000" unicode="&#x2567;" horiz-adv-x="1451" 
d="M1473 724h-1496v175h660v965h175v-965h661v-175zM1473 344h-1496v175h1496v-175z" />
    <glyph glyph-name="SF460000" unicode="&#x2568;" horiz-adv-x="1451" 
d="M1473 534h-1496v175h470v1155h175v-1155h205v1155h175v-1155h471v-175z" />
    <glyph glyph-name="SF400000" unicode="&#x2569;" horiz-adv-x="1451" 
d="M622 724h-645v175h470v965h175v-1140zM1473 724h-646v1140h175v-965h471v-175zM1473 344h-1496v175h1496v-175z" />
    <glyph glyph-name="SF540000" unicode="&#x256a;" horiz-adv-x="1451" 
d="M637 344h-660v175h660v205h-660v175h660v965h175v-965h661v-175h-661v-205h661v-175h-661v-965h-175v965z" />
    <glyph glyph-name="SF530000" unicode="&#x256b;" horiz-adv-x="1451" 
d="M447 -621l1 1155h-471v175h470v1155h175v-1155h205v1155h175v-1155h471v-175h-471v-1155h-175v1155h-205v-1155h-175z" />
    <glyph glyph-name="SF440000" unicode="&#x256c;" horiz-adv-x="1451" 
d="M1003 899h470v-175h-645v1140h175v-965zM447 899v965h175v-1140h-645v175h470zM447 344h-470v175h645v-1140h-175v965zM1003 344v-965h-175v1140h645v-175h-470z" />
    <glyph glyph-name="upblock" unicode="&#x2580;" horiz-adv-x="1451" 
d="M1473 621h-1496v1243h1496v-1243z" />
    <glyph glyph-name="dnblock" unicode="&#x2584;" horiz-adv-x="1451" 
d="M1473 -621h-1496v1242h1496v-1242z" />
    <glyph glyph-name="block" unicode="&#x2588;" horiz-adv-x="1451" 
d="M-23 -621v2485h1496v-2485h-1496z" />
    <glyph glyph-name="lfblock" unicode="&#x258c;" horiz-adv-x="1451" 
d="M-23 -621v2485h748v-2485h-748z" />
    <glyph glyph-name="rtblock" unicode="&#x2590;" horiz-adv-x="1451" 
d="M726 -621v2485h748v-2485h-748z" />
    <glyph glyph-name="ltshade" unicode="&#x2591;" horiz-adv-x="1451" 
d="M102 1864h125v-125h-125v125zM600 1864h125v-125h-125v125zM1099 1864h125v-125h-125v125zM351 1615h125v-125h-125v125zM850 1615h124v-125h-124v125zM1348 1615h125v-125h-125v125zM1099 1366h125v-125h-125v125zM600 1366h125v-125h-125v125zM102 1366h125v-125h-125
v125zM1348 1116h125v-124h-125v124zM850 1116h124v-124h-124v124zM351 1116h125v-124h-125v124zM102 867h125v-125h-125v125zM600 867h125v-125h-125v125zM1099 867h125v-125h-125v125zM1348 618h125v-125h-125v125zM850 618h124v-125h-124v125zM351 618h125v-125h-125v125z
M102 369h125v-125h-125v125zM600 369h125v-125h-125v125zM1099 369h125v-125h-125v125zM351 119h125v-124h-125v124zM850 119h124v-124h-124v124zM1348 119h125v-124h-125v124zM1099 -130h125v-125h-125v125zM600 -130h125v-125h-125v125zM102 -130h125v-125h-125v125z
M351 -379h125v-125h-125v125zM850 -379h124v-125h-124v125zM1348 -379h125v-125h-125v125z" />
    <glyph glyph-name="shade" unicode="&#x2592;" horiz-adv-x="1451" 
d="M103 1864h124v-125h-124v125zM352 1864h124v-125h-124v125zM601 1864h125v-125h-125v125zM850 1864h125v-125h-125v125zM1100 1864h124v-125h-124v125zM1349 1864h124v-125h-124v125zM-22 1615h125v-125h-125v125zM227 1615h125v-125h-125v125zM476 1615h125v-125h-125
v125zM726 1615h124v-125h-124v125zM975 1615h125v-125h-125v125zM1224 1615h125v-125h-125v125zM103 1366h124v-125h-124v125zM352 1366h124v-125h-124v125zM601 1366h125v-125h-125v125zM850 1366h125v-125h-125v125zM1100 1366h124v-125h-124v125zM1349 1366h124v-125
h-124v125zM-22 1116h125v-124h-125v124zM227 1116h125v-124h-125v124zM476 1116h125v-124h-125v124zM726 1116h124v-124h-124v124zM975 1116h125v-124h-125v124zM1224 1116h125v-124h-125v124zM103 867h124v-125h-124v125zM352 867h124v-125h-124v125zM601 867h125v-125
h-125v125zM850 867h125v-125h-125v125zM1100 867h124v-125h-124v125zM1349 867h124v-125h-124v125zM-22 618h125v-125h-125v125zM476 618h125v-125h-125v125zM726 618h124v-125h-124v125zM975 618h125v-125h-125v125zM1224 618h125v-125h-125v125zM227 618h125v-125h-125
v125zM1349 369h124v-125h-124v125zM1100 369h124v-125h-124v125zM850 369h125v-125h-125v125zM601 369h125v-125h-125v125zM352 369h124v-125h-124v125zM103 369h124v-125h-124v125zM-22 119h125v-124h-125v124zM227 119h125v-124h-125v124zM476 119h125v-124h-125v124z
M726 119h124v-124h-124v124zM975 119h125v-124h-125v124zM1224 119h125v-124h-125v124zM1349 -130h124v-125h-124v125zM1100 -130h124v-125h-124v125zM850 -130h125v-125h-125v125zM601 -130h125v-125h-125v125zM352 -130h124v-125h-124v125zM103 -130h124v-125h-124v125z
M-22 -379h125v-125h-125v125zM227 -379h125v-125h-125v125zM476 -379h125v-125h-125v125zM726 -379h124v-125h-124v125zM975 -379h125v-125h-125v125zM1224 -379h125v-125h-125v125z" />
    <glyph glyph-name="dkshade" unicode="&#x2593;" horiz-adv-x="1493" 
d="M1494 1490v-374h-124v-124h124v-374h-124v-125h124v-374h-124v-124h124v-374h-124v-125h124v-124h-1495v373h125v125h-125v374h125v125h-125v373h125v125h-125v374h125v125h-125v373h125v125h124v-125h125v125h124v-125h125v125h125v-125h124v125h125v-125h125v125h124
v-125h125v125h124v-249h-124v-125h124zM124 1615v-125h124v125h-124zM373 1615v-125h124v125h-124zM622 1615v-125h125v125h-125zM871 1615v-125h125v125h-125zM1121 1615v-125h124v125h-124zM1370 1366h-125v-125h125v125zM1121 1366h-125v-125h125v125zM871 1366h-124
v-125h124v125zM622 1366h-125v-125h125v125zM373 1366h-125v-125h125v125zM124 1116v-124h124v124h-124zM373 1116v-124h124v124h-124zM622 1116v-124h125v124h-125zM871 1116v-124h125v124h-125zM1121 1116v-124h124v124h-124zM373 867h-125v-125h125v125zM497 867v-125
h125v125h-125zM747 867v-125h124v125h-124zM996 867v-125h125v125h-125zM1245 867v-125h125v125h-125zM124 618v-125h124v125h-124zM622 618v-125h125v125h-125zM497 493v125h-124v-125h124zM871 618v-125h125v125h-125zM1121 618v-125h124v125h-124zM1370 244v125h-125
v-125h125zM1121 244v125h-125v-125h125zM871 244v125h-124v-125h124zM622 244v125h-125v-125h125zM373 244v125h-125v-125h125zM124 119v-124h124v124h-124zM373 119v-124h124v124h-124zM622 119v-124h125v124h-125zM871 119v-124h125v124h-125zM1121 119v-124h124v124h-124
zM1370 -255v125h-125v-125h125zM1121 -255v125h-125v-125h125zM871 -255v125h-124v-125h124zM622 -255v125h-125v-125h125zM373 -255v125h-125v-125h125zM124 -379v-125h124v125h-124zM373 -379v-125h124v125h-124zM622 -379v-125h125v125h-125zM871 -379v-125h125v125h-125
zM1121 -379v-125h124v125h-124z" />
    <glyph glyph-name="filledbox" unicode="&#x25a0;" horiz-adv-x="1237" 
d="M146 944h944v-944h-944v944z" />
    <glyph glyph-name="filledrect" unicode="&#x25ac;" horiz-adv-x="2048" 
d="M0 703h2047v-386h-2047v386z" />
    <glyph glyph-name="triagup" unicode="&#x25b2;" horiz-adv-x="2027" 
d="M304 0l710 1419l710 -1419h-1420z" />
    <glyph glyph-name="triagrt" unicode="&#x25ba;" horiz-adv-x="2027" 
d="M288 1417l1451 -724l-1451 -724v1448z" />
    <glyph glyph-name="triagdn" unicode="&#x25bc;" horiz-adv-x="2027" 
d="M1724 1388l-710 -1419l-710 1419h1420z" />
    <glyph glyph-name="triaglf" unicode="&#x25c4;" horiz-adv-x="2027" 
d="M1739 1417v-1448l-1451 724z" />
    <glyph glyph-name="circle" unicode="&#x25cb;" horiz-adv-x="1237" 
d="M618 1018q111 0 217 -57t165 -163t59 -220q0 -183 -129 -312t-311 -129q-183 0 -312 129t-129 312q0 115 59 220.5t165 162.5t216 57zM619 942q-93 0 -180 -47t-136 -135t-49 -182q0 -151 107 -258t258 -107t257.5 107t106.5 258q0 94 -49 182t-136 135t-179 47z" />
    <glyph glyph-name="invbullet" unicode="&#x25d8;" horiz-adv-x="1237" 
d="M128 0v980h980v-980h-980zM618 692q-84 0 -143 -59t-59 -143q0 -83 59.5 -142.5t142.5 -59.5q84 0 143 59.5t59 142.5q0 84 -59 143t-143 59z" />
    <glyph glyph-name="invcircle" unicode="&#x25d9;" horiz-adv-x="1237" 
d="M42 0v1155h1155v-1155h-1155zM620 1018q-112 0 -217.5 -57t-164.5 -163t-59 -221q0 -182 129 -311t312 -129q182 0 311 129t129 311q0 115 -59 221t-164.5 163t-216.5 57zM620 942q91 0 178.5 -47t136.5 -134.5t49 -183.5q0 -151 -106.5 -257.5t-257.5 -106.5
q-152 0 -258.5 106.5t-106.5 257.5q0 96 49 183.5t136.5 134.5t179.5 47z" />
    <glyph glyph-name="smileface" unicode="&#x263a;" horiz-adv-x="2091" 
d="M1683 518q0 -264 -186.5 -450.5t-450.5 -186.5t-451 186.5t-187 450.5q0 265 187 451.5t451 186.5t450.5 -186.5t186.5 -451.5zM1591 518q0 226 -159.5 385.5t-385.5 159.5t-385.5 -159.5t-159.5 -385.5q0 -225 159.5 -384.5t385.5 -159.5t385.5 159.5t159.5 384.5z
M882 650q0 -33 -23.5 -57t-57.5 -24q-33 0 -57 24t-24 57q0 34 24 57.5t57 23.5q34 0 57.5 -23.5t23.5 -57.5zM1371 650q0 -33 -23.5 -57t-57.5 -24q-33 0 -57 24t-24 57q0 34 24 57.5t57 23.5q34 0 57.5 -23.5t23.5 -57.5zM752 313l62 36q79 -144 232 -144t231 144l63 -36
q-50 -95 -123.5 -145t-170.5 -50q-98 0 -171 50t-123 145z" />
    <glyph glyph-name="invsmileface" unicode="&#x263b;" horiz-adv-x="2155" 
d="M1715 518q0 -264 -186.5 -450.5t-450.5 -186.5t-451 186.5t-187 450.5q0 265 187 451.5t451 186.5t450.5 -186.5t186.5 -451.5zM914 650q0 34 -23.5 57.5t-57.5 23.5q-33 0 -57 -23.5t-24 -57.5q0 -33 24 -57t57 -24q34 0 57.5 24t23.5 57zM1403 650q0 34 -23.5 57.5
t-57.5 23.5q-33 0 -57 -23.5t-24 -57.5q0 -33 24 -57t57 -24q34 0 57.5 24t23.5 57zM784 313q50 -95 123 -145t171 -50q97 0 170.5 50t123.5 145l-63 36q-78 -144 -231 -144t-232 144z" />
    <glyph glyph-name="sun" unicode="&#x263c;" horiz-adv-x="1877" 
d="M902 1621h76v-337q102 -7 181.5 -38.5t167.5 -102.5l290 284l52 -53l-286 -286q73 -95 103 -169q38 -96 40 -189h336v-69h-335q-19 -189 -143 -347l285 -291l-57 -50l-283 282q-98 -72 -171 -100.5t-180 -40.5v-337h-76v337q-112 15 -188.5 46t-156.5 92l-294 -278
l-51 51l285 286q-66 84 -100 166t-45 188h-336v69h336q9 106 42 185.5t102 163.5l-284 287l48 57l292 -282q101 70 179.5 100.5t170.5 38.5v337zM1450 699q0 212 -150.5 362t-362.5 150t-362 -150t-150 -362t150 -362.5t362 -150.5t362.5 150.5t150.5 362.5z" />
    <glyph glyph-name="female" unicode="&#x2640;" horiz-adv-x="1536" 
d="M796 461v-402h459v-59h-459v-439h-59v439h-460v59h460v402q-103 0 -225.5 65.5t-195 191t-72.5 265.5q0 136 69.5 261t193.5 194t261 69q136 0 260.5 -69.5t193.5 -194t69 -260.5q0 -209 -143.5 -360.5t-351.5 -161.5zM767 1451q-118 0 -230.5 -60.5t-175.5 -173.5
t-63 -235q0 -195 137.5 -332.5t331.5 -137.5q195 0 332.5 137.5t137.5 332.5q0 122 -63 235t-175.5 173.5t-231.5 60.5z" />
    <glyph glyph-name="male" unicode="&#x2642;" horiz-adv-x="1536" 
d="M1216 1620l36 -16l163 -666l-57 -15l-142 581l-358 -768q148 -75 224 -202t76 -272q0 -136 -69 -260.5t-193.5 -194t-261.5 -69.5q-136 0 -260.5 69.5t-193.5 194t-69 260.5q0 217 153.5 370t372.5 153q78 0 166 -27l360 771l-537 -265l-24 53zM634 731
q-118 0 -230.5 -60.5t-175.5 -173.5t-63 -235q0 -195 137.5 -332.5t331.5 -137.5q195 0 332.5 137.5t137.5 332.5q0 122 -63 235t-175.5 173.5t-231.5 60.5z" />
    <glyph glyph-name="spade" unicode="&#x2660;" horiz-adv-x="1088" 
d="M545 1231q26 -108 80 -193t192.5 -210.5t175.5 -192.5t37 -136q0 -96 -64 -160t-156 -64q-78 0 -141.5 48.5t-112.5 141.5q1 -147 38.5 -233.5t120 -136t219.5 -58.5l7 -37h-793l8 37q184 0 285.5 107.5t97.5 320.5q-45 -95 -111.5 -142.5t-150.5 -47.5q-90 0 -154.5 65
t-64.5 156q0 73 33 132q45 82 146 165t149 137q73 83 106.5 148t52.5 153z" />
    <glyph glyph-name="club" unicode="&#x2663;" horiz-adv-x="1344" 
d="M1098 0h-848l8 34q165 35 219 69q81 51 132.5 151t51.5 211q0 16 -1 46q-61 -124 -148.5 -181t-178.5 -57q-116 0 -197 81t-81 199q0 116 74 195.5t168 79.5q60 0 163 -51q-42 70 -54.5 105.5t-12.5 76.5q0 114 79 193t197 79t198.5 -79t80.5 -188q0 -89 -69 -187
q84 40 101 45q27 8 61 8q100 0 173.5 -78.5t73.5 -194.5q0 -120 -80.5 -201.5t-193.5 -81.5q-63 0 -129.5 30.5t-115.5 81.5q-35 37 -87 125q4 -159 48.5 -251.5t136.5 -153.5q62 -41 223 -72z" />
    <glyph glyph-name="heart" unicode="&#x2665;" horiz-adv-x="1216" 
d="M610 -24q-31 118 -88.5 221.5t-222.5 321.5q-121 160 -149 203q-46 70 -66.5 128.5t-20.5 118.5q0 111 74 186t183 75q110 0 191 -78q61 -58 99 -173q33 113 93 172q83 80 192 80q108 0 183 -74.5t75 -177.5q0 -90 -44 -187.5t-170 -255.5q-164 -207 -239 -340
q-59 -105 -90 -220z" />
    <glyph glyph-name="diamond" unicode="&#x2666;" horiz-adv-x="1045" 
d="M521 1231q89 -151 219 -324q150 -200 242 -303q-74 -78 -242 -302q-136 -182 -218 -326q-27 52 -74 121q-81 120 -201 279q-26 35 -183 228q101 115 260 328q118 158 197 299z" />
    <glyph glyph-name="musicalnote" unicode="&#x266a;" horiz-adv-x="1024" 
d="M486 1363h38q172 0 227 -14q79 -20 139 -77q45 -42 71 -118.5t26 -178.5v-103h-99v43q0 68 -28.5 115.5t-84.5 72.5q-73 32 -162 32h-28v-835q0 -121 -32 -188.5t-110 -108t-170 -40.5q-109 0 -172.5 61.5t-63.5 161.5q0 105 76 176.5t199 71.5q78 0 174 -46v975z" />
    <glyph glyph-name="musicalnotedbl" unicode="&#x266b;" horiz-adv-x="1536" 
d="M534 1271l796 248v-1108q0 -124 -31.5 -187t-107 -104t-170.5 -41q-109 0 -174 62.5t-65 161.5q0 100 77 172.5t199 72.5q40 0 70.5 -7t99.5 -36v724l-595 -185v-836q0 -121 -32 -188.5t-110 -107.5t-170 -40q-109 0 -172.5 61.5t-63.5 160.5q0 105 76 176.5t199 71.5
q78 0 174 -46v975z" />
    <glyph glyph-name="IJ" unicode="&#x132;" horiz-adv-x="1502" 
d="M117 0l307 1466h195l-306 -1466h-196zM561 427l182 13q-16 -85 -16 -125q0 -81 50.5 -129.5t140.5 -48.5q65 0 114.5 29.5t80.5 91.5q24 47 49 169l218 1039h195l-223 -1071q-47 -226 -157 -323t-281 -97q-182 0 -275 84t-93 236q0 67 15 132z" />
    <glyph glyph-name="ij" unicode="&#x133;" horiz-adv-x="909" 
d="M323 1261l43 205h180l-43 -205h-180zM59 0l222 1062h181l-222 -1062h-181zM789 1261l43 205h179l-43 -205h-179zM216 -399l32 154q62 -17 110 -17q58 0 92.5 38.5t71.5 213.5l223 1072h181l-230 -1105q-43 -207 -99 -282q-75 -100 -209 -100q-71 0 -172 26z" />
    <glyph glyph-name="napostrophe" unicode="&#x149;" horiz-adv-x="1259" 
d="M195 0l222 1062h164l-39 -185q107 109 200 159t190 50q129 0 202.5 -70t73.5 -187q0 -59 -26 -186l-135 -643h-181l141 673q21 98 21 145q0 53 -36.5 86t-105.5 33q-139 0 -247.5 -100t-159.5 -343l-103 -494h-181zM163 1255l43 205h206l-37 -180q-34 -161 -105.5 -235.5
t-168.5 -86.5l17 79q118 33 157 218h-112z" />
    <glyph glyph-name="minute" unicode="&#x2032;" horiz-adv-x="384" 
d="M260 947l12 274l52 245h206l-53 -245l-105 -274h-112z" />
    <glyph glyph-name="second" unicode="&#x2033;" horiz-adv-x="725" 
d="M277 947l12 274l52 245h206l-53 -245l-105 -274h-112zM608 947l12 274l52 245h206l-53 -245l-105 -274h-112z" />
    <glyph glyph-name="uni2105" unicode="&#x2105;" horiz-adv-x="1813" 
d="M260 -54l1211 1545h164l-1207 -1545h-168zM660 993l126 -14q-48 -138 -135 -205t-198 -67q-120 0 -194.5 77.5t-74.5 216.5q0 122 48 239t137.5 177.5t202.5 60.5q120 0 189 -67t69 -177l-123 -9q-1 71 -40.5 110.5t-105.5 39.5q-76 0 -131.5 -48.5t-87 -146.5
t-31.5 -184q0 -97 41.5 -144.5t102.5 -47.5q62 0 118 47t87 142zM1084 280q0 216 115.5 345t288.5 129q131 0 212.5 -83t81.5 -223q0 -211 -117 -338t-281 -127q-135 0 -217.5 81.5t-82.5 215.5zM1210 292q0 -103 49.5 -157.5t125.5 -54.5q123 0 198 118t75 250
q0 98 -50 153.5t-125 55.5q-77 0 -141.5 -49.5t-98 -140t-33.5 -175.5z" />
    <glyph glyph-name="uni2113" unicode="&#x2113;" horiz-adv-x="662" 
d="M25 586l215 161l136 444q48 156 99 214q77 86 188 86q89 0 145 -55t56 -134q0 -60 -41 -145.5t-146 -195.5q-77 -81 -268 -240l-145 -470q-20 -63 -20 -92q0 -23 10 -34.5t28 -11.5q31 0 71 17.5t158 93.5l-40 -169q-123 -79 -222 -79q-81 0 -128.5 46t-47.5 123
q0 69 35 181l68 217l-90 -67zM481 952q154 147 198.5 218.5t44.5 127.5q0 37 -16 55.5t-40 18.5q-25 0 -46 -23q-29 -31 -61 -135z" />
    <glyph glyph-name="H22073" unicode="&#x25a1;" horiz-adv-x="1237" 
d="M146 944h944v-944h-944v944zM222 868v-792h792v792h-792z" />
    <glyph glyph-name="H18543" unicode="&#x25aa;" horiz-adv-x="726" 
d="M594 909v-464h-463v463z" />
    <glyph glyph-name="H18551" unicode="&#x25ab;" horiz-adv-x="726" 
d="M594 909v-464h-463v463zM518 833l-311 -1v-311h311v312z" />
    <glyph glyph-name="H18533" unicode="&#x25cf;" horiz-adv-x="1237" 
d="M619 1018q110 0 216 -57t165 -163t59 -220q0 -183 -129 -312t-311 -129q-183 0 -312 129t-129 312q0 115 59 220.5t165 162.5t217 57z" />
    <glyph glyph-name="openbullet" unicode="&#x25e6;" horiz-adv-x="726" 
d="M363 928q104 0 177.5 -73.5t73.5 -177.5t-73.5 -177.5t-177.5 -73.5t-177.5 73.5t-73.5 177.5t73 177.5t178 73.5zM363 852q-73 0 -124 -51.5t-51 -123.5q0 -73 51.5 -124t123.5 -51t123.5 51t51.5 124q0 72 -51 123.5t-124 51.5z" />
    <glyph glyph-name="Amacron" unicode="&#x100;" horiz-adv-x="1366" 
d="M-41 0l831 1466h231l242 -1466h-190l-71 422h-593l-235 -422h-215zM493 573h485l-57 368q-33 219 -41 365q-50 -126 -146 -299zM615 1591l29 139h621l-29 -139h-621z" />
    <glyph glyph-name="amacron" unicode="&#x101;" 
d="M784 132q-94 -81 -181 -118.5t-186 -37.5q-147 0 -237 86.5t-90 221.5q0 89 40.5 157.5t107.5 110t164 59.5q61 12 231.5 19t244.5 36q21 74 21 123q0 63 -46 99q-63 50 -184 50q-114 0 -186.5 -50.5t-105.5 -143.5l-183 16q56 158 177.5 242t306.5 84q197 0 312 -94
q88 -70 88 -182q0 -85 -25 -197l-59 -264q-28 -126 -28 -205q0 -50 22 -144h-183q-15 52 -21 132zM851 538q-38 -15 -81.5 -23t-145.5 -17q-158 -14 -223 -35.5t-98 -68.5t-33 -104q0 -76 52.5 -125t149.5 -49q90 0 173 47.5t131 132.5t75 242zM430 1229l29 139h621
l-29 -139h-621z" />
    <glyph glyph-name="Ccircumflex" unicode="&#x108;" horiz-adv-x="1479" 
d="M1235 516l194 -27q-92 -254 -268 -384t-395 -130q-267 0 -423.5 163t-156.5 467q0 396 238 655q212 231 527 231q233 0 377.5 -125t167.5 -336l-183 -17q-29 159 -119.5 237.5t-233.5 78.5q-269 0 -435 -239q-144 -206 -144 -489q0 -226 111 -345t289 -119q152 0 275 99
t179 280zM697 1556l265 275h200l124 -275h-158l-80 178l-165 -178h-186z" />
    <glyph glyph-name="ccircumflex" unicode="&#x109;" horiz-adv-x="1024" 
d="M801 387l181 -19q-68 -199 -193.5 -295.5t-285.5 -96.5q-173 0 -280.5 112t-107.5 313q0 174 69 342t197.5 255.5t293.5 87.5q171 0 271 -96.5t100 -255.5l-178 -12q-1 101 -58.5 158t-151.5 57q-109 0 -189 -69t-125.5 -209.5t-45.5 -270.5q0 -136 60 -204t148 -68
t168.5 67t126.5 204zM401 1191l265 275h200l124 -275h-158l-80 178l-165 -178h-186z" />
    <glyph glyph-name="Cdotaccent" unicode="&#x10a;" horiz-adv-x="1479" 
d="M1235 516l194 -27q-92 -254 -268 -384t-395 -130q-267 0 -423.5 163t-156.5 467q0 396 238 655q212 231 527 231q233 0 377.5 -125t167.5 -336l-183 -17q-29 159 -119.5 237.5t-233.5 78.5q-269 0 -435 -239q-144 -206 -144 -489q0 -226 111 -345t289 -119q152 0 275 99
t179 280zM892 1556l47 223h223l-48 -223h-222z" />
    <glyph glyph-name="cdotaccent" unicode="&#x10b;" horiz-adv-x="1024" 
d="M801 387l181 -19q-68 -199 -193.5 -295.5t-285.5 -96.5q-173 0 -280.5 112t-107.5 313q0 174 69 342t197.5 255.5t293.5 87.5q171 0 271 -96.5t100 -255.5l-178 -12q-1 101 -58.5 158t-151.5 57q-109 0 -189 -69t-125.5 -209.5t-45.5 -270.5q0 -136 60 -204t148 -68
t168.5 67t126.5 204zM569 1209l47 223h223l-48 -223h-222z" />
    <glyph glyph-name="Emacron" unicode="&#x112;" horiz-adv-x="1366" 
d="M92 0l307 1466h1058l-35 -167h-862l-96 -456h840l-35 -167h-840l-106 -510h923l-35 -166h-1119zM636 1591l29 139h621l-29 -139h-621z" />
    <glyph glyph-name="emacron" unicode="&#x113;" 
d="M848 361l176 -18q-38 -131 -174.5 -249t-325.5 -118q-118 0 -216.5 54.5t-150 158.5t-51.5 237q0 174 80.5 337.5t208.5 243t277 79.5q190 0 303.5 -118t113.5 -322q0 -78 -14 -160h-782q-4 -31 -4 -56q0 -149 68.5 -227.5t167.5 -78.5q93 0 183 61t140 176zM322 624h596
q1 28 1 40q0 136 -68 208.5t-175 72.5q-116 0 -211.5 -80t-142.5 -241zM419 1229l29 139h621l-29 -139h-621z" />
    <glyph glyph-name="Ebreve" unicode="&#x114;" horiz-adv-x="1366" 
d="M92 0l307 1466h1058l-35 -167h-862l-96 -456h840l-35 -167h-840l-106 -510h923l-35 -166h-1119zM654 1815h118q11 -73 49 -106.5t107 -33.5q72 0 124.5 37t80.5 103h120q-34 -120 -123.5 -190t-207.5 -70q-116 0 -189 70.5t-79 189.5z" />
    <glyph glyph-name="ebreve" unicode="&#x115;" 
d="M848 361l176 -18q-38 -131 -174.5 -249t-325.5 -118q-118 0 -216.5 54.5t-150 158.5t-51.5 237q0 174 80.5 337.5t208.5 243t277 79.5q190 0 303.5 -118t113.5 -322q0 -78 -14 -160h-782q-4 -31 -4 -56q0 -149 68.5 -227.5t167.5 -78.5q93 0 183 61t140 176zM322 624h596
q1 28 1 40q0 136 -68 208.5t-175 72.5q-116 0 -211.5 -80t-142.5 -241zM451 1422h118q11 -73 49 -106.5t107 -33.5q72 0 124.5 37t80.5 103h120q-34 -120 -123.5 -190t-207.5 -70q-116 0 -189 70.5t-79 189.5z" />
    <glyph glyph-name="Edotaccent" unicode="&#x116;" horiz-adv-x="1366" 
d="M92 0l307 1466h1058l-35 -167h-862l-96 -456h840l-35 -167h-840l-106 -510h923l-35 -166h-1119zM835 1556l47 223h223l-48 -223h-222z" />
    <glyph glyph-name="edotaccent" unicode="&#x117;" 
d="M848 361l176 -18q-38 -131 -174.5 -249t-325.5 -118q-118 0 -216.5 54.5t-150 158.5t-51.5 237q0 174 80.5 337.5t208.5 243t277 79.5q190 0 303.5 -118t113.5 -322q0 -78 -14 -160h-782q-4 -31 -4 -56q0 -149 68.5 -227.5t167.5 -78.5q93 0 183 61t140 176zM322 624h596
q1 28 1 40q0 136 -68 208.5t-175 72.5q-116 0 -211.5 -80t-142.5 -241zM626 1209l47 223h223l-48 -223h-222z" />
    <glyph glyph-name="Gcircumflex" unicode="&#x11c;" horiz-adv-x="1593" 
d="M839 578l35 166h642l-125 -597q-121 -76 -276 -124t-305 -48q-320 0 -478 193q-133 163 -133 419q0 264 116.5 480.5t294 320t394.5 103.5q156 0 280 -56.5t190 -151t95 -246.5l-192 -21q-31 151 -128.5 231.5t-250.5 80.5q-159 0 -297 -86.5t-220.5 -261t-82.5 -396.5
q0 -221 109 -334t301 -113q191 0 411 126l66 315h-446zM754 1556l265 275h200l124 -275h-158l-80 178l-165 -178h-186z" />
    <glyph glyph-name="gcircumflex" unicode="&#x11d;" 
d="M58 -96l183 -17q-2 -62 15 -93t54 -48q49 -22 127 -22q164 0 236 85q47 57 87 248l18 86q-141 -143 -300 -143q-161 0 -269.5 118.5t-108.5 335.5q0 179 85.5 329t203.5 226.5t243 76.5q209 0 322 -198l36 174h166l-214 -1025q-35 -169 -92 -263.5t-158.5 -146.5
t-234.5 -52q-128 0 -220.5 33t-138 96.5t-45.5 145.5q0 25 5 54zM284 470q0 -109 21 -164q30 -77 85.5 -117.5t123.5 -40.5q89 0 177 62.5t142.5 193.5t54.5 250q0 131 -72.5 208.5t-179.5 77.5q-66 0 -128 -35.5t-115.5 -108t-81 -173.5t-27.5 -153zM434 1191l265 275h200
l124 -275h-158l-80 178l-165 -178h-186z" />
    <glyph glyph-name="Gdotaccent" unicode="&#x120;" horiz-adv-x="1593" 
d="M839 578l35 166h642l-125 -597q-121 -76 -276 -124t-305 -48q-320 0 -478 193q-133 163 -133 419q0 264 116.5 480.5t294 320t394.5 103.5q156 0 280 -56.5t190 -151t95 -246.5l-192 -21q-31 151 -128.5 231.5t-250.5 80.5q-159 0 -297 -86.5t-220.5 -261t-82.5 -396.5
q0 -221 109 -334t301 -113q191 0 411 126l66 315h-446zM929 1556l47 223h223l-48 -223h-222z" />
    <glyph glyph-name="gdotaccent" unicode="&#x121;" 
d="M58 -96l183 -17q-2 -62 15 -93t54 -48q49 -22 127 -22q164 0 236 85q47 57 87 248l18 86q-141 -143 -300 -143q-161 0 -269.5 118.5t-108.5 335.5q0 179 85.5 329t203.5 226.5t243 76.5q209 0 322 -198l36 174h166l-214 -1025q-35 -169 -92 -263.5t-158.5 -146.5
t-234.5 -52q-128 0 -220.5 33t-138 96.5t-45.5 145.5q0 25 5 54zM284 470q0 -109 21 -164q30 -77 85.5 -117.5t123.5 -40.5q89 0 177 62.5t142.5 193.5t54.5 250q0 131 -72.5 208.5t-179.5 77.5q-66 0 -128 -35.5t-115.5 -108t-81 -173.5t-27.5 -153zM627 1209l47 223h223
l-48 -223h-222z" />
    <glyph glyph-name="uni0122" unicode="&#x122;" horiz-adv-x="1593" 
d="M839 578l35 166h642l-125 -597q-121 -76 -276 -124t-305 -48q-320 0 -478 193q-133 163 -133 419q0 264 116.5 480.5t294 320t394.5 103.5q156 0 280 -56.5t190 -151t95 -246.5l-192 -21q-31 151 -128.5 231.5t-250.5 80.5q-159 0 -297 -86.5t-220.5 -261t-82.5 -396.5
q0 -221 109 -334t301 -113q191 0 411 126l66 315h-446zM655 -296l38 175h196l-32 -147q-21 -93 -98 -171t-179 -87l18 86q100 26 150 144h-93z" />
    <glyph glyph-name="uni0123" unicode="&#x123;" 
d="M826 1345l-37 -175h-209l25 117q48 223 229 289l37 -83q-101 -39 -141 -148h96zM58 -96l183 -17q-1 -14 -1 -22q0 -141 201 -141q102 0 167 34t94.5 98t57.5 201l18 86q-141 -143 -297 -143q-167 0 -273.5 120.5t-106.5 331.5q0 155 68 300.5t194 239.5t269 94
q210 0 322 -198l36 174h166l-214 -1025q-61 -291 -194.5 -376.5t-294.5 -85.5q-188 0 -294 69t-106 209q0 22 5 51zM284 427q0 -113 63 -196t167 -83q158 0 265.5 158t107.5 347q0 134 -73 210.5t-174 76.5q-149 0 -252.5 -152.5t-103.5 -360.5z" />
    <glyph glyph-name="Hcircumflex" unicode="&#x124;" horiz-adv-x="1479" 
d="M86 0l307 1466h195l-127 -609h760l127 609h196l-306 -1466h-196l144 691h-759l-145 -691h-196zM690 1556l265 275h200l124 -275h-158l-80 178l-165 -178h-186z" />
    <glyph glyph-name="hcircumflex" unicode="&#x125;" 
d="M68 0l306 1466h181l-117 -563q101 98 188 140.5t179 42.5q132 0 205 -69.5t73 -183.5q0 -56 -32 -206l-131 -627h-181l135 643q29 140 29 176q0 52 -36 85t-104 33q-98 0 -187 -51.5t-139.5 -141t-92.5 -288.5l-95 -456h-181zM480 1556l265 275h200l124 -275h-158
l-80 178l-165 -178h-186z" />
    <glyph glyph-name="Hbar" unicode="&#x126;" horiz-adv-x="1479" 
d="M315 1095h-136l28 134h136l50 237h195l-49 -237h760l49 237h196l-49 -237h137l-28 -134h-137l-229 -1095h-196l144 691h-760l-144 -691h-196zM511 1095l-50 -238h760l50 238h-760z" />
    <glyph glyph-name="hbar" unicode="&#x127;" 
d="M499 1197l-61 -294q183 183 372 183q124 0 198.5 -66.5t74.5 -178.5q0 -66 -32 -214l-131 -627h-181l135 643q29 140 29 179q0 50 -37 82.5t-106 32.5q-106 0 -199.5 -61t-137.5 -158t-79 -262l-95 -456h-181l250 1197h-127l29 134h126l28 135h181l-28 -135h333l-28 -134
h-333z" />
    <glyph glyph-name="Itilde" unicode="&#x128;" horiz-adv-x="569" 
d="M117 0l307 1466h195l-306 -1466h-196zM220 1556q33 133 81.5 178.5t121.5 45.5q33 0 64.5 -8t109.5 -42.5t107 -34.5q23 0 41 16.5t30 62.5h121q-10 -103 -66.5 -161t-130.5 -58q-40 0 -101 26q-138 60 -170 60t-53 -20.5t-30 -64.5h-125z" />
    <glyph glyph-name="itilde" unicode="&#x129;" horiz-adv-x="455" 
d="M61 0l222 1062h181l-222 -1062h-181zM99 1222q33 133 81.5 178.5t121.5 45.5q33 0 64.5 -8t109.5 -42.5t107 -34.5q23 0 41 16.5t30 62.5h121q-10 -103 -66.5 -161t-130.5 -58q-40 0 -101 26q-138 60 -170 60t-53 -20.5t-30 -64.5h-125z" />
    <glyph glyph-name="Imacron" unicode="&#x12a;" horiz-adv-x="569" 
d="M117 0l307 1466h195l-306 -1466h-196zM231 1591l29 139h621l-29 -139h-621z" />
    <glyph glyph-name="imacron" unicode="&#x12b;" horiz-adv-x="455" 
d="M61 0l222 1062h181l-222 -1062h-181zM105 1229l29 139h621l-29 -139h-621z" />
    <glyph glyph-name="Ibreve" unicode="&#x12c;" horiz-adv-x="569" 
d="M117 0l307 1466h195l-306 -1466h-196zM284 1815h118q11 -73 49 -106.5t107 -33.5q72 0 124.5 37t80.5 103h120q-34 -120 -123.5 -190t-207.5 -70q-116 0 -189 70.5t-79 189.5z" />
    <glyph glyph-name="ibreve" unicode="&#x12d;" horiz-adv-x="455" 
d="M61 0l222 1062h181l-222 -1062h-181zM143 1422h118q11 -73 49 -106.5t107 -33.5q72 0 124.5 37t80.5 103h120q-34 -120 -123.5 -190t-207.5 -70q-116 0 -189 70.5t-79 189.5z" />
    <glyph glyph-name="Iogonek" unicode="&#x12e;" horiz-adv-x="569" 
d="M117 0l307 1466h195l-306 -1466h-196zM303 -267l-27 -128q-80 -35 -144 -35q-98 0 -141 55q-27 34 -27 86q0 84 68 172q49 63 127 117h132q-136 -74 -161 -191q-3 -14 -3 -28q0 -72 80 -72q47 0 96 24z" />
    <glyph glyph-name="iogonek" unicode="&#x12f;" horiz-adv-x="455" 
d="M325 1261l43 205h180l-43 -205h-180zM61 0l222 1062h181l-222 -1062h-181zM233 -267l-27 -128q-80 -35 -144 -35q-98 0 -141 55q-27 34 -27 86q0 84 68 172q49 63 127 117h132q-136 -74 -161 -191q-3 -14 -3 -28q0 -72 80 -72q47 0 96 24z" />
    <glyph glyph-name="Jcircumflex" unicode="&#x134;" horiz-adv-x="1024" 
d="M83 427l182 13q-16 -85 -16 -125q0 -81 50.5 -129.5t140.5 -48.5q65 0 114.5 29.5t80.5 91.5q24 47 49 169l218 1039h195l-223 -1071q-47 -226 -157 -323t-281 -97q-182 0 -275 84t-93 236q0 67 15 132zM692 1556l265 275h200l124 -275h-158l-80 178l-165 -178h-186z" />
    <glyph glyph-name="jcircumflex" unicode="&#x135;" horiz-adv-x="455" 
d="M88 1191l265 275h200l124 -275h-158l-80 178l-165 -178h-186zM-248 -399l32 154q59 -17 109 -17q67 0 99 44.5t66 207.5l223 1072h181l-230 -1105q-44 -208 -109.5 -295t-198.5 -87q-71 0 -172 26z" />
    <glyph glyph-name="uni0136" unicode="&#x136;" horiz-adv-x="1366" 
d="M91 0l306 1466h196l-147 -706l796 706h276l-681 -597l499 -869h-219l-423 743l-307 -267l-100 -476h-196zM545 -296l38 175h196l-32 -147q-21 -93 -98 -171t-179 -87l18 86q100 26 150 144h-93z" />
    <glyph glyph-name="uni0137" unicode="&#x137;" horiz-adv-x="1024" 
d="M70 0l307 1466h180l-190 -909l528 505h239l-453 -396l274 -666h-198l-212 545l-220 -190l-74 -355h-181zM353 -296l38 175h196l-32 -147q-21 -93 -98 -171t-179 -87l18 86q100 26 150 144h-93z" />
    <glyph glyph-name="kgreenlandic" unicode="&#x138;" horiz-adv-x="1024" 
d="M70 0l222 1062h181l-105 -505l527 505h239l-453 -396l274 -666h-198l-212 545l-220 -190l-74 -355h-181z" />
    <glyph glyph-name="uni013B" unicode="&#x13b;" 
d="M82 0l306 1466h196l-271 -1300h761l-35 -166h-957zM453 -296l38 175h196l-32 -147q-21 -93 -98 -171t-179 -87l18 86q100 26 150 144h-93z" />
    <glyph glyph-name="uni013C" unicode="&#x13c;" horiz-adv-x="455" 
d="M54 0l306 1466h181l-306 -1466h-181zM-17 -296l38 175h196l-32 -147q-21 -93 -98 -171t-179 -87l18 86q100 26 150 144h-93z" />
    <glyph glyph-name="uni0145" unicode="&#x145;" horiz-adv-x="1479" 
d="M100 0l307 1466h190l247 -550q113 -252 179 -424q38 -100 88 -270q27 185 68 382l180 862h191l-306 -1466h-194l-364 847q-97 224 -151 395q-15 -143 -58 -351l-186 -891h-191zM533 -296l38 175h196l-32 -147q-21 -93 -98 -171t-179 -87l18 86q100 26 150 144h-93z" />
    <glyph glyph-name="uni0146" unicode="&#x146;" 
d="M68 0l222 1062h164l-39 -185q107 109 200 159t190 50q129 0 202.5 -70t73.5 -187q0 -59 -26 -186l-135 -643h-181l141 673q21 98 21 145q0 53 -36.5 86t-105.5 33q-139 0 -247.5 -100t-159.5 -343l-103 -494h-181zM353 -296l38 175h196l-32 -147q-21 -93 -98 -171
t-179 -87l18 86q100 26 150 144h-93z" />
    <glyph glyph-name="Eng" unicode="&#x14a;" horiz-adv-x="1481" 
d="M400 1466h196l-36 -177q181 202 431 202q219 0 346 -152t127 -415q0 -224 -77 -470t-200 -363t-301 -117q-180 0 -282 73l96 137q76 -43 158 -43q79 0 140 38t123 141t98 277.5t36 338.5q0 199 -85.5 293.5t-220.5 94.5q-125 0 -237 -74.5t-164 -173.5t-81 -237
l-173 -839h-196z" />
    <glyph glyph-name="eng" unicode="&#x14b;" 
d="M1060 643l-142 -686q-43 -210 -109.5 -296t-193.5 -86q-81 0 -193 34l65 150q51 -21 94 -21q69 0 100 48t63 204l141 683q21 100 21 142q0 122 -144 122q-131 0 -241.5 -97t-163.5 -346l-103 -494h-181l222 1062h164l-39 -185q198 209 397 209q119 0 194 -69.5t75 -176.5
q0 -68 -26 -197z" />
    <glyph glyph-name="Omacron" unicode="&#x14c;" horiz-adv-x="1593" 
d="M187 614q0 392 226.5 634.5t549.5 242.5q274 0 446.5 -178.5t172.5 -478.5q0 -214 -87 -397q-65 -137 -164 -236.5t-212 -153.5q-150 -72 -318 -72q-176 0 -320.5 84t-219 234.5t-74.5 320.5zM380 604q0 -129 53.5 -237t159.5 -169t223 -61q113 0 215 53.5t182.5 149
t127 235t46.5 274.5q0 219 -122.5 349t-302.5 130q-230 0 -406 -196.5t-176 -527.5zM709 1591l29 139h621l-29 -139h-621z" />
    <glyph glyph-name="omacron" unicode="&#x14d;" 
d="M100 403q0 311 183 515q151 168 396 168q192 0 309.5 -120t117.5 -324q0 -183 -74 -340.5t-210.5 -241.5t-287.5 -84q-124 0 -225.5 53t-155 150t-53.5 224zM281 421q0 -150 72 -227.5t183 -77.5q58 0 115 23.5t106 71.5t83.5 109.5t55.5 132.5q31 99 31 190
q0 144 -72.5 223.5t-182.5 79.5q-85 0 -155 -40.5t-126.5 -118.5t-83 -181.5t-26.5 -184.5zM429 1229l29 139h621l-29 -139h-621z" />
    <glyph glyph-name="Obreve" unicode="&#x14e;" horiz-adv-x="1593" 
d="M187 614q0 392 226.5 634.5t549.5 242.5q274 0 446.5 -178.5t172.5 -478.5q0 -214 -87 -397q-65 -137 -164 -236.5t-212 -153.5q-150 -72 -318 -72q-176 0 -320.5 84t-219 234.5t-74.5 320.5zM380 604q0 -129 53.5 -237t159.5 -169t223 -61q113 0 215 53.5t182.5 149
t127 235t46.5 274.5q0 219 -122.5 349t-302.5 130q-230 0 -406 -196.5t-176 -527.5zM748 1815h118q11 -73 49 -106.5t107 -33.5q72 0 124.5 37t80.5 103h120q-34 -120 -123.5 -190t-207.5 -70q-116 0 -189 70.5t-79 189.5z" />
    <glyph glyph-name="obreve" unicode="&#x14f;" 
d="M100 403q0 311 183 515q151 168 396 168q192 0 309.5 -120t117.5 -324q0 -183 -74 -340.5t-210.5 -241.5t-287.5 -84q-124 0 -225.5 53t-155 150t-53.5 224zM281 421q0 -150 72 -227.5t183 -77.5q58 0 115 23.5t106 71.5t83.5 109.5t55.5 132.5q31 99 31 190
q0 144 -72.5 223.5t-182.5 79.5q-85 0 -155 -40.5t-126.5 -118.5t-83 -181.5t-26.5 -184.5zM466 1422h118q11 -73 49 -106.5t107 -33.5q72 0 124.5 37t80.5 103h120q-34 -120 -123.5 -190t-207.5 -70q-116 0 -189 70.5t-79 189.5z" />
    <glyph glyph-name="uni0156" unicode="&#x156;" horiz-adv-x="1479" 
d="M96 0l307 1466h615q182 0 276 -30.5t147.5 -114.5t53.5 -212q0 -179 -117 -297t-378 -153q80 -59 121 -116q92 -129 148 -267l112 -276h-219l-105 273q-57 148 -130 256q-50 75 -102 98.5t-169 23.5h-228l-136 -651h-196zM461 810h271q188 0 245 5q111 11 182 50t110 105
t39 142q0 64 -29 111.5t-76 64.5t-160 17h-478zM553 -296l38 175h196l-32 -147q-21 -93 -98 -171t-179 -87l18 86q100 26 150 144h-93z" />
    <glyph glyph-name="uni0157" unicode="&#x157;" horiz-adv-x="682" 
d="M68 0l222 1062h160l-45 -217q82 123 160.5 182t160.5 59q54 0 133 -39l-74 -168q-47 34 -103 34q-95 0 -195 -106t-157 -381l-90 -426h-172zM-7 -296l38 175h196l-32 -147q-21 -93 -98 -171t-179 -87l18 86q100 26 150 144h-93z" />
    <glyph glyph-name="Scircumflex" unicode="&#x15c;" horiz-adv-x="1366" 
d="M144 474l192 18l-2 -51q0 -85 39 -155.5t129 -109t214 -38.5q176 0 268.5 77t92.5 176q0 69 -49 126q-50 56 -273 152q-173 75 -236 115q-99 65 -146 141.5t-47 174.5q0 113 62 204t181.5 139t269.5 48q179 0 302 -60t178.5 -160t55.5 -191q0 -9 -1 -30l-189 -15
q0 62 -11 97q-20 61 -62 103t-115.5 67.5t-164.5 25.5q-160 0 -249 -72q-68 -55 -68 -146q0 -54 28 -96.5t101 -83.5q52 -29 247 -115q158 -70 218 -110q80 -53 123 -128.5t43 -171.5q0 -119 -72.5 -219.5t-200.5 -155.5t-293 -55q-249 0 -406.5 108.5t-158.5 390.5z
M625 1556l265 275h200l124 -275h-158l-80 178l-165 -178h-186z" />
    <glyph glyph-name="scircumflex" unicode="&#x15d;" horiz-adv-x="1024" 
d="M85 363l181 11q0 -78 24 -133t88.5 -90t150.5 -35q120 0 180 48t60 113q0 47 -36 89q-37 42 -180.5 103.5t-183.5 86.5q-67 41 -101 96.5t-34 127.5q0 126 100 216t280 90q200 0 304.5 -92.5t108.5 -243.5l-177 -12q-4 96 -68 152t-181 56q-94 0 -146 -43t-52 -93t45 -88
q30 -26 155 -80q208 -90 262 -142q86 -83 86 -202q0 -79 -48.5 -155t-148 -121.5t-234.5 -45.5q-184 0 -313 91t-122 296zM397 1191l265 275h200l124 -275h-158l-80 178l-165 -178h-186z" />
    <glyph glyph-name="Tbar" unicode="&#x166;" horiz-adv-x="1251" 
d="M597 631h-361l28 134h361l111 534h-481l35 167h1154l-35 -167h-477l-111 -534h359l-28 -134h-359l-132 -631h-196z" />
    <glyph glyph-name="tbar" unicode="&#x167;" horiz-adv-x="569" 
d="M359 479l-30 -144q-23 -111 -23 -138q0 -62 83 -62q58 0 103 12l-31 -148q-65 -17 -127 -17q-97 0 -158 43.5t-61 113.5q0 37 27 166l36 174h-154l28 134h154l64 309h-143l29 140h144l54 261l207 125l-80 -386h177l-29 -140h-178l-64 -309h201l-28 -134h-201z" />
    <glyph glyph-name="Utilde" unicode="&#x168;" horiz-adv-x="1479" 
d="M406 1466h196l-188 -901q-23 -112 -23 -166q0 -118 93 -190t234 -72q112 0 208.5 51.5t152.5 151.5t101 319l169 807h196l-179 -860q-46 -220 -121 -348.5t-208 -206t-309 -77.5q-166 0 -287.5 55t-182 152t-60.5 220q0 77 41 265zM681 1556q33 133 81.5 178.5
t121.5 45.5q33 0 64.5 -8t109.5 -42.5t107 -34.5q23 0 41 16.5t30 62.5h121q-10 -103 -66.5 -161t-130.5 -58q-40 0 -101 26q-138 60 -170 60t-53 -20.5t-30 -64.5h-125z" />
    <glyph glyph-name="utilde" unicode="&#x169;" 
d="M793 192q-191 -216 -391 -216q-123 0 -198.5 70.5t-75.5 172.5q0 67 34 230l128 613h181l-142 -679q-18 -85 -18 -132q0 -60 36.5 -93.5t107.5 -33.5q76 0 148.5 37t125 100t85.5 149q22 55 51 193l96 459h181l-222 -1062h-167zM420 1222q33 133 81.5 178.5t121.5 45.5
q33 0 64.5 -8t109.5 -42.5t107 -34.5q23 0 41 16.5t30 62.5h121q-10 -103 -66.5 -161t-130.5 -58q-40 0 -101 26q-138 60 -170 60t-53 -20.5t-30 -64.5h-125z" />
    <glyph glyph-name="Umacron" unicode="&#x16a;" horiz-adv-x="1479" 
d="M406 1466h196l-188 -901q-23 -112 -23 -166q0 -118 93 -190t234 -72q112 0 208.5 51.5t152.5 151.5t101 319l169 807h196l-179 -860q-46 -220 -121 -348.5t-208 -206t-309 -77.5q-166 0 -287.5 55t-182 152t-60.5 220q0 77 41 265zM683 1591l29 139h621l-29 -139h-621z
" />
    <glyph glyph-name="umacron" unicode="&#x16b;" 
d="M793 192q-191 -216 -391 -216q-123 0 -198.5 70.5t-75.5 172.5q0 67 34 230l128 613h181l-142 -679q-18 -85 -18 -132q0 -60 36.5 -93.5t107.5 -33.5q76 0 148.5 37t125 100t85.5 149q22 55 51 193l96 459h181l-222 -1062h-167zM429 1229l29 139h621l-29 -139h-621z" />
    <glyph glyph-name="Ubreve" unicode="&#x16c;" horiz-adv-x="1479" 
d="M406 1466h196l-188 -901q-23 -112 -23 -166q0 -118 93 -190t234 -72q112 0 208.5 51.5t152.5 151.5t101 319l169 807h196l-179 -860q-46 -220 -121 -348.5t-208 -206t-309 -77.5q-166 0 -287.5 55t-182 152t-60.5 220q0 77 41 265zM723 1815h118q11 -73 49 -106.5
t107 -33.5q72 0 124.5 37t80.5 103h120q-34 -120 -123.5 -190t-207.5 -70q-116 0 -189 70.5t-79 189.5z" />
    <glyph glyph-name="ubreve" unicode="&#x16d;" 
d="M793 192q-191 -216 -391 -216q-123 0 -198.5 70.5t-75.5 172.5q0 67 34 230l128 613h181l-142 -679q-18 -85 -18 -132q0 -60 36.5 -93.5t107.5 -33.5q76 0 148.5 37t125 100t85.5 149q22 55 51 193l96 459h181l-222 -1062h-167zM460 1422h118q11 -73 49 -106.5t107 -33.5
q72 0 124.5 37t80.5 103h120q-34 -120 -123.5 -190t-207.5 -70q-116 0 -189 70.5t-79 189.5z" />
    <glyph glyph-name="Uogonek" unicode="&#x172;" horiz-adv-x="1479" 
d="M406 1466h196l-188 -901q-23 -112 -23 -166q0 -118 93 -190t234 -72q112 0 208.5 51.5t152.5 151.5t101 319l169 807h196l-179 -860q-46 -220 -121 -348.5t-208 -206t-309 -77.5q-166 0 -287.5 55t-182 152t-60.5 220q0 77 41 265zM903 -267l-27 -128q-80 -35 -144 -35
q-98 0 -141 55q-27 34 -27 86q0 84 68 172q49 63 127 117h132q-136 -74 -161 -191q-3 -14 -3 -28q0 -72 80 -72q47 0 96 24z" />
    <glyph glyph-name="uogonek" unicode="&#x173;" 
d="M793 192q-191 -216 -391 -216q-123 0 -198.5 70.5t-75.5 172.5q0 67 34 230l128 613h181l-142 -679q-18 -85 -18 -132q0 -60 36.5 -93.5t107.5 -33.5q76 0 148.5 37t125 100t85.5 149q22 55 51 193l96 459h181l-222 -1062h-167zM913 -267l-27 -128q-80 -35 -144 -35
q-98 0 -141 55q-27 34 -27 86q0 84 68 172q49 63 127 117h132q-136 -74 -161 -191q-3 -14 -3 -28q0 -72 80 -72q47 0 96 24z" />
    <glyph glyph-name="Wcircumflex" unicode="&#x174;" horiz-adv-x="1933" 
d="M346 0l-90 1466h199l34 -725q3 -52 10 -282q2 -64 2 -90q0 -17 -1 -99q122 250 176 352l446 844h202l49 -857q8 -147 11 -354q18 51 64 152q73 163 108 233l418 826h200l-746 -1466h-210l-49 888q-7 114 -11 280q-61 -139 -102 -216l-508 -952h-202zM926 1556l265 275
h200l124 -275h-158l-80 178l-165 -178h-186z" />
    <glyph glyph-name="wcircumflex" unicode="&#x175;" horiz-adv-x="1479" 
d="M270 0l-111 1062h174l48 -477l19 -268q2 -30 6 -121q30 102 51 156.5t67 155.5l253 554h197l35 -531q8 -121 10 -323q50 134 163 372l228 482h181l-519 -1062h-188l-40 623q-4 58 -6 226q-41 -107 -97 -231l-281 -618h-190zM603 1191l265 275h200l124 -275h-158l-80 178
l-165 -178h-186z" />
    <glyph glyph-name="Ycircumflex" unicode="&#x176;" horiz-adv-x="1366" 
d="M572 0l118 567l-451 899h210l216 -428q71 -140 138 -300q74 136 202 297l344 431h234l-700 -914l-115 -552h-196zM627 1556l265 275h200l124 -275h-158l-80 178l-165 -178h-186z" />
    <glyph glyph-name="ycircumflex" unicode="&#x177;" horiz-adv-x="1024" 
d="M0 -410l11 170q56 -16 109 -16q55 0 89 25q44 33 96 124l58 104l-177 1065h178l80 -537q24 -159 41 -318l475 855h189l-677 -1203q-98 -176 -174 -233t-175 -57q-63 0 -123 21zM376 1191l265 275h200l124 -275h-158l-80 178l-165 -178h-186z" />
    <glyph glyph-name="longs" unicode="&#x17f;" horiz-adv-x="455" 
d="M54 0l253 1213q25 116 52 167.5t86.5 81t141.5 29.5q77 0 209 -29l-33 -158q-90 24 -154 24q-62 0 -86.5 -33.5t-41.5 -118.5l-246 -1176h-181z" />
    <glyph glyph-name="Aringacute" unicode="&#x1fa;" horiz-adv-x="1366" 
d="M-41 0l831 1466h231l242 -1466h-190l-71 422h-593l-235 -422h-215zM493 573h485l-57 368q-33 219 -41 365q-50 -126 -146 -299zM751 1586q0 76 53.5 129t128.5 53q76 0 129 -53.5t53 -128.5q0 -76 -53.5 -129t-128.5 -53t-128.5 53t-53.5 129zM826 1586q0 -45 31.5 -76.5
t75.5 -31.5q45 0 76.5 31.5t31.5 76.5q0 44 -31.5 75.5t-76.5 31.5q-44 0 -75.5 -31.5t-31.5 -75.5zM857 1768l188 275h228l-266 -275h-150z" />
    <glyph glyph-name="aringacute" unicode="&#x1fb;" 
d="M784 132q-94 -81 -181 -118.5t-186 -37.5q-147 0 -237 86.5t-90 221.5q0 89 40.5 157.5t107.5 110t164 59.5q61 12 231.5 19t244.5 36q21 74 21 123q0 63 -46 99q-63 50 -184 50q-114 0 -186.5 -50.5t-105.5 -143.5l-183 16q56 158 177.5 242t306.5 84q197 0 312 -94
q88 -70 88 -182q0 -85 -25 -197l-59 -264q-28 -126 -28 -205q0 -50 22 -144h-183q-15 52 -21 132zM851 538q-38 -15 -81.5 -23t-145.5 -17q-158 -14 -223 -35.5t-98 -68.5t-33 -104q0 -76 52.5 -125t149.5 -49q90 0 173 47.5t131 132.5t75 242zM545 1320q0 76 53.5 129
t128.5 53q76 0 129 -53.5t53 -128.5q0 -76 -53.5 -129t-128.5 -53t-128.5 53t-53.5 129zM620 1320q0 -45 31.5 -76.5t75.5 -31.5q45 0 76.5 31.5t31.5 76.5q0 44 -31.5 75.5t-76.5 31.5q-44 0 -75.5 -31.5t-31.5 -75.5zM652 1596l188 275h228l-266 -275h-150z" />
    <glyph glyph-name="AEacute" unicode="&#x1fc;" horiz-adv-x="2048" 
d="M-83 0l902 1466h1318l-35 -167h-756l-95 -456h765l-35 -166h-765l-107 -511h845l-35 -166h-1051l88 418h-566l-250 -418h-223zM491 584h499l150 715h-211zM1122 1556l188 275h228l-266 -275h-150z" />
    <glyph glyph-name="aeacute" unicode="&#x1fd;" horiz-adv-x="1821" 
d="M1530 359l183 -17q-87 -181 -211.5 -273.5t-290.5 -92.5q-116 0 -216.5 57t-165.5 179q-79 -123 -186.5 -180t-219.5 -57q-160 0 -248 85t-88 225q0 87 38 156t96.5 104.5t152.5 54.5q60 12 225.5 25.5t237.5 35.5q23 72 23 123q0 74 -48 118t-142 44q-114 0 -187.5 -49
t-112.5 -151l-179 15q52 155 174.5 240.5t308.5 85.5q108 0 191 -36.5t140 -109.5q140 145 349 145q123 0 219.5 -55.5t147.5 -160.5t51 -227q0 -60 -15 -158h-773q-4 -30 -4 -60q0 -150 66 -225.5t168 -75.5q90 0 173 57.5t143 177.5zM1019 624h583q1 33 1 43
q0 80 -29.5 145t-87 99.5t-123.5 34.5q-103 0 -203 -85.5t-141 -236.5zM809 525q-106 -25 -259 -39q-113 -10 -153 -24q-62 -21 -93.5 -62.5t-31.5 -104.5q0 -80 50.5 -129t143.5 -49q120 0 202 84q106 110 141 324zM915 1191l188 275h228l-266 -275h-150z" />
    <glyph glyph-name="Oslashacute" unicode="&#x1fe;" horiz-adv-x="1593" 
d="M341 175q-154 183 -154 465q0 191 73 365q60 144 157.5 248.5t212.5 161.5q153 76 329 76q226 0 382 -117l160 192l89 -79l-162 -195q154 -176 154 -463q0 -207 -85 -389q-65 -139 -165 -238.5t-213 -154.5q-150 -72 -318 -72q-212 0 -371 117l-161 -195l-95 79zM462 320
l762 914q-114 94 -260 94q-147 0 -284 -87t-219 -254t-82 -359q0 -185 83 -308zM1306 1145l-760 -914q121 -94 270 -94q113 0 215 53.5t182.5 149t127 235t46.5 274.5q0 169 -81 296zM895 1556l188 275h228l-266 -275h-150z" />
    <glyph glyph-name="oslashacute" unicode="&#x1ff;" horiz-adv-x="1251" 
d="M993 1018l112 141l91 -72l-117 -147q93 -117 93 -304q0 -176 -73 -333.5t-210 -242t-288 -84.5q-136 0 -244 63l-114 -141l-90 69l115 144q-101 116 -101 305q0 175 75 339.5t208 247.5t296 83q140 0 247 -68zM893 894q-65 52 -154 52q-103 0 -194 -66t-144 -198
t-53 -264q0 -101 33 -166zM455 162q65 -46 148 -46q74 0 140.5 36t124.5 108.5t92 181t34 202.5q0 84 -30 153zM659 1191l188 275h228l-266 -275h-150z" />
    <glyph glyph-name="anoteleia" unicode="&#x387;" horiz-adv-x="569" 
d="M296 857l43 205h204l-43 -205h-204z" />
    <glyph glyph-name="Wgrave" unicode="&#x1e80;" horiz-adv-x="1933" 
d="M346 0l-90 1466h199l34 -725q3 -52 10 -282q2 -64 2 -90q0 -17 -1 -99q122 250 176 352l446 844h202l49 -857q8 -147 11 -354q18 51 64 152q73 163 108 233l418 826h200l-746 -1466h-210l-49 888q-7 114 -11 280q-61 -139 -102 -216l-508 -952h-202zM1212 1556l-195 275
h220l116 -275h-141z" />
    <glyph glyph-name="wgrave" unicode="&#x1e81;" horiz-adv-x="1479" 
d="M270 0l-111 1062h174l48 -477l19 -268q2 -30 6 -121q30 102 51 156.5t67 155.5l253 554h197l35 -531q8 -121 10 -323q50 134 163 372l228 482h181l-519 -1062h-188l-40 623q-4 58 -6 226q-41 -107 -97 -231l-281 -618h-190zM892 1191l-195 275h220l116 -275h-141z" />
    <glyph glyph-name="Wacute" unicode="&#x1e82;" horiz-adv-x="1933" 
d="M346 0l-90 1466h199l34 -725q3 -52 10 -282q2 -64 2 -90q0 -17 -1 -99q122 250 176 352l446 844h202l49 -857q8 -147 11 -354q18 51 64 152q73 163 108 233l418 826h200l-746 -1466h-210l-49 888q-7 114 -11 280q-61 -139 -102 -216l-508 -952h-202zM1064 1556l188 275
h228l-266 -275h-150z" />
    <glyph glyph-name="wacute" unicode="&#x1e83;" horiz-adv-x="1479" 
d="M270 0l-111 1062h174l48 -477l19 -268q2 -30 6 -121q30 102 51 156.5t67 155.5l253 554h197l35 -531q8 -121 10 -323q50 134 163 372l228 482h181l-519 -1062h-188l-40 623q-4 58 -6 226q-41 -107 -97 -231l-281 -618h-190zM745 1191l188 275h228l-266 -275h-150z" />
    <glyph glyph-name="Wdieresis" unicode="&#x1e84;" horiz-adv-x="1933" 
d="M346 0l-90 1466h199l34 -725q3 -52 10 -282q2 -64 2 -90q0 -17 -1 -99q122 250 176 352l446 844h202l49 -857q8 -147 11 -354q18 51 64 152q73 163 108 233l418 826h200l-746 -1466h-210l-49 888q-7 114 -11 280q-61 -139 -102 -216l-508 -952h-202zM955 1556l43 205h189
l-43 -205h-189zM1324 1556l43 205h188l-42 -205h-189z" />
    <glyph glyph-name="wdieresis" unicode="&#x1e85;" horiz-adv-x="1479" 
d="M270 0l-111 1062h174l48 -477l19 -268q2 -30 6 -121q30 102 51 156.5t67 155.5l253 554h197l35 -531q8 -121 10 -323q50 134 163 372l228 482h181l-519 -1062h-188l-40 623q-4 58 -6 226q-41 -107 -97 -231l-281 -618h-190zM635 1227l43 205h189l-43 -205h-189z
M1004 1227l43 205h188l-42 -205h-189z" />
    <glyph glyph-name="Ygrave" unicode="&#x1ef2;" horiz-adv-x="1366" 
d="M572 0l118 567l-451 899h210l216 -428q71 -140 138 -300q74 136 202 297l344 431h234l-700 -914l-115 -552h-196zM928 1556l-195 275h220l116 -275h-141z" />
    <glyph glyph-name="ygrave" unicode="&#x1ef3;" horiz-adv-x="1024" 
d="M0 -410l11 170q56 -16 109 -16q55 0 89 25q44 33 96 124l58 104l-177 1065h178l80 -537q24 -159 41 -318l475 855h189l-677 -1203q-98 -176 -174 -233t-175 -57q-63 0 -123 21zM664 1191l-195 275h220l116 -275h-141z" />
    <glyph glyph-name="quotereversed" unicode="&#x201b;" horiz-adv-x="455" 
d="M524 1255h-112q-17 -49 -17 -92q0 -110 82 -126l-17 -79q-153 19 -153 198q0 48 17 124l39 180h206z" />
    <glyph glyph-name="uni203E" unicode="&#x203e;" horiz-adv-x="682" 
d="M153 1229l29 139h741l-29 -139h-741z" />
    <glyph glyph-name="lira" unicode="&#x20a4;" 
d="M358 501h-241l31 150h226q-1 35 -18 151h-175l31 151h126q-3 31 -3 62q0 217 143.5 346.5t338.5 129.5q176 0 292 -102.5t135 -286.5l-165 -17q-15 127 -85.5 194t-172.5 67q-124 0 -212.5 -92.5t-88.5 -251.5q0 -24 2 -49h340l-32 -151h-293q11 -102 11 -151h250
l-32 -150h-232q-40 -173 -198 -289q53 7 77 7q128 0 250 -41q88 -29 143 -29q113 0 221 63l54 -163q-154 -74 -267 -74q-76 0 -186 45q-130 54 -231 54q-158 0 -312 -99l-21 177q243 158 294 349z" />
    <glyph glyph-name="estimated" unicode="&#x212e;" horiz-adv-x="1229" 
d="M321 531v-370q120 -122 298 -122q255 0 395 246l72 -43q-101 -143 -204.5 -209.5t-262.5 -66.5q-232 0 -380.5 158.5t-148.5 406.5q0 246 147 405.5t382 159.5q216 0 367.5 -143.5t161.5 -421.5h-827zM917 605v297q-124 121 -300 121q-174 0 -296 -122v-296h596z" />
    <glyph glyph-name="oneeighth" unicode="&#x215b;" horiz-adv-x="1708" 
d="M123 -61l1396 1552h175l-1409 -1552h-162zM419 733l111 532q-102 -73 -251 -102l27 127q57 15 156.5 70t151.5 124h112l-157 -751h-150zM1255 368q-127 49 -127 156q0 90 79 141t198 51q130 0 201 -49.5t71 -132.5q0 -137 -173 -174q142 -37 142 -169q0 -108 -85 -176
t-233 -68q-144 0 -213.5 62t-69.5 149q0 82 56 138.5t154 71.5zM1271 500q0 -32 27.5 -59.5t91.5 -27.5q59 0 99.5 26t40.5 77q0 46 -35 68.5t-82 22.5q-60 0 -101 -28t-41 -79zM1193 167q0 -111 131 -111q70 0 123 35.5t53 106.5q0 113 -132 113q-76 0 -125.5 -39
t-49.5 -105z" />
    <glyph glyph-name="threeeighths" unicode="&#x215c;" horiz-adv-x="1708" 
d="M148 -61l1396 1552h175l-1409 -1552h-162zM170 930l143 16q42 -111 166 -111q70 0 109.5 36.5t39.5 88.5q0 58 -40.5 80t-140.5 22l23 107q198 0 198 112q0 44 -35 69.5t-87 25.5q-115 0 -152 -102l-147 19q23 85 100.5 138t195.5 53q125 0 201 -53.5t76 -144.5
q0 -135 -168 -175q133 -47 133 -168q0 -101 -89 -164.5t-214 -63.5q-123 0 -206.5 61.5t-105.5 153.5zM1256 368q-127 49 -127 156q0 90 78.5 141t198.5 51q129 0 200.5 -48.5t71.5 -133.5q0 -137 -173 -174q142 -37 142 -169q0 -108 -85 -176t-233 -68q-144 0 -213.5 62
t-69.5 149q0 76 54 136.5t156 73.5zM1272 500q0 -28 26 -57.5t91 -29.5q62 0 102 26.5t40 76.5q0 45 -34.5 68t-82.5 23q-60 0 -101 -28t-41 -79zM1194 167q0 -111 131 -111q69 0 122.5 35t53.5 107q0 113 -132 113q-75 0 -125 -38.5t-50 -105.5z" />
    <glyph glyph-name="fiveeighths" unicode="&#x215d;" horiz-adv-x="1708" 
d="M147 -61l1396 1552h175l-1409 -1552h-162zM174 941l149 7q26 -112 141 -112q82 0 131.5 44.5t49.5 119.5q0 62 -39 96.5t-90 34.5q-82 0 -167 -58l-135 9l114 384h501l-25 -121h-385l-47 -160q96 56 182 56q109 0 179 -65t70 -157q0 -118 -95.5 -211t-250.5 -93
q-126 0 -201.5 66.5t-81.5 159.5zM1255 368q-127 49 -127 156q0 83 75 137.5t202 54.5q130 0 201 -49.5t71 -132.5q0 -132 -173 -174q142 -37 142 -169q0 -107 -84.5 -175.5t-233.5 -68.5q-144 0 -213.5 61.5t-69.5 149.5q0 76 54 136.5t156 73.5zM1271 500q0 -28 26 -57.5
t93 -29.5q59 0 99.5 26.5t40.5 76.5q0 43 -33.5 67t-83.5 24q-59 0 -100.5 -27.5t-41.5 -79.5zM1193 167q0 -111 130 -111q77 0 127 37.5t50 104.5q0 113 -132 113q-76 0 -125.5 -39t-49.5 -105z" />
    <glyph glyph-name="seveneighths" unicode="&#x215e;" horiz-adv-x="1708" 
d="M99 -61l1396 1552h175l-1409 -1552h-162zM293 733q85 352 366 612h-421l26 121h569l-25 -121q-120 -104 -225 -278t-134 -334h-156zM1255 368q-127 49 -127 156q0 90 79 141t198 51q128 0 200 -48.5t72 -133.5q0 -137 -173 -174q142 -37 142 -169q0 -107 -84.5 -175.5
t-232.5 -68.5q-143 0 -213.5 61.5t-70.5 149.5q0 76 54 136.5t156 73.5zM1271 500q0 -28 26 -57.5t93 -29.5q59 0 99.5 26.5t40.5 76.5q0 46 -34.5 68.5t-82.5 22.5q-58 0 -100 -27.5t-42 -79.5zM1193 167q0 -111 131 -111q70 0 123 35.5t53 106.5q0 113 -131 113
q-81 0 -128.5 -40.5t-47.5 -103.5z" />
    <glyph glyph-name="glyph493" horiz-adv-x="682" 
d="M113 -296l38 175h196l-32 -147q-21 -93 -98 -171t-179 -87l18 86q100 26 150 144h-93z" />
    <glyph glyph-name="glyph494" horiz-adv-x="682" 
d="M150 -51q27 2 50 2q140 0 210 -50t70 -138q0 -89 -83 -138.5t-243 -49.5q-94 0 -186 12l24 114q40 -4 118 -4q197 0 197 73q0 72 -146 72h-35z" />
    <glyph glyph-name="tonos" unicode="&#x384;" horiz-adv-x="682" 
d="M379 1191l188 275h228l-266 -275h-150z" />
    <glyph glyph-name="dieresistonos" unicode="&#x385;" horiz-adv-x="682" 
d="M528 1468h183l-237 -277h-122zM138 1384h176l-41 -193h-176zM743 1384h176l-41 -193h-176z" />
    <glyph glyph-name="Alphatonos" unicode="&#x386;" horiz-adv-x="1366" 
d="M-44 0l831 1466h231l242 -1466h-190l-71 422h-593l-235 -422h-215zM490 573h485l-57 368q-35 227 -41 365q-50 -126 -146 -299zM233 1249l185 217h285l-298 -217h-172z" />
    <glyph glyph-name="Epsilontonos" unicode="&#x388;" horiz-adv-x="1615" 
d="M99 1249l185 217h284l-297 -217h-172zM337 0l306 1466h1058l-34 -167h-863l-95 -456h839l-35 -167h-839l-106 -510h922l-35 -166h-1118z" />
    <glyph glyph-name="Etatonos" unicode="&#x389;" horiz-adv-x="1733" 
d="M341 0l307 1466h196l-127 -609h760l127 609h196l-306 -1466h-196l144 691h-760l-145 -691h-196zM104 1249l185 217h284l-297 -217h-172z" />
    <glyph glyph-name="Iotatonos" unicode="&#x38a;" horiz-adv-x="796" 
d="M337 0l306 1466h196l-306 -1466h-196zM98 1249l185 217h284l-297 -217h-172z" />
    <glyph glyph-name="Omicrontonos" unicode="&#x38c;" horiz-adv-x="1626" 
d="M211 614q0 400 229.5 638.5t537.5 238.5q292 0 460 -184t168 -474q0 -359 -229 -608.5t-550 -249.5q-188 0 -335 90.5t-214 242t-67 306.5zM403 604q0 -207 126.5 -336.5t310.5 -129.5q239 0 405 213.5t166 495.5q0 232 -128 356.5t-298 124.5q-161 0 -299 -99
t-210.5 -258t-72.5 -367zM87 1249l185 217h284l-297 -217h-172z" />
    <glyph glyph-name="Upsilontonos" unicode="&#x38e;" horiz-adv-x="1772" 
d="M975 0l119 567l-452 899h210l217 -428q74 -147 137 -300q74 136 203 297l343 431h234l-699 -914l-116 -552h-196zM96 1249l185 217h284l-297 -217h-172z" />
    <glyph glyph-name="Omegatonos" unicode="&#x38f;" horiz-adv-x="1587" 
d="M27 0l36 166h365q-216 204 -216 498q0 208 102.5 402.5t275.5 309.5t391 115q255 0 420.5 -181t165.5 -477q0 -430 -343 -667h318l-36 -166h-610l35 153q217 69 331.5 260t114.5 423q0 225 -117.5 358.5t-295.5 133.5q-228 0 -393 -207t-165 -486q0 -338 272 -482
l-34 -153h-617zM85 1249l185 217h284l-298 -217h-171z" />
    <glyph glyph-name="iotadieresistonos" unicode="&#x390;" horiz-adv-x="455" 
d="M61 0l222 1062h181l-222 -1062h-181zM413 1468h183l-237 -277h-122zM23 1384h176l-41 -193h-176zM628 1384h176l-41 -193h-176z" />
    <glyph glyph-name="Alpha" unicode="&#x391;" horiz-adv-x="1366" 
d="M-41 0l831 1466h231l242 -1466h-190l-71 422h-593l-235 -422h-215zM493 573h485l-57 368q-33 219 -41 365q-50 -126 -146 -299z" />
    <glyph glyph-name="Beta" unicode="&#x392;" horiz-adv-x="1366" 
d="M89 0l307 1466h454q124 0 184 -10q98 -17 165.5 -59.5t104.5 -116t37 -162.5q0 -121 -66.5 -213t-203.5 -140q119 -39 178 -117.5t59 -183.5q0 -121 -69.5 -232t-184 -171.5t-255.5 -60.5h-710zM461 840h297q213 0 306.5 68t93.5 198q0 62 -29 107t-77.5 65.5
t-182.5 20.5h-312zM320 166h334q133 0 179 9q93 16 151 54.5t91 101.5t33 132q0 103 -64.5 156.5t-245.5 53.5h-372z" />
    <glyph glyph-name="uni0394" unicode="&#x394;" horiz-adv-x="1374" 
d="M-20 0l831 1466h231l242 -1466h-1304zM288 166h778l-124 775q-33 207 -41 365q-50 -127 -146 -299z" />
    <glyph glyph-name="Epsilon" unicode="&#x395;" horiz-adv-x="1366" 
d="M92 0l307 1466h1058l-35 -167h-862l-96 -456h840l-35 -167h-840l-106 -510h923l-35 -166h-1119z" />
    <glyph glyph-name="Zeta" unicode="&#x396;" horiz-adv-x="1251" 
d="M50 0l19 147l734 877l152 184q46 56 89 103q-93 -11 -130 -11l-48 1l-58 -1l-57 -1h-493l35 167h1011l-17 -153l-787 -935q-145 -173 -184 -217q44 6 57 6h799l-35 -167h-1087z" />
    <glyph glyph-name="Eta" unicode="&#x397;" horiz-adv-x="1479" 
d="M86 0l307 1466h195l-127 -609h760l127 609h196l-306 -1466h-196l144 691h-759l-145 -691h-196z" />
    <glyph glyph-name="Iota" unicode="&#x399;" horiz-adv-x="569" 
d="M117 0l307 1466h195l-306 -1466h-196z" />
    <glyph glyph-name="Kappa" unicode="&#x39a;" horiz-adv-x="1366" 
d="M91 0l306 1466h196l-147 -706l796 706h276l-681 -597l499 -869h-219l-423 743l-307 -267l-100 -476h-196z" />
    <glyph glyph-name="Lambda" unicode="&#x39b;" horiz-adv-x="1366" 
d="M994 1466l282 -1466h-189l-170 873q-49 251 -61 385q-92 -189 -151 -298l-523 -960h-202l804 1466h210z" />
    <glyph glyph-name="Mu" unicode="&#x39c;" horiz-adv-x="1706" 
d="M90 0l306 1466h241l148 -950q29 -187 38 -359q61 148 204 401l514 908h245l-306 -1466h-193l153 713q53 247 152 554q-63 -143 -156 -308l-546 -959h-189l-147 940q-20 129 -29 301q-25 -193 -49 -306l-195 -935h-191z" />
    <glyph glyph-name="Nu" unicode="&#x39d;" horiz-adv-x="1479" 
d="M100 0l307 1466h190l247 -550q113 -252 179 -424q38 -100 88 -270q27 185 68 382l180 862h191l-306 -1466h-194l-364 847q-97 224 -151 395q-15 -143 -58 -351l-186 -891h-191z" />
    <glyph glyph-name="Xi" unicode="&#x39e;" horiz-adv-x="1328" 
d="M384 1466h1031l-35 -167h-1031zM272 840h989l-35 -166h-989zM43 166h1161l-35 -166h-1161z" />
    <glyph glyph-name="Omicron" unicode="&#x39f;" horiz-adv-x="1593" 
d="M187 614q0 392 226.5 634.5t549.5 242.5q274 0 446.5 -178.5t172.5 -478.5q0 -214 -87 -397q-65 -137 -164 -236.5t-212 -153.5q-150 -72 -318 -72q-176 0 -320.5 84t-219 234.5t-74.5 320.5zM380 604q0 -129 53.5 -237t159.5 -169t223 -61q113 0 215 53.5t182.5 149
t127 235t46.5 274.5q0 219 -122.5 349t-302.5 130q-230 0 -406 -196.5t-176 -527.5z" />
    <glyph glyph-name="Pi" unicode="&#x3a0;" horiz-adv-x="1484" 
d="M87 0l307 1466h1151l-306 -1466h-196l277 1299h-760l-277 -1299h-196z" />
    <glyph glyph-name="Rho" unicode="&#x3a1;" horiz-adv-x="1366" 
d="M88 0l307 1466h612q159 0 238.5 -36.5t131.5 -125t52 -198.5q0 -91 -37 -185t-93.5 -155t-114.5 -92t-124 -46q-141 -33 -285 -33h-367l-124 -595h-196zM443 761h323q188 0 276 40.5t141 123.5t53 176q0 72 -28 117.5t-79 67t-196 21.5h-376z" />
    <glyph glyph-name="Sigma" unicode="&#x3a3;" horiz-adv-x="1228" 
d="M352 1466h1011l-35 -167h-803l446 -567l-631 -566h750l-35 -166h-1010l38 184l636 570l-408 514z" />
    <glyph glyph-name="Tau" unicode="&#x3a4;" horiz-adv-x="1251" 
d="M465 0l271 1299h-481l35 167h1154l-35 -167h-477l-271 -1299h-196z" />
    <glyph glyph-name="Upsilon" unicode="&#x3a5;" horiz-adv-x="1366" 
d="M572 0l118 567l-451 899h210l216 -428q71 -140 138 -300q74 136 202 297l344 431h234l-700 -914l-115 -552h-196z" />
    <glyph glyph-name="Chi" unicode="&#x3a7;" horiz-adv-x="1366" 
d="M-65 0l700 741l-415 725h216l189 -332q75 -131 86 -153q26 -49 57 -117q74 100 229 263l322 339h256l-709 -757l402 -709h-213l-238 429q-35 63 -81 162q-54 -73 -132 -155l-409 -436h-260z" />
    <glyph glyph-name="Psi" unicode="&#x3a8;" horiz-adv-x="1701" 
d="M352 1466h196l-64 -308q-43 -203 -43 -280q0 -240 364 -262l179 850h196l-179 -849q222 8 348.5 97t198.5 424l70 328h196l-80 -377q-53 -251 -131 -368t-233.5 -191.5t-403.5 -79.5l-97 -450h-196l97 454q-517 43 -517 444q0 101 35 264z" />
    <glyph glyph-name="uni03A9" unicode="&#x3a9;" horiz-adv-x="1558" 
d="M7 0l36 166h365q-216 204 -216 498q0 208 102.5 402.5t275.5 309.5t391 115q255 0 420.5 -181t165.5 -477q0 -430 -343 -667h318l-36 -166h-610l35 153q217 69 331.5 260t114.5 423q0 225 -117.5 358.5t-295.5 133.5q-228 0 -393 -207t-165 -486q0 -338 272 -482
l-34 -153h-617z" />
    <glyph glyph-name="Iotadieresis" unicode="&#x3aa;" horiz-adv-x="569" 
d="M117 0l307 1466h195l-306 -1466h-196zM279 1556l43 205h189l-43 -205h-189zM648 1556l43 205h188l-42 -205h-189z" />
    <glyph glyph-name="Upsilondieresis" unicode="&#x3ab;" horiz-adv-x="1366" 
d="M572 0l118 567l-451 899h210l216 -428q71 -140 138 -300q74 136 202 297l344 431h234l-700 -914l-115 -552h-196zM637 1556l43 205h189l-43 -205h-189zM1006 1556l43 205h188l-42 -205h-189z" />
    <glyph glyph-name="alphatonos" unicode="&#x3ac;" horiz-adv-x="1168" 
d="M1034 1062h193l-238 -515v-192q0 -169 14 -355h-181l-20 158q-148 -182 -346 -182q-113 0 -189 54t-120.5 144t-44.5 235q0 282 156 479.5t373 197.5q207 0 314 -217zM281 395q0 -137 62 -204t154 -67q151 0 258.5 170t107.5 368q0 118 -57.5 196.5t-160.5 78.5
q-158 0 -261 -173.5t-103 -368.5zM559 1191l188 275h228l-266 -275h-150z" />
    <glyph glyph-name="epsilontonos" unicode="&#x3ad;" horiz-adv-x="900" 
d="M937 934l-138 -93q-90 96 -204 96q-92 0 -147.5 -52t-55.5 -120q0 -141 239 -156l-28 -136q-37 2 -56 2q-128 0 -209.5 -62t-81.5 -148q0 -71 48.5 -110t127.5 -39q150 0 286 129l110 -117q-172 -152 -390 -152q-181 0 -275 83t-94 202q0 203 249 301q-107 92 -107 215
q0 129 110 219t265 90q212 0 351 -152zM451 1191l188 275h228l-266 -275h-150z" />
    <glyph glyph-name="etatonos" unicode="&#x3ae;" horiz-adv-x="1137" 
d="M69 0l222 1062h164l-39 -185q198 209 396 209q119 0 194.5 -69.5t75.5 -177.5q0 -65 -26 -196l-214 -1050h-181l220 1080q21 101 21 141q0 123 -145 123q-120 0 -234.5 -91t-169.5 -352l-103 -494h-181zM571 1191l188 275h228l-266 -275h-150z" />
    <glyph glyph-name="iotatonos" unicode="&#x3af;" horiz-adv-x="455" 
d="M61 0l222 1062h181l-222 -1062h-181zM229 1191l188 275h228l-266 -275h-150z" />
    <glyph glyph-name="upsilondieresistonos" unicode="&#x3b0;" horiz-adv-x="1126" 
d="M286 1062h181l-123 -589q-24 -115 -24 -163q0 -90 59.5 -138t146.5 -48q83 0 148 44t99.5 112t60.5 193l123 589h181l-104 -499q-46 -224 -104 -341.5t-160.5 -181.5t-240.5 -64q-184 0 -281.5 98t-97.5 243q0 82 47 317l5 27zM754 1468h183l-237 -277h-122zM364 1384
h176l-41 -193h-176zM969 1384h176l-41 -193h-176z" />
    <glyph glyph-name="beta" unicode="&#x3b2;" horiz-adv-x="1170" 
d="M-23 -407l262 1244q53 251 103.5 371t164 201.5t269.5 81.5q160 2 261 -93t101 -245q0 -137 -84 -229t-205 -123q124 -52 186 -151.5t62 -207.5q0 -172 -122 -319t-346 -147q-129 0 -208.5 46.5t-142.5 135.5l-124 -565h-177zM586 858q191 4 288 87t97 208q0 82 -56 136
t-133 54q-116 0 -207 -103t-135 -318l-69 -329q-26 -127 -26 -208q0 -134 86 -210t190 -76q127 0 215.5 103t88.5 247q0 288 -365 288z" />
    <glyph glyph-name="gamma" unicode="&#x3b3;" horiz-adv-x="1024" 
d="M523 0l-84 -407h-181l84 407l-184 1062h176l91 -585q15 -101 37 -313q52 113 133 259l355 639h191z" />
    <glyph glyph-name="zeta" unicode="&#x3b6;" horiz-adv-x="949" 
d="M483 1466h667l-27 -124q-414 -220 -631 -494.5t-217 -503.5q0 -72 40.5 -128.5t186.5 -60.5q109 -3 165 -31t92.5 -94t36.5 -143q0 -140 -115 -226t-345 -86l79 149q216 9 216 152q0 44 -24 72.5t-56.5 37t-124.5 13.5q-157 9 -241.5 104t-84.5 234q0 157 87.5 337.5
t290.5 368.5t358 272h-384z" />
    <glyph glyph-name="eta" unicode="&#x3b7;" horiz-adv-x="1137" 
d="M69 0l222 1062h164l-39 -185q198 209 396 209q119 0 194.5 -69.5t75.5 -177.5q0 -65 -26 -196l-214 -1050h-181l220 1080q21 101 21 141q0 123 -145 123q-120 0 -234.5 -91t-169.5 -352l-103 -494h-181z" />
    <glyph glyph-name="theta" unicode="&#x3b8;" horiz-adv-x="1111" 
d="M130 488q0 353 171 679t449 324q173 5 283 -118.5t110 -376.5q0 -376 -170.5 -698t-447.5 -322q-175 0 -285 136t-110 376zM358 800h588q26 153 26 247q0 135 -63 215.5t-167 80.5q-257 0 -384 -543zM917 650h-590q-19 -135 -19 -208q0 -144 61 -231t167 -87
q122 0 223.5 141t157.5 385z" />
    <glyph glyph-name="iota" unicode="&#x3b9;" horiz-adv-x="455" 
d="M61 0l222 1062h181l-222 -1062h-181z" />
    <glyph glyph-name="kappa" unicode="&#x3ba;" horiz-adv-x="1024" 
d="M289 1062h181l-99 -469l516 469h239l-526 -441l362 -621h-207l-287 510l-143 -121l-84 -389h-181z" />
    <glyph glyph-name="lambda" unicode="&#x3bb;" horiz-adv-x="1008" 
d="M689 1466l227 -1466h-181l-125 833l-480 -833h-181l625 1062l-66 404h181z" />
    <glyph glyph-name="uni03BC" unicode="&#x3bc;" horiz-adv-x="1122" 
d="M287 1062h179l-106 -499q-39 -183 -39 -255q0 -83 55 -132t143 -49q74 0 145 39.5t106.5 111t65.5 212.5l120 572h179l-226 -1062h-161l18 84q-130 -108 -269 -108q-140 0 -235 124l-108 -507h-178z" />
    <glyph glyph-name="nu" unicode="&#x3bd;" horiz-adv-x="1024" 
d="M336 0l-174 1062h176l91 -585q15 -96 37 -313q52 113 133 259l355 639h191l-608 -1062h-201z" />
    <glyph glyph-name="xi" unicode="&#x3be;" horiz-adv-x="915" 
d="M1034 1491l-32 -148q-189 0 -279.5 -13.5t-148.5 -73.5t-58 -130q0 -50 39 -86t112.5 -47.5t245.5 -11.5l-30 -147q-238 0 -407.5 -134.5t-169.5 -319.5q0 -105 53.5 -153t192.5 -75q90 -18 139 -43.5t84 -83.5t35 -134q0 -101 -64 -177t-161.5 -105t-254.5 -34l77 149
q235 12 235 143q0 56 -38 84.5t-135 43.5q-117 17 -180.5 48t-118.5 121.5t-55 209.5q0 167 111 310t303 203q-195 71 -195 254q0 93 60 178.5t175 128.5t361 43h104z" />
    <glyph glyph-name="omicron" unicode="&#x3bf;" 
d="M100 403q0 311 183 515q151 168 396 168q192 0 309.5 -120t117.5 -324q0 -183 -74 -340.5t-210.5 -241.5t-287.5 -84q-124 0 -225.5 53t-155 150t-53.5 224zM281 421q0 -150 72 -227.5t183 -77.5q58 0 115 23.5t106 71.5t83.5 109.5t55.5 132.5q31 99 31 190
q0 144 -72.5 223.5t-182.5 79.5q-85 0 -155 -40.5t-126.5 -118.5t-83 -181.5t-26.5 -184.5z" />
    <glyph glyph-name="rho" unicode="&#x3c1;" horiz-adv-x="1173" 
d="M153 -407h-181l179 831q52 243 115.5 369.5t182 209.5t277.5 83q183 0 300 -121t117 -316q0 -270 -158.5 -471.5t-390.5 -201.5q-209 0 -324 151zM341 393q0 -135 70 -202t168 -67q101 0 192.5 75.5t142.5 204t51 248.5q0 121 -66.5 203t-177.5 82q-167 0 -273.5 -173.5
t-106.5 -370.5z" />
    <glyph glyph-name="sigma1" unicode="&#x3c2;" horiz-adv-x="996" 
d="M1097 1029l-65 -136q-102 44 -210 44q-142 0 -259.5 -64t-194.5 -177t-77 -235q0 -72 37 -142.5t209 -168.5q158 -90 204.5 -155t46.5 -141q0 -109 -93.5 -194t-328.5 -85q-81 0 -158 4l68 146q70 -1 102 -1q249 0 249 129q0 48 -31.5 77t-172.5 106q-196 107 -254 214
t-58 208q0 139 82.5 288t251 244.5t375.5 95.5q141 0 277 -57z" />
    <glyph glyph-name="upsilon" unicode="&#x3c5;" horiz-adv-x="1126" 
d="M286 1062h181l-123 -589q-24 -115 -24 -163q0 -90 59.5 -138t146.5 -48q83 0 148 44t99.5 112t60.5 193l123 589h181l-104 -499q-46 -224 -104 -341.5t-160.5 -181.5t-240.5 -64q-184 0 -281.5 98t-97.5 243q0 82 47 317l5 27z" />
    <glyph glyph-name="chi" unicode="&#x3c7;" horiz-adv-x="1118" 
d="M209 1062h185l164 -587l430 587h222l-553 -738l250 -731h-196l-182 619l-458 -619h-218l569 765z" />
    <glyph glyph-name="psi" unicode="&#x3c8;" horiz-adv-x="1490" 
d="M287 1062h181l-103 -485q-35 -166 -35 -254q0 -103 70 -150t203 -56l199 945h181l-199 -943q142 3 224 47t125.5 131t92.5 318l96 447h180l-107 -511q-45 -220 -108.5 -332t-179 -171.5t-353.5 -71.5l-81 -383h-181l82 387q-227 14 -322.5 113.5t-95.5 239.5
q0 115 60 397z" />
    <glyph glyph-name="omega" unicode="&#x3c9;" horiz-adv-x="1595" 
d="M387 1062h181q-289 -425 -289 -716q0 -124 49 -177t112 -53q67 0 135 58.5t110 159t97 353.5l23 107h181l-46 -209q-36 -163 -36 -252q0 -108 46.5 -162.5t113.5 -54.5q121 0 218 170.5t97 444.5q0 156 -47 331h181q50 -199 50 -356q0 -299 -147.5 -514.5t-357.5 -215.5
q-99 0 -174.5 60.5t-105.5 169.5q-61 -111 -158.5 -170.5t-196.5 -59.5q-138 0 -230.5 99.5t-92.5 289.5q0 149 72.5 334t214.5 363z" />
    <glyph glyph-name="iotadieresis" unicode="&#x3ca;" horiz-adv-x="455" 
d="M61 0l222 1062h181l-222 -1062h-181zM120 1227l43 205h189l-43 -205h-189zM489 1227l43 205h188l-42 -205h-189z" />
    <glyph glyph-name="upsilondieresis" unicode="&#x3cb;" horiz-adv-x="1126" 
d="M286 1062h181l-123 -589q-24 -115 -24 -163q0 -90 59.5 -138t146.5 -48q83 0 148 44t99.5 112t60.5 193l123 589h181l-104 -499q-46 -224 -104 -341.5t-160.5 -181.5t-240.5 -64q-184 0 -281.5 98t-97.5 243q0 82 47 317l5 27zM461 1227l43 205h189l-43 -205h-189z
M830 1227l43 205h188l-42 -205h-189z" />
    <glyph glyph-name="omicrontonos" unicode="&#x3cc;" 
d="M100 403q0 311 183 515q151 168 396 168q192 0 309.5 -120t117.5 -324q0 -183 -74 -340.5t-210.5 -241.5t-287.5 -84q-124 0 -225.5 53t-155 150t-53.5 224zM281 421q0 -150 72 -227.5t183 -77.5q58 0 115 23.5t106 71.5t83.5 109.5t55.5 132.5q31 99 31 190
q0 144 -72.5 223.5t-182.5 79.5q-85 0 -155 -40.5t-126.5 -118.5t-83 -181.5t-26.5 -184.5zM573 1191l188 275h228l-266 -275h-150z" />
    <glyph glyph-name="upsilontonos" unicode="&#x3cd;" horiz-adv-x="1126" 
d="M286 1062h181l-123 -589q-24 -115 -24 -163q0 -90 59.5 -138t146.5 -48q83 0 148 44t99.5 112t60.5 193l123 589h181l-104 -499q-46 -224 -104 -341.5t-160.5 -181.5t-240.5 -64q-184 0 -281.5 98t-97.5 243q0 82 47 317l5 27zM569 1191l188 275h228l-266 -275h-150z" />
    <glyph glyph-name="omegatonos" unicode="&#x3ce;" horiz-adv-x="1595" 
d="M387 1062h181q-289 -425 -289 -716q0 -124 49 -177t112 -53q67 0 135 58.5t110 159t97 353.5l23 107h181l-46 -209q-36 -163 -36 -252q0 -108 46.5 -162.5t113.5 -54.5q121 0 218 170.5t97 444.5q0 156 -47 331h181q50 -199 50 -356q0 -299 -147.5 -514.5t-357.5 -215.5
q-99 0 -174.5 60.5t-105.5 169.5q-61 -111 -158.5 -170.5t-196.5 -59.5q-138 0 -230.5 99.5t-92.5 289.5q0 149 72.5 334t214.5 363zM797 1191l188 275h228l-266 -275h-150z" />
    <glyph glyph-name="uni0401" unicode="&#x401;" horiz-adv-x="1366" 
d="M92 0l307 1466h1058l-35 -167h-862l-96 -456h840l-35 -167h-840l-106 -510h923l-35 -166h-1119zM656 1556l43 205h189l-43 -205h-189zM1025 1556l43 205h188l-42 -205h-189z" />
    <glyph glyph-name="uni0402" unicode="&#x402;" horiz-adv-x="1726" 
d="M268 1466h1153l-36 -167h-477l-98 -450q222 90 404 90q260 0 364.5 -127.5t104.5 -294.5q0 -132 -65 -261t-187 -205t-295 -76q-117 0 -245 46l36 174q125 -59 214 -59q147 0 249 113.5t102 276.5q0 106 -73.5 182.5t-224.5 76.5q-186 0 -419 -99l-151 -686h-194
l281 1299h-480z" />
    <glyph glyph-name="uni0403" unicode="&#x403;" horiz-adv-x="1114" 
d="M397 1466h947l-35 -167h-754l-276 -1299h-192zM663 1556l188 275h228l-266 -275h-150z" />
    <glyph glyph-name="uni0404" unicode="&#x404;" horiz-adv-x="1449" 
d="M1498 1025l-186 -18q-52 317 -350 317q-193 0 -335.5 -123t-211.5 -364h536l-40 -174h-527q-3 -50 -3 -87q0 -197 109.5 -321t294.5 -124q314 0 449 377l190 -27q-75 -230 -251 -368t-407 -138q-245 0 -412 153.5t-167 462.5q0 253 98.5 456.5t269.5 323.5t402 120
q234 0 377.5 -133.5t163.5 -332.5z" />
    <glyph glyph-name="uni0405" unicode="&#x405;" horiz-adv-x="1366" 
d="M144 474l192 18l-2 -51q0 -85 39 -155.5t129 -109t214 -38.5q176 0 268.5 77t92.5 176q0 69 -49 126q-50 56 -273 152q-173 75 -236 115q-99 65 -146 141.5t-47 174.5q0 113 62 204t181.5 139t269.5 48q179 0 302 -60t178.5 -160t55.5 -191q0 -9 -1 -30l-189 -15
q0 62 -11 97q-20 61 -62 103t-115.5 67.5t-164.5 25.5q-160 0 -249 -72q-68 -55 -68 -146q0 -54 28 -96.5t101 -83.5q52 -29 247 -115q158 -70 218 -110q80 -53 123 -128.5t43 -171.5q0 -119 -72.5 -219.5t-200.5 -155.5t-293 -55q-249 0 -406.5 108.5t-158.5 390.5z" />
    <glyph glyph-name="uni0406" unicode="&#x406;" horiz-adv-x="569" 
d="M117 0l307 1466h195l-306 -1466h-196z" />
    <glyph glyph-name="uni0407" unicode="&#x407;" horiz-adv-x="569" 
d="M117 0l307 1466h195l-306 -1466h-196zM267 1556l43 205h189l-43 -205h-189zM636 1556l43 205h188l-42 -205h-189z" />
    <glyph glyph-name="uni0408" unicode="&#x408;" horiz-adv-x="1024" 
d="M83 427l182 13q-16 -85 -16 -125q0 -81 50.5 -129.5t140.5 -48.5q65 0 114.5 29.5t80.5 91.5q24 47 49 169l218 1039h195l-223 -1071q-47 -226 -157 -323t-281 -97q-182 0 -275 84t-93 236q0 67 15 132z" />
    <glyph glyph-name="uni0409" unicode="&#x409;" horiz-adv-x="2183" 
d="M1311 842h298q220 0 311 -32.5t152 -115t61 -204.5q0 -146 -85.5 -268t-209.5 -172t-399 -50h-508l282 1299h-538l-172 -804q-47 -221 -87.5 -317.5t-115 -149.5t-177.5 -53q-54 0 -145 25l35 159q63 -21 94 -21q73 0 115 72.5t85 270.5l210 985h927zM1169 166h172
q259 0 369.5 29.5t168.5 111t58 173.5q0 71 -38 118t-104 62.5t-212 15.5h-307z" />
    <glyph glyph-name="uni040A" unicode="&#x40a;" horiz-adv-x="2012" 
d="M1268 1466l-128 -624h298q220 0 311.5 -32.5t152 -115.5t60.5 -204q0 -146 -85.5 -268t-209.5 -172t-399 -50h-501l144 676h-484l-144 -676h-196l307 1466h195l-127 -624h484l127 624h195zM997 166h172q262 0 366.5 28.5t167.5 105t63 180.5q0 70 -37.5 117.5t-103.5 63
t-213 15.5h-308z" />
    <glyph glyph-name="uni040B" unicode="&#x40b;" horiz-adv-x="1729" 
d="M266 1466h1152l-37 -167h-477l-98 -445q226 92 427 92q200 0 311.5 -92t111.5 -251q0 -85 -29 -222l-82 -381h-195l97 442q17 78 17 140q0 102 -69.5 152.5t-209.5 50.5q-191 0 -415 -98l-149 -687h-194l282 1299h-480z" />
    <glyph glyph-name="uni040C" unicode="&#x40c;" horiz-adv-x="1207" 
d="M400 1466h197l-137 -646q90 0 147 24.5t120 97.5t130 190q107 189 155.5 242.5t117.5 78t136 24.5q9 0 115 -8l-34 -163q-10 0 -37 3q-41 5 -55 5q-52 0 -92 -39q-41 -39 -103 -144q-121 -206 -194.5 -281.5t-174.5 -99.5q149 -57 264 -339l166 -411h-215l-139 343
q-83 204 -149 272.5t-187 73.5l-147 -689h-197zM667 1556l188 275h228l-266 -275h-150z" />
    <glyph glyph-name="uni040E" unicode="&#x40e;" horiz-adv-x="1309" 
d="M231 1466h197l341 -926l561 926h208l-775 -1244q-74 -118 -143.5 -180t-163.5 -62q-45 0 -165 14l-54 6l35 169q148 -24 161 -24q82 0 177 153l31 50zM591 1809h118q11 -73 49 -106.5t107 -33.5q72 0 124.5 37t80.5 103h120q-34 -120 -123.5 -190t-207.5 -70
q-116 0 -189 70.5t-79 189.5z" />
    <glyph glyph-name="uni040F" unicode="&#x40f;" horiz-adv-x="1482" 
d="M749 0l-86 -407h-167l87 407h-496l316 1466h194l-278 -1300h765l277 1300h196l-315 -1466h-493z" />
    <glyph glyph-name="uni0410" unicode="&#x410;" horiz-adv-x="1366" 
d="M-41 0l831 1466h231l242 -1466h-190l-71 422h-593l-235 -422h-215zM493 573h485l-57 368q-33 219 -41 365q-50 -126 -146 -299z" />
    <glyph glyph-name="uni0411" unicode="&#x411;" horiz-adv-x="1333" 
d="M399 1466h947l-36 -167h-753l-96 -457h297q220 0 311 -32.5t152.5 -115t61.5 -204.5q0 -146 -85.5 -268t-209.5 -172t-400 -50h-501zM318 166h172q259 0 369.5 29.5t169 111t58.5 174.5q0 69 -38.5 116.5t-105 63t-211.5 15.5h-307z" />
    <glyph glyph-name="uni0412" unicode="&#x412;" horiz-adv-x="1366" 
d="M89 0l307 1466h454q124 0 184 -10q98 -17 165.5 -59.5t104.5 -116t37 -162.5q0 -121 -66.5 -213t-203.5 -140q119 -39 178 -117.5t59 -183.5q0 -121 -69.5 -232t-184 -171.5t-255.5 -60.5h-710zM461 840h297q213 0 306.5 68t93.5 198q0 62 -29 107t-77.5 65.5
t-182.5 20.5h-312zM320 166h334q133 0 179 9q93 16 151 54.5t91 101.5t33 132q0 103 -64.5 156.5t-245.5 53.5h-372z" />
    <glyph glyph-name="uni0413" unicode="&#x413;" horiz-adv-x="1114" 
d="M397 1466h947l-35 -167h-754l-276 -1299h-192z" />
    <glyph glyph-name="uni0414" unicode="&#x414;" horiz-adv-x="1442" 
d="M536 1466h966l-279 -1300h134l-101 -458h-172l66 292h-1043l-66 -292h-170l101 458h120q258 280 444 1300zM699 1299q-29 -170 -145.5 -559t-250.5 -574h726l241 1133h-571z" />
    <glyph glyph-name="uni0415" unicode="&#x415;" horiz-adv-x="1366" 
d="M92 0l307 1466h1058l-35 -167h-862l-96 -456h840l-35 -167h-840l-106 -510h923l-35 -166h-1119z" />
    <glyph glyph-name="uni0416" unicode="&#x416;" horiz-adv-x="1878" 
d="M1269 1466l-138 -646q90 0 147.5 24.5t120.5 97.5t130 190q104 184 151 238t115 80.5t152 26.5q36 0 105 -8l-34 -163l-36 4q-30 4 -43 4q-100 0 -173 -124l-69 -118q-91 -155 -165 -228.5t-169 -93.5q153 -65 255 -318l175 -432h-216l-139 343q-83 204 -149 272.5
t-186 73.5l-146 -689h-193l147 689q-81 -3 -150.5 -34.5t-124 -84t-199.5 -227.5l-285 -343h-225l341 412q158 190 223.5 244.5t186.5 93.5q-84 16 -124.5 98t-62.5 222l-18 118q-19 124 -128 124q-20 0 -86 -6l35 163q69 8 104 8q83 0 134 -25t76.5 -79.5t48.5 -244.5
q20 -164 78 -236t166 -72h38l137 646h193z" />
    <glyph glyph-name="uni0417" unicode="&#x417;" horiz-adv-x="1257" 
d="M528 675l51 176q52 -2 77 -2q215 0 310.5 74.5t95.5 184.5q0 92 -68 157t-168 65q-115 0 -217 -69.5t-156 -239.5l-189 41q65 208 213.5 318.5t347.5 110.5q186 0 309.5 -105.5t123.5 -275.5q0 -139 -88 -232t-219 -118q108 -45 162 -127t54 -201q0 -198 -154 -327.5
t-395 -129.5q-434 0 -519 440l169 51q37 -326 348 -326q175 0 266.5 92t91.5 206q0 85 -45 143t-114 77t-192 19q-53 0 -95 -2z" />
    <glyph glyph-name="uni0418" unicode="&#x418;" horiz-adv-x="1465" 
d="M402 1466h187l-239 -1126l1005 1126h184l-314 -1466h-186l240 1118l-1002 -1118h-190z" />
    <glyph glyph-name="uni0419" unicode="&#x419;" horiz-adv-x="1465" 
d="M402 1466h187l-239 -1126l1005 1126h184l-314 -1466h-186l240 1118l-1002 -1118h-190zM708 1809h118q11 -73 49 -106.5t107 -33.5q72 0 124.5 37t80.5 103h120q-34 -120 -123.5 -190t-207.5 -70q-116 0 -189 70.5t-79 189.5z" />
    <glyph glyph-name="uni041A" unicode="&#x41a;" horiz-adv-x="1207" 
d="M400 1466h197l-137 -646q90 0 147 24.5t120 97.5t130 190q107 189 155.5 242.5t117.5 78t136 24.5q9 0 115 -8l-34 -163q-10 0 -37 3q-41 5 -55 5q-52 0 -92 -39q-41 -39 -103 -144q-121 -206 -194.5 -281.5t-174.5 -99.5q149 -57 264 -339l166 -411h-215l-139 343
q-83 204 -149 272.5t-187 73.5l-147 -689h-197z" />
    <glyph glyph-name="uni041B" unicode="&#x41b;" horiz-adv-x="1404" 
d="M518 1466h962l-315 -1466h-197l281 1299h-573l-174 -804q-68 -316 -145.5 -413.5t-248.5 -97.5q-43 0 -129 16l35 167q84 -16 101 -16q60 0 104.5 63.5t88.5 266.5z" />
    <glyph glyph-name="uni041C" unicode="&#x41c;" horiz-adv-x="1706" 
d="M90 0l306 1466h241l148 -950q29 -187 38 -359q61 148 204 401l514 908h245l-306 -1466h-193l153 713q53 247 152 554q-63 -143 -156 -308l-546 -959h-189l-147 940q-20 129 -29 301q-25 -193 -49 -306l-195 -935h-191z" />
    <glyph glyph-name="uni041D" unicode="&#x41d;" horiz-adv-x="1479" 
d="M86 0l307 1466h195l-127 -609h760l127 609h196l-306 -1466h-196l144 691h-759l-145 -691h-196z" />
    <glyph glyph-name="uni041E" unicode="&#x41e;" horiz-adv-x="1593" 
d="M187 614q0 392 226.5 634.5t549.5 242.5q274 0 446.5 -178.5t172.5 -478.5q0 -214 -87 -397q-65 -137 -164 -236.5t-212 -153.5q-150 -72 -318 -72q-176 0 -320.5 84t-219 234.5t-74.5 320.5zM380 604q0 -129 53.5 -237t159.5 -169t223 -61q113 0 215 53.5t182.5 149
t127 235t46.5 274.5q0 219 -122.5 349t-302.5 130q-230 0 -406 -196.5t-176 -527.5z" />
    <glyph glyph-name="uni041F" unicode="&#x41f;" horiz-adv-x="1484" 
d="M87 0l307 1466h1151l-306 -1466h-196l277 1299h-760l-277 -1299h-196z" />
    <glyph glyph-name="uni0420" unicode="&#x420;" horiz-adv-x="1366" 
d="M88 0l307 1466h612q159 0 238.5 -36.5t131.5 -125t52 -198.5q0 -91 -37 -185t-93.5 -155t-114.5 -92t-124 -46q-141 -33 -285 -33h-367l-124 -595h-196zM443 761h323q188 0 276 40.5t141 123.5t53 176q0 72 -28 117.5t-79 67t-196 21.5h-376z" />
    <glyph glyph-name="uni0421" unicode="&#x421;" horiz-adv-x="1479" 
d="M1235 516l194 -27q-92 -254 -268 -384t-395 -130q-267 0 -423.5 163t-156.5 467q0 396 238 655q212 231 527 231q233 0 377.5 -125t167.5 -336l-183 -17q-29 159 -119.5 237.5t-233.5 78.5q-269 0 -435 -239q-144 -206 -144 -489q0 -226 111 -345t289 -119q152 0 275 99
t179 280z" />
    <glyph glyph-name="uni0422" unicode="&#x422;" horiz-adv-x="1251" 
d="M465 0l271 1299h-481l35 167h1154l-35 -167h-477l-271 -1299h-196z" />
    <glyph glyph-name="uni0423" unicode="&#x423;" horiz-adv-x="1309" 
d="M231 1466h197l341 -926l561 926h208l-775 -1244q-74 -118 -143.5 -180t-163.5 -62q-45 0 -165 14l-54 6l35 169q148 -24 161 -24q82 0 177 153l31 50z" />
    <glyph glyph-name="uni0424" unicode="&#x424;" horiz-adv-x="1628" 
d="M943 1466h188l-26 -138q217 -2 368 -120.5t151 -350.5q0 -183 -101 -359t-271 -253.5t-398 -83.5l-33 -161h-194l39 169q-214 10 -358 129.5t-144 344.5q0 270 191 477t565 220zM884 1171q-253 -10 -388.5 -175t-135.5 -375q0 -131 90 -209t250 -78zM890 327
q259 2 398.5 170t139.5 381q0 140 -94.5 213t-262.5 75z" />
    <glyph glyph-name="uni0425" unicode="&#x425;" horiz-adv-x="1366" 
d="M-65 0l700 741l-415 725h216l189 -332q75 -131 86 -153q26 -49 57 -117q74 100 229 263l322 339h256l-709 -757l402 -709h-213l-238 429q-35 63 -81 162q-54 -73 -132 -155l-409 -436h-260z" />
    <glyph glyph-name="uni0426" unicode="&#x426;" horiz-adv-x="1489" 
d="M1279 166h137l-97 -458h-167l64 292h-1129l313 1466h196l-278 -1300h766l275 1300h196z" />
    <glyph glyph-name="uni0427" unicode="&#x427;" horiz-adv-x="1379" 
d="M338 1466h195l-101 -461q-23 -104 -23 -153q0 -78 66 -139.5t215 -61.5q192 0 416 97l153 718h194l-314 -1466h-194l124 582q-216 -91 -438 -91q-196 0 -304 96.5t-108 235.5q0 85 33 239z" />
    <glyph glyph-name="uni0428" unicode="&#x428;" horiz-adv-x="1885" 
d="M404 1466h196l-283 -1300h489l278 1300h195l-278 -1300h484l280 1300h193l-313 -1466h-1558z" />
    <glyph glyph-name="uni0429" unicode="&#x429;" horiz-adv-x="1890" 
d="M1680 166h137l-101 -458h-171l65 292h-1523l317 1466h196l-283 -1300h489l278 1300h195l-278 -1300h484l280 1300h193z" />
    <glyph glyph-name="uni042A" unicode="&#x42a;" horiz-adv-x="1649" 
d="M911 1466l-133 -624h298q232 0 323 -37t146 -118.5t55 -196.5q0 -147 -86 -269t-209.5 -171.5t-398.5 -49.5h-502l277 1299h-450l35 167h645zM635 166h172q260 0 370.5 29.5t168.5 111t58 173.5q0 71 -38.5 118t-104.5 62.5t-212 15.5h-307z" />
    <glyph glyph-name="uni042B" unicode="&#x42b;" horiz-adv-x="1815" 
d="M1692 1466h195l-312 -1466h-195zM399 1466h194l-132 -624h297q220 0 311 -32.5t152.5 -115t61.5 -204.5q0 -146 -85.5 -268t-209.5 -172t-400 -50h-501zM318 166h172q259 0 369.5 29.5t169 111t58.5 174.5q0 69 -38.5 116.5t-105 63t-211.5 15.5h-307z" />
    <glyph glyph-name="uni042C" unicode="&#x42c;" horiz-adv-x="1333" 
d="M399 1466h194l-132 -624h297q220 0 311 -32.5t152.5 -115t61.5 -204.5q0 -146 -85.5 -268t-209.5 -172t-400 -50h-501zM318 166h172q259 0 369.5 29.5t169 111t58.5 174.5q0 69 -38.5 116.5t-105 63t-211.5 15.5h-307z" />
    <glyph glyph-name="uni042D" unicode="&#x42d;" horiz-adv-x="1421" 
d="M650 669l38 174h525v35q0 224 -116.5 336.5t-279.5 112.5q-295 0 -433 -308l-175 46q86 191 250 308.5t372 117.5q259 0 417.5 -163t158.5 -462q0 -371 -213 -631t-555 -260q-259 0 -397 148.5t-152 336.5l184 52q14 -176 109.5 -278.5t258.5 -102.5q188 0 336.5 135
t216.5 403h-545z" />
    <glyph glyph-name="uni042E" unicode="&#x42e;" horiz-adv-x="2094" 
d="M400 1466h192l-139 -654h290q63 317 268.5 498t482.5 181q280 0 429.5 -185.5t149.5 -469.5q0 -361 -214.5 -611t-542.5 -250q-289 0 -440.5 190t-151.5 444v37h-306l-138 -646h-193zM1481 1329q-210 0 -386 -205t-176 -523q0 -227 125 -347.5t293 -120.5q155 0 277 98.5
t193.5 262t71.5 356.5q0 244 -119 361.5t-279 117.5z" />
    <glyph glyph-name="uni042F" unicode="&#x42f;" horiz-adv-x="1396" 
d="M1107 654h-116q-126 0 -169.5 -11.5t-92 -51.5t-148.5 -155l-376 -436h-259l370 436q159 186 274 226q-173 28 -259.5 116.5t-86.5 237.5q0 142 72 249.5t191 154t388 46.5h580l-318 -1466h-191zM1246 1299h-269q-242 0 -334.5 -22t-149.5 -90t-57 -164q0 -69 40.5 -123
t106.5 -71t255 -17h303z" />
    <glyph glyph-name="uni0430" unicode="&#x430;" 
d="M784 132q-94 -81 -181 -118.5t-186 -37.5q-147 0 -237 86.5t-90 221.5q0 89 40.5 157.5t107.5 110t164 59.5q61 12 231.5 19t244.5 36q21 74 21 123q0 63 -46 99q-63 50 -184 50q-114 0 -186.5 -50.5t-105.5 -143.5l-183 16q56 158 177.5 242t306.5 84q197 0 312 -94
q88 -70 88 -182q0 -85 -25 -197l-59 -264q-28 -126 -28 -205q0 -50 22 -144h-183q-15 52 -21 132zM851 538q-38 -15 -81.5 -23t-145.5 -17q-158 -14 -223 -35.5t-98 -68.5t-33 -104q0 -76 52.5 -125t149.5 -49q90 0 173 47.5t131 132.5t75 242z" />
    <glyph glyph-name="uni0431" unicode="&#x431;" horiz-adv-x="1152" 
d="M1042 1491h178q-30 -152 -113 -187.5t-198 -35.5l-184 4q-98 0 -151.5 -30.5t-87.5 -81.5t-109 -230q106 98 198.5 115t136.5 17q147 0 276 -110t129 -331q0 -258 -158 -451.5t-414 -193.5q-202 0 -314.5 123.5t-112.5 321.5q0 218 108 532.5t236.5 404.5t326.5 90
l160 -3q79 0 93 46zM937 629q0 130 -64.5 210t-180.5 80q-177 0 -286 -155.5t-109 -357.5q0 -113 68 -198t184 -85q174 0 281 167.5t107 338.5z" />
    <glyph glyph-name="uni0432" unicode="&#x432;" horiz-adv-x="1069" 
d="M776 556q101 -35 151 -96.5t50 -149.5q0 -122 -108 -228t-318 -106q-158 0 -250 53t-146.5 151.5t-54.5 219.5q0 283 163 484.5t439 201.5q166 0 253 -76.5t87 -187.5q0 -101 -66.5 -167.5t-199.5 -98.5zM320 631q73 -6 126 -6q206 0 308.5 45.5t102.5 135.5
q0 59 -44.5 98t-116.5 39q-124 0 -229 -83.5t-147 -228.5zM291 490q-7 -43 -7 -85q0 -126 72 -206.5t207 -80.5q105 0 167.5 55.5t62.5 135.5q0 110 -87 146t-319 36q-22 0 -96 -1z" />
    <glyph glyph-name="uni0433" unicode="&#x433;" horiz-adv-x="1010" 
d="M353 798l-165 12q111 276 409 276q190 0 288.5 -84t98.5 -207q0 -83 -46 -144.5t-120 -96t-236 -74.5q-193 -46 -258 -90t-65 -115q0 -73 74 -116t176 -43q127 0 187.5 49.5t104.5 164.5l153 -12q-96 -342 -458 -342q-211 0 -314.5 84t-103.5 205q0 86 49 158t122 109
t243 76q221 50 267 98q45 48 45 95q0 56 -53 98t-159 42q-100 0 -146.5 -31.5t-92.5 -111.5z" />
    <glyph glyph-name="uni0434" unicode="&#x434;" horiz-adv-x="1132" 
d="M456 1334l34 157h131q251 0 375.5 -131t124.5 -412q0 -454 -152.5 -713t-437.5 -259q-185 0 -308 112t-123 331q0 280 168 473.5t402 193.5q102 0 175 -45.5t117 -137.5q0 139 -13.5 206t-59.5 123t-117 79.5t-199 23.5zM281 411q0 -129 67 -209t188 -80q175 0 281 168.5
t106 362.5q0 124 -66 207t-184 83q-180 0 -286 -166t-106 -366z" />
    <glyph glyph-name="uni0435" unicode="&#x435;" 
d="M848 361l176 -18q-38 -131 -174.5 -249t-325.5 -118q-118 0 -216.5 54.5t-150 158.5t-51.5 237q0 174 80.5 337.5t208.5 243t277 79.5q190 0 303.5 -118t113.5 -322q0 -78 -14 -160h-782q-4 -31 -4 -56q0 -149 68.5 -227.5t167.5 -78.5q93 0 183 61t140 176zM322 624h596
q1 28 1 40q0 136 -68 208.5t-175 72.5q-116 0 -211.5 -80t-142.5 -241z" />
    <glyph glyph-name="uni0436" unicode="&#x436;" horiz-adv-x="1409" 
d="M769 1062h176l-98 -454l14 -1q57 0 108.5 48t131.5 181q87 145 158 185.5t147 40.5q55 0 112 -18l-41 -108q-36 12 -60 12q-45 0 -78.5 -31t-87.5 -127q-110 -197 -247 -243q47 -17 90.5 -55.5t88.5 -152.5l133 -339h-186l-105 270q-49 127 -89.5 171.5t-111.5 55.5
l-108 -497h-178l107 497q-55 -2 -103 -33t-162 -179l-219 -285h-220l281 354q124 156 264 193q-60 38 -90 92t-56 194q-12 70 -29 94q-18 23 -52 23q-23 0 -77 -14l12 115q48 11 94 11q95 0 137 -52q41 -53 70 -187q29 -133 63.5 -174t110.5 -41z" />
    <glyph glyph-name="uni0437" unicode="&#x437;" horiz-adv-x="952" 
d="M351 787l-167 19q65 159 161.5 219.5t244.5 60.5q159 0 250 -73.5t91 -194.5q0 -94 -48 -162t-144 -111q126 -80 126 -221q0 -137 -107 -242.5t-313 -105.5q-352 0 -414 321l172 13q41 -196 251 -196q101 0 166 54.5t65 142.5q0 66 -35.5 105.5t-89.5 49.5t-165 10
l31 142q23 -2 45 -2q141 0 211.5 47.5t70.5 141.5q0 73 -45.5 109.5t-137.5 36.5q-59 0 -114 -24t-105 -140z" />
    <glyph glyph-name="uni0438" unicode="&#x438;" 
d="M793 192q-191 -216 -391 -216q-123 0 -198.5 70.5t-75.5 172.5q0 67 34 230l128 613h181l-142 -679q-18 -85 -18 -132q0 -60 36.5 -93.5t107.5 -33.5q76 0 148.5 37t125 100t85.5 149q22 55 51 193l96 459h181l-222 -1062h-167z" />
    <glyph glyph-name="uni0439" unicode="&#x439;" 
d="M793 192q-191 -216 -391 -216q-123 0 -198.5 70.5t-75.5 172.5q0 67 34 230l128 613h181l-142 -679q-18 -85 -18 -132q0 -60 36.5 -93.5t107.5 -33.5q76 0 148.5 37t125 100t85.5 149q22 55 51 193l96 459h181l-222 -1062h-167zM465 1477h118q11 -73 49 -106.5t107 -33.5
q72 0 124.5 37t80.5 103h120q-34 -120 -123.5 -190t-207.5 -70q-116 0 -189 70.5t-79 189.5z" />
    <glyph glyph-name="uni043A" unicode="&#x43a;" horiz-adv-x="967" 
d="M296 1062h177l-101 -454l32 -1q75 0 122 38.5t134 181.5q90 147 152.5 191t168.5 44h84l-33 -145h-43q-67 0 -92.5 -18t-75.5 -104q-68 -118 -119 -168.5t-131 -79.5q67 -26 107.5 -75t78.5 -149l124 -323h-187l-100 266q-56 148 -104 190t-140 42l-108 -498h-179z" />
    <glyph glyph-name="uni043B" unicode="&#x43b;" horiz-adv-x="1155" 
d="M367 1062h800l-226 -1062h-180l198 911h-446l-137 -633q-35 -163 -94 -227.5t-163 -64.5q-60 0 -159 14l33 150q42 -3 76 -3q69 0 90.5 34.5t61.5 210.5z" />
    <glyph glyph-name="uni043C" unicode="&#x43c;" horiz-adv-x="1404" 
d="M291 1062h269l100 -847l493 847h264l-227 -1062h-179l185 856l-498 -856h-161l-105 889l-190 -889h-179z" />
    <glyph glyph-name="uni043D" unicode="&#x43d;" horiz-adv-x="1127" 
d="M290 1062h179l-96 -443h493l94 443h177l-224 -1062h-180l102 475h-491l-102 -475h-179z" />
    <glyph glyph-name="uni043E" unicode="&#x43e;" 
d="M100 403q0 311 183 515q151 168 396 168q192 0 309.5 -120t117.5 -324q0 -183 -74 -340.5t-210.5 -241.5t-287.5 -84q-124 0 -225.5 53t-155 150t-53.5 224zM281 421q0 -150 72 -227.5t183 -77.5q58 0 115 23.5t106 71.5t83.5 109.5t55.5 132.5q31 99 31 190
q0 144 -72.5 223.5t-182.5 79.5q-85 0 -155 -40.5t-126.5 -118.5t-83 -181.5t-26.5 -184.5z" />
    <glyph glyph-name="uni043F" unicode="&#x43f;" horiz-adv-x="1127" 
d="M290 1062h847l-224 -1062h-180l195 916h-491l-195 -916h-179z" />
    <glyph glyph-name="uni0440" unicode="&#x440;" 
d="M-21 -407l307 1469h167l-31 -148q93 97 166.5 134.5t155.5 37.5q152 0 252 -110.5t100 -316.5q0 -166 -55 -302.5t-135 -219.5t-162 -122t-168 -39q-191 0 -296 194l-120 -577h-181zM337 434q0 -119 17 -165q25 -65 82 -105t132 -40q156 0 252 175.5t96 358.5
q0 135 -64.5 208.5t-160.5 73.5q-69 0 -128 -36.5t-109.5 -109t-83.5 -177.5t-33 -183z" />
    <glyph glyph-name="uni0441" unicode="&#x441;" horiz-adv-x="1024" 
d="M801 387l181 -19q-68 -199 -193.5 -295.5t-285.5 -96.5q-173 0 -280.5 112t-107.5 313q0 174 69 342t197.5 255.5t293.5 87.5q171 0 271 -96.5t100 -255.5l-178 -12q-1 101 -58.5 158t-151.5 57q-109 0 -189 -69t-125.5 -209.5t-45.5 -270.5q0 -136 60 -204t148 -68
t168.5 67t126.5 204z" />
    <glyph glyph-name="uni0442" unicode="&#x442;" horiz-adv-x="1706" 
d="M67 0l222 1062h181l-37 -175q101 113 180.5 156t172.5 43q99 0 165.5 -52.5t87.5 -146.5q81 100 170.5 149.5t188.5 49.5q133 0 199.5 -63t66.5 -177q0 -49 -23 -162l-143 -684h-181l146 702q19 86 19 123q0 52 -33 82t-93 30q-81 0 -165 -49t-130.5 -128.5t-81.5 -244.5
l-108 -515h-181l150 717q16 73 16 104q0 52 -32.5 84t-84.5 32q-77 0 -161.5 -49t-137.5 -136.5t-87 -249.5l-105 -502h-181z" />
    <glyph glyph-name="uni0443" unicode="&#x443;" horiz-adv-x="1024" 
d="M0 -410l11 170q56 -16 109 -16q55 0 89 25q44 33 96 124l58 104l-177 1065h178l80 -537q24 -159 41 -318l475 855h189l-677 -1203q-98 -176 -174 -233t-175 -57q-63 0 -123 21z" />
    <glyph glyph-name="uni0444" unicode="&#x444;" horiz-adv-x="1711" 
d="M711 112q-117 -136 -275 -136q-144 0 -242.5 111t-98.5 305q0 271 149.5 482.5t358.5 211.5q96 0 173.5 -52.5t102.5 -119.5l118 552h176l-106 -521q114 141 279 141q132 0 236 -103t104 -313q0 -273 -150 -483.5t-357 -210.5q-107 0 -179.5 56t-99.5 122l-121 -561h-179
zM957 366q0 -113 61.5 -181t147.5 -68q88 0 166 75.5t125 217.5t47 275q0 118 -56 184.5t-146 66.5q-156 0 -250.5 -191t-94.5 -379zM825 688q0 112 -61 180t-149 68q-142 0 -240 -175t-98 -392q0 -119 55.5 -185.5t147.5 -66.5q102 0 183 90.5t121.5 239.5t40.5 241z" />
    <glyph glyph-name="uni0445" unicode="&#x445;" horiz-adv-x="1024" 
d="M-3 0l462 539l-265 523h200l90 -189q50 -106 90 -203l306 392h221l-446 -537l268 -525h-200l-106 216q-34 69 -77 171l-316 -387h-227z" />
    <glyph glyph-name="uni0446" unicode="&#x446;" horiz-adv-x="1171" 
d="M289 1062h179l-142 -659q-22 -102 -22 -157q0 -60 36.5 -90.5t109.5 -30.5q83 0 166.5 46t136 121t101.5 299l102 471h182l-163 -754q-25 -115 -25 -127q0 -55 67 -55h121l-97 -435h-151l66 290q-78 0 -128 40t-50 113q0 16 1 42l-31 -29q-180 -171 -358 -171
q-115 0 -190 67t-75 188q0 57 22 161z" />
    <glyph glyph-name="uni0447" unicode="&#x447;" horiz-adv-x="1060" 
d="M228 1062h178l-38 -178q-36 -169 -36 -237q0 -70 53 -105.5t159 -35.5q129 0 238 45l109 511h180l-226 -1062h-181l87 407q-135 -45 -252 -45q-163 0 -255.5 69t-92.5 196q0 54 48 295z" />
    <glyph glyph-name="uni0448" unicode="&#x448;" horiz-adv-x="1700" 
d="M293 1062h179l-148 -678q-20 -94 -20 -138q0 -58 30 -87t90 -29q92 0 169.5 52.5t123 124t77.5 215.5l119 540h179l-152 -693q-17 -80 -17 -124q0 -57 28.5 -86t84.5 -29q117 0 230 101t154 315q2 10 4 22l110 494h177l-231 -1062h-178l38 178q-149 -202 -346 -202
q-109 0 -179 62.5t-75 139.5q-84 -101 -174.5 -151.5t-187.5 -50.5q-109 0 -183 62t-74 163q0 70 35 233z" />
    <glyph glyph-name="uni0449" unicode="&#x449;" horiz-adv-x="1743" 
d="M740 178q-84 -101 -174.5 -151.5t-187.5 -50.5q-109 0 -183 62t-74 163q0 70 35 233l137 628h179l-148 -678q-20 -94 -20 -138q0 -58 30 -87t90 -29q92 0 169.5 52.5t123 124t77.5 215.5l119 540h179l-152 -693q-17 -80 -17 -129q0 -55 28.5 -82.5t84.5 -27.5
q121 0 232 103t152 313q2 10 4 22l110 494h178l-178 -806q-8 -36 -8 -78q0 -52 66 -52h120l-96 -435h-151l69 290q-185 0 -185 151q0 15 1 39q-106 -147 -199 -171t-164 -24q-98 0 -169.5 60.5t-77.5 141.5z" />
    <glyph glyph-name="uni044A" unicode="&#x44a;" horiz-adv-x="1272" 
d="M154 1062h514l-90 -411h193q185 0 263.5 -27.5t124 -98.5t45.5 -159q0 -107 -62 -204t-152 -129.5t-280 -32.5h-452l199 911h-336zM467 144h232q135 0 191 18t93.5 65.5t37.5 115.5q0 60 -33 102t-77 51.5t-159 9.5h-206z" />
    <glyph glyph-name="uni044B" unicode="&#x44b;" horiz-adv-x="1507" 
d="M1339 1062h183l-230 -1062h-182zM292 1062h181l-91 -411h193q185 0 264 -27t124 -98.5t45 -159.5q0 -106 -61.5 -203t-151.5 -130t-280 -33h-452zM272 144h231q136 0 191.5 18t93.5 65.5t38 115.5q0 60 -33.5 102t-77 51.5t-159.5 9.5h-206z" />
    <glyph glyph-name="uni044C" unicode="&#x44c;" horiz-adv-x="1077" 
d="M292 1062h181l-91 -411h193q185 0 264 -27t124 -98.5t45 -159.5q0 -106 -61.5 -203t-151.5 -130t-280 -33h-452zM272 144h231q136 0 191.5 18t93.5 65.5t38 115.5q0 60 -33.5 102t-77 51.5t-159.5 9.5h-206z" />
    <glyph glyph-name="uni044D" unicode="&#x44d;" horiz-adv-x="1007" 
d="M448 476l30 144h320l3 79q0 97 -54.5 170.5t-156.5 73.5q-185 0 -278 -222l-180 19q147 346 461 346q180 0 283.5 -112t103.5 -313q0 -281 -146 -483t-405 -202q-166 0 -269.5 91.5t-106.5 234.5l178 14q5 -91 64.5 -143.5t148.5 -52.5q121 0 204 89t127 267h-327z" />
    <glyph glyph-name="uni044E" unicode="&#x44e;" horiz-adv-x="1540" 
d="M294 1062h178l-98 -462h207q38 199 182.5 342.5t348.5 143.5q184 5 289 -106.5t110 -318.5q-5 -267 -153 -476t-399 -209q-189 0 -294 122.5t-105 284.5q0 30 2 73h-220l-97 -456h-182zM738 386q0 -124 62.5 -195.5t167.5 -71.5q176 0 269 187t93 384q-1 125 -65 189
t-161 64q-160 0 -263 -171t-103 -386z" />
    <glyph glyph-name="uni044F" unicode="&#x44f;" horiz-adv-x="1094" 
d="M1111 1062l-232 -1062h-178l94 442h-60q-113 0 -149 -7t-90 -47t-99 -103l-201 -285h-220l202 270q104 140 219 187q-113 30 -170 97.5t-57 173.5q0 91 52.5 173.5t143 121.5t280.5 39h465zM901 919h-250q-206 0 -252.5 -56.5t-46.5 -123.5q0 -58 29 -97.5t68 -48.5
t134 -9h244z" />
    <glyph glyph-name="uni0451" unicode="&#x451;" 
d="M848 361l176 -18q-38 -131 -174.5 -249t-325.5 -118q-118 0 -216.5 54.5t-150 158.5t-51.5 237q0 174 80.5 337.5t208.5 243t277 79.5q190 0 303.5 -118t113.5 -322q0 -78 -14 -160h-782q-4 -31 -4 -56q0 -149 68.5 -227.5t167.5 -78.5q93 0 183 61t140 176zM322 624h596
q1 28 1 40q0 136 -68 208.5t-175 72.5q-116 0 -211.5 -80t-142.5 -241zM447 1227l43 205h189l-43 -205h-189zM816 1227l43 205h188l-42 -205h-189z" />
    <glyph glyph-name="uni0452" unicode="&#x452;" 
d="M320 1200h-138l33 151h136l24 115h181l-23 -115h375l-33 -151h-374l-62 -297q183 183 368 183q136 0 206.5 -72.5t70.5 -172.5q0 -62 -89 -496t-120.5 -544.5t-100.5 -168t-164 -57.5q-75 0 -177 26l32 154q59 -17 108 -17q62 0 96 39.5t69 206.5l137 659q29 141 29 177
q0 59 -35.5 88t-106.5 29q-110 0 -204 -63.5t-137 -162.5t-76 -255l-95 -456h-181z" />
    <glyph glyph-name="uni0453" unicode="&#x453;" horiz-adv-x="774" 
d="M431 1191l188 275h228l-266 -275h-150zM911 1062l-32 -147h-442l-196 -915h-178l226 1062h622z" />
    <glyph glyph-name="uni0454" unicode="&#x454;" horiz-adv-x="1015" 
d="M636 617l-31 -143h-320q-7 -64 -7 -106q0 -107 55 -177t156 -70q199 0 293 263l179 -19q-69 -200 -201.5 -294.5t-276.5 -94.5q-159 0 -272.5 106.5t-113.5 321.5q0 267 143.5 474.5t411.5 207.5q166 0 269.5 -88.5t103.5 -264.5l-176 -9q0 109 -65 163t-148 54
q-117 0 -204.5 -91t-120.5 -233h325z" />
    <glyph glyph-name="uni0455" unicode="&#x455;" horiz-adv-x="1024" 
d="M85 363l181 11q0 -78 24 -133t88.5 -90t150.5 -35q120 0 180 48t60 113q0 47 -36 89q-37 42 -180.5 103.5t-183.5 86.5q-67 41 -101 96.5t-34 127.5q0 126 100 216t280 90q200 0 304.5 -92.5t108.5 -243.5l-177 -12q-4 96 -68 152t-181 56q-94 0 -146 -43t-52 -93t45 -88
q30 -26 155 -80q208 -90 262 -142q86 -83 86 -202q0 -79 -48.5 -155t-148 -121.5t-234.5 -45.5q-184 0 -313 91t-122 296z" />
    <glyph glyph-name="uni0456" unicode="&#x456;" horiz-adv-x="455" 
d="M325 1261l43 205h180l-43 -205h-180zM61 0l222 1062h181l-222 -1062h-181z" />
    <glyph glyph-name="uni0457" unicode="&#x457;" horiz-adv-x="455" 
d="M61 0l222 1062h181l-222 -1062h-181zM110 1227l43 205h189l-43 -205h-189zM479 1227l43 205h188l-42 -205h-189z" />
    <glyph glyph-name="uni0458" unicode="&#x458;" horiz-adv-x="455" 
d="M325 1261l43 205h179l-43 -205h-179zM-248 -399l32 154q62 -17 110 -17q58 0 92.5 38.5t71.5 213.5l223 1072h181l-230 -1105q-43 -207 -99 -282q-75 -100 -209 -100q-71 0 -172 26z" />
    <glyph glyph-name="uni0459" unicode="&#x459;" horiz-adv-x="1864" 
d="M1253 1062l-84 -411h193q184 0 263 -27t124.5 -98.5t45.5 -159.5q0 -106 -62 -203t-152 -130t-280 -33h-450l194 911h-492l-137 -633q-65 -302 -279 -302q-75 0 -177 28l35 156q51 -20 100 -20q69 0 101 48.5t65 203.5l146 670h846zM1059 144h231q136 0 191.5 18t93 65.5
t37.5 115.5q0 60 -33 102t-77 51.5t-159 9.5h-206z" />
    <glyph glyph-name="uni045A" unicode="&#x45a;" horiz-adv-x="1695" 
d="M1001 651h193q185 0 264 -27t124 -98.5t45 -159.5q0 -106 -61.5 -203t-152 -130t-279.5 -33h-451l109 506h-448l-102 -506h-179l227 1062h179l-87 -411h442l86 411h177zM891 144h231q135 0 191 18t93.5 65.5t37.5 115.5q0 60 -33 102t-76.5 51.5t-159.5 9.5h-206z" />
    <glyph glyph-name="uni045B" unicode="&#x45b;" 
d="M351 1351l24 115h181l-23 -115h375l-33 -151h-374l-62 -297q183 183 368 183q138 0 207.5 -74.5t69.5 -168.5q0 -65 -32 -216l-131 -627h-181l135 643q29 140 29 177q0 59 -35.5 88t-106.5 29q-110 0 -204 -63.5t-137 -162.5t-76 -255l-95 -456h-181l251 1200h-138
l33 151h136z" />
    <glyph glyph-name="uni045C" unicode="&#x45c;" horiz-adv-x="967" 
d="M296 1062h177l-101 -454l32 -1q75 0 122 38.5t134 181.5q90 147 152.5 191t168.5 44h84l-33 -145h-43q-67 0 -92.5 -18t-75.5 -104q-68 -118 -119 -168.5t-131 -79.5q67 -26 107.5 -75t78.5 -149l124 -323h-187l-100 266q-56 148 -104 190t-140 42l-108 -498h-179z
M599 1191l188 275h228l-266 -275h-150z" />
    <glyph glyph-name="uni045E" unicode="&#x45e;" horiz-adv-x="1024" 
d="M0 -410l11 170q56 -16 109 -16q55 0 89 25q44 33 96 124l58 104l-177 1065h178l80 -537q24 -159 41 -318l475 855h189l-677 -1203q-98 -176 -174 -233t-175 -57q-63 0 -123 21zM396 1474h118q11 -73 49 -106.5t107 -33.5q72 0 124.5 37t80.5 103h120
q-34 -120 -123.5 -190t-207.5 -70q-116 0 -189 70.5t-79 189.5z" />
    </font>
</defs>
</svg>
