<svg xmlns="http://www.w3.org/2000/svg" viewBox="0 0 512.002 512.002"><path d="M124.503 441.651c-13.433-5.373-22.705-17.881-23.757-32.31-2.008-27.554-7.939-74.167-25.455-109.198C55.905 261.37 39.98 215.04 39.98 167.727c0-32.368 11.402-72.829 44.139-105.933C137.341 7.975 183.064 0 243.019 0c97.105 0 134.826 39.006 151.727 61.794 16.368 22.069 26.142 70.141 33.656 86.622 5.702 12.506 8.276 23.725 1.655 38.07-6.621 14.345-3.859 20.067 1.288 30.161 4.781 9.379 26.549 40.794 33.84 47.082 7.357 6.345 11.495 23.449-2.023 30.345-9.524 4.86-21.15 4.598-22.254 8.643-1.103 4.046-2.558 10.182 2.241 17.781 2.843 4.501 3.839 12.102-6.722 18.01-1.553.868-1.792 2.971-.643 4.329 2.267 2.681 4.854 7.017 2.916 11.376-2.943 6.621-10.667 6.621-11.402 17.931-.501 7.7 5.517 17.655 3.862 30.621-1.655 12.966-15.449 30.345-38.897 29.794-23.449-.552-48.075-4.064-59.496 7.357-6.033 6.033-8.531 32.76-9.567 53.87-.646 13.152-14.077 21.714-26.302 16.823l-172.395-68.958z" fill="#d7deed"/><path d="M310.961 208.633l-1.353-.781c.289-1.566.487-3.166.487-4.814s-.198-3.249-.487-4.814l1.353-.781c4.22-2.44 5.669-7.837 3.233-12.061-2.444-4.215-7.837-5.681-12.061-3.233l-1.431.826a26.34 26.34 0 0 0-8.263-4.795v-1.624c0-4.88-3.953-8.828-8.828-8.828s-8.828 3.948-8.828 8.828v1.627a26.303 26.303 0 0 0-8.263 4.795l-1.431-.826c-4.233-2.449-9.626-.983-12.061 3.233a8.834 8.834 0 0 0 3.233 12.061l1.353.781c-.289 1.566-.487 3.166-.487 4.814 0 1.649.198 3.249.487 4.814l-1.353.781a8.835 8.835 0 0 0-3.233 12.061 8.838 8.838 0 0 0 12.061 3.233l1.431-.826a26.34 26.34 0 0 0 8.263 4.795v1.624c0 4.88 3.953 8.828 8.828 8.828s8.828-3.948 8.828-8.828v-1.627a26.303 26.303 0 0 0 8.263-4.795l1.431.826a8.802 8.802 0 0 0 4.405 1.181 8.841 8.841 0 0 0 7.656-4.414 8.835 8.835 0 0 0-3.233-12.061zm-36.178-5.595c0-4.871 3.961-8.828 8.828-8.828s8.828 3.957 8.828 8.828c0 4.871-3.961 8.828-8.828 8.828s-8.828-3.957-8.828-8.828z" fill="#707487"/><path d="M243.019 158.899h-9.533c-.706-4.902-1.959-9.622-3.748-14.085l8.234-4.754a8.828 8.828 0 0 0 3.231-12.059 8.826 8.826 0 0 0-12.059-3.231l-8.259 4.769a62.11 62.11 0 0 0-10.3-10.3l4.769-8.259a8.828 8.828 0 0 0-15.29-8.828l-4.754 8.234c-4.461-1.79-9.182-3.043-14.085-3.748v-9.534a8.829 8.829 0 0 0-17.656 0v9.533c-4.902.706-9.622 1.959-14.085 3.748l-4.754-8.234a8.828 8.828 0 0 0-15.29 8.828l4.769 8.259a62.11 62.11 0 0 0-10.3 10.3l-8.259-4.769a8.828 8.828 0 0 0-8.828 15.29l8.234 4.754c-1.79 4.461-3.043 9.182-3.748 14.085h-9.533a8.829 8.829 0 0 0 0 17.656h9.533c.706 4.902 1.959 9.621 3.748 14.084l-8.234 4.755a8.828 8.828 0 0 0 8.828 15.29l8.261-4.769a62.174 62.174 0 0 0 10.299 10.299l-4.769 8.261a8.828 8.828 0 1 0 15.29 8.828l4.754-8.234c4.461 1.79 9.182 3.042 14.085 3.748v9.535a8.829 8.829 0 0 0 17.656 0v-9.533c4.902-.706 9.622-1.959 14.085-3.748l4.754 8.234a8.826 8.826 0 0 0 12.059 3.231 8.828 8.828 0 0 0 3.231-12.059l-4.769-8.261a62.25 62.25 0 0 0 10.299-10.299l8.261 4.769a8.828 8.828 0 0 0 8.828-15.29l-8.234-4.755c1.79-4.462 3.042-9.182 3.748-14.084h9.533a8.829 8.829 0 1 0-.002-17.657zm-26.483 8.828c0 24.337-19.802 44.139-44.139 44.139s-44.139-19.802-44.139-44.139 19.802-44.139 44.139-44.139 44.139 19.802 44.139 44.139z" fill="#959cb3"/><path d="M172.397 123.588c-24.377 0-44.139 19.762-44.139 44.139s19.762 44.139 44.139 44.139 44.139-19.762 44.139-44.139-19.762-44.139-44.139-44.139zm0 70.622c-14.626 0-26.483-11.857-26.483-26.483s11.857-26.483 26.483-26.483 26.483 11.857 26.483 26.483-11.857 26.483-26.483 26.483z" fill="#afb9d2"/><g fill="#707487"><circle cx="172.395" cy="123.588" r="8.828"/><circle cx="172.395" cy="211.866" r="8.828"/><circle cx="216.534" cy="167.727" r="8.828"/><circle cx="128.256" cy="167.727" r="8.828"/></g><path d="M348.952 105.933h-.893c-1.146-5.624-3.393-10.844-6.461-15.473l.668-.668a8.828 8.828 0 0 0-12.484-12.485l-.668.668c-4.629-3.069-9.85-5.314-15.473-6.461v-.893a8.829 8.829 0 0 0-17.656 0v.893c-5.624 1.147-10.844 3.392-15.473 6.461l-.668-.668a8.828 8.828 0 0 0-12.484 12.485l.668.668c-3.069 4.629-5.314 9.848-6.461 15.473h-.893a8.829 8.829 0 0 0 0 17.656h.893c1.147 5.624 3.393 10.844 6.461 15.473l-.668.668a8.826 8.826 0 0 0 0 12.484 8.826 8.826 0 0 0 12.484 0l.668-.668c4.629 3.069 9.848 5.314 15.473 6.461v.894a8.829 8.829 0 0 0 17.656 0v-.893c5.624-1.147 10.844-3.393 15.473-6.461l.668.668a8.826 8.826 0 0 0 12.484 0 8.826 8.826 0 0 0 0-12.484l-.668-.668c3.069-4.629 5.314-9.848 6.461-15.473h.893a8.829 8.829 0 0 0 0-17.657zm-44.139 35.311c-14.603 0-26.483-11.88-26.483-26.483s11.88-26.483 26.483-26.483 26.483 11.88 26.483 26.483-11.88 26.483-26.483 26.483z" fill="#858aa0"/><path d="M304.813 88.277c-14.626 0-26.483 11.857-26.483 26.483s11.857 26.483 26.483 26.483 26.483-11.857 26.483-26.483-11.856-26.483-26.483-26.483zm0 35.311a8.829 8.829 0 1 1 .001-17.657 8.829 8.829 0 0 1-.001 17.657z" fill="#707487"/></svg>