<svg xmlns="http://www.w3.org/2000/svg" viewBox="0 0 512.335 512.335"><circle cx="331.081" cy="141.241" r="114.759" fill="#ffe3a8"/><path d="M331.081 282.483c-77.879 0-141.241-63.362-141.241-141.241S253.202 0 331.081 0s141.241 63.362 141.241 141.241-63.362 141.242-141.241 141.242zm0-247.173c-58.41 0-105.931 47.521-105.931 105.931 0 58.414 47.521 105.931 105.931 105.931s105.931-47.518 105.931-105.931c0-58.41-47.521-105.931-105.931-105.931z" fill="#ffd782"/><path d="M482.15 322.457c-11.624-2.972-23.625-.431-32.983 7.872l-69.651 56.691a17.654 17.654 0 0 1-8.522 3.766l-103.946 11.196-1.998.012c-7.36 0-12.167-7.722-8.917-14.326a9.938 9.938 0 0 1 5.572-4.971l57.605-22.973c14.621-5.517 23.495-17.793 19.495-29.793-4.839-14.516-16.919-15.448-31.633-11.77l-61.001 17.585-92.621 6.176a123.583 123.583 0 0 0-79.164 35.923l-43.809 43.809c-9.97 9.971-11.591 26.284-2.396 36.972 3.892 4.525 29.833 29.076 48.381 46.841 9.105 8.719 23.285 9.187 32.97 1.117l21.123-17.603a52.973 52.973 0 0 1 33.91-12.279l111.539-.011a105.9 105.9 0 0 0 38.017-7.061l85.323-32.817a45.661 45.661 0 0 0 18.684-13.384l69.561-83.474c5.081-6.093 2.146-15.532-5.539-17.498z" fill="#f0c087"/><path d="M331.081 264.828c-68.147 0-123.586-55.439-123.586-123.586S262.934 17.655 331.081 17.655s123.586 55.439 123.586 123.586-55.439 123.587-123.586 123.587zm0-229.518c-58.41 0-105.931 47.518-105.931 105.931s47.521 105.931 105.931 105.931 105.931-47.518 105.931-105.931S389.491 35.31 331.081 35.31z" fill="#ffc36e"/><path d="M381.75 170.211c0-19.847-11.708-32.011-35.122-37.133l-8.242-1.618V97.347c6.291 1.318 11.256 5.046 13.734 10.016a12.374 12.374 0 0 0 11.072 6.873c9.575 0 15.785-10.553 10.688-18.658-6.654-10.58-19.126-17.673-35.494-19.491v-5.892a8.402 8.402 0 0 0-16.804 0v5.89c-25.976 2.828-41.172 17.045-41.172 38.793 0 19.023 11.798 31.737 33.841 36.859l7.331 1.729v35.85c-7.424-1.38-13.071-5.185-15.859-10.53-2.166-4.153-6.372-6.836-11.058-6.836h-1.236c-9.58 0-15.72 10.521-10.685 18.673 6.858 11.104 20.392 18.101 38.837 19.649v3.961a8.402 8.402 0 0 0 16.804 0v-4.047c27.737-2.858 43.365-17.172 43.365-39.975zm-74.906-57.62c0-7.982 6.029-14.023 14.74-15.379v30.713c-9.627-2.623-14.74-7.876-14.74-15.334zm31.544 77.051v-32.995c11.91 2.68 17.479 7.985 17.479 16.492 0 9.267-6.447 15.344-17.479 16.503z" fill="#e1b464"/><path d="M413.165 53.773c-13.173-3.004-23.543-13.373-26.546-26.546a.896.896 0 0 0-1.766 0C381.849 40.4 371.48 50.77 358.307 53.773a.896.896 0 0 0 0 1.766c13.173 3.004 23.543 13.373 26.546 26.546a.896.896 0 0 0 1.766 0c3.004-13.173 13.373-23.543 26.546-26.546a.896.896 0 0 0 0-1.766zm-41.738 39.618c-9.274-2.402-16.577-9.705-18.979-18.979-.242-.931-1.447-.931-1.688 0-2.402 9.274-9.705 16.577-18.979 18.979-.931.242-.931 1.447 0 1.688 9.274 2.402 16.577 9.704 18.979 18.979.242.931 1.447.931 1.688 0 2.402-9.276 9.705-16.577 18.979-18.979.932-.24.932-1.446 0-1.688z" fill="#fff"/></svg>