<svg xmlns="http://www.w3.org/2000/svg" viewBox="0 0 512.001 512.001"><circle cx="348.69" cy="132.414" r="132.414" fill="#00d2ff"/><path d="M304.552 132.414c0-67.262 26.771-122.678 61.409-131.16C360.295.513 354.558 0 348.69 0c-73.13 0-132.414 59.284-132.414 132.414S275.56 264.828 348.69 264.828c5.868 0 11.605-.513 17.271-1.254-34.638-8.482-61.409-63.898-61.409-131.16z" fill="#18bdf6"/><path d="M416.705 54.099a152.677 152.677 0 0 0 24.913-15.955c-4.332-4.271-9.024-8.158-13.909-11.802-5.489 4.062-11.154 7.834-17.129 11.016-4.884-11.405-10.709-21.236-17.175-29.45C379.416 2.881 364.407 0 348.69 0s-30.725 2.881-44.712 7.906c-6.467 8.215-12.292 18.046-17.176 29.45-5.976-3.181-11.641-6.955-17.129-11.016-4.885 3.646-9.577 7.532-13.909 11.802a152.677 152.677 0 0 0 24.913 15.955c-6.484 20.349-10.452 43.948-11.206 69.487h-52.749c-.194 2.931-.446 5.847-.446 8.828s.252 5.897.446 8.828h52.749c1.438 48.694 14.638 90.425 34.435 115.654 14.006 5.043 29.039 7.934 44.783 7.934 15.716 0 30.726-2.881 44.713-7.906 6.467-8.215 12.291-18.046 17.175-29.45 5.976 3.181 11.641 6.955 17.129 11.016 4.885-3.646 9.577-7.531 13.909-11.802a152.677 152.677 0 0 0-24.913-15.955c6.484-20.349 10.452-43.948 11.206-69.487h52.749c.194-2.931.446-5.847.446-8.828s-.252-5.897-.446-8.828h-52.749c-.753-25.541-4.72-49.141-11.203-69.489zm-76.842 209.147c-14.434-4.66-27.405-20.497-36.911-43.071a130.833 130.833 0 0 1 36.911-7.886v50.957zm0-68.612A148.23 148.23 0 0 0 297 203.581c-5.613-18.335-9.165-39.628-9.906-62.34h52.769v53.393zm0-71.048h-52.768c.739-22.684 4.281-43.953 9.884-62.271 13.711 5.066 28.154 8.026 42.885 8.902v53.369h-.001zm0-71.023c-12.685-.856-25.118-3.475-36.935-7.859 9.508-22.603 22.489-38.46 36.935-43.123v50.982zm17.655-50.982c14.445 4.663 27.426 20.52 36.935 43.123-11.817 4.384-24.249 7.002-36.935 7.859V1.581zm0 261.665v-50.982c12.685.856 25.118 3.475 36.935 7.859-9.509 22.603-22.49 38.46-36.935 43.123zm42.885-59.734c-13.711-5.066-28.155-8.026-42.885-8.902v-53.369h52.768c-.739 22.684-4.282 43.953-9.883 62.271zm-42.885-79.926V70.218c14.731-.875 29.173-3.836 42.885-8.902 5.601 18.318 9.144 39.587 9.884 62.271h-52.769v-.001z" fill="#eff2fa"/><path d="M364.705 263.706c.393-.05.785-.106 1.176-.16-1.719-.425-3.403-1.041-5.08-1.693-1.091.488-2.174 1.033-3.284 1.391v-2.856c-6.268-3.029-12.188-7.613-17.655-13.543v16.398c-14.434-4.66-27.405-20.497-36.911-43.071 5.632-2.086 11.375-3.745 17.199-5.036a167.358 167.358 0 0 1-6.1-16.62c-5.759 1.373-11.46 2.998-17.051 5.063-5.613-18.335-9.165-39.628-9.906-62.34h17.677c-.104-2.927-.22-5.85-.22-8.828 0-2.977.116-5.9.22-8.828h-17.677c.739-22.684 4.281-43.953 9.884-62.271 5.567 2.057 11.281 3.674 17.059 5.038a167.161 167.161 0 0 1 6.099-16.632c-5.846-1.286-11.601-2.938-17.208-5.018 9.51-22.601 22.49-38.457 36.936-43.121V17.98c5.468-5.931 11.388-10.514 17.655-13.543V1.581c1.109.359 2.193.903 3.284 1.391 1.677-.651 3.361-1.267 5.08-1.693-.392-.053-.783-.11-1.176-.16-2.167-.269-4.344-.51-6.537-.691C355.033.198 351.887 0 348.69 0c-4.17 0-8.28.247-12.352.623-2.403.232-4.762.605-7.126.966-1.454.215-2.916.403-4.355.665a133.506 133.506 0 0 0-9.292 2.091c-.473.122-.948.238-1.42.365a137.105 137.105 0 0 0-10.166 3.196c-6.467 8.215-12.292 18.046-17.176 29.45-5.976-3.181-11.641-6.955-17.129-11.016l-.001.001a153.82 153.82 0 0 0-7.135 5.645 133.6 133.6 0 0 0-5.898 5.359c-.285.275-.595.52-.876.797a152.677 152.677 0 0 0 24.913 15.955c-6.484 20.349-10.452 43.948-11.206 69.487h-52.749c-.194 2.931-.446 5.847-.446 8.828 0 2.98.252 5.897.446 8.828h52.749c1.438 48.694 14.638 90.425 34.435 115.654a138.214 138.214 0 0 0 10.206 3.213c.456.122.917.235 1.375.353 3.076.81 6.194 1.517 9.352 2.109 1.426.259 2.873.445 4.313.658 2.381.365 4.759.743 7.182.975 4.073.378 8.184.626 12.356.626 3.197 0 6.343-.198 9.478-.43 2.192-.182 4.369-.421 6.537-.692z" fill="#d7deed"/><path d="M268.563 385.806V349.03H146.334v36.777a13.579 13.579 0 0 1-10.471 13.219l-84.026 19.77c-12.269 2.888-20.94 13.836-20.94 26.441v59.972A6.79 6.79 0 0 0 37.688 512H377.21a6.79 6.79 0 0 0 6.791-6.791v-59.972c0-12.605-8.671-23.553-20.941-26.44l-84.026-19.77a13.584 13.584 0 0 1-10.471-13.221z" fill="#e6af78"/><path d="M363.059 418.796l-84.026-19.77c-1.269-.298-2.436-.806-3.528-1.42l-68.056 39.7-65.402-41.62a13.525 13.525 0 0 1-6.182 3.34l-84.026 19.77c-12.27 2.888-20.941 13.836-20.941 26.441v59.974c0 3.75 3.04 6.791 6.791 6.791H377.21a6.79 6.79 0 0 0 6.791-6.791v-59.974c0-12.605-8.671-23.553-20.942-26.441z" fill="#e4eaf6"/><path d="M267.234 402.431l-59.785 34.874-60.36-38.411c4.415 29.414 29.716 51.992 60.36 51.992 29.41-.001 53.952-20.781 59.785-48.455z" fill="#23a0eb"/><path d="M146.334 385.806c0 4.558-2.289 8.66-5.866 11.139 80.561 40.36 128.094-39.448 128.094-39.448v-8.468H146.334v36.777z" fill="#d29b6e"/><path d="M119.173 189.453l5.918 130.183a40.745 40.745 0 0 0 16.255 30.744l28.077 21.058a40.744 40.744 0 0 0 24.446 8.149h27.161a40.74 40.74 0 0 0 24.446-8.149l28.077-21.058a40.742 40.742 0 0 0 16.255-30.744l5.917-130.183H119.173z" fill="#f0c087"/><path d="M119.173 189.453l5.917 130.182a40.749 40.749 0 0 0 16.255 30.745l28.077 21.058a40.744 40.744 0 0 0 24.446 8.149h13.581c-20.372-6.791-33.952-61.114-33.952-61.114v-74.112c0-5.106 3.894-9.302 8.975-9.794 38.037-3.684 81.016-13.236 113.252-35.775v-9.337H119.173v-.002z" fill="#e6af78"/><path d="M105.592 182.663v6.791l6.791 74.695h13.581l13.581-40.743s88.276 0 135.809-27.161l13.581 67.904h13.581l6.791-74.695v-6.791c0-37.503-30.402-67.904-67.904-67.904h-67.904c-37.505 0-67.907 30.402-67.907 67.904z" fill="#5a4146"/><path d="M308.879 274.824l-7.669 30.675a8.163 8.163 0 0 1-7.921 6.184 8.162 8.162 0 0 1-8.1-7.151l-3.922-31.373c-1.048-8.39 5.493-15.799 13.948-15.799h.026c9.146-.002 15.856 8.592 13.638 17.464z" fill="#f0c087"/><path d="M106.019 274.824l7.669 30.675a8.163 8.163 0 0 0 7.921 6.184 8.162 8.162 0 0 0 8.1-7.151l3.922-31.373c1.048-8.39-5.493-15.799-13.948-15.799h-.026c-9.146-.002-15.856 8.592-13.638 17.464z" fill="#e6af78"/><path d="M80.748 467.93l-44.002-39.527a27.113 27.113 0 0 0-5.848 16.833v59.974a6.79 6.79 0 0 0 6.791 6.791h54.324V493.19a33.957 33.957 0 0 0-11.265-25.26zm253.402 0l44.002-39.527a27.108 27.108 0 0 1 5.849 16.833v59.974a6.79 6.79 0 0 1-6.791 6.791h-54.324V493.19a33.952 33.952 0 0 1 11.264-25.26zm-126.701-3.463c37.852 0 69.142-28.326 73.973-64.879l-2.389-.562c-1.269-.298-2.436-.806-3.528-1.42l-8.279 4.83c-5.85 27.639-30.422 48.451-59.777 48.451-30.589 0-55.927-22.616-60.356-51.989l-5.046-3.211a13.507 13.507 0 0 1-6.182 3.34l-2.389.562c4.831 36.552 36.121 64.878 73.973 64.878z" fill="#d7deed"/><path d="M145.381 381.444l62.068 55.861s-17.383 8.775-38.834 26.461c-4.425 3.648-11.118 2.171-13.492-3.051l-29.161-64.153 9.225-13.837c2.298-3.446 7.116-4.05 10.194-1.281zm124.136 0l-62.068 55.861s17.383 8.775 38.834 26.461c4.425 3.648 11.118 2.171 13.492-3.051l29.161-64.153-9.225-13.837c-2.298-3.446-7.117-4.05-10.194-1.281z" fill="#18bdf6"/></svg>