<svg xmlns="http://www.w3.org/2000/svg" viewBox="0 0 512 512"><path d="M425.634 260.414a65.903 65.903 0 0 0-20.288 3.209 1082.094 1082.094 0 0 0 2.013-24.375c.373-5.291-3.682-9.729-8.81-9.729h-87.673v264.828h7.019c23.265 0 40.714-24.575 53.732-58.748 57.975-12.295 120.213-58.643 120.213-108.977.001-36.51-29.697-66.208-66.206-66.208zm-19.103 134.389c-9.82 5.132-21.299-3.519-18.859-14.326 5.331-23.614 9.347-48.019 12.341-70.153 1.736-12.833 12.266-23.29 25.216-23.425l.395-.002c8.736-.002 17.012 3.886 23.735 9.465 37.725 31.303 2.733 74.631-42.828 98.441z" fill="#d7deed"/><path d="M226.87 35.31a8.828 8.828 0 0 1-7.616-13.276c2.28-3.914 3.345-8.108 3.345-13.207a8.829 8.829 0 0 1 17.656 0c0 8.242-1.879 15.47-5.75 22.103a8.829 8.829 0 0 1-7.635 4.38z" fill="#eff2fa"/><path d="M196.116 211.862a8.829 8.829 0 0 1-8.828-8.828c0-20.061 11.38-30.487 20.518-38.862 8.267-7.573 14.793-13.551 14.793-25.845 0-12.306-6.53-18.289-14.793-25.866-9.142-8.384-20.518-18.815-20.518-38.883 0-9.725 2.659-18.151 8.129-25.763 2.845-3.957 8.366-4.857 12.319-2.017a8.825 8.825 0 0 1 2.017 12.319c-3.328 4.629-4.81 9.397-4.81 15.462 0 12.306 6.53 18.289 14.793 25.866 9.142 8.384 20.518 18.815 20.518 38.883 0 20.061-11.38 30.487-20.518 38.862-8.267 7.573-14.793 13.551-14.793 25.845a8.827 8.827 0 0 1-8.827 8.827z" fill="#e4eaf6"/><path d="M252.111 97.133a8.83 8.83 0 0 1-8.03-5.16c-2.578-5.63-3.828-11.647-3.828-18.397a8.829 8.829 0 0 1 17.656 0c0 4.163.728 7.78 2.225 11.052 2.03 4.436.082 9.673-4.353 11.699a8.764 8.764 0 0 1-3.67.806z" fill="#eff2fa"/><path d="M249.081 211.862a8.829 8.829 0 0 1-8.828-8.828c0-20.061 11.38-30.487 20.518-38.862 8.267-7.573 14.793-13.551 14.793-25.845 0-7.009-1.992-12.332-6.655-17.802a8.824 8.824 0 0 1 .988-12.444c3.699-3.172 9.276-2.733 12.444.988 7.423 8.698 10.879 17.996 10.879 29.259 0 20.061-11.379 30.487-20.518 38.862-8.267 7.573-14.793 13.551-14.793 25.845a8.828 8.828 0 0 1-8.828 8.827z" fill="#e4eaf6"/><path d="M146.185 97.138a8.827 8.827 0 0 1-8.03-5.151c-2.578-5.63-3.832-11.651-3.832-18.41a8.829 8.829 0 0 1 17.656 0c0 4.168.728 7.785 2.229 11.057 2.03 4.431.082 9.673-4.349 11.702a8.766 8.766 0 0 1-3.674.802z" fill="#eff2fa"/><path d="M143.15 211.862a8.829 8.829 0 0 1-8.828-8.828c0-20.061 11.38-30.487 20.518-38.862 8.267-7.573 14.793-13.551 14.793-25.845 0-7.026-2.004-12.366-6.698-17.849-3.168-3.706-2.737-9.28.966-12.448 3.702-3.164 9.28-2.733 12.448.966 7.466 8.724 10.94 18.044 10.94 29.332 0 20.061-11.38 30.487-20.518 38.862-8.267 7.573-14.793 13.551-14.793 25.845a8.828 8.828 0 0 1-8.828 8.827z" fill="#e4eaf6"/><path d="M306.462 512h-185.38c-7.313 0-13.241-5.929-13.241-13.241v-13.241h211.862v13.241c0 7.312-5.929 13.241-13.241 13.241z" fill="#d7deed"/><path d="M213.772 498.759v-13.241H107.841v13.241c0 7.313 5.929 13.241 13.241 13.241h105.931c-7.313 0-13.241-5.929-13.241-13.241z" fill="#c7cfe2"/><path d="M28.995 229.517c-5.128 0-9.184 4.439-8.811 9.73 3.369 47.759 21.882 255.097 89.464 255.097h208.246c67.582 0 86.095-207.338 89.464-255.097.373-5.291-3.682-9.73-8.811-9.73H28.995z" fill="#e4eaf6"/><path d="M153.187 239.246c-.254-5.291 2.507-9.729 5.998-9.729H28.995c-5.128 0-9.183 4.438-8.81 9.729 3.368 47.761 21.881 255.098 89.463 255.098h104.449c-46.012.001-58.616-207.337-60.91-255.098z" fill="#d7deed"/></svg>