<svg xmlns="http://www.w3.org/2000/svg" viewBox="0 0 512 512"><path d="M105.036 494.678c-18.71-5.437-29.509-25.079-24.071-43.792l41.241-141.913c3.161-10.879 12.918-18.118 24.208-19.06a74.33 74.33 0 0 0 24.092-6.189l-92.512-26.885a74.35 74.35 0 0 0 17.025 18.14c9.027 6.845 13.384 18.186 10.223 29.066L64 445.956c-5.438 18.713-25.082 29.508-43.792 24.071a8.83 8.83 0 0 0-10.948 6.018 8.83 8.83 0 0 0 6.018 10.948l84.828 24.652a8.831 8.831 0 0 0 10.948-6.018 8.835 8.835 0 0 0-6.018-10.949z" fill="#d7deed"/><path d="M100.104 511.644l-84.828-24.652a8.834 8.834 0 0 1-6.018-10.948 8.833 8.833 0 0 1 10.948-6.018l84.828 24.652a8.834 8.834 0 0 1 6.018 10.948 8.832 8.832 0 0 1-10.948 6.018z" fill="#eff2fa"/><path d="M43.191 485.905a8.834 8.834 0 0 1 10.948-6.018l-33.931-9.861a8.834 8.834 0 0 0-4.93 16.966l33.931 9.861c-4.685-1.362-7.38-6.264-6.018-10.948z" fill="#e4eaf6"/><path d="M119.319 287.248c-41.371-12.023-64.02-56.456-49.442-96.998L136.182 5.847A8.832 8.832 0 0 1 146.999.365l102.666 30.349a8.834 8.834 0 0 1 6.116 10.403l-42.733 190.736c-9.419 42.041-52.357 67.417-93.729 55.395z" fill="#eff2fa"/><path d="M116.842 203.898l60.76-186.015c1.349-4.131 4.004-6.813 6.271-6.62L146.999.364a8.834 8.834 0 0 0-10.817 5.482L69.876 190.25c-14.578 40.541 8.072 84.975 49.442 96.998 2.911.846 5.827 1.461 8.741 1.943-18.321-10.133-23.634-47.274-11.217-85.293z" fill="#e4eaf6"/><path d="M205.325 185.508l10.919-48.731c-6.971-.692-7.847-4.271-16.281-4.271-9.326 0-9.326 4.417-18.654 4.417-9.325 0-9.325-4.417-18.65-4.417-9.315 0-9.315 4.417-18.63 4.417-9.302 0-9.302-4.417-18.604-4.417-8.92 0-9.388 4.006-17.576 4.352l-17.493 48.651h114.969z" fill="#fff"/><path d="M125.426 132.506c-8.92 0-9.388 4.006-17.576 4.352l-17.494 48.651h32.493l16.067-49.192c-4.638-1.203-6.318-3.811-13.49-3.811z" fill="#fffae6"/><path d="M195.808 227.99l14.824-66.166c-2.868-1.265-5.129-2.817-10.669-2.817-9.326 0-9.326 4.417-18.654 4.417-9.325 0-9.325-4.417-18.65-4.417-9.315 0-9.315 4.417-18.63 4.417-9.302 0-9.302-4.417-18.604-4.417-9.317 0-9.317 4.417-18.635 4.417-3.75 0-5.98-.721-7.927-1.576l-12.362 34.38c-5.383 14.97-4.368 31.019 2.855 45.192 7.224 14.173 19.616 24.423 34.892 28.862 15.277 4.44 31.233 2.427 44.927-5.668 13.697-8.093 23.155-21.101 26.633-36.624z" fill="#faf0cd"/><path d="M125.426 159.007c-9.317 0-9.317 4.417-18.635 4.417-3.75 0-5.98-.721-7.927-1.576l-12.362 34.38c-5.383 14.97-4.368 31.019 2.856 45.192 5.278 10.354 13.336 18.583 23.239 24.013-4.218-16.51-3.166-38.842 4.246-61.535l14.403-44.096c-1.517-.466-3.322-.795-5.82-.795z" fill="#f5e6b9"/><path d="M406.957 494.678c18.71-5.437 29.509-25.079 24.071-43.792l-41.241-141.913c-3.161-10.879-12.918-18.118-24.208-19.06a74.33 74.33 0 0 1-24.092-6.189L434 256.839a74.35 74.35 0 0 1-17.025 18.14c-9.027 6.845-13.384 18.186-10.223 29.066l41.241 141.911c5.438 18.713 25.082 29.508 43.792 24.071a8.83 8.83 0 0 1 10.948 6.018 8.83 8.83 0 0 1-6.018 10.948l-84.828 24.652a8.83 8.83 0 0 1-10.948-6.018 8.833 8.833 0 0 1 6.018-10.949z" fill="#d7deed"/><path d="M496.724 486.99l-84.845 24.657a8.834 8.834 0 0 1-4.93-16.966l84.845-24.657a8.835 8.835 0 0 1 4.93 16.966z" fill="#eff2fa"/><path d="M434.868 495.766a8.834 8.834 0 0 1 6.019-10.948l-33.937 9.863a8.833 8.833 0 1 0 4.93 16.965l33.937-9.863a8.834 8.834 0 0 1-10.949-6.017z" fill="#e4eaf6"/><path d="M392.674 287.248c-41.362 12.021-84.29-13.357-93.713-55.395L256.105 40.635a8.832 8.832 0 0 1 6.191-10.425L365.215.814a8.833 8.833 0 0 1 10.736 5.505l66.147 183.932c14.581 40.54-8.061 84.976-49.424 96.997z" fill="#eff2fa"/><path d="M345.917 218.207L297.515 28.6c-1.074-4.21-.272-7.898 1.746-8.949l-36.964 10.557a8.832 8.832 0 0 0-6.192 10.425l42.857 191.217c9.422 42.04 52.351 67.416 93.713 55.395 2.91-.846 5.701-1.889 8.42-3.043-20.896 1.265-45.284-27.243-55.178-65.995z" fill="#e4eaf6"/><path d="M306.667 185.508l-10.919-48.731c6.971-.692 7.847-4.271 16.281-4.271 9.326 0 9.326 4.417 18.654 4.417 9.325 0 9.325-4.417 18.65-4.417 9.315 0 9.315 4.417 18.63 4.417 9.302 0 9.302-4.417 18.604-4.417 8.92 0 9.388 4.006 17.576 4.352l17.494 48.651h-114.97z" fill="#fff"/><path d="M316.185 227.99l-14.824-66.166c2.868-1.265 5.129-2.817 10.669-2.817 9.326 0 9.326 4.417 18.654 4.417 9.325 0 9.325-4.417 18.65-4.417 9.315 0 9.315 4.417 18.63 4.417 9.302 0 9.302-4.417 18.604-4.417 9.317 0 9.317 4.417 18.635 4.417 3.75 0 5.98-.721 7.927-1.576l12.362 34.38c5.383 14.97 4.368 31.019-2.855 45.192-7.224 14.173-19.616 24.423-34.892 28.862-15.277 4.44-31.233 2.427-44.928-5.668-13.697-8.093-23.155-21.101-26.632-36.624z" fill="#faf0cd"/><path d="M337.571 185.508l-12.595-49.335c-4.24-1.259-6.05-3.667-12.947-3.667-8.434 0-9.31 3.579-16.281 4.271l10.919 48.731h30.904z" fill="#fffae6"/><path d="M375.311 272.434c-12.408-11.679-23.488-31.097-29.393-54.227l-14.004-54.857c-.42.021-.767.075-1.231.075-9.326 0-9.326-4.417-18.654-4.417-5.54 0-7.801 1.551-10.669 2.817l14.824 66.166c3.478 15.524 12.936 28.531 26.632 36.625 10.006 5.913 21.221 8.541 32.495 7.818z" fill="#f5e6b9"/><g fill="#fff"><circle cx="167.665" cy="194.342" r="8.834"/><circle cx="388.497" cy="185.508" r="8.834"/><circle cx="370.83" cy="114.839" r="8.834"/><circle cx="344.328" cy="79.504" r="8.834"/><circle cx="176.499" cy="114.839" r="8.834"/><circle cx="211.833" cy="70.67" r="8.834"/></g><g fill="#eff2fa"><circle cx="132.319" cy="88.337" r="8.834"/><circle cx="300.16" cy="114.839" r="8.834"/></g><circle cx="379.663" cy="229.677" r="8.834" fill="#fff"/><g fill="#faf0cd"><circle cx="326.661" cy="212.01" r="8.834"/><circle cx="105.818" cy="194.342" r="8.834"/></g><circle cx="141.153" cy="229.677" r="8.834" fill="#fff"/></svg>