<svg xmlns="http://www.w3.org/2000/svg" viewBox="0 0 278.215 278.215" width="512" height="512"><path d="M102.128 70.841c-13.88-.048-25.157-11.356-25.157-25.247 0-7.115 2.962-13.548 7.713-18.142l-5.843-5.494a5.6 5.6 0 0 0-3.662-1.358 5.608 5.608 0 0 0-3.978 1.649L1.64 91.92a5.618 5.618 0 0 0-.479 7.388l25.59 29.224a5.71 5.71 0 0 1 1.043 2.273c1.043 4.785 2.827 9.867 5.199 15.145l2.401-2.401a22.07 22.07 0 0 1 15.714-6.512 22.077 22.077 0 0 1 15.712 6.509l.078.079.072.073a22.054 22.054 0 0 1 5.804 10.36 22.079 22.079 0 0 1 11.002-2.929 22.071 22.071 0 0 1 15.689 6.487l.094.093.036.036a22.074 22.074 0 0 1 6.507 15.711c0 2.755-.519 5.425-1.472 7.924a22.04 22.04 0 0 1 12.713 6.282l.109.109a22.07 22.07 0 0 1 5.938 10.839l50.441 50.441a14.077 14.077 0 0 0 9.921 4.129c2.866 0 5.725-.903 8.106-2.789 6.361-5.035 6.756-14.404 1.184-19.977l-48.811-48.811a6.44 6.44 0 0 1 0-9.11 6.517 6.517 0 0 1 4.622-1.915c1.674 0 3.347.639 4.623 1.915l62.081 62.081a14.085 14.085 0 0 0 9.921 4.129c2.867 0 5.725-.904 8.107-2.789 6.361-5.035 6.755-14.404 1.183-19.977l-62.373-62.374a6.527 6.527 0 0 1 0-9.234 6.43 6.43 0 0 1 4.561-1.89c1.65 0 3.301.63 4.561 1.89l48.518 48.518a14.083 14.083 0 0 0 9.922 4.129c2.866 0 5.725-.903 8.106-2.789 6.361-5.035 6.756-14.404 1.183-19.977L146.441 71.404l-44.313-.563zm34.616 191.768c3.916 0 7.831-1.695 10.515-5.086 4.256-5.377 3.51-13.18-1.339-18.028l-4.28-4.279c-.372 5.139-2.498 10.174-6.418 14.095l-5.567 5.565a22.462 22.462 0 0 1-3.405 2.797l1.033 1.034c2.602 2.601 6.031 3.902 9.461 3.902z" fill="#3FA1B0"/><path d="M207.014 17.256a5.603 5.603 0 0 0-3.978-1.65c-1.301 0-2.605.45-3.662 1.359l-4.645 2.649a.058.058 0 0 1-.026.013L102.22 32.346c-7.286 0-13.248 5.962-13.248 13.248s5.962 13.247 13.248 13.247l49.323.626s76.438 76.475 93.428 93.465c13.355-17.017 25.269-34.811 28.649-50.321a5.72 5.72 0 0 1 1.043-2.272l2.391-6.024a5.619 5.619 0 0 0-.478-7.389l-69.562-69.67zM35.998 174.582a10.189 10.189 0 0 0 7.226 2.993c2.615 0 5.23-.998 7.226-2.993l7.992-7.993c3.992-3.99 3.992-10.461 0-14.451l-.106-.107a10.187 10.187 0 0 0-7.226-2.994c-2.615 0-5.231.998-7.226 2.994l-7.994 7.994c-3.989 3.989-3.989 10.46 0 14.45l.108.107zm28.972 28.006c2.615 0 5.23-.998 7.227-2.994l18.914-18.913c3.99-3.989 3.99-10.46 0-14.451l-.107-.106a10.184 10.184 0 0 0-7.226-2.994c-2.616 0-5.231.998-7.229 2.994l-18.912 18.912c-3.991 3.991-3.991 10.46 0 14.451l.106.107a10.188 10.188 0 0 0 7.227 2.994zm17.305 20.362a10.187 10.187 0 0 0 7.226 2.992c2.615 0 5.231-.997 7.225-2.992l12.241-12.241c3.989-3.99 3.989-10.462 0-14.452l-.108-.108a10.19 10.19 0 0 0-7.227-2.992c-2.614 0-5.229.997-7.226 2.992L82.167 208.39c-3.991 3.991-3.991 10.462 0 14.452l.108.108zm38.893 23.441l5.568-5.567c3.989-3.99 3.989-10.46 0-14.451l-.106-.108a10.187 10.187 0 0 0-7.227-2.993c-2.615 0-5.23.998-7.227 2.993l-5.567 5.567c-3.992 3.99-3.992 10.462 0 14.453l.108.106a10.186 10.186 0 0 0 7.225 2.993c2.615 0 5.231-.998 7.226-2.993z" fill="#3FA1B0"/></svg>