<svg xmlns="http://www.w3.org/2000/svg" class="laptop" width="512" height="512" viewBox="0 0 378.308 378.308"><path d="M343.296 255.716V73.557c0-7.693-6.297-14.006-14.023-14.006H49.048c-7.709 0-14.039 6.281-14.039 14.006v182.158L0 297.754c0 11.58 9.407 21.003 21.003 21.003h336.302c11.596 0 21.003-9.423 21.003-21.003l-35.012-42.038zm-126.112 56.061h-56.028a3.51 3.51 0 0 1-3.521-3.505 3.51 3.51 0 0 1 3.521-3.505h56.028a3.51 3.51 0 0 1 3.521 3.505c-.032 1.95-1.587 3.505-3.521 3.505zm-85.789-14.007l10.692-12.834h94.134l10.692 12.834H131.395zm192.168-66.833c0 6.757-5.504 12.231-12.215 12.231H66.958c-6.711 0-12.215-5.52-12.215-12.231V84.36c0-6.757 5.504-12.231 12.215-12.231h244.39c6.711 0 12.215 5.504 12.215 12.231v146.577z" fill="#3FA1B0"/><path d="M260.444 160.108l10.692-16.053-11.865-11.898-16.07 10.692c-1.713-.872-3.602-1.412-5.409-2.047l-3.825-19.115h-16.831l-3.822 19.115c-1.824.651-3.68 1.173-5.409 2.047l-16.07-10.692-11.881 11.865 10.692 16.086c-.888 1.73-1.619 3.57-2.238 5.442l-18.924 3.79v16.831l18.94 3.777a39.715 39.715 0 0 0 2.238 5.458l-10.709 16.037 11.898 11.898 16.07-10.725c1.697.904 3.586 1.428 5.409 2.047l3.822 19.147h16.831l3.822-19.147c1.808-.619 3.664-1.143 5.409-2.047l16.053 10.725 11.898-11.898-10.709-16.037c.904-1.746 1.619-3.57 2.238-5.458l18.924-3.777.032-16.831-18.956-3.79c-.634-1.872-1.346-3.696-2.25-5.442zm-34.883 37.28c-10.851 0-19.607-8.788-19.607-19.639 0-10.819 8.788-19.591 19.607-19.591 10.819 0 19.639 8.788 19.639 19.591-.003 10.835-8.791 19.639-19.639 19.639zm-62.377-57.538c.285-1.332.412-2.698.492-4.124l12.183-6.012-3.029-11.405-13.546.888a28.05 28.05 0 0 0-2.507-3.33l4.331-12.834-10.249-5.918-8.931 10.2c-1.315-.269-2.698-.317-4.062-.395l-6.093-12.28-11.421 3.045.888 13.689c-1.095.777-2.3 1.49-3.301 2.348l-12.866-4.331-5.902 10.249 10.184 8.947c-.285 1.332-.412 2.698-.476 4.091l-12.215 6.012 3.045 11.454 13.546-.888a27.562 27.562 0 0 0 2.491 3.284l-4.315 12.866 10.249 5.902 8.931-10.184c1.302.269 2.711.301 4.062.366l6.093 12.293 11.405-3.029-.872-13.689c1.079-.777 2.268-1.474 3.301-2.348l12.85 4.298 5.918-10.232-10.184-8.933zm-23.319 7.694c-7.376 1.966-14.91-2.394-16.879-9.756-1.966-7.36 2.381-14.91 9.74-16.895 7.376-1.95 14.91 2.41 16.895 9.756 1.97 7.345-2.41 14.912-9.756 16.895z" fill="#3FA1B0"/></svg>