<svg xmlns="http://www.w3.org/2000/svg" width="512" height="512" viewBox="0 0 45.102 45.102"><path d="M17.021 44.403c.427.45.995.698 1.601.698a2.18 2.18 0 0 0 1.672-.791c8.155-9.735 19.136-21.879 23.248-24.062.906-.482 1.515-1.456 1.515-2.423V1.933C45.056.678 44.137 0 43.272 0c-.314 0-.795.086-1.283.494-3.067 2.556-17.81 15.301-22.718 27.964l-4.691-7.624c-.63-1.02-2.088-1.386-3.122-.783L1.102 26.075c-.599.349-.981.924-1.046 1.579-.065.654.194 1.294.714 1.755 2.139 1.9 12.977 11.543 16.251 14.994zm-4.643-21.419l5.636 9.16c.378.613.96.965 1.597.965.613 0 1.437-.375 1.736-1.432C24.438 20.776 36.79 9.016 42.054 4.387V17.64c-5.462 2.98-18.68 18.348-23.482 24.054-3.429-3.461-11.281-10.499-14.85-13.674l8.656-5.036z" fill="#3FA1B0"/></svg>