<svg xmlns="http://www.w3.org/2000/svg" width="512" height="512" viewBox="0 0 46.999 46.999"><g fill="#4d59b2"><path d="M36.854 37.92H10.147a2.136 2.136 0 1 0 0 4.273h26.705a2.137 2.137 0 0 0 .002-4.273zM7.478 21.896v5.341a1.603 1.603 0 0 0 3.205 0v-5.341a1.603 1.603 0 0 0-3.205 0zm5.34-2.135v7.477a1.603 1.603 0 0 0 3.205 0v-7.477a1.603 1.603 0 0 0-3.205 0zm5.341-2.137v9.613a1.603 1.603 0 0 0 3.205 0v-9.613a1.603 1.603 0 0 0-3.205 0z"/><path d="M44.863 4.806H2.137C.957 4.806 0 5.763 0 6.943v26.705c0 1.18.957 2.137 2.137 2.137H42.91c-.062-.055-.133-.1-.191-.157l-2.957-2.959a11.414 11.414 0 0 1-5.615 1.478c-2.698 0-5.252-.93-7.306-2.633H4.272V9.078h38.455V15.1a11.367 11.367 0 0 1 2.883 7.581c0 1.979-.514 3.909-1.476 5.612l2.865 2.867V6.942a2.136 2.136 0 0 0-2.136-2.136z"/><path d="M42.371 29.554a.943.943 0 0 0-.777-.271l-.449-.449a9.256 9.256 0 0 0 2.328-6.151c0-2.49-.969-4.832-2.729-6.593a9.257 9.257 0 0 0-6.597-2.733c-2.489 0-4.83.969-6.592 2.733a9.254 9.254 0 0 0-2.734 6.593c0 2.49.972 4.833 2.734 6.594a9.257 9.257 0 0 0 6.592 2.731 9.237 9.237 0 0 0 6.151-2.329l.451.448c-.03.28.056.563.271.779l3.213 3.213a.961.961 0 0 0 1.354 0 .957.957 0 0 0 0-1.351l-3.216-3.214zm-2.98-1.632a7.368 7.368 0 0 1-5.244 2.175 7.362 7.362 0 0 1-5.24-2.173 7.369 7.369 0 0 1-2.172-5.242c0-1.979.771-3.841 2.172-5.241a7.365 7.365 0 0 1 5.24-2.173c1.981 0 3.844.771 5.244 2.173a7.372 7.372 0 0 1 2.17 5.241c0 1.98-.772 3.84-2.17 5.24z"/></g></svg>