<svg xmlns="http://www.w3.org/2000/svg" shape-rendering="geometricPrecision" text-rendering="geometricPrecision" image-rendering="optimizeQuality" fill-rule="evenodd" clip-rule="evenodd" viewBox="0 0 9100 3011"><path fill="#fff" fill-rule="nonzero" d="M8991 171H109V50h8882l62 61-62 60zm0-121h62v61l-62-61zm-63 2850V111h125v2789l-62 61-63-61zm125 0v61h-62l62-61zm-8944-60h8882v121H109l-62-61 62-60zm0 121H47v-61l62 61zm63-2850v2789H47V111l62-61 63 61zm-125 0V50h62l-62 61zm975 649c8-2 19-3 34-4 14 0 25-1 33-1 7 0 18 1 33 1 14 1 26 2 34 4v641c14-25 31-49 53-74s47-48 75-68c28-21 60-37 96-49s76-18 119-18c119 0 207 35 263 106s84 171 84 300v653c-8 1-19 2-33 3-15 1-26 1-34 1-7 0-17 0-32-1s-27-2-35-3v-613c0-115-19-197-57-247s-92-75-164-75c-47 0-92 8-133 26s-77 44-107 78c-29 35-53 78-70 130-16 52-25 112-25 180v521c-8 1-19 2-33 3-15 1-26 1-34 1-7 0-17 0-32-1s-27-2-35-3V760zm1209 456c8-1 19-2 34-3s26-1 33-1c8 0 19 0 33 1s25 2 34 3v583c0 73 7 132 22 179s37 83 66 110c29 26 64 44 106 55 42 10 90 15 142 15 45 0 85-3 120-7 35-5 66-12 94-20v-915c8-1 19-2 34-3s26-1 33-1c8 0 19 0 33 1s25 2 33 3v1009c-50 13-105 25-167 35-61 10-125 15-190 15-63 0-123-6-179-18s-105-35-146-70c-42-34-74-82-99-143-24-61-36-140-36-237v-591zm1364 911c32 11 64 19 99 24 34 4 71 7 110 7 55 0 106-9 156-27 49-17 92-44 130-81 37-36 67-83 89-139s33-123 33-202c0-123-23-220-70-290-46-70-122-105-226-105-32 0-68 5-105 16-38 11-73 29-105 55-32 25-58 59-79 102s-32 96-32 161v479zM3461 760c9-2 20-3 34-4 14 0 25-1 33-1 7 0 18 1 33 1 15 1 26 2 34 4v600c29-43 70-82 123-116 54-35 123-52 208-52 64 0 122 10 175 29 52 20 97 51 135 93 37 41 66 94 87 158 21 63 31 140 31 229 0 180-49 321-148 422-99 102-241 152-428 152-61 0-120-5-177-17-56-11-103-24-140-37V760zm1256 32c46-5 101-10 166-15s129-7 191-7c255 0 447 65 573 194 127 130 190 317 190 561 0 254-65 443-194 566s-322 184-577 184c-64 0-127-2-189-7-62-4-116-10-160-17V792zm207 1289c19 2 42 5 70 7 27 2 57 3 88 3 80 0 152-9 218-28 66-18 122-49 170-92 47-43 83-102 109-175 26-74 39-167 39-277 0-102-13-189-39-260-26-72-62-130-108-176-47-45-103-78-168-98-65-21-137-31-215-31-26 0-54 1-84 1-31 1-57 3-80 7v1119zm1225-51c45 16 92 30 141 43 48 12 108 18 178 18 111 0 194-23 249-68 54-46 82-107 82-184 0-38-6-70-17-97-12-27-29-51-52-70-23-20-52-38-86-54-35-16-75-34-121-53l-116-46c-39-17-75-35-107-54-33-20-61-44-85-72-23-29-42-62-55-99-14-37-21-81-21-133 0-123 42-219 126-289s202-104 353-104c65 0 127 5 185 16s110 24 154 40c-7 57-21 113-44 169-37-14-79-26-127-37-48-10-103-16-164-16-85 0-151 17-197 52-46 34-69 86-69 155 0 29 6 54 18 76 11 23 26 42 45 59s42 32 67 46c26 13 53 25 82 36l113 45c54 22 102 44 144 68s78 51 108 83 52 69 68 113c15 43 23 94 23 152 0 139-48 249-144 330-96 80-231 120-404 120-42 0-80-1-113-4-34-2-66-6-95-12-29-5-57-12-84-20s-55-17-83-26c2-30 9-61 18-92 10-31 20-61 30-91zM7345 790c20-3 44-5 72-8s57-5 87-7c31-2 61-4 92-5 30-2 59-2 88-2 74 0 145 7 212 22s126 41 176 77c51 37 91 85 121 145s45 136 45 226c0 95-16 174-48 237s-74 113-126 151-111 65-177 80c-67 16-134 24-203 24-26 0-49-1-68-1-20-1-41-3-64-6v528c-33 4-67 6-104 6-16 0-33 0-51-1-19 0-36-2-52-5V790zm207 753c22 3 41 5 57 6s40 2 71 2c42 0 83-4 125-13 41-9 78-25 110-48 33-23 59-54 78-94 20-40 30-92 30-156 0-55-9-102-26-140-17-37-40-68-70-91-29-23-65-39-107-49-42-9-87-14-136-14-50 0-94 2-132 6v591z"/></svg>