<svg xmlns="http://www.w3.org/2000/svg" viewBox="0 0 512 512" width="512" height="512"><path d="M325.131 184.47V61.69h-16.696c-11.647 0-17.706 8.696-30.982 27.753-18.227 26.163-52.154 74.861-87.879 74.861H82.668C37.084 164.304 0 201.389 0 246.972c0 39.071 27.254 71.875 63.744 80.456L74.567 450.31h76.154V329.64h38.853c35.725 0 69.652 48.698 87.879 74.861 13.275 19.055 19.335 27.753 30.982 27.753h16.696v-122.78c27.607-7.382 48.002-32.6 48.002-62.502s-20.394-55.121-48.002-62.502zm95.922 45.808H512v33.391h-90.947zM399.81 184.55l78.757-45.473 16.696 28.917-78.758 45.472zm.006 124.85l16.696-28.916 78.758 45.472-16.695 28.917z" fill="#4d59b2"/></svg>