<svg xmlns="http://www.w3.org/2000/svg" width="124.099" height="124.1" viewBox="0 0 124.099 124.1"><path fill="#fff" d="M18.25 106.7c5.6 5.399 12.3 9.8 20.1 12.8 7.8 3 16.5 4.6 25.9 4.6 10.5 0 20.2-1.6 28.9-4.899 7.9-2.9 1.1-17.601-4.7-15.2-6.399 2.7-14.2 4.1-23.101 4.1-7 0-13.399-1.1-19-3.199-5.6-2.101-10.5-5.101-14.5-9-4-3.9-7.2-8.7-9.4-14.2-2.3-5.601-3.4-12-3.4-19 0-6.6 1.1-12.9 3.3-18.5 2.2-5.6 5.2-10.6 9.2-14.6 3.9-4.1 8.7-7.4 14.2-9.7 5.5-2.3 11.7-3.5 18.5-3.5 6.301 0 12.1.9 17.301 2.5 5.1 1.6 9.5 4.1 13.199 7.4 3.7 3.3 6.6 7.3 8.7 12.1 2.101 4.8 3.101 10.4 3.101 16.8 0 3.7-.4 7.2-1.201 10.5-.799 3.1-1.799 5.899-3.199 8.1-1.301 2.101-2.801 3.8-4.6 5-2.101 1.4-5.201 2.2-7.601 1.4-3-1-2.399-5.2-2.2-7.7.301-3.4 1.2-6.6 1.9-9.9 1.1-5.4 2.3-10.7 3.4-16 .6-2.9 1.299-5.9 1.899-8.8.8-3.7-2-7.3-5.899-7.3h-4.4c-2.7 0-5.1 1.8-5.801 4.4-.299 1.2-.6 2.2-.6 2.2-2.199-6.8-10.3-8.7-16.7-8.6-8.4.1-16.1 4.4-21.7 10.5-.5.6-1.1 1.2-1.6 1.8-2.9 3.5-5.1 7.6-6.6 11.9-1.6 4.6-2.4 9.3-2.4 14.1 0 4.101.6 8 1.7 11.5 1.2 3.601 2.9 6.7 5.1 9.3 2.2 2.601 5 4.7 8.3 6.2 3.3 1.5 7 2.3 11 2.3 3 0 5.8-.5 8.3-1.399 2.4-.9 4.6-2 6.5-3.3 1.5-1 2.9-2.2 4-3.301.699 1.301 1.5 2.4 2.6 3.5 2.801 3 7.1 4.5 12.801 4.5 4.5 0 8.899-.899 13-2.699 4.1-1.801 7.799-4.601 10.899-8.2 3-3.601 5.5-8 7.3-13.2 1.801-5.2 2.7-11.2 2.7-17.8 0-9-1.7-17-5-23.7s-7.8-12.4-13.399-16.9c-5.5-4.5-11.9-7.8-19-10.1C79.05 1.1 71.75 0 64.25 0c-8.7 0-17 1.6-24.7 4.7-7.7 3.2-14.5 7.6-20.2 13.1-5.8 5.5-10.4 12.2-13.7 19.7-3.3 7.5-5 15.9-5 24.7 0 8.899 1.5 17.3 4.6 24.8 3 7.6 7.4 14.2 13 19.7zm54.099-42c-.699 2.7-1.699 5.3-3.1 7.7-1.4 2.3-3.1 4.199-5.3 5.699-2 1.4-4.4 2.101-7.4 2.101-1.9 0-3.4-.4-4.5-1.101-1.2-.8-2.2-1.8-2.9-3.1-.8-1.4-1.3-2.9-1.6-4.4-.3-1.6-.5-3.1-.5-4.399 0-2.8.4-5.6 1.2-8.5.8-2.8 1.9-5.4 3.4-7.6 1.5-2.2 3.2-4 5.3-5.4 1.9-1.3 4-1.9 6.5-1.9 2 0 3.601.3 4.8 1 1.2.7 2.2 1.6 2.9 2.7.8 1.2 1.3 2.6 1.699 4.1.4 1.7.601 3.5.601 5.2-.1 2.5-.399 5.1-1.1 7.9z"/></svg>