<svg xmlns="http://www.w3.org/2000/svg" viewBox="0 0 297.504 297.504" width="512" height="512"><path d="M267.762 75.021a7.973 7.973 0 0 0 5.657 2.344 7.972 7.972 0 0 0 5.656-2.343 7.999 7.999 0 0 0 .001-11.313l-28.895-28.896a8 8 0 0 0-11.314 11.312l3.136 3.136-16.904 16.737c-17.963-14.035-39.597-23.439-63.597-26.4V16h4.333a8 8 0 0 0 0-16h-41a8 8 0 0 0 0 16h4.667v23.567c-64 7.85-113.417 62.473-113.417 128.481 0 71.382 58.157 129.455 129.538 129.455S275.12 239.431 275.12 168.049c0-29.902-10.174-57.466-27.265-79.406l16.764-16.754 3.143 3.132zM95.157 237.427a9.08 9.08 0 0 1 12.405-3.324c4.341 2.508 5.831 8.063 3.322 12.405-2.508 4.343-8.063 5.832-12.404 3.323-4.344-2.507-5.83-8.061-3.323-12.404zM98.479 86.23a9.078 9.078 0 0 1 12.404 3.322 9.079 9.079 0 0 1-3.324 12.405c-4.342 2.508-9.896 1.019-12.404-3.324a9.079 9.079 0 0 1 3.324-12.403zm-29.066 81.802c0 5.013-4.066 9.079-9.081 9.079-5.014 0-9.081-4.066-9.081-9.08a9.08 9.08 0 0 1 9.081-9.081 9.081 9.081 0 0 1 9.081 9.082zm-5.507-47.228a9.076 9.076 0 0 1 12.404-3.324c4.342 2.507 5.833 8.062 3.322 12.404-2.506 4.343-8.061 5.831-12.403 3.323-4.341-2.508-5.83-8.062-3.323-12.403zm3.325 82.051c4.343-2.508 9.898-1.022 12.404 3.324 2.509 4.342 1.02 9.896-3.323 12.403a9.08 9.08 0 1 1-9.081-15.727zm78.475-129.28a9.078 9.078 0 0 1 9.08 9.08 9.08 9.08 0 1 1-9.08-9.08zm-8.204 78.108V117a8 8 0 0 1 16 0v34.807c6 2.984 10.2 9.119 10.2 16.225 0 10.029-8.049 18.16-18.079 18.16-10.029 0-18.287-8.131-18.287-18.16a18.178 18.178 0 0 1 10.166-16.349zm8.207 92.64a9.08 9.08 0 0 1 9.08 9.081 9.079 9.079 0 0 1-9.081 9.081 9.081 9.081 0 1 1 .001-18.162zm50.549-145.691c-2.507 4.343-8.061 5.834-12.404 3.324-4.343-2.507-5.831-8.063-3.324-12.404 2.51-4.343 8.062-5.833 12.406-3.322 4.342 2.506 5.829 8.059 3.322 12.402zm-3.32 151.197a9.082 9.082 0 1 1-9.081-15.728c4.343-2.506 9.897-1.018 12.403 3.326 2.507 4.343 1.02 9.897-3.322 12.402zm22.168-31.249a9.076 9.076 0 0 1-3.324-12.404 9.08 9.08 0 1 1 3.324 12.404zm6.896-50.553a9.08 9.08 0 0 1 9.08-9.079c5.016.001 9.083 4.066 9.081 9.081a9.08 9.08 0 0 1-9.081 9.08c-5.014 0-9.082-4.065-9.08-9.082zm2.182-34.822a9.08 9.08 0 0 1-12.405-3.324 9.079 9.079 0 0 1 3.326-12.403c4.343-2.508 9.898-1.021 12.404 3.324a9.079 9.079 0 0 1-3.325 12.403z" fill="#4d69b2"/></svg>