<?xml version="1.0" standalone="no"?>
<!DOCTYPE svg PUBLIC "-//W3C//DTD SVG 1.1//EN" "http://www.w3.org/Graphics/SVG/1.1/DTD/svg11.dtd" >
<svg xmlns="http://www.w3.org/2000/svg" xmlns:xlink="http://www.w3.org/1999/xlink" version="1.1">
<metadata>
Created by FontForge 20160407 at Mon Sep 26 12:58:37 2016
 By Jimmy Warting
Copyright \(c\) 2015 by DearType, Veneta Rangelova. All rights reserved.
</metadata>
<defs>
<font id="LifehackSans-Regular" horiz-adv-x="0" >
  <font-face 
    font-family="Lifehack Sans"
    font-weight="400"
    font-stretch="normal"
    units-per-em="1000"
    panose-1="0 0 5 0 0 0 0 0 0 0"
    ascent="750"
    descent="-250"
    x-height="580"
    cap-height="699"
    bbox="-462 -250 862 852"
    underline-thickness="50"
    underline-position="-100"
    unicode-range="U+0020-2260"
  />
<missing-glyph horiz-adv-x="500" 
d="M410 750v-1000h-317v1000h317zM333 683h-165v-33h65v-37h-66v-33h166v33h-66v37h66v33zM267 554h-100v-104h166v34h-66v70zM233 520v-36h-33v36h33zM333 423h-166v-33h66v-37h-66v-33h100v70h66v33zM333 363h-33v-66h-133v-34h166v100zM333 241h-100v-56h34v23h33v-47
h-100v80h-33v-113h166v113zM333 68h-166v-113h166v113zM300 35v-47h-100v47h100zM333 -68h-166v-33h70l-70 -47v-33h166v33h-102l70 47h32v33z" />
    <glyph glyph-name=".notdef" horiz-adv-x="500" 
d="M410 750v-1000h-317v1000h317zM333 683h-165v-33h65v-37h-66v-33h166v33h-66v37h66v33zM267 554h-100v-104h166v34h-66v70zM233 520v-36h-33v36h33zM333 423h-166v-33h66v-37h-66v-33h100v70h66v33zM333 363h-33v-66h-133v-34h166v100zM333 241h-100v-56h34v23h33v-47
h-100v80h-33v-113h166v113zM333 68h-166v-113h166v113zM300 35v-47h-100v47h100zM333 -68h-166v-33h70l-70 -47v-33h166v33h-102l70 47h32v33z" />
    <glyph glyph-name="space" unicode=" " horiz-adv-x="223" 
 />
    <glyph glyph-name="A" unicode="A" horiz-adv-x="345" 
d="M331 49c1 -5 1 -9 1 -12c0 -25 -16 -33 -45 -34c-11 0 -15 12 -16 20l-30 229l-120 -1c0 -4 -1 -8 -2 -12c-4 -15 -25 -185 -38 -217c-6 -5 -37 -17 -47 -17c-7 0 -13 5 -13 21c0 6 0 13 2 21c32 181 62 370 102 559c9 40 13 95 74 95c41 0 49 -54 54 -91
c25 -185 49 -353 78 -561zM231 302h4l-43 331c-15 -48 -32 -166 -62 -332z" />
    <glyph glyph-name="Aacute" unicode="&#xc1;" horiz-adv-x="345" 
d="M164 741c-15 0 -24 5 -24 13c0 11 10 26 18 36c0 0 29 41 48 52c4 2 9 4 13 4c8 0 25 -3 35 -9c2 -2 3 -5 3 -8c0 -4 -2 -8 -5 -13c-19 -25 -74 -75 -88 -75zM331 49c1 -5 1 -9 1 -12c0 -25 -16 -33 -45 -34c-11 0 -15 12 -16 20l-30 229l-120 -1c0 -4 -1 -8 -2 -12
c-4 -15 -25 -185 -38 -217c-6 -5 -37 -17 -47 -17c-7 0 -13 5 -13 21c0 6 0 13 2 21c32 181 62 370 102 559c9 40 13 95 74 95c41 0 49 -54 54 -91c25 -185 49 -353 78 -561zM231 302h4l-43 331c-15 -48 -32 -166 -62 -332z" />
    <glyph glyph-name="Abreve" unicode="&#x102;" horiz-adv-x="345" 
d="M199 749c-62 0 -92 39 -92 75c0 4 1 8 2 10c5 5 11 7 19 6c9 -1 14 -6 17 -12c12 -22 26 -42 52 -42c23 0 46 27 56 51c2 4 9 4 13 4c11 0 20 -5 25 -16c0 0 -21 -76 -92 -76zM331 49c1 -5 1 -9 1 -12c0 -25 -16 -33 -45 -34c-11 0 -15 12 -16 20l-30 229l-120 -1
c0 -4 -1 -8 -2 -12c-4 -15 -25 -185 -38 -217c-6 -5 -37 -17 -47 -17c-7 0 -13 5 -13 21c0 6 0 13 2 21c32 181 62 370 102 559c9 40 13 95 74 95c41 0 49 -54 54 -91c25 -185 49 -353 78 -561zM231 302h4l-43 331c-15 -48 -32 -166 -62 -332z" />
    <glyph glyph-name="Acircumflex" unicode="&#xc2;" horiz-adv-x="345" 
d="M121 748c-8 0 -13 4 -18 9c-1 2 -2 6 -2 10s0 9 3 11c38 28 75 64 98 66c16 1 95 -78 95 -78c-5 -11 -16 -18 -27 -18c-4 0 -9 2 -13 4c-19 11 -58 46 -58 46s-31 -21 -52 -37c-11 -8 -18 -13 -26 -13zM331 49c1 -5 1 -9 1 -12c0 -25 -16 -33 -45 -34
c-11 0 -15 12 -16 20l-30 229l-120 -1c0 -4 -1 -8 -2 -12c-4 -15 -25 -185 -38 -217c-6 -5 -37 -17 -47 -17c-7 0 -13 5 -13 21c0 6 0 13 2 21c32 181 62 370 102 559c9 40 13 95 74 95c41 0 49 -54 54 -91c25 -185 49 -353 78 -561zM231 302h4l-43 331
c-15 -48 -32 -166 -62 -332z" />
    <glyph glyph-name="Adieresis" unicode="&#xc4;" horiz-adv-x="345" 
d="M148 767c-20 0 -34 20 -34 40c0 8 4 17 12 23c8 3 19 5 31 5c18 0 27 -14 27 -36s-13 -32 -36 -32zM247 767c-20 0 -34 20 -34 40c0 8 4 17 12 23c8 3 19 5 31 5c19 0 27 -14 27 -36s-13 -32 -36 -32zM331 49c1 -5 1 -9 1 -12c0 -25 -16 -33 -45 -34c-11 0 -15 12 -16 20
l-30 229l-120 -1c0 -4 -1 -8 -2 -12c-4 -15 -25 -185 -38 -217c-6 -5 -37 -17 -47 -17c-7 0 -13 5 -13 21c0 6 0 13 2 21c32 181 62 370 102 559c9 40 13 95 74 95c41 0 49 -54 54 -91c25 -185 49 -353 78 -561zM231 302h4l-43 331c-15 -48 -32 -166 -62 -332z" />
    <glyph glyph-name="Agrave" unicode="&#xc0;" horiz-adv-x="345" 
d="M233 741c-14 0 -69 50 -88 75c-3 5 -5 9 -5 13c0 3 1 6 3 8c10 6 27 9 35 9c4 0 9 -2 13 -4c19 -11 48 -52 48 -52c8 -10 18 -25 18 -36c0 -8 -9 -13 -24 -13zM331 49c1 -5 1 -9 1 -12c0 -25 -16 -33 -45 -34c-11 0 -15 12 -16 20l-30 229l-120 -1c0 -4 -1 -8 -2 -12
c-4 -15 -25 -185 -38 -217c-6 -5 -37 -17 -47 -17c-7 0 -13 5 -13 21c0 6 0 13 2 21c32 181 62 370 102 559c9 40 13 95 74 95c41 0 49 -54 54 -91c25 -185 49 -353 78 -561zM231 302h4l-43 331c-15 -48 -32 -166 -62 -332z" />
    <glyph glyph-name="Amacron" unicode="&#x100;" horiz-adv-x="345" 
d="M114 758c-16 0 -17 15 -17 28c0 10 8 19 18 19h166c10 0 19 -10 19 -20c-2 -15 -5 -27 -16 -27h-170zM331 49c1 -5 1 -9 1 -12c0 -25 -16 -33 -45 -34c-11 0 -15 12 -16 20l-30 229l-120 -1c0 -4 -1 -8 -2 -12c-4 -15 -25 -185 -38 -217c-6 -5 -37 -17 -47 -17
c-7 0 -13 5 -13 21c0 6 0 13 2 21c32 181 62 370 102 559c9 40 13 95 74 95c41 0 49 -54 54 -91c25 -185 49 -353 78 -561zM231 302h4l-43 331c-15 -48 -32 -166 -62 -332z" />
    <glyph glyph-name="Aogonek" unicode="&#x104;" horiz-adv-x="345" 
d="M349 -57c12 0 20 -6 20 -20c0 -18 -3 -42 -14 -56s-31 -22 -67 -22c-34 0 -64 20 -64 59s22 81 50 108c-2 4 -3 8 -3 11l-30 229l-120 -1c0 -4 -1 -8 -2 -12c-4 -15 -25 -185 -38 -217c-6 -5 -37 -17 -47 -17c-7 0 -13 5 -13 21c0 6 0 13 2 21c32 181 62 370 102 559
c9 40 13 95 74 95c41 0 49 -54 54 -91c25 -185 49 -353 78 -561c1 -5 1 -9 1 -12c0 -10 -3 -18 -8 -23c-3 -7 -7 -14 -10 -18l-30 -48c-9 -15 -12 -25 -12 -40c0 -17 7 -30 22 -30c33 0 33 24 39 50c2 10 9 15 16 15zM231 302h4l-43 331c-15 -48 -32 -166 -62 -332z" />
    <glyph glyph-name="Aring" unicode="&#xc5;" horiz-adv-x="345" 
d="M198 745c-29 0 -52 24 -53 53c0 33 25 52 56 54c30 0 51 -25 51 -54s-21 -53 -54 -53zM195 819c-12 0 -17 -10 -17 -21s9 -22 20 -22c12 0 21 11 21 22c0 12 -9 19 -24 21zM331 49c1 -5 1 -9 1 -12c0 -25 -16 -33 -45 -34c-11 0 -15 12 -16 20l-30 229l-120 -1
c0 -4 -1 -8 -2 -12c-4 -15 -25 -185 -38 -217c-6 -5 -37 -17 -47 -17c-7 0 -13 5 -13 21c0 6 0 13 2 21c32 181 62 370 102 559c9 40 13 95 74 95c41 0 49 -54 54 -91c25 -185 49 -353 78 -561zM231 302h4l-43 331c-15 -48 -32 -166 -62 -332z" />
    <glyph glyph-name="Atilde" unicode="&#xc3;" horiz-adv-x="345" 
d="M112 759c-8 0 -17 6 -17 21c0 16 25 59 67 59c36 0 48 -29 80 -29c24 0 32 24 50 27c0 0 11 -6 11 -17c0 -32 -35 -62 -64 -62c-39 0 -47 31 -76 31c-27 0 -31 -30 -51 -30zM331 49c1 -5 1 -9 1 -12c0 -25 -16 -33 -45 -34c-11 0 -15 12 -16 20l-30 229l-120 -1
c0 -4 -1 -8 -2 -12c-4 -15 -25 -185 -38 -217c-6 -5 -37 -17 -47 -17c-7 0 -13 5 -13 21c0 6 0 13 2 21c32 181 62 370 102 559c9 40 13 95 74 95c41 0 49 -54 54 -91c25 -185 49 -353 78 -561zM231 302h4l-43 331c-15 -48 -32 -166 -62 -332z" />
    <glyph glyph-name="AE" unicode="&#xc6;" horiz-adv-x="447" 
d="M382 51c18 0 34 -2 37 -9c3 -6 4 -12 4 -17c0 -13 -11 -20 -22 -21c-33 -3 -91 -7 -133 -7c-38 0 -49 8 -49 42v54c2 58 3 145 3 230c-29 0 -76 -1 -81 -3c-4 -2 -17 -58 -21 -81c-4 -15 -26 -191 -39 -223c-6 -5 -37 -17 -47 -17c-7 0 -13 5 -13 21c0 6 0 13 2 21
c31 175 74 436 107 565l3 9c13 37 27 77 74 77c16 0 32 -3 42 -14c26 10 80 17 117 17c26 0 59 -1 59 -27c0 -23 -23 -31 -58 -31c-6 0 -13 1 -20 1c-20 0 -42 0 -62 -4c-7 -3 -7 -77 -7 -84c0 -91 -1 -111 -1 -132c0 -23 1 -46 6 -48c9 -3 38 -3 62 -3h28
c36 0 38 -15 38 -24c0 -19 -14 -22 -28 -22h-62c-28 0 -38 -4 -38 -23c0 -14 1 -30 1 -48c0 -71 -3 -160 -3 -192c0 -10 3 -11 10 -11h13c29 0 38 4 78 4zM143 365c17 2 53 2 79 3c1 110 0 206 1 213v38c0 5 0 11 1 16h-2c-11 0 -23 -6 -28 -24c-17 -54 -32 -151 -51 -246z
" />
    <glyph glyph-name="B" unicode="B" horiz-adv-x="334" 
d="M285 356c27 -31 31 -86 31 -117c0 -140 -8 -236 -127 -237h-126c-18 0 -26 25 -26 38l5 601c12 57 81 60 127 60c98 0 113 -70 113 -152c0 -83 -20 -131 -44 -158c20 -9 35 -21 47 -35zM154 652c-18 0 -45 -6 -46 -16c-1 -78 -3 -155 -4 -235l58 1c59 3 60 99 59 154v14
c0 52 -14 82 -67 82zM257 168c0 20 1 42 1 51c0 85 -10 137 -95 137c-2 0 -3 0 -5 1c-14 0 -37 -1 -54 -2c-1 -78 -2 -160 -2 -246c0 -22 0 -41 1 -54c5 -1 11 -2 17 -2h56c57 0 81 55 81 115z" />
    <glyph glyph-name="C" unicode="C" horiz-adv-x="340" 
d="M311 524c-7 -9 -21 -14 -36 -14c-2 0 -17 2 -20 5c-8 32 0 134 -77 134c-50 0 -77 -86 -77 -141c0 -29 -3 -83 -3 -155c0 -48 3 -104 3 -104c1 -49 1 -199 82 -199c40 0 82 39 82 100c0 12 0 26 -1 41c2 12 17 17 29 17c27 0 29 -18 29 -39c0 -27 -1 -55 -10 -77
c-25 -60 -72 -94 -131 -94c-95 0 -132 66 -139 154c-5 61 -8 181 -8 249c0 56 1 115 15 178c21 98 75 120 136 120c62 0 95 -38 112 -87c12 -36 12 -47 14 -88z" />
    <glyph glyph-name="Cacute" unicode="&#x106;" horiz-adv-x="340" 
d="M150 739c-15 0 -24 5 -24 13c0 11 10 26 18 36c0 0 29 41 48 52c4 2 9 4 13 4c8 0 25 -3 35 -9c2 -2 3 -5 3 -8c0 -4 -2 -8 -5 -13c-19 -25 -74 -75 -88 -75zM311 524c-7 -9 -21 -14 -36 -14c-2 0 -17 2 -20 5c-8 32 0 134 -77 134c-50 0 -77 -86 -77 -141
c0 -29 -3 -83 -3 -155c0 -48 3 -104 3 -104c1 -49 1 -199 82 -199c40 0 82 39 82 100c0 12 0 26 -1 41c2 12 17 17 29 17c27 0 29 -18 29 -39c0 -27 -1 -55 -10 -77c-25 -60 -72 -94 -131 -94c-95 0 -132 66 -139 154c-5 61 -8 181 -8 249c0 56 1 115 15 178
c21 98 75 120 136 120c62 0 95 -38 112 -87c12 -36 12 -47 14 -88z" />
    <glyph glyph-name="Ccaron" unicode="&#x10c;" horiz-adv-x="340" 
d="M185 747c-23 2 -61 41 -93 66c-3 2 -3 7 -3 11s1 8 2 10c5 5 10 9 18 9s15 -5 26 -13c21 -16 47 -37 47 -37s39 35 58 46c4 2 9 4 13 4c11 0 22 -7 27 -18c0 0 -79 -79 -95 -78zM311 524c-7 -9 -21 -14 -36 -14c-2 0 -17 2 -20 5c-8 32 0 134 -77 134
c-50 0 -77 -86 -77 -141c0 -29 -3 -83 -3 -155c0 -48 3 -104 3 -104c1 -49 1 -199 82 -199c40 0 82 39 82 100c0 12 0 26 -1 41c2 12 17 17 29 17c27 0 29 -18 29 -39c0 -27 -1 -55 -10 -77c-25 -60 -72 -94 -131 -94c-95 0 -132 66 -139 154c-5 61 -8 181 -8 249
c0 56 1 115 15 178c21 98 75 120 136 120c62 0 95 -38 112 -87c12 -36 12 -47 14 -88z" />
    <glyph glyph-name="Ccedilla" unicode="&#xc7;" horiz-adv-x="340" 
d="M293 208c27 0 29 -18 29 -39c0 -27 -1 -55 -10 -77c-24 -59 -70 -92 -127 -94c-4 -9 -7 -18 -7 -22c0 -8 7 -6 24 -12c49 -13 59 -37 59 -68c0 -52 -41 -69 -75 -69c-25 0 -56 9 -56 34c0 12 4 17 10 17c4 0 8 -2 13 -4c6 -3 15 -6 23 -6c22 0 45 11 45 32
c0 24 -30 26 -60 38c-19 8 -27 15 -27 33c0 10 4 21 10 31c-68 15 -96 74 -102 150c-5 61 -8 181 -8 249c0 56 1 115 15 178c21 98 75 120 136 120c62 0 95 -38 112 -87c12 -36 12 -47 14 -88c-7 -9 -21 -14 -36 -14c-2 0 -17 2 -20 5c-8 32 0 134 -77 134
c-50 0 -77 -86 -77 -141c0 -29 -3 -83 -3 -155c0 -48 3 -104 3 -104c1 -49 1 -199 82 -199c40 0 82 39 82 100c0 12 0 26 -1 41c2 12 17 17 29 17z" />
    <glyph glyph-name="Cdotaccent" unicode="&#x10a;" horiz-adv-x="340" 
d="M184 762c-20 0 -34 23 -34 43c0 8 4 17 12 23c8 3 19 7 31 7c24 0 27 -16 27 -38s-13 -35 -36 -35zM311 524c-7 -9 -21 -14 -36 -14c-2 0 -17 2 -20 5c-8 32 0 134 -77 134c-50 0 -77 -86 -77 -141c0 -29 -3 -83 -3 -155c0 -48 3 -104 3 -104c1 -49 1 -199 82 -199
c40 0 82 39 82 100c0 12 0 26 -1 41c2 12 17 17 29 17c27 0 29 -18 29 -39c0 -27 -1 -55 -10 -77c-25 -60 -72 -94 -131 -94c-95 0 -132 66 -139 154c-5 61 -8 181 -8 249c0 56 1 115 15 178c21 98 75 120 136 120c62 0 95 -38 112 -87c12 -36 12 -47 14 -88z" />
    <glyph glyph-name="D" unicode="D" horiz-adv-x="373" 
d="M62 688c12 2 25 3 36 3c195 0 254 -246 254 -356c0 -214 -83 -305 -209 -325c-12 -2 -31 -5 -50 -5c-24 0 -43 5 -45 24c-9 80 -9 214 -9 340c0 119 2 212 3 263c0 30 0 51 20 56zM110 638v-14c-1 -86 -1 -154 -1 -218c0 -262 3 -345 3 -359c144 0 180 182 180 287
c0 106 -68 306 -166 306c-5 0 -11 -1 -16 -2z" />
    <glyph glyph-name="Eth" unicode="&#xd0;" horiz-adv-x="373" 
d="M98 691c195 0 254 -246 254 -356c0 -214 -83 -305 -209 -325c-12 -2 -31 -5 -50 -5c-24 0 -43 5 -45 24c-8 69 -9 180 -9 290h-56c-23 0 -24 19 -24 35s11 26 25 26h55c0 114 2 203 3 252c0 30 0 51 20 56c12 2 25 3 36 3zM112 47c144 0 180 182 180 287
c0 106 -68 306 -166 306c-5 0 -11 -1 -16 -2v-14c-1 -86 -1 -154 -1 -218v-26h101c12 0 24 -10 24 -26c-2 -19 -7 -35 -21 -35h-104c1 -194 3 -260 3 -272z" />
    <glyph glyph-name="Dcaron" unicode="&#x10e;" horiz-adv-x="373" 
d="M180 748c-23 2 -61 41 -93 66c-3 2 -3 7 -3 11s1 8 2 10c5 5 10 9 18 9s15 -5 26 -13c21 -16 47 -37 47 -37s39 35 58 46c4 2 9 4 13 4c11 0 22 -7 27 -18c0 0 -79 -79 -95 -78zM62 688c12 2 25 3 36 3c195 0 254 -246 254 -356c0 -214 -83 -305 -209 -325
c-12 -2 -31 -5 -50 -5c-24 0 -43 5 -45 24c-9 80 -9 214 -9 340c0 119 2 212 3 263c0 30 0 51 20 56zM110 638v-14c-1 -86 -1 -154 -1 -218c0 -262 3 -345 3 -359c144 0 180 182 180 287c0 106 -68 306 -166 306c-5 0 -11 -1 -16 -2z" />
    <glyph glyph-name="Dcroat" unicode="&#x110;" horiz-adv-x="373" 
d="M98 691c195 0 254 -246 254 -356c0 -214 -83 -305 -209 -325c-12 -2 -31 -5 -50 -5c-24 0 -43 5 -45 24c-8 69 -9 180 -9 290h-56c-23 0 -24 19 -24 35s11 26 25 26h55c0 114 2 203 3 252c0 30 0 51 20 56c12 2 25 3 36 3zM112 47c144 0 180 182 180 287
c0 106 -68 306 -166 306c-5 0 -11 -1 -16 -2v-14c-1 -86 -1 -154 -1 -218v-26h101c12 0 24 -10 24 -26c-2 -19 -7 -35 -21 -35h-104c1 -194 3 -260 3 -272z" />
    <glyph glyph-name="E" unicode="E" horiz-adv-x="267" 
d="M167 638c-20 0 -42 0 -62 -4c-7 -3 -7 -77 -7 -84c0 -91 -1 -111 -1 -132c0 -23 1 -40 6 -42c13 -4 73 -2 90 -2c36 0 38 -7 38 -29c0 -19 -14 -27 -28 -27h-62c-28 0 -38 -4 -38 -23c2 -71 -2 -197 -2 -237c0 -10 3 -11 10 -11h13c29 0 38 4 78 4c18 0 34 -2 37 -9
c3 -6 4 -12 4 -17c0 -13 -11 -20 -22 -21c-33 -3 -91 -7 -133 -7c-38 0 -49 8 -49 42v54c5 144 2 474 4 488c2 28 -1 79 17 105c5 8 31 10 61 10c21 0 45 -1 65 -1c43 0 59 -1 59 -27c0 -23 -6 -31 -58 -31c-6 0 -13 1 -20 1z" />
    <glyph glyph-name="Eacute" unicode="&#xc9;" horiz-adv-x="267" 
d="M117 740c-15 0 -24 5 -24 13c0 11 10 26 18 36c0 0 29 41 48 52c4 2 9 4 13 4c8 0 25 -3 35 -9c2 -2 3 -5 3 -8c0 -4 -2 -8 -5 -13c-19 -25 -74 -75 -88 -75zM167 638c-20 0 -42 0 -62 -4c-7 -3 -7 -77 -7 -84c0 -91 -1 -111 -1 -132c0 -23 1 -40 6 -42
c13 -4 73 -2 90 -2c36 0 38 -7 38 -29c0 -19 -14 -27 -28 -27h-62c-28 0 -38 -4 -38 -23c2 -71 -2 -197 -2 -237c0 -10 3 -11 10 -11h13c29 0 38 4 78 4c18 0 34 -2 37 -9c3 -6 4 -12 4 -17c0 -13 -11 -20 -22 -21c-33 -3 -91 -7 -133 -7c-38 0 -49 8 -49 42v54
c5 144 2 474 4 488c2 28 -1 79 17 105c5 8 31 10 61 10c21 0 45 -1 65 -1c43 0 59 -1 59 -27c0 -23 -6 -31 -58 -31c-6 0 -13 1 -20 1z" />
    <glyph glyph-name="Ecaron" unicode="&#x11a;" horiz-adv-x="267" 
d="M152 748c-23 2 -61 41 -93 66c-3 2 -3 7 -3 11s1 8 2 10c5 5 10 9 18 9s15 -5 26 -13c21 -16 47 -37 47 -37s39 35 58 46c4 2 9 4 13 4c11 0 22 -7 27 -18c0 0 -79 -79 -95 -78zM167 638c-20 0 -42 0 -62 -4c-7 -3 -7 -77 -7 -84c0 -91 -1 -111 -1 -132
c0 -23 1 -40 6 -42c13 -4 73 -2 90 -2c36 0 38 -7 38 -29c0 -19 -14 -27 -28 -27h-62c-28 0 -38 -4 -38 -23c2 -71 -2 -197 -2 -237c0 -10 3 -11 10 -11h13c29 0 38 4 78 4c18 0 34 -2 37 -9c3 -6 4 -12 4 -17c0 -13 -11 -20 -22 -21c-33 -3 -91 -7 -133 -7
c-38 0 -49 8 -49 42v54c5 144 2 474 4 488c2 28 -1 79 17 105c5 8 31 10 61 10c21 0 45 -1 65 -1c43 0 59 -1 59 -27c0 -23 -6 -31 -58 -31c-6 0 -13 1 -20 1z" />
    <glyph glyph-name="Ecircumflex" unicode="&#xca;" horiz-adv-x="267" 
d="M74 747c-8 0 -13 4 -18 9c-1 2 -2 6 -2 10s0 9 3 11c38 28 75 64 98 66c16 1 95 -78 95 -78c-5 -11 -16 -18 -27 -18c-4 0 -9 2 -13 4c-19 11 -58 46 -58 46s-31 -21 -52 -37c-11 -8 -18 -13 -26 -13zM167 638c-20 0 -42 0 -62 -4c-7 -3 -7 -77 -7 -84
c0 -91 -1 -111 -1 -132c0 -23 1 -40 6 -42c13 -4 73 -2 90 -2c36 0 38 -7 38 -29c0 -19 -14 -27 -28 -27h-62c-28 0 -38 -4 -38 -23c2 -71 -2 -197 -2 -237c0 -10 3 -11 10 -11h13c29 0 38 4 78 4c18 0 34 -2 37 -9c3 -6 4 -12 4 -17c0 -13 -11 -20 -22 -21
c-33 -3 -91 -7 -133 -7c-38 0 -49 8 -49 42v54c5 144 2 474 4 488c2 28 -1 79 17 105c5 8 31 10 61 10c21 0 45 -1 65 -1c43 0 59 -1 59 -27c0 -23 -6 -31 -58 -31c-6 0 -13 1 -20 1z" />
    <glyph glyph-name="Edieresis" unicode="&#xcb;" horiz-adv-x="267" 
d="M101 766c-20 0 -34 20 -34 40c0 8 4 17 12 23c8 3 19 5 31 5c18 0 27 -14 27 -36s-13 -32 -36 -32zM200 766c-20 0 -34 20 -34 40c0 8 4 17 12 23c8 3 19 5 31 5c19 0 27 -14 27 -36s-13 -32 -36 -32zM167 638c-20 0 -42 0 -62 -4c-7 -3 -7 -77 -7 -84
c0 -91 -1 -111 -1 -132c0 -23 1 -40 6 -42c13 -4 73 -2 90 -2c36 0 38 -7 38 -29c0 -19 -14 -27 -28 -27h-62c-28 0 -38 -4 -38 -23c2 -71 -2 -197 -2 -237c0 -10 3 -11 10 -11h13c29 0 38 4 78 4c18 0 34 -2 37 -9c3 -6 4 -12 4 -17c0 -13 -11 -20 -22 -21
c-33 -3 -91 -7 -133 -7c-38 0 -49 8 -49 42v54c5 144 2 474 4 488c2 28 -1 79 17 105c5 8 31 10 61 10c21 0 45 -1 65 -1c43 0 59 -1 59 -27c0 -23 -6 -31 -58 -31c-6 0 -13 1 -20 1z" />
    <glyph glyph-name="Edotaccent" unicode="&#x116;" horiz-adv-x="267" 
d="M151 763c-20 0 -34 23 -34 43c0 8 4 17 12 23c8 3 19 7 31 7c24 0 27 -16 27 -38s-13 -35 -36 -35zM167 638c-20 0 -42 0 -62 -4c-7 -3 -7 -77 -7 -84c0 -91 -1 -111 -1 -132c0 -23 1 -40 6 -42c13 -4 73 -2 90 -2c36 0 38 -7 38 -29c0 -19 -14 -27 -28 -27h-62
c-28 0 -38 -4 -38 -23c2 -71 -2 -197 -2 -237c0 -10 3 -11 10 -11h13c29 0 38 4 78 4c18 0 34 -2 37 -9c3 -6 4 -12 4 -17c0 -13 -11 -20 -22 -21c-33 -3 -91 -7 -133 -7c-38 0 -49 8 -49 42v54c5 144 2 474 4 488c2 28 -1 79 17 105c5 8 31 10 61 10c21 0 45 -1 65 -1
c43 0 59 -1 59 -27c0 -23 -6 -31 -58 -31c-6 0 -13 1 -20 1z" />
    <glyph glyph-name="Egrave" unicode="&#xc8;" horiz-adv-x="267" 
d="M186 740c-14 0 -69 50 -88 75c-3 5 -5 9 -5 13c0 3 1 6 3 8c10 6 27 9 35 9c4 0 9 -2 13 -4c19 -11 48 -52 48 -52c8 -10 18 -25 18 -36c0 -8 -9 -13 -24 -13zM167 638c-20 0 -42 0 -62 -4c-7 -3 -7 -77 -7 -84c0 -91 -1 -111 -1 -132c0 -23 1 -40 6 -42
c13 -4 73 -2 90 -2c36 0 38 -7 38 -29c0 -19 -14 -27 -28 -27h-62c-28 0 -38 -4 -38 -23c2 -71 -2 -197 -2 -237c0 -10 3 -11 10 -11h13c29 0 38 4 78 4c18 0 34 -2 37 -9c3 -6 4 -12 4 -17c0 -13 -11 -20 -22 -21c-33 -3 -91 -7 -133 -7c-38 0 -49 8 -49 42v54
c5 144 2 474 4 488c2 28 -1 79 17 105c5 8 31 10 61 10c21 0 45 -1 65 -1c43 0 59 -1 59 -27c0 -23 -6 -31 -58 -31c-6 0 -13 1 -20 1z" />
    <glyph glyph-name="Emacron" unicode="&#x112;" horiz-adv-x="267" 
d="M67 757c-16 0 -17 15 -17 28c0 10 8 19 18 19h166c10 0 19 -10 19 -20c-2 -15 -5 -27 -16 -27h-170zM167 638c-20 0 -42 0 -62 -4c-7 -3 -7 -77 -7 -84c0 -91 -1 -111 -1 -132c0 -23 1 -40 6 -42c13 -4 73 -2 90 -2c36 0 38 -7 38 -29c0 -19 -14 -27 -28 -27h-62
c-28 0 -38 -4 -38 -23c2 -71 -2 -197 -2 -237c0 -10 3 -11 10 -11h13c29 0 38 4 78 4c18 0 34 -2 37 -9c3 -6 4 -12 4 -17c0 -13 -11 -20 -22 -21c-33 -3 -91 -7 -133 -7c-38 0 -49 8 -49 42v54c5 144 2 474 4 488c2 28 -1 79 17 105c5 8 31 10 61 10c21 0 45 -1 65 -1
c43 0 59 -1 59 -27c0 -23 -6 -31 -58 -31c-6 0 -13 1 -20 1z" />
    <glyph glyph-name="Eogonek" unicode="&#x118;" horiz-adv-x="267" 
d="M202 51c18 0 34 -2 37 -9c3 -6 4 -12 4 -17c0 -13 -11 -20 -22 -21l-37 -3c-3 -6 -6 -12 -9 -16l-30 -48c-9 -15 -12 -25 -12 -40c0 -17 7 -30 22 -30c33 0 33 24 39 50c2 10 9 15 16 15c12 0 20 -6 20 -20c0 -18 -3 -42 -14 -56s-31 -22 -67 -22c-34 0 -64 20 -64 59
c0 37 20 78 47 105c-16 -1 -31 -1 -44 -1c-38 0 -49 8 -49 42v54c5 144 2 474 4 488c2 28 -1 79 17 105c5 8 31 10 61 10c21 0 45 -1 65 -1c43 0 59 -1 59 -27c0 -23 -6 -31 -58 -31c-6 0 -13 1 -20 1c-20 0 -42 0 -62 -4c-7 -3 -7 -77 -7 -84c0 -91 -1 -111 -1 -132
c0 -23 1 -40 6 -42c13 -4 73 -2 90 -2c36 0 38 -7 38 -29c0 -19 -14 -27 -28 -27h-62c-28 0 -38 -4 -38 -23c2 -71 -2 -197 -2 -237c0 -10 3 -11 10 -11h13c29 0 38 4 78 4z" />
    <glyph glyph-name="F" unicode="F" horiz-adv-x="292" 
d="M287 693c0 10 -56 15 -113 15s-108 -6 -114 -11c-19 -18 -22 -45 -22 -71c1 -10 4 -148 4 -243c0 -108 -3 -217 -3 -345c0 -25 3 -38 27 -38c29 0 34 12 34 43c0 64 0 243 3 293h38c38 0 91 0 93 18c0 1 1 10 1 23c0 23 -36 23 -61 23c-29 0 -48 0 -68 2
c0 68 0 161 -6 243c12 2 24 3 38 3c36 0 76 -2 109 -2c24 0 38 3 40 35v12z" />
    <glyph glyph-name="G" unicode="G" horiz-adv-x="399" 
d="M396 330c1 -2 1 -5 1 -8c0 -7 -1 -17 -5 -24s-14 -12 -24 -12c-14 -2 -30 -3 -46 -4c1 -101 19 -283 -140 -283c-97 0 -144 79 -144 169c0 35 -8 288 -6 329c0 11 1 79 18 124s69 88 132 88c31 0 72 -18 82 -28c43 -44 45 -90 48 -152c-9 -13 -19 -14 -38 -14
c-24 0 -19 34 -22 48c-6 38 -8 103 -74 103c-61 0 -76 -76 -80 -124c-1 -11 -1 -42 -1 -84c0 -84 4 -209 4 -288c0 -49 29 -123 79 -123c58 0 88 68 88 133c0 43 -1 78 -1 100c-18 0 -37 2 -55 4c-12 4 -18 12 -18 29c0 2 1 8 5 11c6 5 21 9 47 9c42 0 64 2 103 2
c16 0 32 -1 47 -5z" />
    <glyph glyph-name="Gbreve" unicode="&#x11e;" horiz-adv-x="399" 
d="M182 757c-62 0 -92 39 -92 75c0 4 1 8 2 10c5 5 11 7 19 6c9 -1 14 -6 17 -12c12 -22 26 -42 52 -42c23 0 46 27 56 51c2 4 9 4 13 4c11 0 20 -5 25 -16c0 0 -21 -76 -92 -76zM396 330c1 -2 1 -5 1 -8c0 -7 -1 -17 -5 -24s-14 -12 -24 -12c-14 -2 -30 -3 -46 -4
c1 -101 19 -283 -140 -283c-97 0 -144 79 -144 169c0 35 -8 288 -6 329c0 11 1 79 18 124s69 88 132 88c31 0 72 -18 82 -28c43 -44 45 -90 48 -152c-9 -13 -19 -14 -38 -14c-24 0 -19 34 -22 48c-6 38 -8 103 -74 103c-61 0 -76 -76 -80 -124c-1 -11 -1 -42 -1 -84
c0 -84 4 -209 4 -288c0 -49 29 -123 79 -123c58 0 88 68 88 133c0 43 -1 78 -1 100c-18 0 -37 2 -55 4c-12 4 -18 12 -18 29c0 2 1 8 5 11c6 5 21 9 47 9c42 0 64 2 103 2c16 0 32 -1 47 -5z" />
    <glyph glyph-name="Gcommaaccent" unicode="&#x122;" horiz-adv-x="399" 
d="M396 330c1 -2 1 -5 1 -8c0 -7 -1 -17 -5 -24s-14 -12 -24 -12c-14 -2 -30 -3 -46 -4c1 -101 19 -283 -140 -283c-97 0 -144 79 -144 169c0 35 -8 288 -6 329c0 11 1 79 18 124s69 88 132 88c31 0 72 -18 82 -28c43 -44 45 -90 48 -152c-9 -13 -19 -14 -38 -14
c-24 0 -19 34 -22 48c-6 38 -8 103 -74 103c-61 0 -76 -76 -80 -124c-1 -11 -1 -42 -1 -84c0 -84 4 -209 4 -288c0 -49 29 -123 79 -123c58 0 88 68 88 133c0 43 -1 78 -1 100c-18 0 -37 2 -55 4c-12 4 -18 12 -18 29c0 2 1 8 5 11c6 5 21 9 47 9c42 0 64 2 103 2
c16 0 32 -1 47 -5zM208 -44c27 0 32 -20 32 -45c0 -22 -25 -93 -40 -110c-5 -6 -11 -9 -15 -9c-13 0 -21 14 -20 19c0 6 14 53 14 68c-13 8 -19 25 -19 42c0 10 5 20 14 26c8 4 21 9 34 9z" />
    <glyph glyph-name="Gdotaccent" unicode="&#x120;" horiz-adv-x="399" 
d="M181 772c-20 0 -34 23 -34 43c0 8 4 17 12 23c8 3 19 7 31 7c24 0 27 -16 27 -38s-13 -35 -36 -35zM396 330c1 -2 1 -5 1 -8c0 -7 -1 -17 -5 -24s-14 -12 -24 -12c-14 -2 -30 -3 -46 -4c1 -101 19 -283 -140 -283c-97 0 -144 79 -144 169c0 35 -8 288 -6 329
c0 11 1 79 18 124s69 88 132 88c31 0 72 -18 82 -28c43 -44 45 -90 48 -152c-9 -13 -19 -14 -38 -14c-24 0 -19 34 -22 48c-6 38 -8 103 -74 103c-61 0 -76 -76 -80 -124c-1 -11 -1 -42 -1 -84c0 -84 4 -209 4 -288c0 -49 29 -123 79 -123c58 0 88 68 88 133
c0 43 -1 78 -1 100c-18 0 -37 2 -55 4c-12 4 -18 12 -18 29c0 2 1 8 5 11c6 5 21 9 47 9c42 0 64 2 103 2c16 0 32 -1 47 -5z" />
    <glyph glyph-name="H" unicode="H" horiz-adv-x="316" 
d="M300 686c1 -38 1 -81 1 -128c0 -220 -5 -504 -6 -540c-11 -9 -28 -13 -42 -13c-9 0 -20 2 -20 9l1 267l-133 -2v-67v-97c0 -48 0 -104 -24 -110h-14c-15 0 -24 8 -24 27c0 119 1 213 1 289c0 296 -2 331 0 355c1 18 17 18 32 18c13 0 32 -7 32 -17
c-2 -156 -3 -266 -3 -345c15 1 36 1 58 1c28 0 56 0 76 -1l5 352c0 9 12 18 27 18c11 0 21 -4 33 -16z" />
    <glyph glyph-name="Hbar" unicode="&#x126;" horiz-adv-x="316" 
d="M304 541c15 0 29 -9 29 -23c-2 -17 -9 -31 -25 -31h-7c-1 -206 -5 -437 -6 -469c-11 -9 -28 -13 -42 -13c-9 0 -20 2 -20 9l1 267l-133 -2v-67v-97c0 -48 0 -104 -24 -110h-14c-15 0 -24 8 -24 27c0 119 1 213 1 289v166h-3c-26 0 -28 17 -28 31s13 23 29 23h2
c-1 98 -1 119 0 135c1 18 17 18 32 18c13 0 32 -7 32 -17c-1 -50 -1 -95 -1 -136h135l2 143c0 9 12 18 27 18c11 0 21 -4 33 -16c1 -38 1 -81 1 -128v-17h3zM235 332l2 155h-135c0 -62 -1 -113 -1 -155c15 1 36 1 58 1c28 0 56 0 76 -1z" />
    <glyph glyph-name="I" unicode="I" horiz-adv-x="248" 
d="M214 58c10 -4 17 -9 19 -19c0 -16 -2 -33 -12 -35c-17 -4 -170 2 -185 2c-6 0 -13 24 -13 29c0 8 9 17 15 21c3 2 28 2 59 2v581c-28 -1 -51 0 -57 1c-10 2 -12 20 -12 36c2 10 9 17 19 21c35 0 169 0 176 -4c6 -4 15 -13 15 -21c0 -5 -7 -30 -13 -30l-62 -2
c1 -36 1 -104 1 -128c0 -164 -6 -328 -6 -402v-52h56z" />
    <glyph glyph-name="Iacute" unicode="&#xcd;" horiz-adv-x="248" 
d="M101 740c-15 0 -24 5 -24 13c0 11 10 26 18 36c0 0 29 41 48 52c4 2 9 4 13 4c8 0 25 -3 35 -9c2 -2 3 -5 3 -8c0 -4 -2 -8 -5 -13c-19 -25 -74 -75 -88 -75zM214 58c10 -4 17 -9 19 -19c0 -16 -2 -33 -12 -35c-17 -4 -170 2 -185 2c-6 0 -13 24 -13 29c0 8 9 17 15 21
c3 2 28 2 59 2v581c-28 -1 -51 0 -57 1c-10 2 -12 20 -12 36c2 10 9 17 19 21c35 0 169 0 176 -4c6 -4 15 -13 15 -21c0 -5 -7 -30 -13 -30l-62 -2c1 -36 1 -104 1 -128c0 -164 -6 -328 -6 -402v-52h56z" />
    <glyph glyph-name="Icircumflex" unicode="&#xce;" horiz-adv-x="248" 
d="M58 747c-8 0 -13 4 -18 9c-1 2 -2 6 -2 10s0 9 3 11c38 28 75 64 98 66c16 1 95 -78 95 -78c-5 -11 -16 -18 -27 -18c-4 0 -9 2 -13 4c-19 11 -58 46 -58 46s-31 -21 -52 -37c-11 -8 -18 -13 -26 -13zM214 58c10 -4 17 -9 19 -19c0 -16 -2 -33 -12 -35
c-17 -4 -170 2 -185 2c-6 0 -13 24 -13 29c0 8 9 17 15 21c3 2 28 2 59 2v581c-28 -1 -51 0 -57 1c-10 2 -12 20 -12 36c2 10 9 17 19 21c35 0 169 0 176 -4c6 -4 15 -13 15 -21c0 -5 -7 -30 -13 -30l-62 -2c1 -36 1 -104 1 -128c0 -164 -6 -328 -6 -402v-52h56z" />
    <glyph glyph-name="Idieresis" unicode="&#xcf;" horiz-adv-x="248" 
d="M85 766c-20 0 -34 20 -34 40c0 8 4 17 12 23c8 3 19 5 31 5c18 0 27 -14 27 -36s-13 -32 -36 -32zM184 766c-20 0 -34 20 -34 40c0 8 4 17 12 23c8 3 19 5 31 5c19 0 27 -14 27 -36s-13 -32 -36 -32zM214 58c10 -4 17 -9 19 -19c0 -16 -2 -33 -12 -35
c-17 -4 -170 2 -185 2c-6 0 -13 24 -13 29c0 8 9 17 15 21c3 2 28 2 59 2v581c-28 -1 -51 0 -57 1c-10 2 -12 20 -12 36c2 10 9 17 19 21c35 0 169 0 176 -4c6 -4 15 -13 15 -21c0 -5 -7 -30 -13 -30l-62 -2c1 -36 1 -104 1 -128c0 -164 -6 -328 -6 -402v-52h56z" />
    <glyph glyph-name="Idotaccent" unicode="&#x130;" horiz-adv-x="248" 
d="M135 763c-20 0 -34 23 -34 43c0 8 4 17 12 23c8 3 19 7 31 7c24 0 27 -16 27 -38s-13 -35 -36 -35zM214 58c10 -4 17 -9 19 -19c0 -16 -2 -33 -12 -35c-17 -4 -170 2 -185 2c-6 0 -13 24 -13 29c0 8 9 17 15 21c3 2 28 2 59 2v581c-28 -1 -51 0 -57 1
c-10 2 -12 20 -12 36c2 10 9 17 19 21c35 0 169 0 176 -4c6 -4 15 -13 15 -21c0 -5 -7 -30 -13 -30l-62 -2c1 -36 1 -104 1 -128c0 -164 -6 -328 -6 -402v-52h56z" />
    <glyph glyph-name="Igrave" unicode="&#xcc;" horiz-adv-x="248" 
d="M170 740c-14 0 -69 50 -88 75c-3 5 -5 9 -5 13c0 3 1 6 3 8c10 6 27 9 35 9c4 0 9 -2 13 -4c19 -11 48 -52 48 -52c8 -10 18 -25 18 -36c0 -8 -9 -13 -24 -13zM214 58c10 -4 17 -9 19 -19c0 -16 -2 -33 -12 -35c-17 -4 -170 2 -185 2c-6 0 -13 24 -13 29c0 8 9 17 15 21
c3 2 28 2 59 2v581c-28 -1 -51 0 -57 1c-10 2 -12 20 -12 36c2 10 9 17 19 21c35 0 169 0 176 -4c6 -4 15 -13 15 -21c0 -5 -7 -30 -13 -30l-62 -2c1 -36 1 -104 1 -128c0 -164 -6 -328 -6 -402v-52h56z" />
    <glyph glyph-name="Imacron" unicode="&#x12a;" horiz-adv-x="248" 
d="M51 757c-16 0 -17 15 -17 28c0 10 8 19 18 19h166c10 0 19 -10 19 -20c-2 -15 -5 -27 -16 -27h-170zM214 58c10 -4 17 -9 19 -19c0 -16 -2 -33 -12 -35c-17 -4 -170 2 -185 2c-6 0 -13 24 -13 29c0 8 9 17 15 21c3 2 28 2 59 2v581c-28 -1 -51 0 -57 1
c-10 2 -12 20 -12 36c2 10 9 17 19 21c35 0 169 0 176 -4c6 -4 15 -13 15 -21c0 -5 -7 -30 -13 -30l-62 -2c1 -36 1 -104 1 -128c0 -164 -6 -328 -6 -402v-52h56z" />
    <glyph glyph-name="Iogonek" unicode="&#x12e;" horiz-adv-x="248" 
d="M214 58c10 -4 17 -9 19 -19c0 -16 -2 -33 -12 -35c-7 -2 -35 -2 -68 -1c-1 -3 -3 -5 -4 -7l-30 -48c-9 -15 -12 -25 -12 -40c0 -17 7 -30 22 -30c33 0 33 24 39 50c2 10 9 15 16 15c12 0 20 -6 20 -20c0 -18 -3 -42 -14 -56s-31 -22 -67 -22c-34 0 -64 20 -64 59
c0 35 18 73 42 100l-65 2c-6 0 -13 24 -13 29c0 8 9 17 15 21c3 2 28 2 59 2v581c-28 -1 -51 0 -57 1c-10 2 -12 20 -12 36c2 10 9 17 19 21c35 0 169 0 176 -4c6 -4 15 -13 15 -21c0 -5 -7 -30 -13 -30l-62 -2c1 -36 1 -104 1 -128c0 -164 -6 -328 -6 -402v-52h56z" />
    <glyph glyph-name="J" unicode="J" horiz-adv-x="304" 
d="M220 694c-11 -12 -11 -35 -11 -50c0 -167 -3 -334 -3 -519c0 -47 -9 -84 -52 -84c-37 0 -52 36 -52 73c0 18 2 68 2 113c0 40 -24 53 -35 53c-17 0 -32 -10 -32 -21v-74c0 -76 10 -189 109 -189c98 0 124 81 124 163c7 130 8 338 8 506c0 17 -1 35 -19 36
c-15 1 -33 -3 -39 -7z" />
    <glyph glyph-name="K" unicode="K" horiz-adv-x="304" 
d="M104 700c-14 2 -23 4 -30 4c-11 0 -16 -4 -24 -12c-7 -7 -4 -47 -4 -58c0 -89 -7 -469 -12 -607c0 -15 1 -27 4 -28c8 -2 18 -5 25 -5c18 0 30 2 30 39c0 40 2 149 5 214c0 10 2 17 6 19c33 -56 65 -113 91 -177l23 -53c10 -24 19 -43 35 -42c9 1 35 -1 39 14
c4 16 -8 43 -12 50c-44 88 -55 127 -107 220c-11 19 -24 40 -32 61c32 67 106 263 125 302c4 7 10 32 10 43c0 12 -11 12 -20 14c-10 1 -20 0 -24 -2c-7 -3 -20 -29 -25 -45c-25 -77 -66 -187 -101 -283c-7 72 11 240 -2 332z" />
    <glyph glyph-name="Kcommaaccent" unicode="&#x136;" horiz-adv-x="304" 
d="M104 700c-14 2 -23 4 -30 4c-11 0 -16 -4 -24 -12c-7 -7 -4 -47 -4 -58c0 -89 -7 -469 -12 -607c0 -15 1 -27 4 -28c8 -2 18 -5 25 -5c18 0 30 2 30 39c0 40 2 149 5 214c0 10 2 17 6 19c33 -56 65 -113 91 -177l23 -53c10 -24 19 -43 35 -42c9 1 35 -1 39 14
c4 16 -8 43 -12 50c-44 88 -55 127 -107 220c-11 19 -24 40 -32 61c32 67 106 263 125 302c4 7 10 32 10 43c0 12 -11 12 -20 14c-10 1 -20 0 -24 -2c-7 -3 -20 -29 -25 -45c-25 -77 -66 -187 -101 -283c-7 72 11 240 -2 332zM126 -53c-9 -6 -14 -16 -14 -26
c0 -17 6 -34 19 -42c0 -15 -14 -62 -14 -68c-1 -5 7 -19 20 -19c4 0 10 3 15 9c15 17 40 88 40 110c0 25 -5 45 -32 45c-13 0 -26 -5 -34 -9z" />
    <glyph glyph-name="L" unicode="L" horiz-adv-x="253" 
d="M103 79c4 101 4 529 4 531c0 30 2 77 -15 83c-1 0 -10 10 -25 10c-10 0 -20 -5 -28 -18c6 -95 6 -530 2 -613c1 -15 0 -42 8 -52c18 -12 53 -13 102 -13c22 0 70 -3 85 6c11 7 13 16 13 29c0 9 -4 21 -6 22c-16 4 -29 4 -53 4h-50c-22 0 -37 1 -37 11z" />
    <glyph glyph-name="Lacute" unicode="&#x139;" horiz-adv-x="253" 
d="M80 740c-15 0 -24 5 -24 13c0 11 10 26 18 36c0 0 29 41 48 52c4 2 9 4 13 4c8 0 25 -3 35 -9c2 -2 3 -5 3 -8c0 -4 -2 -8 -5 -13c-19 -25 -74 -75 -88 -75zM103 79c4 101 4 529 4 531c0 30 2 77 -15 83c-1 0 -10 10 -25 10c-10 0 -20 -5 -28 -18c6 -95 6 -530 2 -613
c1 -15 0 -42 8 -52c18 -12 53 -13 102 -13c22 0 70 -3 85 6c11 7 13 16 13 29c0 9 -4 21 -6 22c-16 4 -29 4 -53 4h-50c-22 0 -37 1 -37 11z" />
    <glyph glyph-name="Lcaron" unicode="&#x13d;" horiz-adv-x="253" 
d="M103 79c4 101 4 529 4 531c0 30 2 77 -15 83c-1 0 -10 10 -25 10c-10 0 -20 -5 -28 -18c6 -95 6 -530 2 -613c1 -15 0 -42 8 -52c18 -12 53 -13 102 -13c22 0 70 -3 85 6c11 7 13 16 13 29c0 9 -4 21 -6 22c-16 4 -29 4 -53 4h-50c-22 0 -37 1 -37 11zM169 691
c-10 -6 -15 -17 -15 -28c0 -19 6 -38 21 -47c0 -16 -16 -68 -16 -74c-1 -6 8 -21 22 -21c5 0 12 3 17 9c16 19 44 98 44 122c0 27 -5 49 -35 49c-15 0 -29 -5 -38 -10z" />
    <glyph glyph-name="Lcommaaccent" unicode="&#x13b;" horiz-adv-x="253" 
d="M103 79c4 101 4 529 4 531c0 30 2 77 -15 83c-1 0 -10 10 -25 10c-10 0 -20 -5 -28 -18c6 -95 6 -530 2 -613c1 -15 0 -42 8 -52c18 -12 53 -13 102 -13c22 0 70 -3 85 6c11 7 13 16 13 29c0 9 -4 21 -6 22c-16 4 -29 4 -53 4h-50c-22 0 -37 1 -37 11zM101 -53
c-9 -6 -14 -16 -14 -26c0 -17 6 -34 19 -42c0 -15 -14 -62 -14 -68c-1 -5 7 -19 20 -19c4 0 10 3 15 9c15 17 40 88 40 110c0 25 -5 45 -32 45c-13 0 -26 -5 -34 -9z" />
    <glyph glyph-name="Lslash" unicode="&#x141;" horiz-adv-x="253" 
d="M243 64c2 -1 6 -13 6 -22c0 -13 -2 -22 -13 -29c-15 -9 -63 -6 -85 -6c-49 0 -84 1 -102 13c-8 10 -7 37 -8 52c1 28 2 98 3 181l-38 -31c-19 -17 -44 -4 -44 24c0 8 3 15 9 20l73 61c0 145 -2 305 -5 358c8 13 18 18 28 18c15 0 24 -10 25 -10c17 -6 15 -53 15 -83
c0 -1 0 -110 -1 -231l94 76c19 17 45 3 45 -24c0 -8 -4 -15 -10 -20l-129 -106c0 -96 -1 -186 -3 -226c0 -10 15 -11 37 -11h50c24 0 37 0 53 -4z" />
    <glyph glyph-name="M" unicode="M" horiz-adv-x="539" 
d="M433 684c17 6 21 10 40 10c20 0 28 -16 28 -41c3 -194 7 -386 7 -584c0 -37 0 -70 -51 -70c-9 0 -16 4 -17 17c0 540 3 564 2 576c-46 -219 -63 -255 -108 -485c-10 -28 -37 -34 -61 -34c-20 0 -33 15 -39 34c-32 97 -85 287 -117 410c-7 26 -13 46 -13 55
c0 -162 4 -381 4 -546c-3 -19 -24 -23 -40 -23c-21 0 -24 26 -24 43c-2 30 -2 494 -3 624c8 20 29 26 49 26c19 0 31 -5 38 -9c98 -360 153 -558 153 -558s97 442 113 492c8 25 11 50 39 63z" />
    <glyph glyph-name="N" unicode="N" horiz-adv-x="378" 
d="M42 657c-1 -31 -1 -158 -1 -296v-112c0 -128 -3 -245 18 -245c20 0 32 3 50 20c0 0 -2 146 -2 276c0 35 -7 159 -6 188l149 -456c4 -10 15 -14 28 -14c27 0 62 18 62 35c3 11 4 48 4 107c0 167 -6 461 -6 527c-4 11 -6 13 -8 16c-45 -6 -54 -23 -54 -43v-91
c0 -78 5 -207 5 -310c0 -41 9 -131 6 -159c-49 135 -119 367 -165 523c-6 21 -10 54 -29 65c-30 0 -49 -14 -51 -31z" />
    <glyph glyph-name="Nacute" unicode="&#x143;" horiz-adv-x="378" 
d="M161 738c-15 0 -24 5 -24 13c0 11 10 26 18 36c0 0 29 41 48 52c4 2 9 4 13 4c8 0 25 -3 35 -9c2 -2 3 -5 3 -8c0 -4 -2 -8 -5 -13c-19 -25 -74 -75 -88 -75zM42 657c-1 -31 -1 -158 -1 -296v-112c0 -128 -3 -245 18 -245c20 0 32 3 50 20c0 0 -2 146 -2 276
c0 35 -7 159 -6 188l149 -456c4 -10 15 -14 28 -14c27 0 62 18 62 35c3 11 4 48 4 107c0 167 -6 461 -6 527c-4 11 -6 13 -8 16c-45 -6 -54 -23 -54 -43v-91c0 -78 5 -207 5 -310c0 -41 9 -131 6 -159c-49 135 -119 367 -165 523c-6 21 -10 54 -29 65c-30 0 -49 -14 -51 -31
z" />
    <glyph glyph-name="Ncaron" unicode="&#x147;" horiz-adv-x="378" 
d="M196 746c-23 2 -61 41 -93 66c-3 2 -3 7 -3 11s1 8 2 10c5 5 10 9 18 9s15 -5 26 -13c21 -16 47 -37 47 -37s39 35 58 46c4 2 9 4 13 4c11 0 22 -7 27 -18c0 0 -79 -79 -95 -78zM42 657c-1 -31 -1 -158 -1 -296v-112c0 -128 -3 -245 18 -245c20 0 32 3 50 20
c0 0 -2 146 -2 276c0 35 -7 159 -6 188l149 -456c4 -10 15 -14 28 -14c27 0 62 18 62 35c3 11 4 48 4 107c0 167 -6 461 -6 527c-4 11 -6 13 -8 16c-45 -6 -54 -23 -54 -43v-91c0 -78 5 -207 5 -310c0 -41 9 -131 6 -159c-49 135 -119 367 -165 523c-6 21 -10 54 -29 65
c-30 0 -49 -14 -51 -31z" />
    <glyph glyph-name="Ncommaaccent" unicode="&#x145;" horiz-adv-x="378" 
d="M42 657c-1 -31 -1 -158 -1 -296v-112c0 -128 -3 -245 18 -245c20 0 32 3 50 20c0 0 -2 146 -2 276c0 35 -7 159 -6 188l149 -456c4 -10 15 -14 28 -14c27 0 62 18 62 35c3 11 4 48 4 107c0 167 -6 461 -6 527c-4 11 -6 13 -8 16c-45 -6 -54 -23 -54 -43v-91
c0 -78 5 -207 5 -310c0 -41 9 -131 6 -159c-49 135 -119 367 -165 523c-6 21 -10 54 -29 65c-30 0 -49 -14 -51 -31zM163 -53c-9 -6 -14 -16 -14 -26c0 -17 6 -34 19 -42c0 -15 -14 -62 -14 -68c-1 -5 7 -19 20 -19c4 0 10 3 15 9c15 17 40 88 40 110c0 25 -5 45 -32 45
c-13 0 -26 -5 -34 -9z" />
    <glyph glyph-name="Eng" unicode="&#x14a;" horiz-adv-x="375" 
d="M216 -89c-21 0 -34 6 -50 19c-2 2 -4 2 -6 2c-10 0 -21 -11 -21 -23c0 -4 0 -23 4 -28c17 -13 39 -21 65 -21c47 0 79 18 99 46c22 31 34 65 34 254c0 167 -5 461 -5 527c-4 11 -6 13 -8 16c-45 -6 -51 -23 -51 -43v-91c0 -126 10 -305 10 -446l-1 -20
c-49 135 -120 362 -166 518c-6 21 -10 54 -29 65c-30 0 -47 -12 -49 -29c-1 -31 -1 -158 -1 -296v-112c0 -128 2 -249 23 -249c20 0 25 13 43 20c0 0 -5 150 -5 280c0 35 -5 164 -4 193l169 -488v-24c0 -47 -12 -70 -51 -70z" />
    <glyph glyph-name="Ntilde" unicode="&#xd1;" horiz-adv-x="378" 
d="M236 755c-39 0 -47 31 -76 31c-27 0 -31 -30 -51 -30c-8 0 -17 6 -17 21c0 16 25 59 67 59c36 0 48 -29 80 -29c24 0 32 24 50 27c0 0 11 -6 11 -17c0 -32 -35 -62 -64 -62zM42 657c-1 -31 -1 -158 -1 -296v-112c0 -128 -3 -245 18 -245c20 0 32 3 50 20
c0 0 -2 146 -2 276c0 35 -7 159 -6 188l149 -456c4 -10 15 -14 28 -14c27 0 62 18 62 35c3 11 4 48 4 107c0 167 -6 461 -6 527c-4 11 -6 13 -8 16c-45 -6 -54 -23 -54 -43v-91c0 -78 5 -207 5 -310c0 -41 9 -131 6 -159c-49 135 -119 367 -165 523c-6 21 -10 54 -29 65
c-30 0 -49 -14 -51 -31z" />
    <glyph glyph-name="O" unicode="O" horiz-adv-x="340" 
d="M315 535c0 -54 3 -106 3 -154c0 -224 -29 -383 -135 -383c-58 0 -109 18 -132 129c-11 54 -18 133 -18 207c0 49 1 96 1 132c0 84 26 242 157 242c73 0 120 -93 124 -173zM177 47c58 0 76 167 76 319c0 73 -2 163 -9 207c-4 30 -30 82 -65 82c-43 0 -82 -49 -82 -306
c0 -88 8 -302 80 -302z" />
    <glyph glyph-name="Oacute" unicode="&#xd3;" horiz-adv-x="340" 
d="M148 739c-15 0 -24 5 -24 13c0 11 10 26 18 36c0 0 29 41 48 52c4 2 9 4 13 4c8 0 25 -3 35 -9c2 -2 3 -5 3 -8c0 -4 -2 -8 -5 -13c-19 -25 -74 -75 -88 -75zM315 535c0 -54 3 -106 3 -154c0 -224 -29 -383 -135 -383c-58 0 -109 18 -132 129c-11 54 -18 133 -18 207
c0 49 1 96 1 132c0 84 26 242 157 242c73 0 120 -93 124 -173zM177 47c58 0 76 167 76 319c0 73 -2 163 -9 207c-4 30 -30 82 -65 82c-43 0 -82 -49 -82 -306c0 -88 8 -302 80 -302z" />
    <glyph glyph-name="Ocircumflex" unicode="&#xd4;" horiz-adv-x="340" 
d="M105 746c-8 0 -13 4 -18 9c-1 2 -2 6 -2 10s0 9 3 11c38 28 75 64 98 66c16 1 95 -78 95 -78c-5 -11 -16 -18 -27 -18c-4 0 -9 2 -13 4c-19 11 -58 46 -58 46s-31 -21 -52 -37c-11 -8 -18 -13 -26 -13zM315 535c0 -54 3 -106 3 -154c0 -224 -29 -383 -135 -383
c-58 0 -109 18 -132 129c-11 54 -18 133 -18 207c0 49 1 96 1 132c0 84 26 242 157 242c73 0 120 -93 124 -173zM177 47c58 0 76 167 76 319c0 73 -2 163 -9 207c-4 30 -30 82 -65 82c-43 0 -82 -49 -82 -306c0 -88 8 -302 80 -302z" />
    <glyph glyph-name="Odieresis" unicode="&#xd6;" horiz-adv-x="340" 
d="M132 765c-20 0 -34 20 -34 40c0 8 4 17 12 23c8 3 19 5 31 5c18 0 27 -14 27 -36s-13 -32 -36 -32zM231 765c-20 0 -34 20 -34 40c0 8 4 17 12 23c8 3 19 5 31 5c19 0 27 -14 27 -36s-13 -32 -36 -32zM315 535c0 -54 3 -106 3 -154c0 -224 -29 -383 -135 -383
c-58 0 -109 18 -132 129c-11 54 -18 133 -18 207c0 49 1 96 1 132c0 84 26 242 157 242c73 0 120 -93 124 -173zM177 47c58 0 76 167 76 319c0 73 -2 163 -9 207c-4 30 -30 82 -65 82c-43 0 -82 -49 -82 -306c0 -88 8 -302 80 -302z" />
    <glyph glyph-name="Ograve" unicode="&#xd2;" horiz-adv-x="340" 
d="M217 739c-14 0 -69 50 -88 75c-3 5 -5 9 -5 13c0 3 1 6 3 8c10 6 27 9 35 9c4 0 9 -2 13 -4c19 -11 48 -52 48 -52c8 -10 18 -25 18 -36c0 -8 -9 -13 -24 -13zM315 535c0 -54 3 -106 3 -154c0 -224 -29 -383 -135 -383c-58 0 -109 18 -132 129c-11 54 -18 133 -18 207
c0 49 1 96 1 132c0 84 26 242 157 242c73 0 120 -93 124 -173zM177 47c58 0 76 167 76 319c0 73 -2 163 -9 207c-4 30 -30 82 -65 82c-43 0 -82 -49 -82 -306c0 -88 8 -302 80 -302z" />
    <glyph glyph-name="Ohungarumlaut" unicode="&#x150;" horiz-adv-x="340" 
d="M93 739c-15 0 -24 5 -24 13c0 11 10 26 18 36c0 0 29 41 48 52c4 2 9 4 13 4c8 0 25 -3 35 -9c2 -2 3 -5 3 -8c0 -4 -2 -8 -5 -13c-19 -25 -74 -75 -88 -75zM204 739c-15 0 -24 5 -24 13c0 11 10 26 18 36c0 0 29 41 48 52c4 2 9 4 13 4c8 0 25 -3 35 -9c2 -2 3 -5 3 -8
c0 -4 -2 -8 -5 -13c-19 -25 -74 -75 -88 -75zM315 535c0 -54 3 -106 3 -154c0 -224 -29 -383 -135 -383c-58 0 -109 18 -132 129c-11 54 -18 133 -18 207c0 49 1 96 1 132c0 84 26 242 157 242c73 0 120 -93 124 -173zM177 47c58 0 76 167 76 319c0 73 -2 163 -9 207
c-4 30 -30 82 -65 82c-43 0 -82 -49 -82 -306c0 -88 8 -302 80 -302z" />
    <glyph glyph-name="Omacron" unicode="&#x14c;" horiz-adv-x="340" 
d="M98 756c-16 0 -17 15 -17 28c0 10 8 19 18 19h166c10 0 19 -10 19 -20c-2 -15 -5 -27 -16 -27h-170zM315 535c0 -54 3 -106 3 -154c0 -224 -29 -383 -135 -383c-58 0 -109 18 -132 129c-11 54 -18 133 -18 207c0 49 1 96 1 132c0 84 26 242 157 242
c73 0 120 -93 124 -173zM177 47c58 0 76 167 76 319c0 73 -2 163 -9 207c-4 30 -30 82 -65 82c-43 0 -82 -49 -82 -306c0 -88 8 -302 80 -302z" />
    <glyph glyph-name="Oslash" unicode="&#xd8;" horiz-adv-x="340" 
d="M313 716c16 0 35 -2 35 -19c0 -2 -1 -3 -1 -5c-1 -1 -18 -41 -42 -100c6 -19 9 -38 10 -57c0 -54 3 -106 3 -154c0 -224 -29 -383 -135 -383c-37 0 -72 7 -98 43c-7 -19 -12 -29 -12 -30c-8 -14 -14 -24 -36 -24c-15 0 -29 0 -29 19c0 8 7 30 12 39l32 79c-1 1 -1 2 -1 3
c-11 54 -18 133 -18 207c0 49 1 96 1 132c0 84 26 242 157 242c31 0 58 -17 78 -43l13 33c6 17 20 18 31 18zM97 349c0 -26 1 -64 4 -103l138 346c-9 29 -32 63 -60 63c-43 0 -82 -49 -82 -306zM253 366c0 29 0 62 -1 93l-133 -335c12 -45 30 -77 58 -77c58 0 76 167 76 319
z" />
    <glyph glyph-name="Otilde" unicode="&#xd5;" horiz-adv-x="340" 
d="M223 756c-39 0 -47 31 -76 31c-27 0 -31 -30 -51 -30c-8 0 -17 6 -17 21c0 16 25 59 67 59c36 0 48 -29 80 -29c24 0 32 24 50 27c0 0 11 -6 11 -17c0 -32 -35 -62 -64 -62zM315 535c0 -54 3 -106 3 -154c0 -224 -29 -383 -135 -383c-58 0 -109 18 -132 129
c-11 54 -18 133 -18 207c0 49 1 96 1 132c0 84 26 242 157 242c73 0 120 -93 124 -173zM177 47c58 0 76 167 76 319c0 73 -2 163 -9 207c-4 30 -30 82 -65 82c-43 0 -82 -49 -82 -306c0 -88 8 -302 80 -302z" />
    <glyph glyph-name="OE" unicode="&#x152;" horiz-adv-x="450" 
d="M392 51c18 0 34 -2 37 -9c3 -6 4 -12 4 -17c0 -13 -11 -20 -22 -21c-33 -3 -91 -7 -133 -7c-18 0 -30 2 -38 7c-15 -5 -34 -6 -51 -6c-58 0 -109 18 -132 129c-11 54 -18 133 -18 207c0 49 1 96 1 132c0 84 16 228 157 228c21 0 43 -10 59 -23c9 14 73 24 120 24
c26 0 59 -1 59 -27c0 -23 -23 -31 -58 -31c-6 0 -13 1 -20 1c-20 0 -42 0 -62 -4c-7 -3 -7 -77 -7 -84c0 -91 -1 -111 -1 -132c0 -23 1 -46 6 -48c13 -4 73 -3 90 -3c36 0 38 -15 38 -24c0 -19 -14 -22 -28 -22h-62c-28 0 -38 -4 -38 -23c2 -71 -2 -200 -2 -240
c0 -10 3 -11 10 -11h13c29 0 38 4 78 4zM183 47c7 0 30 2 46 7v39c5 144 2 474 4 488c0 7 1 14 2 21c-12 24 -30 39 -50 39c-43 0 -82 -76 -82 -292c0 -88 8 -302 80 -302z" />
    <glyph glyph-name="P" unicode="P" horiz-adv-x="326" 
d="M42 635v6c12 57 81 62 127 62c51 0 95 -10 121 -53c17 -26 17 -75 17 -106c0 -72 -7 -163 -17 -194c-21 -63 -62 -89 -113 -89c-23 0 -67 0 -69 -2c-5 -4 -5 -87 -6 -151c-1 -39 1 -70 1 -70c0 -4 -11 -39 -40 -39c-18 0 -26 3 -26 16zM108 636c-3 -142 -4 -229 -2 -323
h58c57 0 81 54 81 114l1 109c0 75 -18 118 -92 118c-18 0 -45 -8 -46 -18z" />
    <glyph glyph-name="Thorn" unicode="&#xde;" horiz-adv-x="322" 
d="M169 593c95 0 131 -64 131 -159c0 -72 -7 -187 -17 -218c-21 -63 -62 -89 -113 -89c-17 0 -48 8 -62 11l-1 -103c0 -4 -11 -39 -40 -39c-18 0 -22 3 -22 16l5 662c0 15 15 30 34 30c11 0 21 -4 29 -17l-1 -104c18 6 37 10 57 10zM238 339l1 87c0 75 -18 118 -92 118
c-11 0 -26 -3 -35 -8l-4 -343c14 -6 40 -12 61 -12c55 1 69 98 69 158z" />
    <glyph glyph-name="Q" unicode="Q" horiz-adv-x="338" 
d="M289 110c36 -37 57 -83 61 -127c0 -5 -21 -16 -37 -16c-5 0 -10 1 -12 6c-12 27 -25 52 -39 74c-20 -32 -47 -49 -83 -49c-58 0 -109 18 -132 129c-11 54 -18 133 -18 207c0 49 1 96 1 132c0 84 16 242 157 242c73 0 121 -93 125 -173c0 -54 3 -106 3 -154
c0 -109 -7 -203 -26 -271zM175 655c-43 0 -82 -49 -82 -306c0 -41 2 -109 11 -170c42 4 91 -6 130 -27l3 -2c11 61 14 140 14 216c0 73 -3 161 -10 205c-4 30 -31 84 -66 84zM173 47c21 0 37 17 48 46c-27 23 -62 36 -107 36h-1c12 -47 31 -82 60 -82z" />
    <glyph glyph-name="R" unicode="R" horiz-adv-x="331" 
d="M290 350c-14 -43 -38 -69 -68 -81c30 -41 88 -132 104 -262c-1 -1 -13 -11 -33 -11c-14 0 -32 13 -34 21c-13 71 -52 204 -110 244c-20 1 -40 1 -41 0c-5 -4 -6 -93 -6 -153c0 -39 1 -70 1 -70c0 -4 -11 -39 -40 -39c-18 0 -26 3 -26 16l5 620v6c12 57 81 62 127 62
c51 0 95 -10 121 -53c17 -26 17 -75 17 -106c0 -72 -7 -163 -17 -194zM106 310h58c57 0 81 57 81 117l1 109c0 75 -18 118 -92 118c-18 0 -45 -8 -46 -18c-3 -142 -4 -232 -2 -326zM326 7v0z" />
    <glyph glyph-name="Racute" unicode="&#x154;" horiz-adv-x="331" 
d="M139 740c-15 0 -24 5 -24 13c0 11 10 26 18 36c0 0 29 41 48 52c4 2 9 4 13 4c8 0 25 -3 35 -9c2 -2 3 -5 3 -8c0 -4 -2 -8 -5 -13c-19 -25 -74 -75 -88 -75zM290 350c-14 -43 -38 -69 -68 -81c30 -41 88 -132 104 -262c-1 -1 -13 -11 -33 -11c-14 0 -32 13 -34 21
c-13 71 -52 204 -110 244c-20 1 -40 1 -41 0c-5 -4 -6 -93 -6 -153c0 -39 1 -70 1 -70c0 -4 -11 -39 -40 -39c-18 0 -26 3 -26 16l5 620v6c12 57 81 62 127 62c51 0 95 -10 121 -53c17 -26 17 -75 17 -106c0 -72 -7 -163 -17 -194zM106 310h58c57 0 81 57 81 117l1 109
c0 75 -18 118 -92 118c-18 0 -45 -8 -46 -18c-3 -142 -4 -232 -2 -326zM326 7v0z" />
    <glyph glyph-name="Rcaron" unicode="&#x158;" horiz-adv-x="331" 
d="M81 814c-3 2 -3 7 -3 11s1 8 2 10c5 5 10 9 18 9s15 -5 26 -13c21 -16 47 -37 47 -37s39 35 58 46c4 2 9 4 13 4c11 0 22 -7 27 -18c0 0 -79 -79 -95 -78c-23 2 -61 41 -93 66zM290 350c-14 -43 -38 -69 -68 -81c30 -41 88 -132 104 -262c-1 -1 -13 -11 -33 -11
c-14 0 -32 13 -34 21c-13 71 -52 204 -110 244c-20 1 -40 1 -41 0c-5 -4 -6 -93 -6 -153c0 -39 1 -70 1 -70c0 -4 -11 -39 -40 -39c-18 0 -26 3 -26 16l5 620v6c12 57 81 62 127 62c51 0 95 -10 121 -53c17 -26 17 -75 17 -106c0 -72 -7 -163 -17 -194zM106 310h58
c57 0 81 57 81 117l1 109c0 75 -18 118 -92 118c-18 0 -45 -8 -46 -18c-3 -142 -4 -232 -2 -326zM326 7v0z" />
    <glyph glyph-name="Rcommaaccent" unicode="&#x156;" horiz-adv-x="331" 
d="M290 350c-14 -43 -38 -69 -68 -81c30 -41 88 -132 104 -262c-1 -1 -13 -11 -33 -11c-14 0 -32 13 -34 21c-13 71 -52 204 -110 244c-20 1 -40 1 -41 0c-5 -4 -6 -93 -6 -153c0 -39 1 -70 1 -70c0 -4 -11 -39 -40 -39c-18 0 -26 3 -26 16l5 620v6c12 57 81 62 127 62
c51 0 95 -10 121 -53c17 -26 17 -75 17 -106c0 -72 -7 -163 -17 -194zM106 310h58c57 0 81 57 81 117l1 109c0 75 -18 118 -92 118c-18 0 -45 -8 -46 -18c-3 -142 -4 -232 -2 -326zM326 7v0zM185 -44c27 0 32 -20 32 -45c0 -22 -25 -93 -40 -110c-5 -6 -11 -9 -15 -9
c-13 0 -21 14 -20 19c0 6 14 53 14 68c-13 8 -19 25 -19 42c0 10 5 20 14 26c8 4 21 9 34 9z" />
    <glyph glyph-name="S" unicode="S" horiz-adv-x="292" 
d="M158 702c98 0 113 -104 115 -174c0 -13 -2 -24 -17 -24c-21 0 -39 0 -46 22c-8 32 5 133 -50 133c-35 0 -60 -38 -60 -87c0 -125 174 -233 174 -385c0 -103 -30 -193 -138 -193c-72 0 -114 79 -114 149c0 23 8 44 35 44c24 0 39 -12 39 -36c2 -31 7 -108 52 -108
c54 0 62 70 62 109c0 160 -176 232 -176 416c0 82 55 134 124 134z" />
    <glyph glyph-name="Sacute" unicode="&#x15a;" horiz-adv-x="292" 
d="M122 740c-15 0 -24 5 -24 13c0 11 10 26 18 36c0 0 29 41 48 52c4 2 9 4 13 4c8 0 25 -3 35 -9c2 -2 3 -5 3 -8c0 -4 -2 -8 -5 -13c-19 -25 -74 -75 -88 -75zM158 702c98 0 113 -104 115 -174c0 -13 -2 -24 -17 -24c-21 0 -39 0 -46 22c-8 32 5 133 -50 133
c-35 0 -60 -38 -60 -87c0 -125 174 -233 174 -385c0 -103 -30 -193 -138 -193c-72 0 -114 79 -114 149c0 23 8 44 35 44c24 0 39 -12 39 -36c2 -31 7 -108 52 -108c54 0 62 70 62 109c0 160 -176 232 -176 416c0 82 55 134 124 134z" />
    <glyph glyph-name="Scaron" unicode="&#x160;" horiz-adv-x="292" 
d="M157 748c-23 2 -61 41 -93 66c-3 2 -3 7 -3 11s1 8 2 10c5 5 10 9 18 9s15 -5 26 -13c21 -16 47 -37 47 -37s39 35 58 46c4 2 9 4 13 4c11 0 22 -7 27 -18c0 0 -79 -79 -95 -78zM158 702c98 0 113 -104 115 -174c0 -13 -2 -24 -17 -24c-21 0 -39 0 -46 22
c-8 32 5 133 -50 133c-35 0 -60 -38 -60 -87c0 -125 174 -233 174 -385c0 -103 -30 -193 -138 -193c-72 0 -114 79 -114 149c0 23 8 44 35 44c24 0 39 -12 39 -36c2 -31 7 -108 52 -108c54 0 62 70 62 109c0 160 -176 232 -176 416c0 82 55 134 124 134z" />
    <glyph glyph-name="Scedilla" unicode="&#x15e;" horiz-adv-x="292" 
d="M170 -27c49 -13 59 -37 59 -68c0 -52 -41 -69 -75 -69c-25 0 -56 9 -56 34c0 12 4 17 10 17c4 0 8 -2 13 -4c6 -3 15 -6 23 -6c22 0 45 11 45 32c0 24 -30 26 -60 38c-19 8 -27 15 -27 33c0 6 2 13 4 19c-53 18 -84 84 -84 144c0 23 8 44 35 44c24 0 39 -12 39 -36
c2 -31 7 -108 52 -108c54 0 62 70 62 109c0 160 -176 232 -176 416c0 82 55 134 124 134c98 0 113 -104 115 -174c0 -13 -2 -24 -17 -24c-21 0 -39 0 -46 22c-8 32 5 133 -50 133c-35 0 -60 -38 -60 -87c0 -125 174 -233 174 -385c0 -99 -28 -186 -126 -193
c-1 -4 -2 -7 -2 -9c0 -8 7 -6 24 -12z" />
    <glyph glyph-name="Scommaaccent" unicode="&#x218;" horiz-adv-x="292" 
d="M158 702c98 0 113 -104 115 -174c0 -13 -2 -24 -17 -24c-21 0 -39 0 -46 22c-8 32 5 133 -50 133c-35 0 -60 -38 -60 -87c0 -125 174 -233 174 -385c0 -103 -30 -193 -138 -193c-72 0 -114 79 -114 149c0 23 8 44 35 44c24 0 39 -12 39 -36c2 -31 7 -108 52 -108
c54 0 62 70 62 109c0 160 -176 232 -176 416c0 82 55 134 124 134zM135 -54c-9 -6 -14 -16 -14 -26c0 -17 6 -34 19 -42c0 -15 -14 -62 -14 -68c-1 -5 7 -19 20 -19c4 0 10 3 15 9c15 17 40 88 40 110c0 25 -5 45 -32 45c-13 0 -26 -5 -34 -9z" />
    <glyph glyph-name="T" unicode="T" horiz-adv-x="286" 
d="M270 695c6 -3 16 -16 16 -23c0 -6 -8 -30 -14 -30l-94 -2c0 -216 -3 -488 -3 -555v-64c0 -3 -11 -22 -38 -22c-29 0 -32 13 -32 31c0 12 1 26 1 40c1 72 3 505 3 569c-45 -1 -84 -1 -91 1c-11 2 -13 20 -13 36c2 10 10 19 20 23c39 0 237 0 245 -4z" />
    <glyph glyph-name="Tbar" unicode="&#x166;" horiz-adv-x="286" 
d="M270 695c6 -3 16 -16 16 -23c0 -6 -8 -30 -14 -30l-94 -2c0 -67 0 -138 -1 -208h71c12 0 23 -9 23 -23c-2 -17 -7 -31 -20 -31h-74l-2 -293v-64c0 -3 -11 -22 -38 -22c-29 0 -32 13 -32 31c0 12 1 26 1 40l2 308h-72c-21 0 -22 17 -22 31s10 23 23 23h71
c1 97 1 182 1 207c-45 -1 -84 -1 -91 1c-11 2 -13 20 -13 36c2 10 10 19 20 23c39 0 237 0 245 -4z" />
    <glyph glyph-name="Tcaron" unicode="&#x164;" horiz-adv-x="286" 
d="M50 814c-3 2 -3 7 -3 11s1 8 2 10c5 5 10 9 18 9s15 -5 26 -13c21 -16 47 -37 47 -37s39 35 58 46c4 2 9 4 13 4c11 0 22 -7 27 -18c0 0 -79 -79 -95 -78c-23 2 -61 41 -93 66zM270 695c6 -3 16 -16 16 -23c0 -6 -8 -30 -14 -30l-94 -2c0 -216 -3 -488 -3 -555v-64
c0 -3 -11 -22 -38 -22c-29 0 -32 13 -32 31c0 12 1 26 1 40c1 72 3 505 3 569c-45 -1 -84 -1 -91 1c-11 2 -13 20 -13 36c2 10 10 19 20 23c39 0 237 0 245 -4z" />
    <glyph glyph-name="uni0162" unicode="&#x162;" horiz-adv-x="286" 
d="M270 695c6 -3 16 -16 16 -23c0 -6 -8 -30 -14 -30l-94 -2c0 -216 -3 -488 -3 -555v-64c0 -3 -10 -20 -34 -22c-1 -4 -2 -8 -2 -10c0 -8 7 -6 24 -12c49 -13 59 -37 59 -68c0 -52 -41 -69 -75 -69c-25 0 -56 9 -56 34c0 12 4 17 10 17c4 0 8 -2 13 -4c6 -3 15 -6 23 -6
c22 0 45 11 45 32c0 24 -30 26 -60 38c-19 8 -27 15 -27 33c0 11 5 22 11 33c-1 4 -1 8 -1 13c0 12 1 26 1 40c1 72 3 505 3 569c-45 -1 -84 -1 -91 1c-11 2 -13 20 -13 36c2 10 10 19 20 23c39 0 237 0 245 -4z" />
    <glyph glyph-name="uni021A" unicode="&#x21a;" horiz-adv-x="286" 
d="M270 695c6 -3 16 -16 16 -23c0 -6 -8 -30 -14 -30l-94 -2c0 -216 -3 -488 -3 -555v-64c0 -3 -11 -22 -38 -22c-29 0 -32 13 -32 31c0 12 1 26 1 40c1 72 3 505 3 569c-45 -1 -84 -1 -91 1c-11 2 -13 20 -13 36c2 10 10 19 20 23c39 0 237 0 245 -4zM162 -41
c27 0 32 -20 32 -45c0 -22 -25 -93 -40 -110c-5 -6 -11 -9 -15 -9c-13 0 -21 14 -20 19c0 6 14 53 14 68c-13 8 -19 25 -19 42c0 10 5 20 14 26c8 4 21 9 34 9z" />
    <glyph glyph-name="U" unicode="U" horiz-adv-x="368" 
d="M35 667c10 16 22 27 42 27c33 0 33 -33 33 -52v-495c0 -41 28 -101 72 -101c73 0 85 130 85 235c0 95 3 178 3 262c0 34 -1 79 -2 113c10 32 40 35 59 35c4 0 9 -1 14 -14c0 -77 -12 -499 -20 -537c-29 -131 -89 -146 -150 -146c-68 0 -97 43 -115 89
c-17 46 -17 369 -21 584z" />
    <glyph glyph-name="Uacute" unicode="&#xda;" horiz-adv-x="368" 
d="M163 740c-15 0 -24 5 -24 13c0 11 10 26 18 36c0 0 29 41 48 52c4 2 9 4 13 4c8 0 25 -3 35 -9c2 -2 3 -5 3 -8c0 -4 -2 -8 -5 -13c-19 -25 -74 -75 -88 -75zM35 667c10 16 22 27 42 27c33 0 33 -33 33 -52v-495c0 -41 28 -101 72 -101c73 0 85 130 85 235
c0 95 3 178 3 262c0 34 -1 79 -2 113c10 32 40 35 59 35c4 0 9 -1 14 -14c0 -77 -12 -499 -20 -537c-29 -131 -89 -146 -150 -146c-68 0 -97 43 -115 89c-17 46 -17 369 -21 584z" />
    <glyph glyph-name="Ucircumflex" unicode="&#xdb;" horiz-adv-x="368" 
d="M120 747c-8 0 -13 4 -18 9c-1 2 -2 6 -2 10s0 9 3 11c38 28 75 64 98 66c16 1 95 -78 95 -78c-5 -11 -16 -18 -27 -18c-4 0 -9 2 -13 4c-19 11 -58 46 -58 46s-31 -21 -52 -37c-11 -8 -18 -13 -26 -13zM35 667c10 16 22 27 42 27c33 0 33 -33 33 -52v-495
c0 -41 28 -101 72 -101c73 0 85 130 85 235c0 95 3 178 3 262c0 34 -1 79 -2 113c10 32 40 35 59 35c4 0 9 -1 14 -14c0 -77 -12 -499 -20 -537c-29 -131 -89 -146 -150 -146c-68 0 -97 43 -115 89c-17 46 -17 369 -21 584z" />
    <glyph glyph-name="Udieresis" unicode="&#xdc;" horiz-adv-x="368" 
d="M147 766c-20 0 -34 20 -34 40c0 8 4 17 12 23c8 3 19 5 31 5c18 0 27 -14 27 -36s-13 -32 -36 -32zM246 766c-20 0 -34 20 -34 40c0 8 4 17 12 23c8 3 19 5 31 5c19 0 27 -14 27 -36s-13 -32 -36 -32zM35 667c10 16 22 27 42 27c33 0 33 -33 33 -52v-495
c0 -41 28 -101 72 -101c73 0 85 130 85 235c0 95 3 178 3 262c0 34 -1 79 -2 113c10 32 40 35 59 35c4 0 9 -1 14 -14c0 -77 -12 -499 -20 -537c-29 -131 -89 -146 -150 -146c-68 0 -97 43 -115 89c-17 46 -17 369 -21 584z" />
    <glyph glyph-name="Ugrave" unicode="&#xd9;" horiz-adv-x="368" 
d="M232 740c-14 0 -69 50 -88 75c-3 5 -5 9 -5 13c0 3 1 6 3 8c10 6 27 9 35 9c4 0 9 -2 13 -4c19 -11 48 -52 48 -52c8 -10 18 -25 18 -36c0 -8 -9 -13 -24 -13zM35 667c10 16 22 27 42 27c33 0 33 -33 33 -52v-495c0 -41 28 -101 72 -101c73 0 85 130 85 235
c0 95 3 178 3 262c0 34 -1 79 -2 113c10 32 40 35 59 35c4 0 9 -1 14 -14c0 -77 -12 -499 -20 -537c-29 -131 -89 -146 -150 -146c-68 0 -97 43 -115 89c-17 46 -17 369 -21 584z" />
    <glyph glyph-name="Uhungarumlaut" unicode="&#x170;" horiz-adv-x="368" 
d="M108 740c-15 0 -24 5 -24 13c0 11 10 26 18 36c0 0 29 41 48 52c4 2 9 4 13 4c8 0 25 -3 35 -9c2 -2 3 -5 3 -8c0 -4 -2 -8 -5 -13c-19 -25 -74 -75 -88 -75zM219 740c-15 0 -24 5 -24 13c0 11 10 26 18 36c0 0 29 41 48 52c4 2 9 4 13 4c8 0 25 -3 35 -9c2 -2 3 -5 3 -8
c0 -4 -2 -8 -5 -13c-19 -25 -74 -75 -88 -75zM35 667c10 16 22 27 42 27c33 0 33 -33 33 -52v-495c0 -41 28 -101 72 -101c73 0 85 130 85 235c0 95 3 178 3 262c0 34 -1 79 -2 113c10 32 40 35 59 35c4 0 9 -1 14 -14c0 -77 -12 -499 -20 -537c-29 -131 -89 -146 -150 -146
c-68 0 -97 43 -115 89c-17 46 -17 369 -21 584z" />
    <glyph glyph-name="Umacron" unicode="&#x16a;" horiz-adv-x="368" 
d="M113 757c-16 0 -17 15 -17 28c0 10 8 19 18 19h166c10 0 19 -10 19 -20c-2 -15 -5 -27 -16 -27h-170zM35 667c10 16 22 27 42 27c33 0 33 -33 33 -52v-495c0 -41 28 -101 72 -101c73 0 85 130 85 235c0 95 3 178 3 262c0 34 -1 79 -2 113c10 32 40 35 59 35
c4 0 9 -1 14 -14c0 -77 -12 -499 -20 -537c-29 -131 -89 -146 -150 -146c-68 0 -97 43 -115 89c-17 46 -17 369 -21 584z" />
    <glyph glyph-name="Uogonek" unicode="&#x172;" horiz-adv-x="368" 
d="M227 -11l-30 -48c-9 -15 -12 -25 -12 -40c0 -17 7 -30 22 -30c33 0 33 24 39 50c2 10 9 15 16 15c12 0 20 -6 20 -20c0 -18 -3 -42 -14 -56s-31 -22 -67 -22c-34 0 -64 20 -64 59c0 34 16 70 39 97h-5c-68 0 -97 43 -115 89c-17 46 -17 369 -21 584c10 16 22 27 42 27
c33 0 33 -33 33 -52v-495c0 -41 28 -101 72 -101c73 0 85 130 85 235c0 95 3 178 3 262c0 34 -1 79 -2 113c10 32 40 35 59 35c4 0 9 -1 14 -14c0 -77 -12 -499 -20 -537c-18 -83 -49 -120 -85 -135c-3 -6 -6 -12 -9 -16z" />
    <glyph glyph-name="Uring" unicode="&#x16e;" horiz-adv-x="368" 
d="M197 744c-29 0 -52 24 -53 53c0 33 25 52 56 54c30 0 51 -25 51 -54s-21 -53 -54 -53zM197 775c12 0 21 11 21 22c0 12 -9 19 -24 21c-12 0 -17 -10 -17 -21s9 -22 20 -22zM35 667c10 16 22 27 42 27c33 0 33 -33 33 -52v-495c0 -41 28 -101 72 -101c73 0 85 130 85 235
c0 95 3 178 3 262c0 34 -1 79 -2 113c10 32 40 35 59 35c4 0 9 -1 14 -14c0 -77 -12 -499 -20 -537c-29 -131 -89 -146 -150 -146c-68 0 -97 43 -115 89c-17 46 -17 369 -21 584z" />
    <glyph glyph-name="V" unicode="V" horiz-adv-x="346" 
d="M227 372l56 316c6 11 22 12 33 12c14 0 20 -15 20 -30c0 -17 -5 -33 -8 -52c-23 -141 -63 -349 -104 -538c-9 -41 -15 -77 -59 -77c-41 0 -52 55 -58 92c-35 202 -58 353 -87 561c-1 5 -1 9 -1 12c0 25 7 31 36 32c11 0 26 -8 28 -18c18 -71 18 -199 89 -599z" />
    <glyph glyph-name="W" unicode="W" horiz-adv-x="594" 
d="M483 372l56 316c6 11 22 12 33 12c14 0 20 -15 20 -30c0 -17 -5 -33 -8 -52c-23 -141 -63 -367 -109 -538c-11 -41 -15 -77 -59 -77c-41 0 -52 55 -58 92c-25 141 -39 260 -56 388c-23 -127 -55 -281 -88 -403c-11 -41 -15 -77 -59 -77c-41 0 -52 55 -58 92
c-35 202 -53 353 -82 561c-1 5 -1 9 -1 12c0 25 7 31 36 32c11 0 26 -8 28 -18c18 -71 13 -199 84 -599l60 289l45 176c0 8 21 31 40 31h6c12 0 24 -9 26 -18c18 -71 13 -78 84 -478z" />
    <glyph glyph-name="Wacute" unicode="&#x1e82;" horiz-adv-x="594" 
d="M268 740c-15 0 -24 5 -24 13c0 11 10 26 18 36c0 0 29 41 48 52c4 2 9 4 13 4c8 0 25 -3 35 -9c2 -2 3 -5 3 -8c0 -4 -2 -8 -5 -13c-19 -25 -74 -75 -88 -75zM483 372l56 316c6 11 22 12 33 12c14 0 20 -15 20 -30c0 -17 -5 -33 -8 -52c-23 -141 -63 -367 -109 -538
c-11 -41 -15 -77 -59 -77c-41 0 -52 55 -58 92c-25 141 -39 260 -56 388c-23 -127 -55 -281 -88 -403c-11 -41 -15 -77 -59 -77c-41 0 -52 55 -58 92c-35 202 -53 353 -82 561c-1 5 -1 9 -1 12c0 25 7 31 36 32c11 0 26 -8 28 -18c18 -71 13 -199 84 -599l60 289l45 176
c0 8 21 31 40 31h6c12 0 24 -9 26 -18c18 -71 13 -78 84 -478z" />
    <glyph glyph-name="Wcircumflex" unicode="&#x174;" horiz-adv-x="594" 
d="M225 747c-8 0 -13 4 -18 9c-1 2 -2 6 -2 10s0 9 3 11c38 28 75 64 98 66c16 1 95 -78 95 -78c-5 -11 -16 -18 -27 -18c-4 0 -9 2 -13 4c-19 11 -58 46 -58 46s-31 -21 -52 -37c-11 -8 -18 -13 -26 -13zM483 372l56 316c6 11 22 12 33 12c14 0 20 -15 20 -30
c0 -17 -5 -33 -8 -52c-23 -141 -63 -367 -109 -538c-11 -41 -15 -77 -59 -77c-41 0 -52 55 -58 92c-25 141 -39 260 -56 388c-23 -127 -55 -281 -88 -403c-11 -41 -15 -77 -59 -77c-41 0 -52 55 -58 92c-35 202 -53 353 -82 561c-1 5 -1 9 -1 12c0 25 7 31 36 32
c11 0 26 -8 28 -18c18 -71 13 -199 84 -599l60 289l45 176c0 8 21 31 40 31h6c12 0 24 -9 26 -18c18 -71 13 -78 84 -478z" />
    <glyph glyph-name="Wdieresis" unicode="&#x1e84;" horiz-adv-x="594" 
d="M252 766c-20 0 -34 20 -34 40c0 8 4 17 12 23c8 3 19 5 31 5c18 0 27 -14 27 -36s-13 -32 -36 -32zM351 766c-20 0 -34 20 -34 40c0 8 4 17 12 23c8 3 19 5 31 5c19 0 27 -14 27 -36s-13 -32 -36 -32zM483 372l56 316c6 11 22 12 33 12c14 0 20 -15 20 -30
c0 -17 -5 -33 -8 -52c-23 -141 -63 -367 -109 -538c-11 -41 -15 -77 -59 -77c-41 0 -52 55 -58 92c-25 141 -39 260 -56 388c-23 -127 -55 -281 -88 -403c-11 -41 -15 -77 -59 -77c-41 0 -52 55 -58 92c-35 202 -53 353 -82 561c-1 5 -1 9 -1 12c0 25 7 31 36 32
c11 0 26 -8 28 -18c18 -71 13 -199 84 -599l60 289l45 176c0 8 21 31 40 31h6c12 0 24 -9 26 -18c18 -71 13 -78 84 -478z" />
    <glyph glyph-name="Wgrave" unicode="&#x1e80;" horiz-adv-x="594" 
d="M337 740c-14 0 -69 50 -88 75c-3 5 -5 9 -5 13c0 3 1 6 3 8c10 6 27 9 35 9c4 0 9 -2 13 -4c19 -11 48 -52 48 -52c8 -10 18 -25 18 -36c0 -8 -9 -13 -24 -13zM483 372l56 316c6 11 22 12 33 12c14 0 20 -15 20 -30c0 -17 -5 -33 -8 -52c-23 -141 -63 -367 -109 -538
c-11 -41 -15 -77 -59 -77c-41 0 -52 55 -58 92c-25 141 -39 260 -56 388c-23 -127 -55 -281 -88 -403c-11 -41 -15 -77 -59 -77c-41 0 -52 55 -58 92c-35 202 -53 353 -82 561c-1 5 -1 9 -1 12c0 25 7 31 36 32c11 0 26 -8 28 -18c18 -71 13 -199 84 -599l60 289l45 176
c0 8 21 31 40 31h6c12 0 24 -9 26 -18c18 -71 13 -78 84 -478z" />
    <glyph glyph-name="X" unicode="X" horiz-adv-x="367" 
d="M223 366c50 -126 104 -259 138 -341c0 0 -7 -27 -30 -27c-6 0 -17 2 -21 7c-18 23 -69 145 -122 279c-33 -79 -70 -164 -107 -253c-9 -21 -22 -36 -40 -36c-11 0 -24 10 -31 20c0 0 72 171 148 346c-46 118 -89 232 -108 288c-1 4 -7 23 -7 27c7 12 15 20 29 20
c16 0 29 -16 34 -33c17 -46 49 -128 86 -222c45 102 87 197 113 249c1 3 10 10 17 10c11 0 32 -12 33 -26c0 -3 -1 -7 -3 -11c-14 -29 -63 -142 -129 -297z" />
    <glyph glyph-name="Y" unicode="Y" horiz-adv-x="321" 
d="M290 679c2 -10 4 -33 2 -43l-17 -508c-10 -54 -35 -129 -133 -129c-20 0 -105 7 -105 133c0 29 11 37 35 37c19 0 31 -3 31 -68c0 -37 15 -52 50 -52c50 0 66 49 66 94l4 126c-19 -7 -49 -16 -79 -16c-18 0 -37 3 -53 12c-62 32 -62 183 -62 274c0 40 2 67 2 124
c0 13 5 21 26 30c3 1 9 2 13 2c13 0 17 -13 17 -27c0 -99 1 -201 13 -301c3 -13 20 -61 65 -61c16 0 36 6 59 23c4 133 9 292 9 305c0 18 1 39 15 56c7 4 14 7 21 7c9 0 18 -5 21 -18z" />
    <glyph glyph-name="Yacute" unicode="&#xdd;" horiz-adv-x="321" 
d="M127 740c-15 0 -24 5 -24 13c0 11 10 26 18 36c0 0 29 41 48 52c4 2 9 4 13 4c8 0 25 -3 35 -9c2 -2 3 -5 3 -8c0 -4 -2 -8 -5 -13c-19 -25 -74 -75 -88 -75zM290 679c2 -10 4 -33 2 -43l-17 -508c-10 -54 -35 -129 -133 -129c-20 0 -105 7 -105 133c0 29 11 37 35 37
c19 0 31 -3 31 -68c0 -37 15 -52 50 -52c50 0 66 49 66 94l4 126c-19 -7 -49 -16 -79 -16c-18 0 -37 3 -53 12c-62 32 -62 183 -62 274c0 40 2 67 2 124c0 13 5 21 26 30c3 1 9 2 13 2c13 0 17 -13 17 -27c0 -99 1 -201 13 -301c3 -13 20 -61 65 -61c16 0 36 6 59 23
c4 133 9 292 9 305c0 18 1 39 15 56c7 4 14 7 21 7c9 0 18 -5 21 -18z" />
    <glyph glyph-name="Ycircumflex" unicode="&#x176;" horiz-adv-x="321" 
d="M84 747c-8 0 -13 4 -18 9c-1 2 -2 6 -2 10s0 9 3 11c38 28 75 64 98 66c16 1 95 -78 95 -78c-5 -11 -16 -18 -27 -18c-4 0 -9 2 -13 4c-19 11 -58 46 -58 46s-31 -21 -52 -37c-11 -8 -18 -13 -26 -13zM290 679c2 -10 4 -33 2 -43l-17 -508c-10 -54 -35 -129 -133 -129
c-20 0 -105 7 -105 133c0 29 11 37 35 37c19 0 31 -3 31 -68c0 -37 15 -52 50 -52c50 0 66 49 66 94l4 126c-19 -7 -49 -16 -79 -16c-18 0 -37 3 -53 12c-62 32 -62 183 -62 274c0 40 2 67 2 124c0 13 5 21 26 30c3 1 9 2 13 2c13 0 17 -13 17 -27c0 -99 1 -201 13 -301
c3 -13 20 -61 65 -61c16 0 36 6 59 23c4 133 9 292 9 305c0 18 1 39 15 56c7 4 14 7 21 7c9 0 18 -5 21 -18z" />
    <glyph glyph-name="Ydieresis" unicode="&#x178;" horiz-adv-x="321" 
d="M111 766c-20 0 -34 20 -34 40c0 8 4 17 12 23c8 3 19 5 31 5c18 0 27 -14 27 -36s-13 -32 -36 -32zM210 766c-20 0 -34 20 -34 40c0 8 4 17 12 23c8 3 19 5 31 5c19 0 27 -14 27 -36s-13 -32 -36 -32zM290 679c2 -10 4 -33 2 -43l-17 -508c-10 -54 -35 -129 -133 -129
c-20 0 -105 7 -105 133c0 29 11 37 35 37c19 0 31 -3 31 -68c0 -37 15 -52 50 -52c50 0 66 49 66 94l4 126c-19 -7 -49 -16 -79 -16c-18 0 -37 3 -53 12c-62 32 -62 183 -62 274c0 40 2 67 2 124c0 13 5 21 26 30c3 1 9 2 13 2c13 0 17 -13 17 -27c0 -99 1 -201 13 -301
c3 -13 20 -61 65 -61c16 0 36 6 59 23c4 133 9 292 9 305c0 18 1 39 15 56c7 4 14 7 21 7c9 0 18 -5 21 -18z" />
    <glyph glyph-name="Ygrave" unicode="&#x1ef2;" horiz-adv-x="321" 
d="M196 740c-14 0 -69 50 -88 75c-3 5 -5 9 -5 13c0 3 1 6 3 8c10 6 27 9 35 9c4 0 9 -2 13 -4c19 -11 48 -52 48 -52c8 -10 18 -25 18 -36c0 -8 -9 -13 -24 -13zM290 679c2 -10 4 -33 2 -43l-17 -508c-10 -54 -35 -129 -133 -129c-20 0 -105 7 -105 133c0 29 11 37 35 37
c19 0 31 -3 31 -68c0 -37 15 -52 50 -52c50 0 66 49 66 94l4 126c-19 -7 -49 -16 -79 -16c-18 0 -37 3 -53 12c-62 32 -62 183 -62 274c0 40 2 67 2 124c0 13 5 21 26 30c3 1 9 2 13 2c13 0 17 -13 17 -27c0 -99 1 -201 13 -301c3 -13 20 -61 65 -61c16 0 36 6 59 23
c4 133 9 292 9 305c0 18 1 39 15 56c7 4 14 7 21 7c9 0 18 -5 21 -18z" />
    <glyph glyph-name="Z" unicode="Z" horiz-adv-x="304" 
d="M52 684c0 2 132 6 173 6c8 0 17 0 26 -1c40 -2 49 -24 49 -50c0 -27 -10 -59 -10 -59l-210 -520l182 -1c12 -4 15 -16 15 -24c0 -10 -7 -23 -15 -28c0 0 -86 -5 -155 -5c-16 0 -46 -1 -54 1c-36 6 -45 36 -45 51c0 3 99 242 112 272c15 33 116 293 116 309l-159 -1
c-23 0 -30 11 -30 24s4 18 6 26h-1z" />
    <glyph glyph-name="Zacute" unicode="&#x179;" horiz-adv-x="304" 
d="M141 740c-15 0 -24 5 -24 13c0 11 10 26 18 36c0 0 29 41 48 52c4 2 9 4 13 4c8 0 25 -3 35 -9c2 -2 3 -5 3 -8c0 -4 -2 -8 -5 -13c-19 -25 -74 -75 -88 -75zM52 684c0 2 132 6 173 6c8 0 17 0 26 -1c40 -2 49 -24 49 -50c0 -27 -10 -59 -10 -59l-210 -520l182 -1
c12 -4 15 -16 15 -24c0 -10 -7 -23 -15 -28c0 0 -86 -5 -155 -5c-16 0 -46 -1 -54 1c-36 6 -45 36 -45 51c0 3 99 242 112 272c15 33 116 293 116 309l-159 -1c-23 0 -30 11 -30 24s4 18 6 26h-1z" />
    <glyph glyph-name="Zcaron" unicode="&#x17d;" horiz-adv-x="304" 
d="M176 748c-23 2 -61 41 -93 66c-3 2 -3 7 -3 11s1 8 2 10c5 5 10 9 18 9s15 -5 26 -13c21 -16 47 -37 47 -37s39 35 58 46c4 2 9 4 13 4c11 0 22 -7 27 -18c0 0 -79 -79 -95 -78zM52 684c0 2 132 6 173 6c8 0 17 0 26 -1c40 -2 49 -24 49 -50c0 -27 -10 -59 -10 -59
l-210 -520l182 -1c12 -4 15 -16 15 -24c0 -10 -7 -23 -15 -28c0 0 -86 -5 -155 -5c-16 0 -46 -1 -54 1c-36 6 -45 36 -45 51c0 3 99 242 112 272c15 33 116 293 116 309l-159 -1c-23 0 -30 11 -30 24s4 18 6 26h-1z" />
    <glyph glyph-name="Zdotaccent" unicode="&#x17b;" horiz-adv-x="304" 
d="M175 763c-20 0 -34 23 -34 43c0 8 4 17 12 23c8 3 19 7 31 7c24 0 27 -16 27 -38s-13 -35 -36 -35zM52 684c0 2 132 6 173 6c8 0 17 0 26 -1c40 -2 49 -24 49 -50c0 -27 -10 -59 -10 -59l-210 -520l182 -1c12 -4 15 -16 15 -24c0 -10 -7 -23 -15 -28c0 0 -86 -5 -155 -5
c-16 0 -46 -1 -54 1c-36 6 -45 36 -45 51c0 3 99 242 112 272c15 33 116 293 116 309l-159 -1c-23 0 -30 11 -30 24s4 18 6 26h-1z" />
    <glyph glyph-name="a" unicode="a" horiz-adv-x="298" 
d="M277 41c1 -4 1 -7 1 -10c0 -21 -16 -27 -40 -28c-9 0 -11 8 -13 17l-27 210l-88 -1c-2 -10 -4 -20 -6 -31c-3 -12 -21 -153 -31 -179c-5 -4 -33 -14 -41 -14c-6 0 -11 4 -11 17c0 5 0 11 2 17c26 150 51 306 84 463c7 33 11 78 61 78c34 0 41 -44 45 -75zM118 272
c23 0 53 1 75 1l-31 242c-12 -38 -22 -120 -44 -243z" />
    <glyph glyph-name="aacute" unicode="&#xe1;" horiz-adv-x="298" 
d="M135 625c-15 0 -24 5 -24 13c0 11 10 26 18 36c0 0 29 41 48 52c4 2 9 4 13 4c8 0 25 -3 35 -9c2 -2 3 -5 3 -8c0 -4 -2 -8 -5 -13c-19 -25 -74 -75 -88 -75zM277 41c1 -4 1 -7 1 -10c0 -21 -16 -27 -40 -28c-9 0 -11 8 -13 17l-27 210l-88 -1c-2 -10 -4 -20 -6 -31
c-3 -12 -21 -153 -31 -179c-5 -4 -33 -14 -41 -14c-6 0 -11 4 -11 17c0 5 0 11 2 17c26 150 51 306 84 463c7 33 11 78 61 78c34 0 41 -44 45 -75zM118 272c23 0 53 1 75 1l-31 242c-12 -38 -22 -120 -44 -243z" />
    <glyph glyph-name="abreve" unicode="&#x103;" horiz-adv-x="298" 
d="M160 633c-62 0 -92 39 -92 75c0 4 1 8 2 10c5 5 11 7 19 6c9 -1 14 -6 17 -12c12 -22 26 -42 52 -42c23 0 46 27 56 51c2 4 9 4 13 4c11 0 20 -5 25 -16c0 0 -21 -76 -92 -76zM277 41c1 -4 1 -7 1 -10c0 -21 -16 -27 -40 -28c-9 0 -11 8 -13 17l-27 210l-88 -1
c-2 -10 -4 -20 -6 -31c-3 -12 -21 -153 -31 -179c-5 -4 -33 -14 -41 -14c-6 0 -11 4 -11 17c0 5 0 11 2 17c26 150 51 306 84 463c7 33 11 78 61 78c34 0 41 -44 45 -75zM118 272c23 0 53 1 75 1l-31 242c-12 -38 -22 -120 -44 -243z" />
    <glyph glyph-name="acircumflex" unicode="&#xe2;" horiz-adv-x="298" 
d="M82 632c-8 0 -13 4 -18 9c-1 2 -2 6 -2 10s0 9 3 11c38 28 75 64 98 66c16 1 95 -78 95 -78c-5 -11 -16 -18 -27 -18c-4 0 -9 2 -13 4c-19 11 -58 46 -58 46s-31 -21 -52 -37c-11 -8 -18 -13 -26 -13zM277 41c1 -4 1 -7 1 -10c0 -21 -16 -27 -40 -28c-9 0 -11 8 -13 17
l-27 210l-88 -1c-2 -10 -4 -20 -6 -31c-3 -12 -21 -153 -31 -179c-5 -4 -33 -14 -41 -14c-6 0 -11 4 -11 17c0 5 0 11 2 17c26 150 51 306 84 463c7 33 11 78 61 78c34 0 41 -44 45 -75zM118 272c23 0 53 1 75 1l-31 242c-12 -38 -22 -120 -44 -243z" />
    <glyph glyph-name="adieresis" unicode="&#xe4;" horiz-adv-x="298" 
d="M109 651c-20 0 -34 20 -34 40c0 8 4 17 12 23c8 3 19 5 31 5c18 0 27 -14 27 -36s-13 -32 -36 -32zM208 651c-20 0 -34 20 -34 40c0 8 4 17 12 23c8 3 19 5 31 5c19 0 27 -14 27 -36s-13 -32 -36 -32zM277 41c1 -4 1 -7 1 -10c0 -21 -16 -27 -40 -28c-9 0 -11 8 -13 17
l-27 210l-88 -1c-2 -10 -4 -20 -6 -31c-3 -12 -21 -153 -31 -179c-5 -4 -33 -14 -41 -14c-6 0 -11 4 -11 17c0 5 0 11 2 17c26 150 51 306 84 463c7 33 11 78 61 78c34 0 41 -44 45 -75zM118 272c23 0 53 1 75 1l-31 242c-12 -38 -22 -120 -44 -243z" />
    <glyph glyph-name="agrave" unicode="&#xe0;" horiz-adv-x="298" 
d="M182 625c-14 0 -69 50 -88 75c-3 5 -5 9 -5 13c0 3 1 6 3 8c10 6 27 9 35 9c4 0 9 -2 13 -4c19 -11 48 -52 48 -52c8 -10 18 -25 18 -36c0 -8 -9 -13 -24 -13zM277 41c1 -4 1 -7 1 -10c0 -21 -16 -27 -40 -28c-9 0 -11 8 -13 17l-27 210l-88 -1c-2 -10 -4 -20 -6 -31
c-3 -12 -21 -153 -31 -179c-5 -4 -33 -14 -41 -14c-6 0 -11 4 -11 17c0 5 0 11 2 17c26 150 51 306 84 463c7 33 11 78 61 78c34 0 41 -44 45 -75zM118 272c23 0 53 1 75 1l-31 242c-12 -38 -22 -120 -44 -243z" />
    <glyph glyph-name="amacron" unicode="&#x101;" horiz-adv-x="298" 
d="M75 642c-16 0 -17 15 -17 28c0 10 8 19 18 19h166c10 0 19 -10 19 -20c-2 -15 -5 -27 -16 -27h-170zM277 41c1 -4 1 -7 1 -10c0 -21 -16 -27 -40 -28c-9 0 -11 8 -13 17l-27 210l-88 -1c-2 -10 -4 -20 -6 -31c-3 -12 -21 -153 -31 -179c-5 -4 -33 -14 -41 -14
c-6 0 -11 4 -11 17c0 5 0 11 2 17c26 150 51 306 84 463c7 33 11 78 61 78c34 0 41 -44 45 -75zM118 272c23 0 53 1 75 1l-31 242c-12 -38 -22 -120 -44 -243z" />
    <glyph glyph-name="aogonek" unicode="&#x105;" horiz-adv-x="298" 
d="M294 -64c12 0 20 -6 20 -20c0 -18 -3 -42 -14 -56s-31 -22 -67 -22c-34 0 -64 20 -64 59c0 42 26 89 58 115l-2 8l-27 210l-88 -1c-2 -10 -4 -20 -6 -31c-3 -12 -21 -153 -31 -179c-5 -4 -33 -14 -41 -14c-6 0 -11 4 -11 17c0 5 0 11 2 17c26 150 51 306 84 463
c7 33 11 78 61 78c34 0 41 -44 45 -75l64 -464c1 -4 1 -7 1 -10c0 -8 -2 -14 -7 -18c-2 -7 -8 -18 -12 -24l-30 -48c-9 -15 -12 -25 -12 -40c0 -17 7 -30 22 -30c33 0 33 24 39 50c2 10 9 15 16 15zM118 272c23 0 53 1 75 1l-31 242c-12 -38 -22 -120 -44 -243z" />
    <glyph glyph-name="aring" unicode="&#xe5;" horiz-adv-x="298" 
d="M159 629c-29 0 -52 24 -53 53c0 33 25 52 56 54c30 0 51 -25 51 -54s-21 -53 -54 -53zM156 703c-12 0 -17 -10 -17 -21s9 -22 20 -22c12 0 21 11 21 22c0 12 -9 19 -24 21zM277 41c1 -4 1 -7 1 -10c0 -21 -16 -27 -40 -28c-9 0 -11 8 -13 17l-27 210l-88 -1
c-2 -10 -4 -20 -6 -31c-3 -12 -21 -153 -31 -179c-5 -4 -33 -14 -41 -14c-6 0 -11 4 -11 17c0 5 0 11 2 17c26 150 51 306 84 463c7 33 11 78 61 78c34 0 41 -44 45 -75zM118 272c23 0 53 1 75 1l-31 242c-12 -38 -22 -120 -44 -243z" />
    <glyph glyph-name="atilde" unicode="&#xe3;" horiz-adv-x="298" 
d="M73 643c-8 0 -17 6 -17 21c0 16 25 59 67 59c36 0 48 -29 80 -29c24 0 32 24 50 27c0 0 11 -6 11 -17c0 -32 -35 -62 -64 -62c-39 0 -47 31 -76 31c-27 0 -31 -30 -51 -30zM277 41c1 -4 1 -7 1 -10c0 -21 -16 -27 -40 -28c-9 0 -11 8 -13 17l-27 210l-88 -1
c-2 -10 -4 -20 -6 -31c-3 -12 -21 -153 -31 -179c-5 -4 -33 -14 -41 -14c-6 0 -11 4 -11 17c0 5 0 11 2 17c26 150 51 306 84 463c7 33 11 78 61 78c34 0 41 -44 45 -75zM118 272c23 0 53 1 75 1l-31 242c-12 -38 -22 -120 -44 -243z" />
    <glyph glyph-name="ae" unicode="&#xe6;" horiz-adv-x="414" 
d="M355 49c15 0 29 -2 31 -7c3 -5 3 -17 3 -22c0 -10 -9 -16 -18 -17c-28 -3 -88 -6 -123 -6c-32 0 -41 7 -41 35v45c2 48 2 120 2 190c-30 0 -76 -1 -80 -2c-5 -3 -11 -27 -17 -65c-4 -12 -24 -161 -38 -187c-4 -5 -34 -13 -44 -13c-5 0 -9 6 -9 17c0 5 0 10 2 17
c33 158 72 360 109 482c13 32 27 64 70 64c11 0 20 -1 27 -4c8 4 26 5 47 5l66 -1c36 0 49 -1 49 -22c0 -20 -5 -28 -48 -28c-5 0 -11 1 -17 1c-17 0 -41 0 -58 -4c-6 -2 -6 -62 -6 -68c0 -76 -1 -89 -1 -106c0 -19 1 -34 5 -35c11 -4 67 -2 82 -2c30 0 31 -10 31 -28
c0 -16 -11 -23 -23 -23h-64c-23 0 -26 -3 -26 -19c2 -59 -1 -158 -1 -191c0 -8 2 -9 8 -9h5c24 0 44 3 77 3zM133 311c13 3 48 3 77 4c0 88 -1 164 0 170c1 13 1 32 3 50c-12 -2 -24 -10 -28 -22c-18 -46 -33 -121 -52 -202z" />
    <glyph glyph-name="b" unicode="b" horiz-adv-x="284" 
d="M242 295c22 -26 26 -71 26 -97c0 -116 -7 -195 -105 -196h-104c-15 0 -22 21 -22 31l4 493v5c10 47 67 49 105 49c81 0 94 -58 94 -126c0 -67 -16 -107 -36 -130c16 -8 29 -18 38 -29zM134 539c-15 0 -34 -7 -35 -16c-1 -63 -3 -125 -3 -189l44 1c41 4 46 58 46 104v28
c0 43 -8 72 -52 72zM215 139c0 17 1 35 1 42c0 58 -4 111 -75 111c-2 0 -3 1 -5 1l-41 -1c-1 -64 -1 -130 -1 -201c0 -17 0 -32 1 -42c3 -1 7 -1 11 -1h46c47 0 63 42 63 91z" />
    <glyph glyph-name="c" unicode="c" horiz-adv-x="291" 
d="M262 436c-6 -7 -17 -11 -30 -11s-18 0 -24 4c-7 26 5 105 -59 105c-41 0 -57 -65 -57 -111c0 -24 -2 -69 -2 -129v-73c0 -76 7 -169 63 -169c33 0 65 16 65 77c0 10 0 21 -1 34c2 10 20 14 30 14c23 0 24 -15 24 -32c0 -23 0 -46 -8 -65c-21 -49 -60 -76 -109 -76
c-79 0 -110 48 -115 121c-5 51 -7 153 -7 209c0 47 1 96 12 148c18 82 63 100 114 100s79 -32 93 -73c10 -29 10 -39 11 -73z" />
    <glyph glyph-name="cacute" unicode="&#x107;" horiz-adv-x="291" 
d="M221 721c2 -2 3 -5 3 -8c0 -4 -2 -8 -5 -13c-19 -25 -74 -75 -88 -75c-15 0 -24 5 -24 13c0 11 10 26 18 36c0 0 29 41 48 52c4 2 9 4 13 4c8 0 25 -3 35 -9zM262 436c-6 -7 -17 -11 -30 -11s-18 0 -24 4c-7 26 5 105 -59 105c-41 0 -57 -65 -57 -111
c0 -24 -2 -69 -2 -129v-73c0 -76 7 -169 63 -169c33 0 65 16 65 77c0 10 0 21 -1 34c2 10 20 14 30 14c23 0 24 -15 24 -32c0 -23 0 -46 -8 -65c-21 -49 -60 -76 -109 -76c-79 0 -110 48 -115 121c-5 51 -7 153 -7 209c0 47 1 96 12 148c18 82 63 100 114 100s79 -32 93 -73
c10 -29 10 -39 11 -73z" />
    <glyph glyph-name="ccaron" unicode="&#x10d;" horiz-adv-x="291" 
d="M251 711c0 0 -79 -79 -95 -78c-23 2 -61 41 -93 66c-3 2 -3 7 -3 11s1 8 2 10c5 5 10 9 18 9s15 -5 26 -13c21 -16 47 -37 47 -37s39 35 58 46c4 2 9 4 13 4c11 0 22 -7 27 -18zM262 436c-6 -7 -17 -11 -30 -11s-18 0 -24 4c-7 26 5 105 -59 105c-41 0 -57 -65 -57 -111
c0 -24 -2 -69 -2 -129v-73c0 -76 7 -169 63 -169c33 0 65 16 65 77c0 10 0 21 -1 34c2 10 20 14 30 14c23 0 24 -15 24 -32c0 -23 0 -46 -8 -65c-21 -49 -60 -76 -109 -76c-79 0 -110 48 -115 121c-5 51 -7 153 -7 209c0 47 1 96 12 148c18 82 63 100 114 100s79 -32 93 -73
c10 -29 10 -39 11 -73z" />
    <glyph glyph-name="ccedilla" unicode="&#xe7;" horiz-adv-x="291" 
d="M263 80c-20 -47 -57 -74 -103 -76c-3 -7 -5 -15 -5 -18c0 -8 7 -6 24 -12c49 -13 59 -37 59 -68c0 -52 -41 -69 -75 -69c-25 0 -56 9 -56 34c0 12 4 17 10 17c4 0 8 -2 13 -4c6 -3 15 -6 23 -6c22 0 45 11 45 32c0 24 -30 26 -60 38c-19 8 -27 15 -27 33c0 9 3 18 8 27
c-53 12 -76 56 -80 117c-5 51 -7 153 -7 209c0 47 1 96 12 148c18 82 63 100 114 100s79 -32 93 -73c10 -29 10 -39 11 -73c-6 -7 -17 -11 -30 -11s-18 0 -24 4c-7 26 5 105 -59 105c-41 0 -57 -65 -57 -111c0 -24 -2 -69 -2 -129v-73c0 -76 7 -169 63 -169
c33 0 65 16 65 77c0 10 0 21 -1 34c2 10 20 14 30 14c23 0 24 -15 24 -32c0 -23 0 -46 -8 -65z" />
    <glyph glyph-name="cdotaccent" unicode="&#x10b;" horiz-adv-x="291" 
d="M133 714c-8 -6 -12 -15 -12 -23c0 -20 14 -43 34 -43c23 0 36 13 36 35s-3 38 -27 38c-12 0 -23 -4 -31 -7zM262 436c-6 -7 -17 -11 -30 -11s-18 0 -24 4c-7 26 5 105 -59 105c-41 0 -57 -65 -57 -111c0 -24 -2 -69 -2 -129v-73c0 -76 7 -169 63 -169c33 0 65 16 65 77
c0 10 0 21 -1 34c2 10 20 14 30 14c23 0 24 -15 24 -32c0 -23 0 -46 -8 -65c-21 -49 -60 -76 -109 -76c-79 0 -110 48 -115 121c-5 51 -7 153 -7 209c0 47 1 96 12 148c18 82 63 100 114 100s79 -32 93 -73c10 -29 10 -39 11 -73z" />
    <glyph glyph-name="d" unicode="d" horiz-adv-x="330" 
d="M61 579c10 2 23 3 33 3c164 0 213 -207 213 -300c0 -179 -70 -256 -176 -273c-10 -1 -26 -4 -42 -4c-20 0 -38 4 -39 20c-6 54 -7 137 -7 222v64c0 100 1 178 2 221c0 25 0 43 16 47zM104 530v-11c-1 -73 -1 -123 -1 -177c0 -220 2 -281 2 -293c121 0 144 144 144 233
s-49 250 -132 250c-4 0 -9 -1 -13 -2z" />
    <glyph glyph-name="eth" unicode="&#xf0;" horiz-adv-x="269" 
d="M257 521c0 -6 -2 -11 -5 -14l-49 -33c24 -64 44 -169 44 -282c0 -83 -11 -193 -106 -193h-22c-94 0 -106 109 -106 189c0 119 27 175 113 175c23 0 43 -4 62 -12c-12 54 -19 81 -24 97l-60 -39c-15 -10 -28 3 -28 18c0 5 2 11 8 15l65 42c-21 44 -41 55 -57 55
c-7 0 -14 -3 -22 -5c-11 -3 -13 1 -14 9l-1 17c0 8 4 12 10 14c58 17 97 -14 123 -65l45 31c14 9 24 -6 24 -19zM193 137v70c0 67 -4 114 -63 114s-63 -47 -63 -114v-81c0 -47 22 -88 65 -88c40 0 61 35 61 99z" />
    <glyph glyph-name="dcaron" unicode="&#x10f;" horiz-adv-x="380" 
d="M61 579c10 2 23 3 33 3c164 0 213 -207 213 -300c0 -179 -70 -256 -176 -273c-10 -1 -26 -4 -42 -4c-20 0 -38 4 -39 20c-6 54 -7 137 -7 222v64c0 100 1 178 2 221c0 25 0 43 16 47zM308 567c-9 -5 -14 -15 -14 -25c0 -17 6 -34 19 -42c0 -14 -14 -61 -14 -66
c-1 -6 7 -19 19 -19c5 0 11 3 16 8c14 17 39 88 39 109c0 24 -4 44 -31 44c-14 0 -26 -4 -34 -9zM104 530v-11c-1 -73 -1 -123 -1 -177c0 -220 2 -281 2 -293c121 0 144 144 144 233s-49 250 -132 250c-4 0 -9 -1 -13 -2z" />
    <glyph glyph-name="dcroat" unicode="&#x111;" horiz-adv-x="330" 
d="M94 582c164 0 213 -207 213 -300c0 -179 -70 -256 -176 -273c-10 -1 -26 -4 -42 -4c-20 0 -38 4 -39 20c-6 54 -7 137 -7 222v25h-44c-19 0 -20 17 -20 31s9 23 21 23h43c0 93 1 165 2 206c0 25 0 43 16 47c10 2 23 3 33 3zM105 49c121 0 144 144 144 233
s-49 250 -132 250c-4 0 -9 -1 -13 -2v-11c-1 -73 -1 -123 -1 -177v-16h87c10 0 20 -9 20 -23c-1 -17 -6 -31 -18 -31h-89c0 -163 2 -212 2 -223z" />
    <glyph glyph-name="e" unicode="e" horiz-adv-x="232" 
d="M144 531c-17 0 -29 0 -46 -4c-6 -2 -6 -62 -6 -68c0 -76 -1 -89 -1 -106c0 -19 1 -34 5 -35c11 -4 55 -2 70 -2c30 0 31 -10 31 -28c0 -16 -11 -23 -23 -23h-52c-23 0 -26 -3 -26 -19c2 -59 -1 -158 -1 -191c0 -8 2 -9 8 -9h5c24 0 32 3 65 3c15 0 29 -2 31 -7
c3 -5 3 -17 3 -22c0 -10 -9 -16 -18 -17c-28 -3 -76 -6 -111 -6c-32 0 -41 7 -41 35v45c4 121 2 396 3 408c2 23 0 66 15 88c4 6 25 8 51 8c17 0 37 -1 54 -1c36 0 49 -1 49 -22c0 -20 -5 -28 -48 -28c-5 0 -11 1 -17 1z" />
    <glyph glyph-name="eacute" unicode="&#xe9;" horiz-adv-x="232" 
d="M192 721c2 -2 3 -5 3 -8c0 -4 -2 -8 -5 -13c-19 -25 -74 -75 -88 -75c-15 0 -24 5 -24 13c0 11 10 26 18 36c0 0 29 41 48 52c4 2 9 4 13 4c8 0 25 -3 35 -9zM144 531c-17 0 -29 0 -46 -4c-6 -2 -6 -62 -6 -68c0 -76 -1 -89 -1 -106c0 -19 1 -34 5 -35c11 -4 55 -2 70 -2
c30 0 31 -10 31 -28c0 -16 -11 -23 -23 -23h-52c-23 0 -26 -3 -26 -19c2 -59 -1 -158 -1 -191c0 -8 2 -9 8 -9h5c24 0 32 3 65 3c15 0 29 -2 31 -7c3 -5 3 -17 3 -22c0 -10 -9 -16 -18 -17c-28 -3 -76 -6 -111 -6c-32 0 -41 7 -41 35v45c4 121 2 396 3 408c2 23 0 66 15 88
c4 6 25 8 51 8c17 0 37 -1 54 -1c36 0 49 -1 49 -22c0 -20 -5 -28 -48 -28c-5 0 -11 1 -17 1z" />
    <glyph glyph-name="ecaron" unicode="&#x11b;" horiz-adv-x="232" 
d="M222 711c0 0 -79 -79 -95 -78c-23 2 -61 41 -93 66c-3 2 -3 7 -3 11s1 8 2 10c5 5 10 9 18 9s15 -5 26 -13c21 -16 47 -37 47 -37s39 35 58 46c4 2 9 4 13 4c11 0 22 -7 27 -18zM144 531c-17 0 -29 0 -46 -4c-6 -2 -6 -62 -6 -68c0 -76 -1 -89 -1 -106c0 -19 1 -34 5 -35
c11 -4 55 -2 70 -2c30 0 31 -10 31 -28c0 -16 -11 -23 -23 -23h-52c-23 0 -26 -3 -26 -19c2 -59 -1 -158 -1 -191c0 -8 2 -9 8 -9h5c24 0 32 3 65 3c15 0 29 -2 31 -7c3 -5 3 -17 3 -22c0 -10 -9 -16 -18 -17c-28 -3 -76 -6 -111 -6c-32 0 -41 7 -41 35v45
c4 121 2 396 3 408c2 23 0 66 15 88c4 6 25 8 51 8c17 0 37 -1 54 -1c36 0 49 -1 49 -22c0 -20 -5 -28 -48 -28c-5 0 -11 1 -17 1z" />
    <glyph glyph-name="ecircumflex" unicode="&#xea;" horiz-adv-x="232" 
d="M225 650c-5 -11 -16 -18 -27 -18c-4 0 -9 2 -13 4c-19 11 -58 46 -58 46s-31 -21 -52 -37c-11 -8 -18 -13 -26 -13s-13 4 -18 9c-1 2 -2 6 -2 10s0 9 3 11c38 28 75 64 98 66c16 1 95 -78 95 -78zM144 531c-17 0 -29 0 -46 -4c-6 -2 -6 -62 -6 -68c0 -76 -1 -89 -1 -106
c0 -19 1 -34 5 -35c11 -4 55 -2 70 -2c30 0 31 -10 31 -28c0 -16 -11 -23 -23 -23h-52c-23 0 -26 -3 -26 -19c2 -59 -1 -158 -1 -191c0 -8 2 -9 8 -9h5c24 0 32 3 65 3c15 0 29 -2 31 -7c3 -5 3 -17 3 -22c0 -10 -9 -16 -18 -17c-28 -3 -76 -6 -111 -6c-32 0 -41 7 -41 35
v45c4 121 2 396 3 408c2 23 0 66 15 88c4 6 25 8 51 8c17 0 37 -1 54 -1c36 0 49 -1 49 -22c0 -20 -5 -28 -48 -28c-5 0 -11 1 -17 1z" />
    <glyph glyph-name="edieresis" unicode="&#xeb;" horiz-adv-x="232" 
d="M54 714c-8 -6 -12 -15 -12 -23c0 -20 14 -40 34 -40c23 0 36 10 36 32s-9 36 -27 36c-12 0 -23 -2 -31 -5zM153 714c-8 -6 -12 -15 -12 -23c0 -20 14 -40 34 -40c23 0 36 10 36 32s-8 36 -27 36c-12 0 -23 -2 -31 -5zM144 531c-17 0 -29 0 -46 -4c-6 -2 -6 -62 -6 -68
c0 -76 -1 -89 -1 -106c0 -19 1 -34 5 -35c11 -4 55 -2 70 -2c30 0 31 -10 31 -28c0 -16 -11 -23 -23 -23h-52c-23 0 -26 -3 -26 -19c2 -59 -1 -158 -1 -191c0 -8 2 -9 8 -9h5c24 0 32 3 65 3c15 0 29 -2 31 -7c3 -5 3 -17 3 -22c0 -10 -9 -16 -18 -17c-28 -3 -76 -6 -111 -6
c-32 0 -41 7 -41 35v45c4 121 2 396 3 408c2 23 0 66 15 88c4 6 25 8 51 8c17 0 37 -1 54 -1c36 0 49 -1 49 -22c0 -20 -5 -28 -48 -28c-5 0 -11 1 -17 1z" />
    <glyph glyph-name="edotaccent" unicode="&#x117;" horiz-adv-x="232" 
d="M104 714c-8 -6 -12 -15 -12 -23c0 -20 14 -43 34 -43c23 0 36 13 36 35s-3 38 -27 38c-12 0 -23 -4 -31 -7zM144 531c-17 0 -29 0 -46 -4c-6 -2 -6 -62 -6 -68c0 -76 -1 -89 -1 -106c0 -19 1 -34 5 -35c11 -4 55 -2 70 -2c30 0 31 -10 31 -28c0 -16 -11 -23 -23 -23h-52
c-23 0 -26 -3 -26 -19c2 -59 -1 -158 -1 -191c0 -8 2 -9 8 -9h5c24 0 32 3 65 3c15 0 29 -2 31 -7c3 -5 3 -17 3 -22c0 -10 -9 -16 -18 -17c-28 -3 -76 -6 -111 -6c-32 0 -41 7 -41 35v45c4 121 2 396 3 408c2 23 0 66 15 88c4 6 25 8 51 8c17 0 37 -1 54 -1
c36 0 49 -1 49 -22c0 -20 -5 -28 -48 -28c-5 0 -11 1 -17 1z" />
    <glyph glyph-name="egrave" unicode="&#xe8;" horiz-adv-x="232" 
d="M59 721c10 6 27 9 35 9c4 0 9 -2 13 -4c19 -11 48 -52 48 -52c8 -10 18 -25 18 -36c0 -8 -9 -13 -24 -13c-14 0 -69 50 -88 75c-3 5 -5 9 -5 13c0 3 1 6 3 8zM144 531c-17 0 -29 0 -46 -4c-6 -2 -6 -62 -6 -68c0 -76 -1 -89 -1 -106c0 -19 1 -34 5 -35c11 -4 55 -2 70 -2
c30 0 31 -10 31 -28c0 -16 -11 -23 -23 -23h-52c-23 0 -26 -3 -26 -19c2 -59 -1 -158 -1 -191c0 -8 2 -9 8 -9h5c24 0 32 3 65 3c15 0 29 -2 31 -7c3 -5 3 -17 3 -22c0 -10 -9 -16 -18 -17c-28 -3 -76 -6 -111 -6c-32 0 -41 7 -41 35v45c4 121 2 396 3 408c2 23 0 66 15 88
c4 6 25 8 51 8c17 0 37 -1 54 -1c36 0 49 -1 49 -22c0 -20 -5 -28 -48 -28c-5 0 -11 1 -17 1z" />
    <glyph glyph-name="emacron" unicode="&#x113;" horiz-adv-x="232" 
d="M228 669c-2 -15 -5 -27 -16 -27h-170c-16 0 -17 15 -17 28c0 10 8 19 18 19h166c10 0 19 -10 19 -20zM144 531c-17 0 -29 0 -46 -4c-6 -2 -6 -62 -6 -68c0 -76 -1 -89 -1 -106c0 -19 1 -34 5 -35c11 -4 55 -2 70 -2c30 0 31 -10 31 -28c0 -16 -11 -23 -23 -23h-52
c-23 0 -26 -3 -26 -19c2 -59 -1 -158 -1 -191c0 -8 2 -9 8 -9h5c24 0 32 3 65 3c15 0 29 -2 31 -7c3 -5 3 -17 3 -22c0 -10 -9 -16 -18 -17c-28 -3 -76 -6 -111 -6c-32 0 -41 7 -41 35v45c4 121 2 396 3 408c2 23 0 66 15 88c4 6 25 8 51 8c17 0 37 -1 54 -1
c36 0 49 -1 49 -22c0 -20 -5 -28 -48 -28c-5 0 -11 1 -17 1z" />
    <glyph glyph-name="eogonek" unicode="&#x119;" horiz-adv-x="232" 
d="M173 49c15 0 29 -2 31 -7c3 -5 3 -17 3 -22c0 -10 -9 -16 -18 -17l-38 -3c-2 -5 -5 -10 -7 -13l-30 -48c-9 -15 -12 -25 -12 -40c0 -17 7 -30 22 -30c33 0 33 24 39 50c2 10 9 15 16 15c12 0 20 -6 20 -20c0 -18 -3 -42 -14 -56s-31 -22 -67 -22c-34 0 -64 20 -64 59
c0 36 19 75 44 102h-20c-32 0 -41 7 -41 35v45c4 121 2 396 3 408c2 23 0 66 15 88c4 6 25 8 51 8c17 0 37 -1 54 -1c36 0 49 -1 49 -22c0 -20 -5 -28 -48 -28c-5 0 -11 1 -17 1c-17 0 -29 0 -46 -4c-6 -2 -6 -62 -6 -68c0 -76 -1 -89 -1 -106c0 -19 1 -34 5 -35
c11 -4 55 -2 70 -2c30 0 31 -10 31 -28c0 -16 -11 -23 -23 -23h-52c-23 0 -26 -3 -26 -19c2 -59 -1 -158 -1 -191c0 -8 2 -9 8 -9h5c24 0 32 3 65 3z" />
    <glyph glyph-name="f" unicode="f" horiz-adv-x="261" 
d="M253 568c0 8 -46 12 -93 12c-46 0 -95 -5 -100 -9c-16 -15 -18 -37 -18 -58c1 -8 3 -121 3 -199c0 -89 -2 -178 -2 -283c0 -20 9 -31 29 -31c24 0 28 10 28 35c0 53 0 199 2 240h31c32 0 75 0 77 15v19c0 19 -29 21 -50 21c-23 0 -39 0 -55 1c0 56 0 128 -5 196
c10 1 19 2 31 2c29 0 62 -2 89 -2c20 0 31 5 33 31v10z" />
    <glyph glyph-name="g" unicode="g" horiz-adv-x="341" 
d="M334 275c1 -1 1 -4 1 -6c0 -6 -1 -19 -4 -25c-4 -6 -12 -10 -20 -10l-36 -3c1 -83 14 -232 -116 -232c-80 0 -118 65 -118 139c0 28 -7 236 -5 269c0 9 0 65 14 102s57 72 109 72c25 0 59 -15 67 -23c35 -36 37 -74 39 -125c-14 -4 -15 -11 -31 -11c-20 0 -23 28 -25 39
c-5 31 -9 76 -52 76c-42 0 -56 -54 -59 -93c-1 -9 -1 -34 -1 -69c0 -69 3 -164 3 -229c0 -40 16 -101 57 -101c48 0 67 49 67 102c0 27 -1 47 -1 65v17c-13 1 -27 2 -40 4c-10 3 -15 9 -15 23c0 2 1 12 5 14c4 5 17 8 38 8c34 0 53 1 84 1c14 0 27 0 39 -4z" />
    <glyph glyph-name="gbreve" unicode="&#x11f;" horiz-adv-x="341" 
d="M159 633c-62 0 -92 39 -92 75c0 4 1 8 2 10c5 5 11 7 19 6c9 -1 14 -6 17 -12c12 -22 26 -42 52 -42c23 0 46 27 56 51c2 4 9 4 13 4c11 0 20 -5 25 -16c0 0 -21 -76 -92 -76zM334 275c1 -1 1 -4 1 -6c0 -6 -1 -19 -4 -25c-4 -6 -12 -10 -20 -10l-36 -3
c1 -83 14 -232 -116 -232c-80 0 -118 65 -118 139c0 28 -7 236 -5 269c0 9 0 65 14 102s57 72 109 72c25 0 59 -15 67 -23c35 -36 37 -74 39 -125c-14 -4 -15 -11 -31 -11c-20 0 -23 28 -25 39c-5 31 -9 76 -52 76c-42 0 -56 -54 -59 -93c-1 -9 -1 -34 -1 -69
c0 -69 3 -164 3 -229c0 -40 16 -101 57 -101c48 0 67 49 67 102c0 27 -1 47 -1 65v17c-13 1 -27 2 -40 4c-10 3 -15 9 -15 23c0 2 1 12 5 14c4 5 17 8 38 8c34 0 53 1 84 1c14 0 27 0 39 -4z" />
    <glyph glyph-name="gcommaaccent" unicode="&#x123;" horiz-adv-x="341" 
d="M151 619c-27 0 -32 20 -32 45c0 22 25 93 40 110c5 6 11 9 15 9c13 0 21 -14 20 -19c0 -6 -14 -53 -14 -68c13 -8 19 -25 19 -42c0 -10 -5 -20 -14 -26c-8 -4 -21 -9 -34 -9zM334 275c1 -1 1 -4 1 -6c0 -6 -1 -19 -4 -25c-4 -6 -12 -10 -20 -10l-36 -3
c1 -83 14 -232 -116 -232c-80 0 -118 65 -118 139c0 28 -7 236 -5 269c0 9 0 65 14 102s57 72 109 72c25 0 59 -15 67 -23c35 -36 37 -74 39 -125c-14 -4 -15 -11 -31 -11c-20 0 -23 28 -25 39c-5 31 -9 76 -52 76c-42 0 -56 -54 -59 -93c-1 -9 -1 -34 -1 -69
c0 -69 3 -164 3 -229c0 -40 16 -101 57 -101c48 0 67 49 67 102c0 27 -1 47 -1 65v17c-13 1 -27 2 -40 4c-10 3 -15 9 -15 23c0 2 1 12 5 14c4 5 17 8 38 8c34 0 53 1 84 1c14 0 27 0 39 -4z" />
    <glyph glyph-name="gdotaccent" unicode="&#x121;" horiz-adv-x="341" 
d="M158 648c-20 0 -34 23 -34 43c0 8 4 17 12 23c8 3 19 7 31 7c24 0 27 -16 27 -38s-13 -35 -36 -35zM334 275c1 -1 1 -4 1 -6c0 -6 -1 -19 -4 -25c-4 -6 -12 -10 -20 -10l-36 -3c1 -83 14 -232 -116 -232c-80 0 -118 65 -118 139c0 28 -7 236 -5 269c0 9 0 65 14 102
s57 72 109 72c25 0 59 -15 67 -23c35 -36 37 -74 39 -125c-14 -4 -15 -11 -31 -11c-20 0 -23 28 -25 39c-5 31 -9 76 -52 76c-42 0 -56 -54 -59 -93c-1 -9 -1 -34 -1 -69c0 -69 3 -164 3 -229c0 -40 16 -101 57 -101c48 0 67 49 67 102c0 27 -1 47 -1 65v17
c-13 1 -27 2 -40 4c-10 3 -15 9 -15 23c0 2 1 12 5 14c4 5 17 8 38 8c34 0 53 1 84 1c14 0 27 0 39 -4z" />
    <glyph glyph-name="h" unicode="h" horiz-adv-x="291" 
d="M227 581c9 0 18 -3 28 -13v-106c0 -182 -4 -417 -5 -446c-9 -8 -23 -11 -34 -11c-8 0 -19 2 -19 7l1 229v2l-106 -2v-65v-80c0 -40 0 -86 -20 -91h-13c-13 0 -20 7 -20 22c0 99 1 176 1 239c0 245 -2 274 0 294c0 14 14 14 26 14c11 0 29 -5 29 -14
c-2 -121 -2 -209 -3 -273c12 1 29 1 46 1c22 0 45 0 60 -1l3 279c0 8 14 15 26 15z" />
    <glyph glyph-name="hbar" unicode="&#x127;" horiz-adv-x="291" 
d="M262 450c14 0 26 -8 26 -20c-3 -14 -8 -26 -22 -26h-11c-1 -170 -4 -362 -5 -388c-9 -8 -23 -11 -34 -11c-8 0 -19 2 -19 7l1 229v2l-106 -2v-65v-80c0 -40 0 -86 -20 -91h-13c-13 0 -20 7 -20 22c0 99 1 176 1 239v138h-11c-23 0 -24 15 -24 26c0 12 11 20 25 20h10
c-1 80 -1 97 0 110c0 14 14 14 26 14c11 0 29 -5 29 -14c-1 -40 -1 -77 -1 -110h106l1 116c0 8 14 15 26 15c9 0 18 -3 28 -13v-106v-12h7zM198 287l2 117h-107c0 -46 -1 -84 -1 -117c12 1 29 1 46 1c22 0 45 0 60 -1z" />
    <glyph glyph-name="i" unicode="i" horiz-adv-x="210" 
d="M178 51c8 -3 14 -10 16 -19c0 -13 -2 -27 -10 -29c-14 -3 -142 2 -154 2c-5 0 -11 20 -11 24c0 7 7 17 12 21c2 1 22 2 47 2v478c-22 0 -40 1 -45 2c-8 1 -10 17 -10 31c2 8 8 14 16 17c29 0 141 0 146 -3s13 -11 13 -18c0 -4 -6 -26 -11 -26s-26 -1 -51 -1v-106
c0 -136 -2 -273 -2 -334v-41h44z" />
    <glyph glyph-name="dotlessi" unicode="&#x131;" horiz-adv-x="210" 
d="M178 51c8 -3 14 -10 16 -19c0 -13 -2 -27 -10 -29c-14 -3 -142 2 -154 2c-5 0 -11 20 -11 24c0 7 7 17 12 21c2 1 22 2 47 2v478c-22 0 -40 1 -45 2c-8 1 -10 17 -10 31c2 8 8 14 16 17c29 0 141 0 146 -3s13 -11 13 -18c0 -4 -6 -26 -11 -26s-26 -1 -51 -1v-106
c0 -136 -2 -273 -2 -334v-41h44z" />
    <glyph glyph-name="iacute" unicode="&#xed;" horiz-adv-x="210" 
d="M83 625c-15 0 -24 5 -24 13c0 11 10 26 18 36c0 0 29 41 48 52c4 2 9 4 13 4c8 0 25 -3 35 -9c2 -2 3 -5 3 -8c0 -4 -2 -8 -5 -13c-19 -25 -74 -75 -88 -75zM178 51c8 -3 14 -10 16 -19c0 -13 -2 -27 -10 -29c-14 -3 -142 2 -154 2c-5 0 -11 20 -11 24c0 7 7 17 12 21
c2 1 22 2 47 2v478c-22 0 -40 1 -45 2c-8 1 -10 17 -10 31c2 8 8 14 16 17c29 0 141 0 146 -3s13 -11 13 -18c0 -4 -6 -26 -11 -26s-26 -1 -51 -1v-106c0 -136 -2 -273 -2 -334v-41h44z" />
    <glyph glyph-name="icircumflex" unicode="&#xee;" horiz-adv-x="210" 
d="M111 728c16 1 95 -78 95 -78c-5 -11 -16 -18 -27 -18c-4 0 -9 2 -13 4c-19 11 -58 46 -58 46s-31 -21 -52 -37c-11 -8 -18 -13 -26 -13s-13 4 -18 9c-1 2 -2 6 -2 10s0 9 3 11c38 28 75 64 98 66zM136 426c0 -136 -2 -273 -2 -334v-41h44c8 -3 14 -10 16 -19
c0 -13 -2 -27 -10 -29c-14 -3 -142 2 -154 2c-5 0 -11 20 -11 24c0 7 7 17 12 21c2 1 22 2 47 2v478c-22 0 -40 1 -45 2c-8 1 -10 17 -10 31c2 8 8 14 16 17c29 0 141 0 146 -3s13 -11 13 -18c0 -4 -6 -26 -11 -26s-26 -1 -51 -1v-106z" />
    <glyph glyph-name="idieresis" unicode="&#xef;" horiz-adv-x="210" 
d="M57 651c-20 0 -34 20 -34 40c0 8 4 17 12 23c8 3 19 5 31 5c18 0 27 -14 27 -36s-13 -32 -36 -32zM156 651c-20 0 -34 20 -34 40c0 8 4 17 12 23c8 3 19 5 31 5c19 0 27 -14 27 -36s-13 -32 -36 -32zM178 51c8 -3 14 -10 16 -19c0 -13 -2 -27 -10 -29
c-14 -3 -142 2 -154 2c-5 0 -11 20 -11 24c0 7 7 17 12 21c2 1 22 2 47 2v478c-22 0 -40 1 -45 2c-8 1 -10 17 -10 31c2 8 8 14 16 17c29 0 141 0 146 -3s13 -11 13 -18c0 -4 -6 -26 -11 -26s-26 -1 -51 -1v-106c0 -136 -2 -273 -2 -334v-41h44z" />
    <glyph glyph-name="i.loclTRK" horiz-adv-x="210" 
d="M107 648c-20 0 -34 23 -34 43c0 8 4 17 12 23c8 3 19 7 31 7c24 0 27 -16 27 -38s-13 -35 -36 -35zM178 51c8 -3 14 -10 16 -19c0 -13 -2 -27 -10 -29c-14 -3 -142 2 -154 2c-5 0 -11 20 -11 24c0 7 7 17 12 21c2 1 22 2 47 2v478c-22 0 -40 1 -45 2c-8 1 -10 17 -10 31
c2 8 8 14 16 17c29 0 141 0 146 -3s13 -11 13 -18c0 -4 -6 -26 -11 -26s-26 -1 -51 -1v-106c0 -136 -2 -273 -2 -334v-41h44z" />
    <glyph glyph-name="igrave" unicode="&#xec;" horiz-adv-x="210" 
d="M130 625c-14 0 -69 50 -88 75c-3 5 -5 9 -5 13c0 3 1 6 3 8c10 6 27 9 35 9c4 0 9 -2 13 -4c19 -11 48 -52 48 -52c8 -10 18 -25 18 -36c0 -8 -9 -13 -24 -13zM178 51c8 -3 14 -10 16 -19c0 -13 -2 -27 -10 -29c-14 -3 -142 2 -154 2c-5 0 -11 20 -11 24c0 7 7 17 12 21
c2 1 22 2 47 2v478c-22 0 -40 1 -45 2c-8 1 -10 17 -10 31c2 8 8 14 16 17c29 0 141 0 146 -3s13 -11 13 -18c0 -4 -6 -26 -11 -26s-26 -1 -51 -1v-106c0 -136 -2 -273 -2 -334v-41h44z" />
    <glyph glyph-name="imacron" unicode="&#x12b;" horiz-adv-x="210" 
d="M190 689c10 0 19 -10 19 -20c-2 -15 -5 -27 -16 -27h-170c-16 0 -17 15 -17 28c0 10 8 19 18 19h166zM136 426c0 -136 -2 -273 -2 -334v-41h44c8 -3 14 -10 16 -19c0 -13 -2 -27 -10 -29c-14 -3 -142 2 -154 2c-5 0 -11 20 -11 24c0 7 7 17 12 21c2 1 22 2 47 2v478
c-22 0 -40 1 -45 2c-8 1 -10 17 -10 31c2 8 8 14 16 17c29 0 141 0 146 -3s13 -11 13 -18c0 -4 -6 -26 -11 -26s-26 -1 -51 -1v-106z" />
    <glyph glyph-name="iogonek" unicode="&#x12f;" horiz-adv-x="210" 
d="M107 648c-20 0 -34 23 -34 43c0 8 4 17 12 23c8 3 19 7 31 7c24 0 27 -16 27 -38s-13 -35 -36 -35zM178 51c8 -3 14 -10 16 -19c0 -13 -2 -27 -10 -29c-5 -1 -26 -1 -51 -1c-2 -5 -6 -11 -8 -14l-30 -48c-9 -15 -12 -25 -12 -40c0 -17 7 -30 22 -30c33 0 33 24 39 50
c2 10 9 15 16 15c12 0 20 -6 20 -20c0 -18 -3 -42 -14 -56s-31 -22 -67 -22c-34 0 -64 20 -64 59c0 38 21 80 49 107l-54 2c-5 0 -11 20 -11 24c0 7 7 17 12 21c2 1 22 2 47 2v478c-22 0 -40 1 -45 2c-8 1 -10 17 -10 31c2 8 8 14 16 17c29 0 141 0 146 -3s13 -11 13 -18
c0 -4 -6 -26 -11 -26s-26 -1 -51 -1v-106c0 -136 -2 -273 -2 -334v-41h44z" />
    <glyph glyph-name="j" unicode="j" horiz-adv-x="265" 
d="M183 572c-9 -10 -9 -29 -9 -41c0 -138 -2 -272 -2 -424c0 -39 -8 -70 -43 -70c-31 0 -43 30 -43 60c0 15 1 53 1 90c0 33 -19 44 -29 44c-14 0 -32 -9 -32 -18v-61c0 -63 8 -156 96 -156c87 0 107 67 107 135c6 107 7 279 7 417c0 14 -1 29 -16 30c-12 1 -32 -2 -37 -6z
" />
    <glyph glyph-name="k" unicode="k" horiz-adv-x="282" 
d="M105 579c-12 5 -23 7 -39 7c-29 0 -18 -40 -18 -71c0 -89 -5 -344 -10 -482c0 -15 1 -27 4 -28c8 -2 14 -5 21 -5c18 0 30 2 30 39c0 40 2 114 5 179c0 10 2 26 6 28c33 -56 41 -93 100 -210c10 -24 19 -42 35 -42c12 1 38 -1 38 21c0 16 -10 37 -13 43
c-45 89 -76 148 -123 246c32 67 81 182 100 221c3 6 8 25 8 37c0 14 -4 21 -20 21c-7 0 -15 -1 -22 -3c-7 -3 -20 -29 -25 -45c-25 -77 -42 -108 -77 -204c-1 16 -1 32 -1 47c0 37 3 78 3 120c0 27 2 52 -2 81z" />
    <glyph glyph-name="kcommaaccent" unicode="&#x137;" horiz-adv-x="282" 
d="M105 579c-12 5 -23 7 -39 7c-29 0 -18 -40 -18 -71c0 -89 -5 -344 -10 -482c0 -15 1 -27 4 -28c8 -2 14 -5 21 -5c18 0 30 2 30 39c0 40 2 114 5 179c0 10 2 26 6 28c33 -56 41 -93 100 -210c10 -24 19 -42 35 -42c12 1 38 -1 38 21c0 16 -10 37 -13 43
c-45 89 -76 148 -123 246c32 67 81 182 100 221c3 6 8 25 8 37c0 14 -4 21 -20 21c-7 0 -15 -1 -22 -3c-7 -3 -20 -29 -25 -45c-25 -77 -42 -108 -77 -204c-1 16 -1 32 -1 47c0 37 3 78 3 120c0 27 2 52 -2 81zM118 -53c-9 -6 -14 -16 -14 -26c0 -17 6 -34 19 -42
c0 -15 -14 -62 -14 -68c-1 -5 7 -19 20 -19c4 0 10 3 15 9c15 17 40 88 40 110c0 25 -5 45 -32 45c-13 0 -26 -5 -34 -9z" />
    <glyph glyph-name="l" unicode="l" horiz-adv-x="222" 
d="M98 70c3 83 3 433 3 435c0 25 2 64 -12 69c-1 0 -14 8 -27 8c-8 0 -16 -4 -23 -15c5 -79 5 -438 2 -507c0 -12 0 -35 6 -43c15 -10 44 -11 85 -11c18 0 57 -2 70 5c9 6 11 14 11 24c0 8 -4 22 -5 23c-14 3 -24 3 -44 3h-36c-18 0 -30 1 -30 9z" />
    <glyph glyph-name="lacute" unicode="&#x13a;" horiz-adv-x="222" 
d="M68 609c-15 0 -24 5 -24 13c0 11 10 26 18 36c0 0 29 41 48 52c4 2 9 4 13 4c8 0 25 -3 35 -9c2 -2 3 -5 3 -8c0 -4 -2 -8 -5 -13c-19 -25 -74 -75 -88 -75zM98 70c3 83 3 433 3 435c0 25 2 64 -12 69c-1 0 -14 8 -27 8c-8 0 -16 -4 -23 -15c5 -79 5 -438 2 -507
c0 -12 0 -35 6 -43c15 -10 44 -11 85 -11c18 0 57 -2 70 5c9 6 11 14 11 24c0 8 -4 22 -5 23c-14 3 -24 3 -44 3h-36c-18 0 -30 1 -30 9z" />
    <glyph glyph-name="lcaron" unicode="&#x13e;" horiz-adv-x="254" 
d="M98 70c3 83 3 433 3 435c0 25 2 64 -12 69c-1 0 -14 8 -27 8c-8 0 -16 -4 -23 -15c5 -79 5 -438 2 -507c0 -12 0 -35 6 -43c15 -10 44 -11 85 -11c18 0 57 -2 70 5c9 6 11 14 11 24c0 8 -4 22 -5 23c-14 3 -24 3 -44 3h-36c-18 0 -30 1 -30 9zM153 567
c-9 -5 -14 -15 -14 -25c0 -17 6 -34 19 -42c0 -14 -14 -61 -14 -66c-1 -6 7 -19 19 -19c5 0 11 3 16 8c14 17 39 88 39 109c0 24 -4 44 -31 44c-14 0 -26 -4 -34 -9z" />
    <glyph glyph-name="lcommaaccent" unicode="&#x13c;" horiz-adv-x="222" 
d="M98 70c3 83 3 433 3 435c0 25 2 64 -12 69c-1 0 -14 8 -27 8c-8 0 -16 -4 -23 -15c5 -79 5 -438 2 -507c0 -12 0 -35 6 -43c15 -10 44 -11 85 -11c18 0 57 -2 70 5c9 6 11 14 11 24c0 8 -4 22 -5 23c-14 3 -24 3 -44 3h-36c-18 0 -30 1 -30 9zM93 -53
c-9 -6 -14 -16 -14 -26c0 -17 6 -34 19 -42c0 -15 -14 -62 -14 -68c-1 -5 7 -19 20 -19c4 0 10 3 15 9c15 17 40 88 40 110c0 25 -5 45 -32 45c-13 0 -26 -5 -34 -9z" />
    <glyph glyph-name="lslash" unicode="&#x142;" horiz-adv-x="222" 
d="M215 359l-115 -94c0 -82 -1 -161 -2 -195c0 -8 12 -9 30 -9h36c20 0 30 0 44 -3c1 -1 5 -15 5 -23c0 -10 -2 -18 -11 -24c-13 -7 -52 -5 -70 -5c-41 0 -70 1 -85 11c-6 8 -6 31 -6 43c1 24 2 85 2 157l-26 -21c-16 -15 -38 -3 -38 21c0 7 3 13 8 17l56 47
c0 117 -1 243 -4 286c7 11 15 15 23 15c13 0 26 -8 27 -8c14 -5 12 -44 12 -69v-176v0l84 68c16 15 39 3 39 -20c0 -7 -4 -13 -9 -18z" />
    <glyph glyph-name="m" unicode="m" horiz-adv-x="469" 
d="M370 570c14 5 17 8 33 8c17 0 27 -13 27 -34c2 -161 5 -322 5 -487c0 -30 -3 -58 -45 -58c-8 0 -13 3 -14 14c0 450 2 459 1 469c-38 -182 -52 -201 -90 -393c-8 -23 -31 -28 -51 -28c-16 0 -27 12 -32 28c-27 81 -71 228 -98 331c-5 22 -10 38 -10 46
c0 -135 3 -307 3 -444c-3 -16 -20 -20 -33 -20c-18 0 -22 22 -22 36c-2 25 -2 412 -3 520c7 17 26 22 43 22c16 0 26 -4 32 -7c81 -301 127 -454 127 -454s81 357 94 399c7 20 10 41 33 52z" />
    <glyph glyph-name="n" unicode="n" horiz-adv-x="320" 
d="M39 544c-1 -26 -1 -131 -1 -245v-93c0 -106 -5 -203 12 -203s28 3 43 17c0 0 2 121 2 228c0 29 -6 110 -5 134l123 -356c3 -8 12 -11 23 -11c22 0 51 15 51 29c3 9 4 40 4 88c0 139 -4 382 -4 437c-3 9 -7 10 -8 13c-38 -5 -45 -19 -45 -36v-75c0 -65 5 -171 5 -257
c0 -34 4 -98 2 -121c-41 111 -96 294 -134 423c-5 17 -8 44 -24 53c-25 0 -43 -11 -44 -25z" />
    <glyph glyph-name="nacute" unicode="&#x144;" horiz-adv-x="320" 
d="M232 721c2 -2 3 -5 3 -8c0 -4 -2 -8 -5 -13c-19 -25 -74 -75 -88 -75c-15 0 -24 5 -24 13c0 11 10 26 18 36c0 0 29 41 48 52c4 2 9 4 13 4c8 0 25 -3 35 -9zM39 544c-1 -26 -1 -131 -1 -245v-93c0 -106 -5 -203 12 -203s28 3 43 17c0 0 2 121 2 228c0 29 -6 110 -5 134
l123 -356c3 -8 12 -11 23 -11c22 0 51 15 51 29c3 9 4 40 4 88c0 139 -4 382 -4 437c-3 9 -7 10 -8 13c-38 -5 -45 -19 -45 -36v-75c0 -65 5 -171 5 -257c0 -34 4 -98 2 -121c-41 111 -96 294 -134 423c-5 17 -8 44 -24 53c-25 0 -43 -11 -44 -25z" />
    <glyph glyph-name="ncaron" unicode="&#x148;" horiz-adv-x="320" 
d="M262 711c0 0 -79 -79 -95 -78c-23 2 -61 41 -93 66c-3 2 -3 7 -3 11s1 8 2 10c5 5 10 9 18 9s15 -5 26 -13c21 -16 47 -37 47 -37s39 35 58 46c4 2 9 4 13 4c11 0 22 -7 27 -18zM39 544c-1 -26 -1 -131 -1 -245v-93c0 -106 -5 -203 12 -203s28 3 43 17c0 0 2 121 2 228
c0 29 -6 110 -5 134l123 -356c3 -8 12 -11 23 -11c22 0 51 15 51 29c3 9 4 40 4 88c0 139 -4 382 -4 437c-3 9 -7 10 -8 13c-38 -5 -45 -19 -45 -36v-75c0 -65 5 -171 5 -257c0 -34 4 -98 2 -121c-41 111 -96 294 -134 423c-5 17 -8 44 -24 53c-25 0 -43 -11 -44 -25z" />
    <glyph glyph-name="ncommaaccent" unicode="&#x146;" horiz-adv-x="320" 
d="M39 544c-1 -26 -1 -131 -1 -245v-93c0 -106 -5 -203 12 -203s28 3 43 17c0 0 2 121 2 228c0 29 -6 110 -5 134l123 -356c3 -8 12 -11 23 -11c22 0 51 15 51 29c3 9 4 40 4 88c0 139 -4 382 -4 437c-3 9 -7 10 -8 13c-38 -5 -45 -19 -45 -36v-75c0 -65 5 -171 5 -257
c0 -34 4 -98 2 -121c-41 111 -96 294 -134 423c-5 17 -8 44 -24 53c-25 0 -43 -11 -44 -25zM134 -53c-9 -6 -14 -16 -14 -26c0 -17 6 -34 19 -42c0 -15 -14 -62 -14 -68c-1 -5 7 -19 20 -19c4 0 10 3 15 9c15 17 40 88 40 110c0 25 -5 45 -32 45c-13 0 -26 -5 -34 -9z" />
    <glyph glyph-name="eng" unicode="&#x14b;" horiz-adv-x="323" 
d="M187 -99c-18 0 -29 5 -43 16c-1 2 -3 2 -5 2c-8 0 -18 -15 -18 -25c0 -3 0 -12 4 -16c14 -11 33 -18 55 -18c41 0 68 15 85 39c19 27 29 56 29 218c0 142 -7 394 -7 450c-3 10 -5 11 -7 14c-38 -5 -46 -20 -46 -37v-78c0 -107 12 -254 12 -375l-1 -17
c-42 115 -101 305 -141 439c-5 18 -8 46 -25 55c-25 0 -41 -12 -43 -26c-1 -27 -1 -135 -1 -254v-95c0 -110 2 -213 20 -213c17 0 27 11 42 17c0 0 -6 128 -6 239c0 30 -5 125 -4 150l144 -407v-16c0 -40 -10 -62 -44 -62z" />
    <glyph glyph-name="ntilde" unicode="&#xf1;" horiz-adv-x="320" 
d="M63 664c0 -15 9 -21 17 -21c20 0 24 30 51 30c29 0 37 -31 76 -31c29 0 64 30 64 62c0 11 -11 17 -11 17c-18 -3 -26 -27 -50 -27c-32 0 -44 29 -80 29c-42 0 -67 -43 -67 -59zM39 544c-1 -26 -1 -131 -1 -245v-93c0 -106 -5 -203 12 -203s28 3 43 17c0 0 2 121 2 228
c0 29 -6 110 -5 134l123 -356c3 -8 12 -11 23 -11c22 0 51 15 51 29c3 9 4 40 4 88c0 139 -4 382 -4 437c-3 9 -7 10 -8 13c-38 -5 -45 -19 -45 -36v-75c0 -65 5 -171 5 -257c0 -34 4 -98 2 -121c-41 111 -96 294 -134 423c-5 17 -8 44 -24 53c-25 0 -43 -11 -44 -25z" />
    <glyph glyph-name="o" unicode="o" horiz-adv-x="287" 
d="M262 446c0 -45 3 -88 3 -128c0 -187 -24 -320 -113 -320c-48 0 -91 15 -110 108c-9 45 -15 111 -15 173c0 41 1 80 1 110c0 70 22 202 131 202c61 0 100 -78 103 -145zM147 43c49 0 59 135 59 262c0 61 -2 136 -8 173c-3 25 -20 65 -49 65c-36 0 -65 -37 -65 -252
c0 -73 3 -248 63 -248z" />
    <glyph glyph-name="oacute" unicode="&#xf3;" horiz-adv-x="287" 
d="M217 721c2 -2 3 -5 3 -8c0 -4 -2 -8 -5 -13c-19 -25 -74 -75 -88 -75c-15 0 -24 5 -24 13c0 11 10 26 18 36c0 0 29 41 48 52c4 2 9 4 13 4c8 0 25 -3 35 -9zM262 446c0 -45 3 -88 3 -128c0 -187 -24 -320 -113 -320c-48 0 -91 15 -110 108c-9 45 -15 111 -15 173
c0 41 1 80 1 110c0 70 22 202 131 202c61 0 100 -78 103 -145zM147 43c49 0 59 135 59 262c0 61 -2 136 -8 173c-3 25 -20 65 -49 65c-36 0 -65 -37 -65 -252c0 -73 3 -248 63 -248z" />
    <glyph glyph-name="ocircumflex" unicode="&#xf4;" horiz-adv-x="287" 
d="M250 650c-5 -11 -16 -18 -27 -18c-4 0 -9 2 -13 4c-19 11 -58 46 -58 46s-31 -21 -52 -37c-11 -8 -18 -13 -26 -13s-13 4 -18 9c-1 2 -2 6 -2 10s0 9 3 11c38 28 75 64 98 66c16 1 95 -78 95 -78zM262 446c0 -45 3 -88 3 -128c0 -187 -24 -320 -113 -320
c-48 0 -91 15 -110 108c-9 45 -15 111 -15 173c0 41 1 80 1 110c0 70 22 202 131 202c61 0 100 -78 103 -145zM147 43c49 0 59 135 59 262c0 61 -2 136 -8 173c-3 25 -20 65 -49 65c-36 0 -65 -37 -65 -252c0 -73 3 -248 63 -248z" />
    <glyph glyph-name="odieresis" unicode="&#xf6;" horiz-adv-x="287" 
d="M79 714c-8 -6 -12 -15 -12 -23c0 -20 14 -40 34 -40c23 0 36 10 36 32s-9 36 -27 36c-12 0 -23 -2 -31 -5zM178 714c-8 -6 -12 -15 -12 -23c0 -20 14 -40 34 -40c23 0 36 10 36 32s-8 36 -27 36c-12 0 -23 -2 -31 -5zM262 446c0 -45 3 -88 3 -128
c0 -187 -24 -320 -113 -320c-48 0 -91 15 -110 108c-9 45 -15 111 -15 173c0 41 1 80 1 110c0 70 22 202 131 202c61 0 100 -78 103 -145zM147 43c49 0 59 135 59 262c0 61 -2 136 -8 173c-3 25 -20 65 -49 65c-36 0 -65 -37 -65 -252c0 -73 3 -248 63 -248z" />
    <glyph glyph-name="ograve" unicode="&#xf2;" horiz-adv-x="287" 
d="M84 721c10 6 27 9 35 9c4 0 9 -2 13 -4c19 -11 48 -52 48 -52c8 -10 18 -25 18 -36c0 -8 -9 -13 -24 -13c-14 0 -69 50 -88 75c-3 5 -5 9 -5 13c0 3 1 6 3 8zM262 446c0 -45 3 -88 3 -128c0 -187 -24 -320 -113 -320c-48 0 -91 15 -110 108c-9 45 -15 111 -15 173
c0 41 1 80 1 110c0 70 22 202 131 202c61 0 100 -78 103 -145zM147 43c49 0 59 135 59 262c0 61 -2 136 -8 173c-3 25 -20 65 -49 65c-36 0 -65 -37 -65 -252c0 -73 3 -248 63 -248z" />
    <glyph glyph-name="ohungarumlaut" unicode="&#x151;" horiz-adv-x="287" 
d="M169 721c2 -2 3 -5 3 -8c0 -4 -2 -8 -5 -13c-19 -25 -74 -75 -88 -75c-15 0 -24 5 -24 13c0 11 10 26 18 36c0 0 29 41 48 52c4 2 9 4 13 4c8 0 25 -3 35 -9zM280 721c2 -2 3 -5 3 -8c0 -4 -2 -8 -5 -13c-19 -25 -74 -75 -88 -75c-15 0 -24 5 -24 13c0 11 10 26 18 36
c0 0 29 41 48 52c4 2 9 4 13 4c8 0 25 -3 35 -9zM262 446c0 -45 3 -88 3 -128c0 -187 -24 -320 -113 -320c-48 0 -91 15 -110 108c-9 45 -15 111 -15 173c0 41 1 80 1 110c0 70 22 202 131 202c61 0 100 -78 103 -145zM147 43c49 0 59 135 59 262c0 61 -2 136 -8 173
c-3 25 -20 65 -49 65c-36 0 -65 -37 -65 -252c0 -73 3 -248 63 -248z" />
    <glyph glyph-name="omacron" unicode="&#x14d;" horiz-adv-x="287" 
d="M253 669c-2 -15 -5 -27 -16 -27h-170c-16 0 -17 15 -17 28c0 10 8 19 18 19h166c10 0 19 -10 19 -20zM262 446c0 -45 3 -88 3 -128c0 -187 -24 -320 -113 -320c-48 0 -91 15 -110 108c-9 45 -15 111 -15 173c0 41 1 80 1 110c0 70 22 202 131 202c61 0 100 -78 103 -145z
M147 43c49 0 59 135 59 262c0 61 -2 136 -8 173c-3 25 -20 65 -49 65c-36 0 -65 -37 -65 -252c0 -73 3 -248 63 -248z" />
    <glyph glyph-name="oslash" unicode="&#xf8;" horiz-adv-x="287" 
d="M260 604c14 0 30 -2 30 -17c0 -1 -1 -2 -1 -4c-1 -1 -15 -35 -36 -86c5 -17 8 -34 9 -51c0 -45 3 -88 3 -128c0 -187 -24 -320 -113 -320c-32 0 -61 7 -83 37c-8 -19 -12 -30 -13 -31c-7 -12 -12 -20 -30 -20c-13 0 -25 0 -25 16c0 7 6 26 10 33l30 76
c-8 45 -14 109 -14 170c0 41 1 80 1 110c0 70 22 202 131 202c25 0 46 -13 63 -33l12 30c5 15 17 16 26 16zM84 291c0 -19 0 -45 2 -72l109 273c-6 23 -22 51 -46 51c-36 0 -65 -37 -65 -252zM206 305c0 23 0 48 -1 72c-36 -91 -76 -193 -106 -267c9 -39 24 -67 48 -67
c49 0 59 135 59 262z" />
    <glyph glyph-name="otilde" unicode="&#xf5;" horiz-adv-x="287" 
d="M48 664c0 -15 9 -21 17 -21c20 0 24 30 51 30c29 0 37 -31 76 -31c29 0 64 30 64 62c0 11 -11 17 -11 17c-18 -3 -26 -27 -50 -27c-32 0 -44 29 -80 29c-42 0 -67 -43 -67 -59zM262 446c0 -45 3 -88 3 -128c0 -187 -24 -320 -113 -320c-48 0 -91 15 -110 108
c-9 45 -15 111 -15 173c0 41 1 80 1 110c0 70 22 202 131 202c61 0 100 -78 103 -145zM147 43c49 0 59 135 59 262c0 61 -2 136 -8 173c-3 25 -20 65 -49 65c-36 0 -65 -37 -65 -252c0 -73 3 -248 63 -248z" />
    <glyph glyph-name="oe" unicode="&#x153;" horiz-adv-x="377" 
d="M318 49c15 0 29 -2 31 -7c3 -5 3 -17 3 -22c0 -10 -9 -16 -18 -17c-28 -3 -76 -6 -111 -6c-17 0 -28 2 -34 8c-11 -5 -22 -7 -37 -7c-48 0 -91 15 -110 108c-9 45 -15 111 -15 173c0 41 1 80 1 110c0 70 22 202 131 202c18 0 37 -5 54 -12c9 1 23 2 38 2
c17 0 37 -1 54 -1c36 0 49 -1 49 -22c0 -20 -5 -28 -48 -28c-5 0 -11 1 -17 1c-17 0 -29 0 -46 -4c-6 -2 -6 -62 -6 -68c0 -76 -1 -89 -1 -106c0 -19 1 -34 5 -35c11 -4 55 -2 70 -2c30 0 31 -10 31 -28c0 -16 -11 -23 -23 -23h-52c-23 0 -26 -3 -26 -19
c2 -59 -1 -158 -1 -191c0 -8 2 -9 8 -9h5c24 0 32 3 65 3zM150 43c12 0 22 2 32 5v29c4 121 2 396 3 408c1 14 1 35 4 54c-16 3 -31 4 -40 4c-36 0 -65 -37 -65 -252c0 -73 6 -248 66 -248z" />
    <glyph glyph-name="p" unicode="p" horiz-adv-x="285" 
d="M39 525v5c10 48 69 52 107 52c43 0 79 -8 101 -44c14 -22 14 -62 14 -88c0 -60 -6 -135 -14 -161c-18 -52 -52 -73 -94 -73c-19 0 -56 0 -57 -1c-4 -4 -5 -76 -5 -126c0 -33 1 -58 1 -58c0 -4 -9 -33 -33 -33c-15 0 -24 3 -24 14zM96 522c-3 -117 -3 -180 -2 -258h48
c38 0 63 39 63 89l1 90c0 63 -11 94 -72 94c-15 0 -37 -6 -38 -15z" />
    <glyph glyph-name="thorn" unicode="&#xfe;" horiz-adv-x="274" 
d="M138 489c79 0 109 -53 109 -131c0 -60 -6 -155 -14 -180c-18 -52 -52 -74 -94 -74c-13 0 -36 5 -48 8l-1 -84c0 -3 -12 -32 -36 -32c-15 0 -18 2 -18 13l4 547c0 13 13 25 28 25c9 0 21 -3 27 -14l-1 -85c15 4 29 7 44 7zM192 279l1 72c0 62 -12 95 -73 95
c-8 0 -18 -2 -26 -6l-3 -279c12 -4 32 -8 47 -8c46 1 54 77 54 126z" />
    <glyph glyph-name="q" unicode="q" horiz-adv-x="289" 
d="M244 86c31 -31 47 -69 51 -106c0 -4 -17 -13 -30 -13c-5 0 -9 1 -10 5c-10 23 -21 43 -33 61c-17 -26 -39 -40 -69 -40c-48 0 -90 15 -109 107c-9 45 -15 110 -15 172c0 40 1 79 1 109c0 70 13 201 130 201c61 0 100 -77 104 -144c0 -45 2 -88 2 -127
c0 -91 -6 -169 -22 -225zM152 533c-36 0 -66 -36 -66 -249c0 -35 1 -91 8 -141c34 2 74 -6 105 -23c8 49 10 114 10 178c0 61 -2 134 -8 170c-3 25 -20 65 -49 65zM148 39c17 0 29 13 38 34c-22 18 -49 28 -85 28c10 -36 24 -62 47 -62z" />
    <glyph glyph-name="r" unicode="r" horiz-adv-x="277" 
d="M247 289c-12 -36 -32 -57 -57 -66c25 -35 73 -110 86 -218c-1 -1 -11 -9 -27 -9c-11 0 -31 11 -33 17c-11 59 -43 170 -92 203c-15 0 -27 1 -28 0c-4 -4 -5 -77 -5 -127c0 -33 1 -58 1 -58c0 -4 -9 -33 -33 -33c-15 0 -24 3 -24 14l4 513v5c10 48 69 52 107 52
c43 0 79 -8 101 -44c14 -22 14 -62 14 -88c0 -60 -6 -135 -14 -161zM94 264h48c38 0 63 39 63 89l1 90c0 63 -11 94 -72 94c-15 0 -37 -6 -38 -15c-3 -117 -3 -180 -2 -258zM276 5v0z" />
    <glyph glyph-name="racute" unicode="&#x155;" horiz-adv-x="277" 
d="M117 625c-15 0 -24 5 -24 13c0 11 10 26 18 36c0 0 29 41 48 52c4 2 9 4 13 4c8 0 25 -3 35 -9c2 -2 3 -5 3 -8c0 -4 -2 -8 -5 -13c-19 -25 -74 -75 -88 -75zM247 289c-12 -36 -32 -57 -57 -66c25 -35 73 -110 86 -218c-1 -1 -11 -9 -27 -9c-11 0 -31 11 -33 17
c-11 59 -43 170 -92 203c-15 0 -27 1 -28 0c-4 -4 -5 -77 -5 -127c0 -33 1 -58 1 -58c0 -4 -9 -33 -33 -33c-15 0 -24 3 -24 14l4 513v5c10 48 69 52 107 52c43 0 79 -8 101 -44c14 -22 14 -62 14 -88c0 -60 -6 -135 -14 -161zM94 264h48c38 0 63 39 63 89l1 90
c0 63 -11 94 -72 94c-15 0 -37 -6 -38 -15c-3 -117 -3 -180 -2 -258zM276 5v0z" />
    <glyph glyph-name="rcaron" unicode="&#x159;" horiz-adv-x="277" 
d="M49 699c-3 2 -3 7 -3 11s1 8 2 10c5 5 10 9 18 9s15 -5 26 -13c21 -16 47 -37 47 -37s39 35 58 46c4 2 9 4 13 4c11 0 22 -7 27 -18c0 0 -79 -79 -95 -78c-23 2 -61 41 -93 66zM247 289c-12 -36 -32 -57 -57 -66c25 -35 73 -110 86 -218c-1 -1 -11 -9 -27 -9
c-11 0 -31 11 -33 17c-11 59 -43 170 -92 203c-15 0 -27 1 -28 0c-4 -4 -5 -77 -5 -127c0 -33 1 -58 1 -58c0 -4 -9 -33 -33 -33c-15 0 -24 3 -24 14l4 513v5c10 48 69 52 107 52c43 0 79 -8 101 -44c14 -22 14 -62 14 -88c0 -60 -6 -135 -14 -161zM94 264h48
c38 0 63 39 63 89l1 90c0 63 -11 94 -72 94c-15 0 -37 -6 -38 -15c-3 -117 -3 -180 -2 -258zM276 5v0z" />
    <glyph glyph-name="rcommaaccent" unicode="&#x157;" horiz-adv-x="277" 
d="M247 289c-12 -36 -32 -57 -57 -66c25 -35 73 -110 86 -218c-1 -1 -11 -9 -27 -9c-11 0 -31 11 -33 17c-11 59 -43 170 -92 203c-15 0 -27 1 -28 0c-4 -4 -5 -77 -5 -127c0 -33 1 -58 1 -58c0 -4 -9 -33 -33 -33c-15 0 -24 3 -24 14l4 513v5c10 48 69 52 107 52
c43 0 79 -8 101 -44c14 -22 14 -62 14 -88c0 -60 -6 -135 -14 -161zM94 264h48c38 0 63 39 63 89l1 90c0 63 -11 94 -72 94c-15 0 -37 -6 -38 -15c-3 -117 -3 -180 -2 -258zM276 5v0zM157 -44c27 0 32 -20 32 -45c0 -22 -25 -93 -40 -110c-5 -6 -11 -9 -15 -9
c-13 0 -21 14 -20 19c0 6 14 53 14 68c-13 8 -19 25 -19 42c0 10 5 20 14 26c8 4 21 9 34 9z" />
    <glyph glyph-name="s" unicode="s" horiz-adv-x="257" 
d="M145 592c83 0 95 -88 97 -147c0 -11 -2 -20 -14 -20c-18 0 -35 0 -41 18c-7 27 6 105 -40 105c-30 0 -48 -24 -48 -66c0 -105 144 -197 144 -325c0 -87 -25 -163 -117 -163c-61 0 -96 67 -96 126c0 19 7 37 30 37c20 0 36 -10 36 -30c1 -27 2 -87 40 -87
c46 0 50 55 50 87c0 136 -146 196 -146 352c0 69 47 113 105 113z" />
    <glyph glyph-name="sacute" unicode="&#x15b;" horiz-adv-x="257" 
d="M205 721c2 -2 3 -5 3 -8c0 -4 -2 -8 -5 -13c-19 -25 -74 -75 -88 -75c-15 0 -24 5 -24 13c0 11 10 26 18 36c0 0 29 41 48 52c4 2 9 4 13 4c8 0 25 -3 35 -9zM145 592c83 0 95 -88 97 -147c0 -11 -2 -20 -14 -20c-18 0 -35 0 -41 18c-7 27 6 105 -40 105
c-30 0 -48 -24 -48 -66c0 -105 144 -197 144 -325c0 -87 -25 -163 -117 -163c-61 0 -96 67 -96 126c0 19 7 37 30 37c20 0 36 -10 36 -30c1 -27 2 -87 40 -87c46 0 50 55 50 87c0 136 -146 196 -146 352c0 69 47 113 105 113z" />
    <glyph glyph-name="scaron" unicode="&#x161;" horiz-adv-x="257" 
d="M235 711c0 0 -79 -79 -95 -78c-23 2 -61 41 -93 66c-3 2 -3 7 -3 11s1 8 2 10c5 5 10 9 18 9s15 -5 26 -13c21 -16 47 -37 47 -37s39 35 58 46c4 2 9 4 13 4c11 0 22 -7 27 -18zM145 592c83 0 95 -88 97 -147c0 -11 -2 -20 -14 -20c-18 0 -35 0 -41 18
c-7 27 6 105 -40 105c-30 0 -48 -24 -48 -66c0 -105 144 -197 144 -325c0 -87 -25 -163 -117 -163c-61 0 -96 67 -96 126c0 19 7 37 30 37c20 0 36 -10 36 -30c1 -27 2 -87 40 -87c46 0 50 55 50 87c0 136 -146 196 -146 352c0 69 47 113 105 113z" />
    <glyph glyph-name="scedilla" unicode="&#x15f;" horiz-adv-x="257" 
d="M145 -25c49 -13 59 -37 59 -68c0 -52 -41 -69 -75 -69c-25 0 -56 9 -56 34c0 12 4 17 10 17c4 0 8 -2 13 -4c6 -3 15 -6 23 -6c22 0 45 11 45 32c0 24 -30 26 -60 38c-19 8 -27 15 -27 33c0 8 3 16 7 24c-35 23 -54 70 -54 114c0 19 7 37 30 37c20 0 36 -10 36 -30
c1 -27 2 -87 40 -87c46 0 50 55 50 87c0 136 -146 196 -146 352c0 69 47 113 105 113c83 0 95 -88 97 -147c0 -11 -2 -20 -14 -20c-18 0 -35 0 -41 18c-7 27 6 105 -40 105c-30 0 -48 -24 -48 -66c0 -105 144 -197 144 -325c0 -87 -25 -163 -117 -163h-4c0 -3 -1 -5 -1 -7
c0 -8 7 -6 24 -12z" />
    <glyph glyph-name="scommaaccent" unicode="&#x219;" horiz-adv-x="257" 
d="M145 592c83 0 95 -88 97 -147c0 -11 -2 -20 -14 -20c-18 0 -35 0 -41 18c-7 27 6 105 -40 105c-30 0 -48 -24 -48 -66c0 -105 144 -197 144 -325c0 -87 -25 -163 -117 -163c-61 0 -96 67 -96 126c0 19 7 37 30 37c20 0 36 -10 36 -30c1 -27 2 -87 40 -87
c46 0 50 55 50 87c0 136 -146 196 -146 352c0 69 47 113 105 113zM113 -52c-9 -6 -14 -16 -14 -26c0 -17 6 -34 19 -42c0 -15 -14 -62 -14 -68c-1 -5 7 -19 20 -19c4 0 10 3 15 9c15 17 40 88 40 110c0 25 -5 45 -32 45c-13 0 -26 -5 -34 -9z" />
    <glyph glyph-name="germandbls" unicode="&#xdf;" horiz-adv-x="449" 
d="M189 54c5 -36 41 -53 79 -53c82 0 124 90 124 165c0 125 -86 177 -134 204c-14 8 -19 17 -19 28c0 65 45 77 45 181c0 73 -42 125 -94 125c-93 0 -122 -77 -126 -148c-1 -29 -1 -67 -1 -110v-165c0 -61 0 -127 -2 -220c0 -30 2 -60 26 -63c11 0 31 13 37 28
c-5 31 -6 85 -6 151c0 131 6 275 6 411c0 11 14 70 50 70s53 -37 53 -76c0 -90 -47 -124 -47 -187c0 -20 8 -41 29 -57c44 -33 123 -78 123 -169c0 -28 -2 -117 -58 -117c-24 0 -38 13 -45 28c-3 0 -6 1 -8 1c-13 0 -27 -5 -32 -27z" />
    <glyph glyph-name="t" unicode="t" horiz-adv-x="242" 
d="M226 579c5 -3 13 -16 13 -22c0 -5 -7 -25 -12 -25l-78 -2c0 -179 -2 -404 -2 -459v-54c0 -2 -10 -18 -32 -18c-24 0 -27 11 -27 26c0 10 1 21 1 33c1 59 3 411 3 472c-38 -1 -70 -1 -76 1c-9 1 -11 16 -11 30c2 8 8 18 17 21c32 0 197 0 204 -3z" />
    <glyph glyph-name="tbar" unicode="&#x167;" horiz-adv-x="242" 
d="M216 359c10 0 20 -8 20 -20c-1 -15 -6 -27 -18 -27h-70c0 -111 -1 -208 -1 -241v-54c0 -2 -10 -18 -32 -18c-24 0 -27 11 -27 26c0 10 1 21 1 33l2 254h-66c-19 0 -20 15 -20 27s9 20 21 20h65c1 78 1 147 1 171c-38 -1 -70 -1 -76 1c-9 1 -11 16 -11 30c2 8 8 18 17 21
c32 0 197 0 204 -3c5 -3 13 -16 13 -22c0 -5 -7 -25 -12 -25l-78 -2v-171h67z" />
    <glyph glyph-name="tcaron" unicode="&#x165;" horiz-adv-x="362" 
d="M226 579c5 -3 13 -16 13 -22c0 -5 -7 -25 -12 -25l-78 -2c0 -179 -2 -404 -2 -459v-54c0 -2 -10 -18 -32 -18c-24 0 -27 11 -27 26c0 10 1 21 1 33c1 59 3 411 3 472c-38 -1 -70 -1 -76 1c-9 1 -11 16 -11 30c2 8 8 18 17 21c32 0 197 0 204 -3zM311 576
c27 0 31 -20 31 -44c0 -21 -25 -92 -39 -109c-5 -5 -11 -8 -16 -8c-12 0 -20 13 -19 19c0 5 14 52 14 66c-13 8 -19 25 -19 42c0 10 5 20 14 25c8 5 20 9 34 9z" />
    <glyph glyph-name="uni0163" unicode="&#x163;" horiz-adv-x="242" 
d="M226 579c5 -3 13 -16 13 -22c0 -5 -7 -25 -12 -25l-78 -2c0 -179 -2 -404 -2 -459v-54c0 -2 -7 -13 -22 -17c-3 -6 -4 -11 -4 -14c0 -8 7 -6 24 -12c49 -13 59 -37 59 -68c0 -52 -41 -69 -75 -69c-25 0 -56 9 -56 34c0 12 4 17 10 17c4 0 8 -2 13 -4c6 -3 15 -6 23 -6
c22 0 45 11 45 32c0 24 -30 26 -60 38c-19 8 -27 15 -27 33c0 11 5 23 12 34c-1 3 -1 6 -1 10c0 10 1 21 1 33c1 59 3 411 3 472c-38 -1 -70 -1 -76 1c-9 1 -11 16 -11 30c2 8 8 18 17 21c32 0 197 0 204 -3z" />
    <glyph glyph-name="uni021B" unicode="&#x21b;" horiz-adv-x="242" 
d="M226 579c5 -3 13 -16 13 -22c0 -5 -7 -25 -12 -25l-78 -2c0 -179 -2 -404 -2 -459v-54c0 -2 -10 -18 -32 -18c-24 0 -27 11 -27 26c0 10 1 21 1 33c1 59 3 411 3 472c-38 -1 -70 -1 -76 1c-9 1 -11 16 -11 30c2 8 8 18 17 21c32 0 197 0 204 -3zM127 -44
c27 0 32 -20 32 -45c0 -22 -25 -93 -40 -110c-5 -6 -11 -9 -15 -9c-13 0 -21 14 -20 19c0 6 14 53 14 68c-13 8 -19 25 -19 42c0 10 5 20 14 26c8 4 21 9 34 9z" />
    <glyph glyph-name="u" unicode="u" horiz-adv-x="317" 
d="M38 558c8 14 18 23 35 23c28 0 32 -28 32 -44v-415c0 -34 22 -79 56 -79c57 0 68 104 68 192c0 79 2 149 2 219c0 29 -1 67 -2 95c9 27 38 29 54 29c3 0 7 0 12 -11c0 -65 -10 -419 -17 -451c-24 -109 -75 -122 -126 -122c-57 0 -81 36 -96 75c-15 38 -15 309 -18 489z
" />
    <glyph glyph-name="uacute" unicode="&#xfa;" horiz-adv-x="317" 
d="M234 721c2 -2 3 -5 3 -8c0 -4 -2 -8 -5 -13c-19 -25 -74 -75 -88 -75c-15 0 -24 5 -24 13c0 11 10 26 18 36c0 0 29 41 48 52c4 2 9 4 13 4c8 0 25 -3 35 -9zM38 558c8 14 18 23 35 23c28 0 32 -28 32 -44v-415c0 -34 22 -79 56 -79c57 0 68 104 68 192c0 79 2 149 2 219
c0 29 -1 67 -2 95c9 27 38 29 54 29c3 0 7 0 12 -11c0 -65 -10 -419 -17 -451c-24 -109 -75 -122 -126 -122c-57 0 -81 36 -96 75c-15 38 -15 309 -18 489z" />
    <glyph glyph-name="ucircumflex" unicode="&#xfb;" horiz-adv-x="317" 
d="M267 650c-5 -11 -16 -18 -27 -18c-4 0 -9 2 -13 4c-19 11 -58 46 -58 46s-31 -21 -52 -37c-11 -8 -18 -13 -26 -13s-13 4 -18 9c-1 2 -2 6 -2 10s0 9 3 11c38 28 75 64 98 66c16 1 95 -78 95 -78zM38 558c8 14 18 23 35 23c28 0 32 -28 32 -44v-415c0 -34 22 -79 56 -79
c57 0 68 104 68 192c0 79 2 149 2 219c0 29 -1 67 -2 95c9 27 38 29 54 29c3 0 7 0 12 -11c0 -65 -10 -419 -17 -451c-24 -109 -75 -122 -126 -122c-57 0 -81 36 -96 75c-15 38 -15 309 -18 489z" />
    <glyph glyph-name="udieresis" unicode="&#xfc;" horiz-adv-x="317" 
d="M96 714c-8 -6 -12 -15 -12 -23c0 -20 14 -40 34 -40c23 0 36 10 36 32s-9 36 -27 36c-12 0 -23 -2 -31 -5zM195 714c-8 -6 -12 -15 -12 -23c0 -20 14 -40 34 -40c23 0 36 10 36 32s-8 36 -27 36c-12 0 -23 -2 -31 -5zM38 558c8 14 18 23 35 23c28 0 32 -28 32 -44v-415
c0 -34 22 -79 56 -79c57 0 68 104 68 192c0 79 2 149 2 219c0 29 -1 67 -2 95c9 27 38 29 54 29c3 0 7 0 12 -11c0 -65 -10 -419 -17 -451c-24 -109 -75 -122 -126 -122c-57 0 -81 36 -96 75c-15 38 -15 309 -18 489z" />
    <glyph glyph-name="ugrave" unicode="&#xf9;" horiz-adv-x="317" 
d="M101 721c10 6 27 9 35 9c4 0 9 -2 13 -4c19 -11 48 -52 48 -52c8 -10 18 -25 18 -36c0 -8 -9 -13 -24 -13c-14 0 -69 50 -88 75c-3 5 -5 9 -5 13c0 3 1 6 3 8zM38 558c8 14 18 23 35 23c28 0 32 -28 32 -44v-415c0 -34 22 -79 56 -79c57 0 68 104 68 192
c0 79 2 149 2 219c0 29 -1 67 -2 95c9 27 38 29 54 29c3 0 7 0 12 -11c0 -65 -10 -419 -17 -451c-24 -109 -75 -122 -126 -122c-57 0 -81 36 -96 75c-15 38 -15 309 -18 489z" />
    <glyph glyph-name="uhungarumlaut" unicode="&#x171;" horiz-adv-x="317" 
d="M186 721c2 -2 3 -5 3 -8c0 -4 -2 -8 -5 -13c-19 -25 -74 -75 -88 -75c-15 0 -24 5 -24 13c0 11 10 26 18 36c0 0 29 41 48 52c4 2 9 4 13 4c8 0 25 -3 35 -9zM297 721c2 -2 3 -5 3 -8c0 -4 -2 -8 -5 -13c-19 -25 -74 -75 -88 -75c-15 0 -24 5 -24 13c0 11 10 26 18 36
c0 0 29 41 48 52c4 2 9 4 13 4c8 0 25 -3 35 -9zM38 558c8 14 18 23 35 23c28 0 32 -28 32 -44v-415c0 -34 22 -79 56 -79c57 0 68 104 68 192c0 79 2 149 2 219c0 29 -1 67 -2 95c9 27 38 29 54 29c3 0 7 0 12 -11c0 -65 -10 -419 -17 -451c-24 -109 -75 -122 -126 -122
c-57 0 -81 36 -96 75c-15 38 -15 309 -18 489z" />
    <glyph glyph-name="umacron" unicode="&#x16b;" horiz-adv-x="317" 
d="M270 669c-2 -15 -5 -27 -16 -27h-170c-16 0 -17 15 -17 28c0 10 8 19 18 19h166c10 0 19 -10 19 -20zM38 558c8 14 18 23 35 23c28 0 32 -28 32 -44v-415c0 -34 22 -79 56 -79c57 0 68 104 68 192c0 79 2 149 2 219c0 29 -1 67 -2 95c9 27 38 29 54 29c3 0 7 0 12 -11
c0 -65 -10 -419 -17 -451c-24 -109 -75 -122 -126 -122c-57 0 -81 36 -96 75c-15 38 -15 309 -18 489z" />
    <glyph glyph-name="uogonek" unicode="&#x173;" horiz-adv-x="317" 
d="M216 -8l-30 -48c-9 -15 -12 -25 -12 -40c0 -17 7 -30 22 -30c33 0 33 24 39 50c2 10 9 15 16 15c12 0 20 -6 20 -20c0 -18 -3 -42 -14 -56s-31 -22 -67 -22c-34 0 -64 20 -64 59c0 33 15 68 37 94h-11c-57 0 -81 36 -96 75c-15 38 -15 309 -18 489c8 14 18 23 35 23
c28 0 32 -28 32 -44v-415c0 -34 22 -79 56 -79c57 0 68 104 68 192c0 79 2 149 2 219c0 29 -1 67 -2 95c9 27 38 29 54 29c3 0 7 0 12 -11c0 -65 -10 -419 -17 -451c-11 -52 -29 -82 -50 -99c-2 -7 -8 -19 -12 -25z" />
    <glyph glyph-name="uring" unicode="&#x16f;" horiz-adv-x="317" 
d="M115 682c0 33 25 52 56 54c30 0 51 -25 51 -54s-21 -53 -54 -53c-29 0 -52 24 -53 53zM148 682c0 -11 9 -22 20 -22c12 0 21 11 21 22c0 12 -9 19 -24 21c-12 0 -17 -10 -17 -21zM38 558c8 14 18 23 35 23c28 0 32 -28 32 -44v-415c0 -34 22 -79 56 -79
c57 0 68 104 68 192c0 79 2 149 2 219c0 29 -1 67 -2 95c9 27 38 29 54 29c3 0 7 0 12 -11c0 -65 -10 -419 -17 -451c-24 -109 -75 -122 -126 -122c-57 0 -81 36 -96 75c-15 38 -15 309 -18 489z" />
    <glyph glyph-name="v" unicode="v" horiz-adv-x="283" 
d="M180 309l47 262c5 9 22 10 31 10c12 0 17 -12 17 -25c0 -14 -4 -27 -7 -43c-19 -117 -52 -289 -86 -446c-7 -34 -12 -64 -49 -64c-34 0 -43 46 -48 76c-29 168 -48 293 -72 466c-1 4 -1 7 -1 9c0 21 6 26 30 27c9 0 24 -7 26 -15c15 -59 12 -142 71 -474z" />
    <glyph glyph-name="w" unicode="w" horiz-adv-x="508" 
d="M397 309l47 261c5 9 23 10 32 10c12 0 17 -12 17 -25c0 -14 -5 -27 -7 -43c-19 -116 -52 -304 -90 -445c-9 -34 -13 -64 -49 -64c-34 0 -43 46 -48 76c-21 117 -32 215 -47 321c-19 -105 -45 -232 -72 -333c-9 -34 -13 -64 -49 -64c-34 0 -43 46 -48 76
c-29 167 -44 292 -68 465c-1 4 -1 7 -1 10c0 20 6 25 30 26c9 0 26 -6 28 -15c15 -59 6 -155 65 -486l49 230l34 145c0 7 21 26 37 26h5c10 0 23 -7 25 -15c15 -59 7 -55 66 -386z" />
    <glyph glyph-name="wacute" unicode="&#x1e83;" horiz-adv-x="508" 
d="M323 721c2 -2 3 -5 3 -8c0 -4 -2 -8 -5 -13c-19 -25 -74 -75 -88 -75c-15 0 -24 5 -24 13c0 11 10 26 18 36c0 0 29 41 48 52c4 2 9 4 13 4c8 0 25 -3 35 -9zM397 309l47 261c5 9 23 10 32 10c12 0 17 -12 17 -25c0 -14 -5 -27 -7 -43c-19 -116 -52 -304 -90 -445
c-9 -34 -13 -64 -49 -64c-34 0 -43 46 -48 76c-21 117 -32 215 -47 321c-19 -105 -45 -232 -72 -333c-9 -34 -13 -64 -49 -64c-34 0 -43 46 -48 76c-29 167 -44 292 -68 465c-1 4 -1 7 -1 10c0 20 6 25 30 26c9 0 26 -6 28 -15c15 -59 6 -155 65 -486l49 230l34 145
c0 7 21 26 37 26h5c10 0 23 -7 25 -15c15 -59 7 -55 66 -386z" />
    <glyph glyph-name="wcircumflex" unicode="&#x175;" horiz-adv-x="508" 
d="M356 650c-5 -11 -16 -18 -27 -18c-4 0 -9 2 -13 4c-19 11 -58 46 -58 46s-31 -21 -52 -37c-11 -8 -18 -13 -26 -13s-13 4 -18 9c-1 2 -2 6 -2 10s0 9 3 11c38 28 75 64 98 66c16 1 95 -78 95 -78zM397 309l47 261c5 9 23 10 32 10c12 0 17 -12 17 -25
c0 -14 -5 -27 -7 -43c-19 -116 -52 -304 -90 -445c-9 -34 -13 -64 -49 -64c-34 0 -43 46 -48 76c-21 117 -32 215 -47 321c-19 -105 -45 -232 -72 -333c-9 -34 -13 -64 -49 -64c-34 0 -43 46 -48 76c-29 167 -44 292 -68 465c-1 4 -1 7 -1 10c0 20 6 25 30 26
c9 0 26 -6 28 -15c15 -59 6 -155 65 -486l49 230l34 145c0 7 21 26 37 26h5c10 0 23 -7 25 -15c15 -59 7 -55 66 -386z" />
    <glyph glyph-name="wdieresis" unicode="&#x1e85;" horiz-adv-x="508" 
d="M185 714c-8 -6 -12 -15 -12 -23c0 -20 14 -40 34 -40c23 0 36 10 36 32s-9 36 -27 36c-12 0 -23 -2 -31 -5zM284 714c-8 -6 -12 -15 -12 -23c0 -20 14 -40 34 -40c23 0 36 10 36 32s-8 36 -27 36c-12 0 -23 -2 -31 -5zM397 309l47 261c5 9 23 10 32 10
c12 0 17 -12 17 -25c0 -14 -5 -27 -7 -43c-19 -116 -52 -304 -90 -445c-9 -34 -13 -64 -49 -64c-34 0 -43 46 -48 76c-21 117 -32 215 -47 321c-19 -105 -45 -232 -72 -333c-9 -34 -13 -64 -49 -64c-34 0 -43 46 -48 76c-29 167 -44 292 -68 465c-1 4 -1 7 -1 10
c0 20 6 25 30 26c9 0 26 -6 28 -15c15 -59 6 -155 65 -486l49 230l34 145c0 7 21 26 37 26h5c10 0 23 -7 25 -15c15 -59 7 -55 66 -386z" />
    <glyph glyph-name="wgrave" unicode="&#x1e81;" horiz-adv-x="508" 
d="M190 721c10 6 27 9 35 9c4 0 9 -2 13 -4c19 -11 48 -52 48 -52c8 -10 18 -25 18 -36c0 -8 -9 -13 -24 -13c-14 0 -69 50 -88 75c-3 5 -5 9 -5 13c0 3 1 6 3 8zM397 309l47 261c5 9 23 10 32 10c12 0 17 -12 17 -25c0 -14 -5 -27 -7 -43c-19 -116 -52 -304 -90 -445
c-9 -34 -13 -64 -49 -64c-34 0 -43 46 -48 76c-21 117 -32 215 -47 321c-19 -105 -45 -232 -72 -333c-9 -34 -13 -64 -49 -64c-34 0 -43 46 -48 76c-29 167 -44 292 -68 465c-1 4 -1 7 -1 10c0 20 6 25 30 26c9 0 26 -6 28 -15c15 -59 6 -155 65 -486l49 230l34 145
c0 7 21 26 37 26h5c10 0 23 -7 25 -15c15 -59 7 -55 66 -386z" />
    <glyph glyph-name="x" unicode="x" horiz-adv-x="303" 
d="M184 306c42 -105 88 -217 117 -286c0 0 -9 -23 -28 -23c-5 0 -14 2 -18 6c-15 19 -57 120 -101 232c-28 -65 -58 -136 -89 -210c-7 -18 -18 -30 -33 -30c-9 0 -24 8 -30 17c0 0 61 145 125 292c-38 96 -72 189 -88 235c-1 3 -6 19 -6 22c6 10 16 17 28 17
c13 0 24 -14 28 -28l68 -175c36 81 69 156 90 198c1 2 13 8 18 8c9 0 27 -10 28 -22c0 -2 -1 -5 -3 -9c-12 -24 -52 -117 -106 -244z" />
    <glyph glyph-name="y" unicode="y" horiz-adv-x="278" 
d="M253 567c1 -5 2 -14 2 -24v-12s-9 -389 -15 -424c-8 -45 -29 -108 -111 -108c-16 0 -87 6 -87 111c0 24 9 31 29 31c16 0 31 -3 31 -57c0 -31 15 -41 37 -41c36 0 48 39 48 76c0 2 1 45 3 103c-16 -6 -37 -11 -59 -11c-15 0 -31 3 -44 10c-52 27 -52 153 -52 229
c0 33 2 56 2 103c0 0 4 18 21 25c3 1 14 2 17 2c11 0 14 -11 14 -22c0 -83 1 -168 11 -252c3 -11 11 -51 49 -51c11 0 26 4 42 14l7 260c0 15 1 33 13 47c6 3 19 6 24 6c8 0 15 -4 18 -15z" />
    <glyph glyph-name="yacute" unicode="&#xfd;" horiz-adv-x="278" 
d="M123 625c-15 0 -24 5 -24 13c0 11 10 26 18 36c0 0 29 41 48 52c4 2 9 4 13 4c8 0 25 -3 35 -9c2 -2 3 -5 3 -8c0 -4 -2 -8 -5 -13c-19 -25 -74 -75 -88 -75zM253 567c1 -5 2 -14 2 -24v-12s-9 -389 -15 -424c-8 -45 -29 -108 -111 -108c-16 0 -87 6 -87 111
c0 24 9 31 29 31c16 0 31 -3 31 -57c0 -31 15 -41 37 -41c36 0 48 39 48 76c0 2 1 45 3 103c-16 -6 -37 -11 -59 -11c-15 0 -31 3 -44 10c-52 27 -52 153 -52 229c0 33 2 56 2 103c0 0 4 18 21 25c3 1 14 2 17 2c11 0 14 -11 14 -22c0 -83 1 -168 11 -252
c3 -11 11 -51 49 -51c11 0 26 4 42 14l7 260c0 15 1 33 13 47c6 3 19 6 24 6c8 0 15 -4 18 -15z" />
    <glyph glyph-name="ycircumflex" unicode="&#x177;" horiz-adv-x="278" 
d="M70 632c-8 0 -13 4 -18 9c-1 2 -2 6 -2 10s0 9 3 11c38 28 75 64 98 66c16 1 95 -78 95 -78c-5 -11 -16 -18 -27 -18c-4 0 -9 2 -13 4c-19 11 -58 46 -58 46s-31 -21 -52 -37c-11 -8 -18 -13 -26 -13zM253 567c1 -5 2 -14 2 -24v-12s-9 -389 -15 -424
c-8 -45 -29 -108 -111 -108c-16 0 -87 6 -87 111c0 24 9 31 29 31c16 0 31 -3 31 -57c0 -31 15 -41 37 -41c36 0 48 39 48 76c0 2 1 45 3 103c-16 -6 -37 -11 -59 -11c-15 0 -31 3 -44 10c-52 27 -52 153 -52 229c0 33 2 56 2 103c0 0 4 18 21 25c3 1 14 2 17 2
c11 0 14 -11 14 -22c0 -83 1 -168 11 -252c3 -11 11 -51 49 -51c11 0 26 4 42 14l7 260c0 15 1 33 13 47c6 3 19 6 24 6c8 0 15 -4 18 -15z" />
    <glyph glyph-name="ydieresis" unicode="&#xff;" horiz-adv-x="278" 
d="M97 651c-20 0 -34 20 -34 40c0 8 4 17 12 23c8 3 19 5 31 5c18 0 27 -14 27 -36s-13 -32 -36 -32zM196 651c-20 0 -34 20 -34 40c0 8 4 17 12 23c8 3 19 5 31 5c19 0 27 -14 27 -36s-13 -32 -36 -32zM253 567c1 -5 2 -14 2 -24v-12s-9 -389 -15 -424
c-8 -45 -29 -108 -111 -108c-16 0 -87 6 -87 111c0 24 9 31 29 31c16 0 31 -3 31 -57c0 -31 15 -41 37 -41c36 0 48 39 48 76c0 2 1 45 3 103c-16 -6 -37 -11 -59 -11c-15 0 -31 3 -44 10c-52 27 -52 153 -52 229c0 33 2 56 2 103c0 0 4 18 21 25c3 1 14 2 17 2
c11 0 14 -11 14 -22c0 -83 1 -168 11 -252c3 -11 11 -51 49 -51c11 0 26 4 42 14l7 260c0 15 1 33 13 47c6 3 19 6 24 6c8 0 15 -4 18 -15z" />
    <glyph glyph-name="ygrave" unicode="&#x1ef3;" horiz-adv-x="278" 
d="M170 625c-14 0 -69 50 -88 75c-3 5 -5 9 -5 13c0 3 1 6 3 8c10 6 27 9 35 9c4 0 9 -2 13 -4c19 -11 48 -52 48 -52c8 -10 18 -25 18 -36c0 -8 -9 -13 -24 -13zM253 567c1 -5 2 -14 2 -24v-12s-9 -389 -15 -424c-8 -45 -29 -108 -111 -108c-16 0 -87 6 -87 111
c0 24 9 31 29 31c16 0 31 -3 31 -57c0 -31 15 -41 37 -41c36 0 48 39 48 76c0 2 1 45 3 103c-16 -6 -37 -11 -59 -11c-15 0 -31 3 -44 10c-52 27 -52 153 -52 229c0 33 2 56 2 103c0 0 4 18 21 25c3 1 14 2 17 2c11 0 14 -11 14 -22c0 -83 1 -168 11 -252
c3 -11 11 -51 49 -51c11 0 26 4 42 14l7 260c0 15 1 33 13 47c6 3 19 6 24 6c8 0 15 -4 18 -15z" />
    <glyph glyph-name="z" unicode="z" horiz-adv-x="271" 
d="M51 576c0 2 111 5 145 5c7 0 15 0 22 -1c34 -2 41 -21 41 -43s-8 -49 -8 -49l-169 -430l150 -1c10 -3 11 -21 11 -28c0 -8 -9 -15 -16 -19c0 0 -72 -4 -130 -4c-13 0 -42 -1 -48 1c-31 5 -36 25 -36 38c0 3 81 204 92 229c13 28 94 241 94 255c-7 0 -90 -1 -129 -1
c-19 0 -23 14 -23 25s3 16 5 23h-1z" />
    <glyph glyph-name="zacute" unicode="&#x17a;" horiz-adv-x="271" 
d="M213 721c2 -2 3 -5 3 -8c0 -4 -2 -8 -5 -13c-19 -25 -74 -75 -88 -75c-15 0 -24 5 -24 13c0 11 10 26 18 36c0 0 29 41 48 52c4 2 9 4 13 4c8 0 25 -3 35 -9zM51 576c0 2 111 5 145 5c7 0 15 0 22 -1c34 -2 41 -21 41 -43s-8 -49 -8 -49l-169 -430l150 -1
c10 -3 11 -21 11 -28c0 -8 -9 -15 -16 -19c0 0 -72 -4 -130 -4c-13 0 -42 -1 -48 1c-31 5 -36 25 -36 38c0 3 81 204 92 229c13 28 94 241 94 255c-7 0 -90 -1 -129 -1c-19 0 -23 14 -23 25s3 16 5 23h-1z" />
    <glyph glyph-name="zcaron" unicode="&#x17e;" horiz-adv-x="271" 
d="M243 711c0 0 -79 -79 -95 -78c-23 2 -61 41 -93 66c-3 2 -3 7 -3 11s1 8 2 10c5 5 10 9 18 9s15 -5 26 -13c21 -16 47 -37 47 -37s39 35 58 46c4 2 9 4 13 4c11 0 22 -7 27 -18zM51 576c0 2 111 5 145 5c7 0 15 0 22 -1c34 -2 41 -21 41 -43s-8 -49 -8 -49l-169 -430
l150 -1c10 -3 11 -21 11 -28c0 -8 -9 -15 -16 -19c0 0 -72 -4 -130 -4c-13 0 -42 -1 -48 1c-31 5 -36 25 -36 38c0 3 81 204 92 229c13 28 94 241 94 255c-7 0 -90 -1 -129 -1c-19 0 -23 14 -23 25s3 16 5 23h-1z" />
    <glyph glyph-name="zdotaccent" unicode="&#x17c;" horiz-adv-x="271" 
d="M125 714c-8 -6 -12 -15 -12 -23c0 -20 14 -43 34 -43c23 0 36 13 36 35s-3 38 -27 38c-12 0 -23 -4 -31 -7zM51 576c0 2 111 5 145 5c7 0 15 0 22 -1c34 -2 41 -21 41 -43s-8 -49 -8 -49l-169 -430l150 -1c10 -3 11 -21 11 -28c0 -8 -9 -15 -16 -19c0 0 -72 -4 -130 -4
c-13 0 -42 -1 -48 1c-31 5 -36 25 -36 38c0 3 81 204 92 229c13 28 94 241 94 255c-7 0 -90 -1 -129 -1c-19 0 -23 14 -23 25s3 16 5 23h-1z" />
    <glyph glyph-name="ordfeminine" unicode="&#xaa;" horiz-adv-x="224" 
d="M123 693c44 0 76 -29 76 -69c0 -44 -4 -83 -4 -208c0 -41 -2 -52 -15 -52h-11c-11 1 -16 13 -17 31l1 6c-16 -23 -37 -36 -62 -36c-47 0 -60 54 -60 92v9c3 53 19 97 88 97c15 0 26 -4 35 -8v27c0 14 0 26 1 41c0 29 -13 38 -28 38c-22 0 -33 -21 -33 -37
c0 -14 -6 -18 -21 -18c-14 0 -26 3 -26 24c0 38 39 63 76 63zM105 405c20 0 42 32 49 43v72c-10 6 -21 8 -30 8c-42 0 -50 -37 -50 -69v-4c0 -22 1 -50 31 -50z" />
    <glyph glyph-name="ordmasculine" unicode="&#xba;" horiz-adv-x="226" 
d="M39 531c0 69 1 162 91 162c82 0 84 -85 84 -180c0 -66 -11 -145 -89 -145c-81 0 -86 73 -86 163zM85 516c0 -47 4 -117 41 -117c29 0 42 51 42 127c-1 64 -2 135 -39 135c-40 0 -44 -78 -44 -145z" />
    <glyph glyph-name="uni0410" unicode="&#x410;" horiz-adv-x="345" 
d="M331 49c1 -5 1 -9 1 -12c0 -25 -16 -33 -45 -34c-11 0 -15 12 -16 20l-30 229l-120 -1c0 -4 -1 -8 -2 -12c-4 -15 -25 -185 -38 -217c-6 -5 -37 -17 -47 -17c-7 0 -13 5 -13 21c0 6 0 13 2 21c32 181 62 370 102 559c9 40 13 95 74 95c41 0 49 -54 54 -91
c25 -185 49 -353 78 -561zM231 302h4l-43 331c-15 -48 -32 -166 -62 -332z" />
    <glyph glyph-name="uni0411" unicode="&#x411;" horiz-adv-x="334" 
d="M285 357c27 -31 31 -87 31 -118c0 -140 -8 -236 -127 -237h-126c-18 0 -23 25 -23 38l5 636c2 10 10 21 30 21c43 0 158 0 165 -4c6 -4 15 -13 15 -21c0 -5 -7 -30 -13 -30c-10 0 -84 -3 -135 -4v-48l-3 -186h77c51 0 83 -23 104 -47zM257 168c0 20 1 42 1 51
c0 85 -10 138 -95 138c-3 0 -35 0 -60 -1c-1 -74 -2 -152 -2 -247c0 -22 0 -41 1 -54c6 -1 12 -2 18 -2h56c57 0 81 55 81 115z" />
    <glyph glyph-name="uni0412" unicode="&#x412;" horiz-adv-x="334" 
d="M285 356c27 -31 31 -86 31 -117c0 -140 -8 -236 -127 -237h-126c-18 0 -23 25 -23 38l5 595v6c12 57 78 60 124 60c98 0 113 -70 113 -152c0 -83 -20 -131 -44 -158c20 -9 35 -21 47 -35zM154 652c-18 0 -45 -6 -46 -16c-1 -78 -3 -155 -4 -235l58 1c59 3 60 99 59 154
v14c0 52 -14 82 -67 82zM257 168c0 20 1 42 1 51c0 85 -10 137 -95 137c-2 0 -3 0 -5 1c-14 0 -37 -1 -54 -2c-1 -78 -2 -160 -2 -246c0 -22 0 -41 1 -54c5 -1 11 -2 17 -2h56c57 0 81 55 81 115z" />
    <glyph glyph-name="uni0413" unicode="&#x413;" horiz-adv-x="254" 
d="M103 628c0 10 15 11 37 11h50c24 0 37 0 53 4c2 1 6 13 6 22c0 13 -2 22 -13 29c-15 9 -63 6 -85 6c-49 0 -84 -1 -102 -13c-8 -10 -7 -37 -8 -52c4 -83 4 -518 -2 -613c8 -13 18 -18 28 -18c15 0 24 10 25 10c17 6 15 53 15 83c0 2 0 430 -4 531z" />
    <glyph glyph-name="uni0414" unicode="&#x414;" horiz-adv-x="465" 
d="M439 49c8 -6 10 -27 10 -51c0 -27 -3 -54 -3 -54c0 -11 -18 -13 -25 -13c-12 0 -23 4 -23 12l-2 63h-321l-2 -63c0 -8 -11 -12 -23 -12c-7 0 -25 2 -25 13c0 0 -3 27 -3 54c0 24 2 45 10 51c8 7 39 7 66 7h14c26 137 50 431 50 579v12c0 22 12 41 39 41
c39 0 132 0 140 -4c18 -8 23 -17 23 -52c0 -217 -3 -477 -3 -544v-32h12c27 0 58 0 66 -7zM222 622c0 -224 -30 -452 -49 -566h130v17c1 74 3 524 3 560c-17 0 -36 -1 -84 -1v-10z" />
    <glyph glyph-name="uni0415" unicode="&#x415;" horiz-adv-x="267" 
d="M167 638c7 0 14 -1 20 -1c52 0 58 8 58 31c0 26 -16 27 -59 27c-20 0 -44 1 -65 1c-30 0 -56 -2 -61 -10c-18 -26 -15 -77 -17 -105c-2 -14 1 -344 -4 -488v-54c0 -34 11 -42 49 -42c42 0 100 4 133 7c11 1 22 8 22 21c0 5 -1 11 -4 17c-3 7 -19 9 -37 9
c-40 0 -49 -4 -78 -4h-13c-7 0 -10 1 -10 11c0 40 4 166 2 237c0 19 10 23 38 23h62c14 0 28 8 28 27c0 22 -2 29 -38 29c-17 0 -77 -2 -90 2c-5 2 -6 19 -6 42c0 21 1 41 1 132c0 7 0 81 7 84c20 4 42 4 62 4z" />
    <glyph glyph-name="uni0401" unicode="&#x401;" horiz-adv-x="267" 
d="M94 766c-20 0 -34 20 -34 40c0 8 4 17 12 23c8 3 19 5 31 5c18 0 27 -14 27 -36s-13 -32 -36 -32zM193 766c-20 0 -34 20 -34 40c0 8 4 17 12 23c8 3 19 5 31 5c19 0 27 -14 27 -36s-13 -32 -36 -32zM167 638c7 0 14 -1 20 -1c52 0 58 8 58 31c0 26 -16 27 -59 27
c-20 0 -44 1 -65 1c-30 0 -56 -2 -61 -10c-18 -26 -15 -77 -17 -105c-2 -14 1 -344 -4 -488v-54c0 -34 11 -42 49 -42c42 0 100 4 133 7c11 1 22 8 22 21c0 5 -1 11 -4 17c-3 7 -19 9 -37 9c-40 0 -49 -4 -78 -4h-13c-7 0 -10 1 -10 11c0 40 4 166 2 237c0 19 10 23 38 23
h62c14 0 28 8 28 27c0 22 -2 29 -38 29c-17 0 -77 -2 -90 2c-5 2 -6 19 -6 42c0 21 1 41 1 132c0 7 0 81 7 84c20 4 42 4 62 4z" />
    <glyph glyph-name="uni0416" unicode="&#x416;" horiz-adv-x="490" 
d="M270 700c-14 2 -23 4 -30 4c-11 0 -16 -4 -24 -12c-7 -7 -4 -47 -4 -58c0 -41 -2 -135 -4 -246c-33 93 -73 189 -96 263c-5 16 -18 42 -25 45c-4 2 -14 3 -24 2c-9 -2 -20 -2 -20 -14c0 -11 6 -36 10 -43c19 -39 93 -235 125 -302c-8 -21 -17 -42 -28 -61
c-52 -93 -67 -132 -111 -220c-4 -7 -16 -34 -12 -50c4 -15 30 -13 39 -14c16 -1 25 18 35 42l23 53c24 58 63 143 87 195c-2 -90 -1 -213 -3 -263c0 -15 1 -27 4 -28c8 -2 18 -5 25 -5c18 0 32 2 32 39c0 40 -4 130 -4 201c0 20 0 39 1 55c1 -3 3 -6 5 -9
c29 -54 65 -124 90 -185l23 -53c10 -24 19 -43 35 -42c9 1 35 -1 39 14c4 16 -8 43 -12 50c-44 88 -58 127 -110 220c-11 19 -21 40 -29 61c32 67 106 263 125 302c4 7 10 32 10 43c0 12 -11 12 -20 14c-10 1 -20 0 -24 -2c-7 -3 -20 -29 -25 -45c-25 -77 -62 -179 -97 -275
c-7 72 7 232 -6 324z" />
    <glyph glyph-name="uni0417" unicode="&#x417;" horiz-adv-x="298" 
d="M88 578c-11 -13 -19 -19 -31 -19c-9 0 -15 4 -24 11v47c0 47 47 84 106 84c98 0 116 -70 116 -152c0 -83 -20 -131 -46 -158c20 -9 37 -19 49 -32c27 -31 31 -89 31 -120c0 -140 -8 -240 -127 -240h-25c-52 0 -108 32 -108 89v45c9 12 15 17 25 17s21 -5 31 -13l2 -43
c0 -35 35 -50 66 -50c57 0 77 61 77 121c0 20 1 45 1 54c0 85 -10 137 -95 137c-17 0 -24 -1 -46 -1c-4 8 -6 17 -6 25c0 7 2 15 7 21l44 1c53 3 59 78 59 133v32c0 52 -6 87 -54 87s-49 -32 -52 -76z" />
    <glyph glyph-name="uni0418" unicode="&#x418;" horiz-adv-x="380" 
d="M336 657c-2 17 -20 31 -50 31c-19 -11 -23 -44 -29 -65c-46 -156 -116 -396 -165 -531c-3 28 6 126 6 167c0 103 5 232 5 310v85c0 18 -6 48 -43 36c-18 -6 -17 -18 -19 -27c0 -66 -6 -344 -6 -511c0 -59 1 -96 4 -107c0 -17 35 -35 62 -35c13 0 24 4 28 14l151 478
c1 -29 -8 -167 -8 -202c0 -130 -2 -275 -2 -275c18 -17 29 -20 49 -20c21 0 18 116 18 244v112c0 138 0 265 -1 296z" />
    <glyph glyph-name="uni0419" unicode="&#x419;" horiz-adv-x="380" 
d="M290 759c0 0 -21 -63 -92 -63c-62 0 -95 30 -95 66c0 12 8 15 21 16c25 -5 28 -36 71 -36c23 0 43 10 57 29c3 4 9 4 13 4c11 0 20 -5 25 -16zM336 657c-2 17 -20 31 -50 31c-19 -11 -23 -44 -29 -65c-46 -156 -116 -396 -165 -531c-3 28 6 126 6 167c0 103 5 232 5 310
v85c0 18 -6 48 -43 36c-18 -6 -17 -18 -19 -27c0 -66 -6 -344 -6 -511c0 -59 1 -96 4 -107c0 -17 35 -35 62 -35c13 0 24 4 28 14l151 478c1 -29 -8 -167 -8 -202c0 -130 -2 -275 -2 -275c18 -17 29 -20 49 -20c21 0 18 116 18 244v112c0 138 0 265 -1 296z" />
    <glyph glyph-name="uni041A" unicode="&#x41a;" horiz-adv-x="304" 
d="M104 700c-14 2 -23 4 -30 4c-11 0 -16 -4 -24 -12c-7 -7 -4 -47 -4 -58c0 -89 -7 -469 -12 -607c0 -15 1 -27 4 -28c8 -2 18 -5 25 -5c18 0 30 2 30 39c0 40 2 149 5 214c0 10 2 17 6 19c33 -56 65 -113 91 -177l23 -53c10 -24 19 -43 35 -42c9 1 35 -1 39 14
c4 16 -8 43 -12 50c-44 88 -55 127 -107 220c-11 19 -24 40 -32 61c32 67 106 263 125 302c4 7 10 32 10 43c0 12 -11 12 -20 14c-10 1 -20 0 -24 -2c-7 -3 -20 -29 -25 -45c-25 -77 -66 -187 -101 -283c-7 72 11 240 -2 332z" />
    <glyph glyph-name="uni041B" unicode="&#x41b;" horiz-adv-x="345" 
d="M192 633c-17 -54 -36 -196 -73 -394c-4 -15 -25 -185 -38 -217c-6 -5 -37 -17 -47 -17c-7 0 -13 5 -13 21c0 6 0 13 2 21c32 181 62 370 102 559c9 40 13 95 74 95c41 0 49 -54 54 -91c25 -185 49 -353 78 -561c1 -5 1 -9 1 -12c0 -25 -16 -33 -45 -34
c-11 0 -15 12 -16 20z" />
    <glyph glyph-name="uni041C" unicode="&#x41c;" horiz-adv-x="539" 
d="M433 684c17 6 21 10 40 10c20 0 28 -16 28 -41c3 -194 7 -386 7 -584c0 -37 0 -70 -51 -70c-9 0 -16 4 -17 17c0 540 3 564 2 576c-46 -219 -63 -255 -108 -485c-10 -28 -37 -34 -61 -34c-20 0 -33 15 -39 34c-32 97 -85 287 -117 410c-7 26 -13 46 -13 55
c0 -162 4 -381 4 -546c-3 -19 -24 -23 -40 -23c-21 0 -24 26 -24 43c-2 30 -2 494 -3 624c8 20 29 26 49 26c19 0 31 -5 38 -9c98 -360 153 -558 153 -558s97 442 113 492c8 25 11 50 39 63z" />
    <glyph glyph-name="uni041D" unicode="&#x41d;" horiz-adv-x="316" 
d="M300 686c1 -38 1 -81 1 -128c0 -220 -5 -504 -6 -540c-11 -9 -28 -13 -42 -13c-9 0 -20 2 -20 9l1 267c-26 -1 -109 -2 -133 -2v-67v-97c0 -48 0 -104 -24 -110h-14c-15 0 -24 8 -24 27c0 119 1 213 1 289c0 296 -2 331 0 355c1 18 17 18 32 18c13 0 32 -7 32 -17
c-2 -156 -3 -266 -3 -345c15 1 36 1 58 1c28 0 56 0 76 -1l5 352c0 9 12 18 27 18c11 0 21 -4 33 -16z" />
    <glyph glyph-name="uni041E" unicode="&#x41e;" horiz-adv-x="340" 
d="M315 535c0 -54 3 -106 3 -154c0 -224 -29 -383 -135 -383c-58 0 -109 18 -132 129c-11 54 -18 133 -18 207c0 49 1 96 1 132c0 84 26 242 157 242c73 0 120 -93 124 -173zM177 47c58 0 76 167 76 319c0 73 -2 163 -9 207c-4 30 -30 82 -65 82c-43 0 -82 -49 -82 -306
c0 -88 8 -302 80 -302z" />
    <glyph glyph-name="uni041F" unicode="&#x41f;" horiz-adv-x="345" 
d="M285 695c18 -8 23 -17 23 -52c0 -217 -3 -491 -3 -558v-64c0 -3 -7 -22 -34 -22c-29 0 -30 13 -30 31c0 12 1 26 1 40c1 74 3 534 3 570c-43 -1 -98 -1 -140 -1c0 -216 -3 -488 -3 -554v-64c0 -3 -11 -22 -38 -22c-28 0 -28 12 -28 29c0 13 1 27 1 42c1 76 3 555 3 576
v12c0 22 14 41 41 41c39 0 196 0 204 -4z" />
    <glyph glyph-name="uni0420" unicode="&#x420;" horiz-adv-x="326" 
d="M42 635v6c12 57 81 62 127 62c51 0 95 -10 121 -53c17 -26 17 -75 17 -106c0 -72 -7 -163 -17 -194c-21 -63 -62 -89 -113 -89c-23 0 -67 0 -69 -2c-5 -4 -5 -87 -6 -151c-1 -39 1 -70 1 -70c0 -4 -11 -39 -40 -39c-18 0 -26 3 -26 16zM108 636c-3 -142 -4 -229 -2 -323
h58c57 0 81 54 81 114l1 109c0 75 -18 118 -92 118c-18 0 -45 -8 -46 -18z" />
    <glyph glyph-name="uni0421" unicode="&#x421;" horiz-adv-x="340" 
d="M311 524c-2 41 -2 52 -14 88c-17 49 -50 87 -112 87c-61 0 -115 -22 -136 -120c-14 -63 -15 -122 -15 -178c0 -68 3 -188 8 -249c7 -88 44 -154 139 -154c59 0 106 34 131 94c9 22 10 50 10 77c0 21 -2 39 -29 39c-12 0 -27 -5 -29 -17c1 -15 1 -29 1 -41
c0 -61 -42 -100 -82 -100c-81 0 -81 150 -82 199c0 0 -3 56 -3 104c0 72 3 126 3 155c0 55 27 141 77 141c77 0 69 -102 77 -134c3 -3 18 -5 20 -5c15 0 29 5 36 14z" />
    <glyph glyph-name="uni0422" unicode="&#x422;" horiz-adv-x="286" 
d="M270 695c6 -3 16 -16 16 -23c0 -6 -8 -30 -14 -30l-94 -2c0 -216 -3 -488 -3 -555v-64c0 -3 -11 -22 -38 -22c-29 0 -32 13 -32 31c0 12 1 26 1 40c1 72 3 505 3 569c-45 -1 -84 -1 -91 1c-11 2 -13 20 -13 36c2 10 10 19 20 23c39 0 237 0 245 -4z" />
    <glyph glyph-name="uni0423" unicode="&#x423;" horiz-adv-x="321" 
d="M290 679c1 -6 3 -16 3 -28c0 -5 0 -10 -1 -15c0 0 -10 -466 -17 -508c-10 -54 -35 -129 -133 -129c-20 0 -105 7 -105 133c0 29 11 37 35 37c19 0 31 -3 31 -68c0 -37 15 -52 50 -52c50 0 66 49 66 94l4 126c-19 -7 -49 -16 -79 -16c-18 0 -37 3 -53 12
c-62 32 -62 183 -62 274c0 40 2 67 2 124c0 0 5 21 26 30c3 1 9 2 13 2c13 0 17 -13 17 -27c0 -99 1 -201 13 -301c3 -13 20 -61 65 -61c16 0 36 6 59 23c4 133 9 292 9 305c0 18 1 39 15 56c7 4 14 7 21 7c9 0 18 -5 21 -18z" />
    <glyph glyph-name="uni0424" unicode="&#x424;" horiz-adv-x="453" 
d="M422 537c14 -63 15 -140 15 -196c0 -46 -2 -94 -8 -139c-12 -87 -49 -154 -137 -154c-10 0 -20 1 -30 3v-41c0 -4 -11 -29 -40 -29c-18 0 -22 9 -22 22v48c-9 -2 -17 -3 -27 -3c-87 0 -125 67 -137 154c-6 45 -8 93 -8 139c0 56 1 133 15 196c21 98 73 119 134 119
c8 0 16 -1 23 -2v40c5 15 20 30 39 30c11 0 21 -4 29 -17v-52c6 1 13 1 20 1c61 0 113 -21 134 -119zM175 99c8 0 17 -2 25 1v502c-8 4 -18 4 -30 4c-59 0 -77 -85 -77 -140c0 -20 -4 -75 -3 -137v-33c0 -65 7 -197 85 -197zM375 329c1 62 -3 117 -3 137
c0 55 -18 140 -77 140c-11 0 -20 0 -28 -3l-4 -503v1c9 -4 18 -2 27 -2c78 0 85 132 85 197v33z" />
    <glyph glyph-name="uni0425" unicode="&#x425;" horiz-adv-x="367" 
d="M223 366c50 -126 104 -259 138 -341c0 0 -7 -27 -30 -27c-6 0 -17 2 -21 7c-18 23 -69 145 -122 279c-33 -79 -70 -164 -107 -253c-9 -21 -22 -36 -40 -36c-11 0 -24 10 -31 20c0 0 72 171 148 346c-46 118 -89 232 -108 288c-1 4 -7 23 -7 27c7 12 15 20 29 20
c16 0 29 -16 34 -33c17 -46 49 -128 86 -222c45 102 87 197 113 249c1 3 10 10 17 10c11 0 32 -12 33 -26c0 -3 -1 -7 -3 -11c-14 -29 -63 -142 -129 -297z" />
    <glyph glyph-name="uni0427" unicode="&#x427;" horiz-adv-x="327" 
d="M36 680c10 10 19 14 31 14c10 0 16 0 25 -9c4 -4 4 -38 4 -84v-89c0 -131 13 -196 72 -196h63c1 70 3 137 3 244v101c0 30 12 32 22 32c20 0 40 -11 40 -52l-5 -626c0 -13 -5 -16 -23 -16c-29 0 -36 27 -36 31v78l-1 152c-3 1 -50 1 -73 1c-51 0 -89 26 -110 89
c-8 29 -14 109 -14 178c0 19 0 126 2 152z" />
    <glyph glyph-name="uni0426" unicode="&#x426;" horiz-adv-x="394" 
d="M371 46c8 -6 10 -27 10 -51c0 -27 -3 -54 -3 -54c0 -11 -18 -13 -25 -13c-12 0 -23 4 -23 12l-2 61l-88 1c-57 0 -174 0 -181 4c-18 8 -23 14 -23 49c0 217 3 491 3 558v64c0 3 7 22 34 22c29 0 30 -13 30 -31c0 -12 -1 -26 -1 -40c-1 -74 -3 -534 -3 -570h27
c37 0 79 -1 113 -1c0 216 3 490 3 556v64c0 3 11 22 38 22c28 0 28 -12 28 -29c0 -13 -1 -27 -1 -42c-1 -74 -3 -529 -3 -575h1c27 0 58 0 66 -7z" />
    <glyph glyph-name="uni0428" unicode="&#x428;" horiz-adv-x="451" 
d="M386 699c24 0 25 -12 25 -29c0 -13 -1 -27 -1 -42c-1 -76 -3 -557 -3 -578v-12c0 -22 -11 -36 -38 -36h-16c-54 0 -287 0 -294 4c-18 8 -23 14 -23 49c0 217 3 491 3 558v64c0 3 1 22 28 22c29 0 34 -13 34 -31c0 -12 -1 -26 -1 -40c-1 -74 -3 -534 -3 -570h99
c0 210 3 487 3 549v64c0 3 4 22 31 22c23 0 30 -12 30 -24c0 -21 -1 -32 -1 -47c-1 -63 -3 -432 -3 -565h91c0 216 3 490 3 556v64c0 3 9 22 36 22z" />
    <glyph glyph-name="uni0429" unicode="&#x429;" horiz-adv-x="494" 
d="M478 46c8 -6 10 -27 10 -51c0 -27 -3 -54 -3 -54c0 -11 -18 -13 -25 -13c-12 0 -23 4 -23 12l-2 61l-88 1c-63 0 -281 0 -288 4c-18 8 -23 14 -23 49c0 217 3 491 3 558v64c0 3 1 22 28 22c29 0 34 -13 34 -31c0 -12 -1 -26 -1 -40c-1 -74 -3 -534 -3 -570h99
c0 210 3 487 3 549v64c0 3 4 22 31 22c23 0 30 -12 30 -24c0 -21 -1 -32 -1 -47c-1 -63 -3 -432 -3 -565h91c0 216 3 490 3 556v64c0 3 9 22 36 22c24 0 25 -12 25 -29c0 -13 -1 -27 -1 -42c-1 -74 -3 -529 -3 -575h5c27 0 58 0 66 -7z" />
    <glyph glyph-name="uni042C" unicode="&#x42c;" horiz-adv-x="334" 
d="M285 357c27 -31 31 -87 31 -118c0 -140 -8 -236 -127 -237h-126c-18 0 -23 25 -23 38l5 636c2 14 21 21 30 21c12 0 30 -14 33 -25c-1 -8 -1 -78 -1 -82l-3 -186h77c51 0 83 -23 104 -47zM257 168c0 20 1 42 1 51c0 85 -10 138 -95 138c-3 0 -35 0 -60 -1
c-1 -74 -2 -152 -2 -247c0 -22 0 -41 1 -54c6 -1 12 -2 18 -2h56c57 0 81 55 81 115z" />
    <glyph glyph-name="uni042A" unicode="&#x42a;" horiz-adv-x="384" 
d="M335 357c27 -31 31 -87 31 -118c0 -140 -8 -236 -127 -237h-126c-18 0 -23 25 -23 38l5 599c-32 1 -70 3 -80 3c-6 0 -15 12 -13 30c1 8 9 17 15 21c7 4 72 4 108 4v0h2v0c12 -2 28 -15 31 -25c-1 -8 -1 -78 -1 -82l-3 -186h77c51 0 83 -23 104 -47zM307 168
c0 20 1 42 1 51c0 85 -10 138 -95 138c-3 0 -35 0 -60 -1c-1 -74 -2 -152 -2 -247c0 -22 0 -41 1 -54c6 -1 12 -2 18 -2h56c57 0 81 55 81 115z" />
    <glyph glyph-name="uni042B" unicode="&#x42b;" horiz-adv-x="468" 
d="M181 404c51 0 83 -23 104 -47c27 -31 31 -87 31 -118c0 -140 -8 -236 -127 -237h-126c-18 0 -23 25 -23 38l5 636c2 14 21 21 30 21c12 0 30 -14 33 -25c-1 -8 -1 -78 -1 -82l-3 -186h77zM433 672c-1 -8 -1 -78 -1 -82c-3 -168 -6 -289 -6 -481c0 -39 1 -70 1 -70
c0 -4 -10 -37 -39 -37c-18 0 -23 25 -23 38l5 636c2 14 21 21 30 21c12 0 30 -14 33 -25zM257 168c0 20 1 42 1 51c0 85 -10 138 -95 138c-3 0 -35 0 -60 -1c-1 -74 -2 -152 -2 -247c0 -22 0 -41 1 -54c6 -1 12 -2 18 -2h56c57 0 81 55 81 115z" />
    <glyph glyph-name="uni042D" unicode="&#x42d;" horiz-adv-x="338" 
d="M300 581c11 -64 13 -124 13 -180c0 -68 -1 -180 -6 -241c-7 -88 -44 -162 -139 -162c-59 0 -106 34 -131 94c-9 22 -10 50 -10 77c0 21 2 39 29 39c12 0 27 -5 29 -17c-1 -15 -1 -29 -1 -41c0 -61 48 -100 88 -100c71 0 81 121 81 214c0 22 -1 42 -1 59h-127
c-13 0 -20 14 -20 27s11 29 24 29h122c0 59 -2 104 -3 129c-2 73 -27 141 -77 141c-77 0 -69 -102 -77 -134c-3 -3 -18 -5 -20 -5c-15 0 -29 5 -36 14c2 41 2 52 14 88c17 49 50 87 112 87c61 0 119 -21 136 -118z" />
    <glyph glyph-name="uni042E" unicode="&#x42e;" horiz-adv-x="485" 
d="M461 535c0 -54 3 -106 3 -154c0 -224 -29 -383 -135 -383c-58 0 -109 18 -132 129c-8 41 -14 97 -17 153l-79 -1v-67v-97c0 -48 0 -104 -24 -110h-14c-15 0 -24 8 -24 27c0 119 1 213 1 289c0 296 -2 331 0 355c1 18 17 18 32 18c13 0 32 -7 32 -17
c-2 -156 -3 -266 -3 -345c15 1 36 1 58 1h20v1c0 49 1 96 1 132c0 84 26 242 157 242c73 0 120 -93 124 -173zM323 47c58 0 76 167 76 319c0 73 -2 163 -9 207c-4 30 -30 82 -65 82c-43 0 -82 -49 -82 -306c0 -88 8 -302 80 -302z" />
    <glyph glyph-name="uni042F" unicode="&#x42f;" horiz-adv-x="338" 
d="M181 703c46 0 106 -7 124 -62l-9 -626c0 -13 -6 -16 -24 -16c-29 0 -39 35 -39 39c0 0 2 31 2 70c0 28 2 62 2 91c0 33 -1 60 -4 62c-1 1 -6 1 -14 1h-27c-59 -41 -101 -174 -115 -245c-3 -8 -21 -21 -35 -21c-11 0 -24 3 -33 11c19 130 79 221 110 262
c-30 12 -53 38 -66 81c-10 31 -13 122 -13 194c0 31 6 73 23 99c28 43 67 60 118 60zM236 310c4 94 5 184 5 326c-1 10 -28 18 -46 18c-74 0 -93 -43 -95 -118c0 -9 0 -89 -1 -109c2 -59 23 -117 79 -117h58z" />
    <glyph glyph-name="uni0430" unicode="&#x430;" horiz-adv-x="298" 
d="M277 41c1 -4 1 -7 1 -10c0 -21 -16 -27 -40 -28c-9 0 -11 8 -13 17l-27 210l-88 -1c-2 -10 -4 -20 -6 -31c-3 -12 -21 -153 -31 -179c-5 -4 -33 -14 -41 -14c-6 0 -11 4 -11 17c0 5 0 11 2 17c26 150 51 306 84 463c7 33 11 78 61 78c34 0 41 -44 45 -75zM118 272
c23 0 53 1 75 1l-31 242c-12 -38 -22 -120 -44 -243z" />
    <glyph glyph-name="uni0431" unicode="&#x431;" horiz-adv-x="283" 
d="M244 298c23 -26 26 -72 26 -98c0 -117 -6 -197 -106 -198h-105c-15 0 -19 21 -19 32l4 530c2 9 9 18 25 18c36 0 132 0 138 -4c5 -3 12 -10 12 -17c0 -4 -5 -28 -10 -28c-9 0 -69 -3 -111 -3v-37l-3 -156h63c42 0 69 -19 86 -39zM219 140c0 17 1 36 1 43
c0 71 -15 112 -77 112l-49 -1c-1 -61 -1 -125 -1 -203c0 -17 0 -32 1 -43c4 -1 9 -1 13 -1h46c48 0 66 43 66 93z" />
    <glyph glyph-name="uni0432" unicode="&#x432;" horiz-adv-x="284" 
d="M242 295c22 -26 26 -71 26 -97c0 -116 -7 -195 -105 -196h-104c-15 0 -19 21 -19 31l4 493v5c10 47 64 49 102 49c81 0 94 -58 94 -126c0 -67 -16 -107 -36 -130c16 -8 29 -18 38 -29zM134 539c-15 0 -34 -7 -35 -16c-1 -63 -3 -125 -3 -189l44 1c41 4 46 58 46 104v28
c0 43 -8 72 -52 72zM215 139c0 17 1 35 1 42c0 58 -4 111 -75 111c-2 0 -3 1 -5 1l-41 -1c-1 -64 -1 -130 -1 -201c0 -17 0 -32 1 -42c3 -1 7 -1 11 -1h46c47 0 63 42 63 91z" />
    <glyph glyph-name="uni0433" unicode="&#x433;" horiz-adv-x="217" 
d="M98 516c0 8 12 9 30 9h36c20 0 30 0 44 3c1 1 5 15 5 23c0 10 -2 18 -11 24c-13 7 -52 5 -70 5c-41 0 -70 -1 -85 -11c-6 -8 -6 -31 -6 -43c3 -69 3 -428 -2 -507c7 -11 15 -15 23 -15c13 0 26 8 27 8c14 5 12 44 12 69c0 2 0 352 -3 435z" />
    <glyph glyph-name="uni0434" unicode="&#x434;" horiz-adv-x="396" 
d="M369 39c7 -5 9 -23 9 -43c0 -24 -3 -47 -3 -47c0 -9 -15 -11 -21 -11c-10 0 -20 3 -20 10l-2 52h-275l-2 -52c0 -7 -10 -10 -20 -10c-6 0 -21 2 -21 11c0 0 -3 23 -3 47c0 20 2 38 9 43c6 6 33 6 56 6h12c23 117 43 363 43 490v11c0 19 11 35 34 35c33 0 113 0 120 -3
c16 -7 20 -15 20 -45c0 -187 -3 -403 -3 -460v-28h11c23 0 49 0 56 -6zM185 524c0 -193 -26 -383 -42 -479h107v15c1 64 3 443 3 474c-15 0 -27 -1 -68 -1v-9z" />
    <glyph glyph-name="uni0435" unicode="&#x435;" horiz-adv-x="232" 
d="M144 531c6 0 12 -1 17 -1c43 0 48 8 48 28c0 21 -13 22 -49 22c-17 0 -37 1 -54 1c-26 0 -47 -2 -51 -8c-15 -22 -13 -65 -15 -88c-1 -12 1 -287 -3 -408v-45c0 -28 9 -35 41 -35c35 0 83 3 111 6c9 1 18 7 18 17c0 5 0 17 -3 22c-2 5 -16 7 -31 7c-33 0 -41 -3 -65 -3
h-5c-6 0 -8 1 -8 9c0 33 3 132 1 191c0 16 3 19 26 19h52c12 0 23 7 23 23c0 18 -1 28 -31 28c-15 0 -59 -2 -70 2c-4 1 -5 16 -5 35c0 17 1 30 1 106c0 6 0 66 6 68c17 4 29 4 46 4z" />
    <glyph glyph-name="uni0451" unicode="&#x451;" horiz-adv-x="232" 
d="M53 714c-8 -6 -12 -15 -12 -23c0 -20 14 -40 34 -40c23 0 36 10 36 32s-9 36 -27 36c-12 0 -23 -2 -31 -5zM152 714c-8 -6 -12 -15 -12 -23c0 -20 14 -40 34 -40c23 0 36 10 36 32s-8 36 -27 36c-12 0 -23 -2 -31 -5zM144 531c6 0 12 -1 17 -1c43 0 48 8 48 28
c0 21 -13 22 -49 22c-17 0 -37 1 -54 1c-26 0 -47 -2 -51 -8c-15 -22 -13 -65 -15 -88c-1 -12 1 -287 -3 -408v-45c0 -28 9 -35 41 -35c35 0 83 3 111 6c9 1 18 7 18 17c0 5 0 17 -3 22c-2 5 -16 7 -31 7c-33 0 -41 -3 -65 -3h-5c-6 0 -8 1 -8 9c0 33 3 132 1 191
c0 16 3 19 26 19h52c12 0 23 7 23 23c0 18 -1 28 -31 28c-15 0 -59 -2 -70 2c-4 1 -5 16 -5 35c0 17 1 30 1 106c0 6 0 66 6 68c17 4 29 4 46 4z" />
    <glyph glyph-name="uni0436" unicode="&#x436;" horiz-adv-x="403" 
d="M227 577c-11 2 -19 3 -25 3c-9 0 -13 -3 -19 -10c-6 -6 -4 -39 -4 -48c0 -34 -1 -107 -3 -199c-27 77 -60 152 -79 213c-5 14 -15 35 -21 38c-3 1 -12 2 -20 1c-7 -1 -16 -1 -16 -11c0 -9 5 -30 8 -36c16 -32 77 -194 103 -250c-6 -17 -14 -34 -23 -50
c-43 -77 -55 -109 -92 -182c-3 -6 -13 -28 -10 -41c4 -13 25 -11 33 -12c13 -1 20 15 29 35l19 44c19 48 52 110 71 153c-1 -75 0 -168 -2 -210c0 -12 1 -22 3 -23c7 -2 15 -4 21 -4c15 0 26 2 26 32c0 33 -3 108 -3 166c0 17 0 25 1 38c25 -42 54 -94 79 -152l19 -44
c8 -20 15 -36 29 -35c7 1 28 -1 32 12c3 13 -7 35 -10 41c-37 73 -48 105 -91 182c-9 16 -17 33 -24 50c26 56 88 218 103 250c4 6 9 27 9 36c0 10 -10 10 -17 11c-8 1 -17 0 -20 -1c-6 -3 -16 -24 -21 -38c-20 -63 -51 -135 -80 -214c-6 59 6 179 -5 255z" />
    <glyph glyph-name="uni0437" unicode="&#x437;" horiz-adv-x="259" 
d="M80 479c-9 -11 -18 -16 -28 -16c-7 0 -12 4 -20 9v39c0 39 39 70 88 70c81 0 98 -58 98 -126c0 -69 -16 -109 -38 -131c17 -7 31 -16 41 -27c22 -25 26 -73 26 -99c0 -116 -7 -199 -106 -199h-22c-44 0 -90 27 -90 74v37c7 10 12 14 21 14c8 0 19 -4 27 -11l2 -36
c0 -29 33 -39 53 -39c44 0 61 49 61 99v44c0 71 -5 114 -75 114c-14 0 -20 -1 -38 -1c-4 7 -5 14 -5 21c0 6 1 15 5 20l37 1c41 3 46 56 46 99v35c0 43 -8 70 -42 70s-39 -24 -41 -61z" />
    <glyph glyph-name="uni0438" unicode="&#x438;" horiz-adv-x="330" 
d="M289 553c-2 14 -18 26 -43 26c-16 -10 -20 -37 -25 -55c-38 -131 -94 -323 -135 -436c-1 25 2 96 2 130c0 87 4 195 4 261v71c0 15 -5 40 -36 30c-15 -5 -15 -15 -17 -22c0 -56 -5 -289 -5 -430c0 -49 1 -80 3 -89c0 -15 31 -30 53 -30c11 0 21 4 24 12l122 384
c1 -24 -2 -123 -2 -152c0 -109 -2 -231 -2 -231c15 -14 26 -17 42 -17c18 0 15 97 15 205v343z" />
    <glyph glyph-name="uni0439" unicode="&#x439;" horiz-adv-x="330" 
d="M256 696c0 0 -19 -58 -85 -58c-57 0 -88 28 -88 61c0 11 7 14 19 15c24 -5 26 -33 66 -33c22 0 40 9 53 27c3 3 9 3 12 3c10 0 19 -4 23 -15zM289 553c-2 14 -18 26 -43 26c-16 -10 -20 -37 -25 -55c-38 -131 -94 -323 -135 -436c-1 25 2 96 2 130c0 87 4 195 4 261v71
c0 15 -5 40 -36 30c-15 -5 -15 -15 -17 -22c0 -56 -5 -289 -5 -430c0 -49 1 -80 3 -89c0 -15 31 -30 53 -30c11 0 21 4 24 12l122 384c1 -24 -2 -123 -2 -152c0 -109 -2 -231 -2 -231c15 -14 26 -17 42 -17c18 0 15 97 15 205v343z" />
    <glyph glyph-name="uni043A" unicode="&#x43a;" horiz-adv-x="282" 
d="M102 581c-14 2 -23 4 -30 4c-11 0 -16 -4 -24 -12c-4 -4 -1 -17 -1 -30c0 -11 1 -23 1 -28c0 -89 -5 -344 -10 -482c0 -15 1 -27 4 -28c8 -2 14 -5 21 -5c18 0 30 2 30 39c0 40 2 114 5 179c0 10 2 26 6 28c33 -56 41 -93 100 -210c10 -24 19 -42 35 -42
c12 1 38 -1 38 21c0 16 -10 37 -13 43c-45 89 -76 148 -123 246c32 67 81 182 100 221c3 6 8 25 8 37c0 14 -4 21 -20 21c-7 0 -15 -1 -22 -3c-7 -3 -20 -29 -25 -45c-25 -77 -42 -108 -77 -204c-1 16 -1 32 -1 47c0 37 3 78 3 120c0 27 -1 54 -5 83z" />
    <glyph glyph-name="uni043B" unicode="&#x43b;" horiz-adv-x="298" 
d="M162 515c-14 -45 -26 -153 -58 -317c-3 -12 -21 -153 -31 -179c-5 -4 -33 -14 -41 -14c-6 0 -11 4 -11 17c0 5 0 11 2 17c26 150 51 306 84 463c7 33 11 78 61 78c34 0 41 -44 45 -75l64 -464c1 -4 1 -7 1 -10c0 -21 -16 -27 -40 -28c-9 0 -11 8 -13 17z" />
    <glyph glyph-name="uni043C" unicode="&#x43c;" horiz-adv-x="469" 
d="M370 570c14 5 17 8 33 8c17 0 27 -13 27 -34c2 -161 5 -322 5 -487c0 -30 -3 -58 -45 -58c-8 0 -13 3 -14 14c0 450 2 459 1 469c-38 -182 -52 -201 -90 -393c-8 -23 -31 -28 -51 -28c-16 0 -27 12 -32 28c-27 81 -71 228 -98 331c-5 22 -10 38 -10 46
c0 -135 3 -307 3 -444c-3 -16 -20 -20 -33 -20c-18 0 -22 22 -22 36c-2 25 -2 412 -3 520c7 17 26 22 43 22c16 0 26 -4 32 -7c81 -301 127 -454 127 -454s81 357 94 399c7 20 10 41 33 52z" />
    <glyph glyph-name="uni043D" unicode="&#x43d;" horiz-adv-x="291" 
d="M227 581c9 0 18 -3 28 -13v-106c0 -182 -4 -417 -5 -446c-9 -8 -23 -11 -34 -11c-8 0 -19 2 -19 7l1 229v2c-23 -1 -84 -1 -106 -2v-65v-80c0 -40 0 -86 -20 -91h-13c-13 0 -20 7 -20 22c0 99 1 176 1 239c0 245 -2 274 0 294c0 14 14 14 26 14c11 0 29 -5 29 -14
c-2 -121 -2 -209 -3 -273c12 1 29 1 46 1c22 0 45 0 60 -1l3 279c0 8 14 15 26 15z" />
    <glyph glyph-name="uni043E" unicode="&#x43e;" horiz-adv-x="287" 
d="M262 446c0 -45 3 -88 3 -128c0 -187 -24 -320 -113 -320c-48 0 -91 15 -110 108c-9 45 -15 111 -15 173c0 41 1 80 1 110c0 70 22 202 131 202c61 0 100 -78 103 -145zM147 43c49 0 59 135 59 262c0 61 -2 136 -8 173c-3 25 -20 65 -49 65c-36 0 -65 -37 -65 -252
c0 -73 3 -248 63 -248z" />
    <glyph glyph-name="uni043F" unicode="&#x43f;" horiz-adv-x="296" 
d="M245 577c15 -7 19 -14 19 -43c0 -180 -3 -408 -3 -464v-53c0 -2 -7 -18 -30 -18c-24 0 -25 11 -25 26c0 10 1 21 1 33c1 61 3 444 3 474c-36 -1 -82 -1 -117 -1c0 -179 -2 -406 -2 -461v-53c0 -2 -9 -18 -32 -18s-25 10 -25 24c0 11 1 22 1 35c1 63 2 461 2 478v10
c0 18 14 34 36 34c33 0 165 0 172 -3z" />
    <glyph glyph-name="uni0440" unicode="&#x440;" horiz-adv-x="285" 
d="M39 525v5c10 48 69 52 107 52c43 0 79 -8 101 -44c14 -22 14 -62 14 -88c0 -60 -6 -135 -14 -161c-18 -52 -52 -73 -94 -73c-19 0 -56 0 -57 -1c-4 -4 -5 -76 -5 -126c0 -33 1 -58 1 -58c0 -4 -9 -33 -33 -33c-15 0 -24 3 -24 14zM96 522c-3 -117 -3 -180 -2 -258h48
c38 0 63 39 63 89l1 90c0 63 -11 94 -72 94c-15 0 -37 -6 -38 -15z" />
    <glyph glyph-name="uni0441" unicode="&#x441;" horiz-adv-x="291" 
d="M262 436c-1 34 -1 44 -11 73c-14 41 -42 73 -93 73s-96 -18 -114 -100c-11 -52 -12 -101 -12 -148c0 -56 2 -158 7 -209c5 -73 36 -121 115 -121c49 0 88 27 109 76c8 19 8 42 8 65c0 17 -1 32 -24 32c-10 0 -28 -4 -30 -14c1 -13 1 -24 1 -34c0 -61 -32 -77 -65 -77
c-56 0 -63 93 -63 169v73c0 60 2 105 2 129c0 46 16 111 57 111c64 0 52 -79 59 -105c2 -3 23 -4 24 -4c13 0 24 4 30 11z" />
    <glyph glyph-name="uni0442" unicode="&#x442;" horiz-adv-x="242" 
d="M226 579c5 -3 13 -16 13 -22c0 -5 -7 -25 -12 -25l-78 -2c0 -179 -2 -404 -2 -459v-54c0 -2 -10 -18 -32 -18c-24 0 -27 11 -27 26c0 10 1 21 1 33c1 59 3 411 3 472c-38 -1 -70 -1 -76 1c-9 1 -11 16 -11 30c2 8 8 18 17 21c32 0 197 0 204 -3z" />
    <glyph glyph-name="uni0443" unicode="&#x443;" horiz-adv-x="278" 
d="M253 567c1 -5 2 -14 2 -24v-12s-9 -389 -15 -424c-8 -45 -29 -108 -111 -108c-16 0 -87 6 -87 111c0 24 9 31 29 31c16 0 31 -3 31 -57c0 -31 15 -41 37 -41c36 0 48 39 48 76c0 2 1 45 3 103c-16 -6 -37 -11 -59 -11c-15 0 -31 3 -44 10c-52 27 -52 153 -52 229
c0 33 2 56 2 103c0 0 4 18 21 25c3 1 14 2 17 2c11 0 14 -11 14 -22c0 -83 1 -168 11 -252c3 -11 11 -51 49 -51c11 0 26 4 42 14l7 260c0 15 1 33 13 47c6 3 19 6 24 6c8 0 15 -4 18 -15z" />
    <glyph glyph-name="uni0444" unicode="&#x444;" horiz-adv-x="404" 
d="M368 458c12 -54 13 -120 13 -168c0 -39 -2 -81 -7 -119c-11 -75 -38 -132 -120 -132c-8 0 -16 1 -24 2v-35c0 -4 -11 -25 -36 -25c-15 0 -19 8 -19 19v41c-7 -1 -15 -2 -23 -2c-81 0 -109 57 -119 132c-5 38 -7 80 -7 119c0 48 1 114 13 168c18 84 64 102 117 102
c7 0 13 0 19 -1v34c5 13 18 26 34 26c9 0 19 -4 26 -15v-45c5 1 10 1 16 1c52 0 99 -18 117 -102zM154 82c7 0 14 -1 21 1v431c-7 4 -15 4 -25 4c-51 0 -64 -73 -64 -121c0 -17 -4 -64 -3 -117v-29c0 -55 4 -169 71 -169zM324 251v29c0 53 -3 100 -3 117
c0 48 -13 121 -64 121c-9 0 -16 0 -23 -2l-3 -433c7 -2 15 -1 22 -1c67 0 71 114 71 169z" />
    <glyph glyph-name="uni0445" unicode="&#x445;" horiz-adv-x="303" 
d="M184 306c42 -105 88 -217 117 -286c0 0 -9 -23 -28 -23c-5 0 -14 2 -18 6c-15 19 -57 120 -101 232c-28 -65 -58 -136 -89 -210c-7 -18 -18 -30 -33 -30c-9 0 -24 8 -30 17c0 0 61 145 125 292c-38 96 -72 189 -88 235c-1 3 -6 19 -6 22c6 10 16 17 28 17
c13 0 24 -14 28 -28l68 -175c36 81 69 156 90 198c1 2 13 8 18 8c9 0 27 -10 28 -22c0 -2 -1 -5 -3 -9c-12 -24 -52 -117 -106 -244z" />
    <glyph glyph-name="uni0447" unicode="&#x447;" horiz-adv-x="292" 
d="M41 569c8 9 17 12 27 12c9 0 16 0 24 -8c3 -3 4 -31 4 -70v-74c0 -110 11 -165 60 -165h49c1 59 3 115 3 205v84c0 25 10 27 19 27c16 0 37 -9 37 -43l-5 -525c0 -10 -7 -13 -22 -13c-25 0 -31 23 -31 26v65l-1 127c-3 1 -41 1 -60 1c-43 0 -77 22 -94 75
c-7 24 -12 91 -12 149c0 16 0 106 2 127z" />
    <glyph glyph-name="uni0446" unicode="&#x446;" horiz-adv-x="342" 
d="M320 28c7 -5 9 -23 9 -43c0 -23 -3 -46 -3 -46c0 -9 -15 -11 -21 -11c-10 0 -20 3 -20 10l-1 49l-75 1c-49 0 -148 0 -153 4c-16 6 -20 14 -20 44c0 184 3 416 3 473v54c0 3 5 19 28 19c25 0 27 -11 27 -26c0 -11 -1 -22 -1 -34c-1 -63 -3 -453 -3 -484h23
c32 0 65 -1 94 -1c0 184 3 416 3 472v54c0 3 10 19 33 19c24 0 24 -10 24 -25c0 -11 -1 -23 -1 -35c-1 -63 -3 -447 -3 -488h1c23 0 49 0 56 -6z" />
    <glyph glyph-name="uni0448" unicode="&#x448;" horiz-adv-x="373" 
d="M327 582c20 0 21 -10 21 -24c0 -11 -1 -23 -1 -35c-1 -63 -2 -464 -2 -481v-10c0 -18 -9 -30 -32 -30h-13c-45 0 -239 0 -245 3c-15 7 -19 12 -19 41c0 181 2 409 2 464v54c0 2 1 18 24 18c24 0 30 -11 30 -26c0 -10 -1 -22 -1 -33c-1 -62 -2 -444 -2 -474h79
c0 175 3 405 3 456v54c0 2 4 18 26 18c20 0 26 -10 26 -20v-39c-1 -54 -3 -366 -3 -470h73c0 179 2 407 2 462v54c0 2 10 18 32 18z" />
    <glyph glyph-name="uni0449" unicode="&#x449;" horiz-adv-x="421" 
d="M405 42c7 -5 9 -23 9 -43c0 -23 -3 -46 -3 -46c0 -9 -15 -11 -21 -11c-10 0 -20 3 -20 10l-1 49l-75 1c-54 0 -233 0 -239 3c-15 7 -19 12 -19 41c0 181 2 409 2 464v54c0 2 1 18 24 18c24 0 30 -11 30 -26c0 -10 -1 -22 -1 -33c-1 -62 -2 -444 -2 -474h79
c0 175 3 405 3 456v54c0 2 4 18 26 18c20 0 26 -10 26 -20v-39c-1 -54 -3 -366 -3 -470h73c0 179 2 407 2 462v54c0 2 10 18 32 18c20 0 21 -10 21 -24c0 -11 -1 -23 -1 -35c-1 -60 -2 -422 -2 -475h4c23 0 49 0 56 -6z" />
    <glyph glyph-name="uni044C" unicode="&#x44c;" horiz-adv-x="292" 
d="M244 297c22 -25 26 -72 26 -98c0 -116 -7 -196 -106 -197h-105c-15 0 -19 21 -19 32l4 529c2 11 18 17 25 17c10 0 28 -11 31 -21c-1 -6 -1 -65 -1 -68l-3 -155h61c43 0 69 -19 87 -39zM218 140v47c0 62 -11 106 -76 106l-47 -1c-1 -60 -1 -124 -1 -201
c0 -17 -1 -32 -1 -43c5 -1 9 -1 14 -1h46c41 0 65 43 65 93z" />
    <glyph glyph-name="uni044A" unicode="&#x44a;" horiz-adv-x="326" 
d="M288 297c22 -25 26 -72 26 -98c0 -116 -7 -196 -106 -197h-105c-15 0 -19 21 -19 32l4 496c-28 0 -63 2 -73 2c-5 0 -13 4 -13 18c0 11 6 20 15 26c7 4 61 4 96 4c10 0 28 -11 31 -21c-1 -6 -1 -65 -1 -68l-3 -155h61c43 0 69 -19 87 -39zM262 140v47
c0 62 -11 106 -76 106l-47 -1c-1 -60 -1 -124 -1 -201c0 -17 -1 -32 -1 -43c5 -1 9 -1 14 -1h46c41 0 65 43 65 93z" />
    <glyph glyph-name="uni044B" unicode="&#x44b;" horiz-adv-x="406" 
d="M157 336c43 0 69 -19 87 -39c22 -25 26 -72 26 -98c0 -116 -7 -196 -106 -197h-105c-15 0 -19 21 -19 32l4 529c2 11 18 17 25 17c10 0 28 -11 31 -21c-1 -6 -1 -65 -1 -68l-3 -155h61zM346 580c10 0 28 -11 31 -21c-1 -6 -1 -65 -1 -68c-3 -140 -5 -240 -5 -400
c0 -32 -2 -58 -2 -58c0 -4 -9 -31 -33 -31c-15 0 -19 21 -19 32l4 529c2 11 18 17 25 17zM218 140v47c0 62 -11 106 -76 106l-47 -1c-1 -60 -1 -124 -1 -201c0 -17 -1 -32 -1 -43c5 -1 9 -1 14 -1h46c41 0 65 43 65 93z" />
    <glyph glyph-name="uni044D" unicode="&#x44d;" horiz-adv-x="275" 
d="M242 483c9 -53 11 -103 11 -150c0 -56 -1 -150 -5 -200c-6 -73 -37 -135 -116 -135c-49 0 -88 28 -109 78c-7 18 -8 42 -8 64c0 18 2 33 24 33c10 0 25 -5 26 -14c-1 -13 -1 -25 -1 -35c0 -50 38 -80 72 -80c59 0 64 105 64 175c0 19 -1 37 -1 51h-103
c-11 0 -17 15 -17 26s9 24 20 24h99c0 47 -1 82 -2 102c-2 61 -20 115 -61 115c-64 0 -56 -82 -62 -109c-3 -3 -17 -4 -19 -4c-12 0 -24 4 -30 11c2 35 2 44 12 74c14 40 41 72 93 72c51 0 99 -17 113 -98z" />
    <glyph glyph-name="uni044E" unicode="&#x44e;" horiz-adv-x="411" 
d="M388 443c0 -45 3 -88 3 -128c0 -185 -24 -317 -112 -317c-48 0 -91 15 -109 107c-7 33 -12 80 -14 127l-63 -1v-55v-81c0 -40 0 -86 -20 -91h-14c-13 0 -20 6 -20 22c0 99 1 177 1 239c0 245 -2 275 0 295c0 15 14 15 26 15c11 0 29 -6 29 -14c-1 -129 -2 -220 -2 -285
c12 1 28 1 45 1h17c0 41 1 79 1 108c0 70 21 201 130 201c60 0 99 -77 102 -143zM274 40c48 0 61 137 61 263c0 60 -1 135 -8 171c-3 25 -23 66 -51 66c-36 0 -67 -39 -67 -252c0 -72 6 -248 65 -248z" />
    <glyph glyph-name="uni044F" unicode="&#x44f;" horiz-adv-x="284" 
d="M151 580c38 0 89 -6 104 -51l-8 -517c0 -11 -6 -14 -21 -14c-24 0 -33 29 -33 33c0 0 2 25 2 58c0 23 1 51 1 75c0 27 0 49 -3 51c-1 1 -4 1 -10 1h-20c-49 -34 -86 -144 -98 -203c-2 -6 -17 -17 -29 -17c-9 0 -20 2 -27 9c15 107 65 183 91 217c-25 9 -44 31 -55 66
c-8 26 -10 101 -10 161c0 25 5 60 19 82c23 35 55 49 97 49zM196 257c3 78 4 147 4 265c-1 8 -22 15 -37 15c-61 0 -77 -44 -77 -95c0 -7 0 -73 -1 -90c2 -49 17 -95 64 -95h47z" />
    <glyph glyph-name="uni03BC" unicode="&#x3bc;" horiz-adv-x="346" 
d="M83 581c15 0 20 -14 20 -32l2 -195c1 -42 21 -141 74 -141c63 0 71 71 71 71c0 3 2 81 2 115c0 51 0 131 8 153c5 15 11 25 23 25c9 0 22 -16 27 -19c0 0 4 -202 4 -349c0 -71 -4 -142 -5 -161c-8 -32 -6 -39 -29 -39c-13 0 -22 5 -25 15c-2 9 -3 28 -3 49v125
c-29 -39 -51 -43 -83 -43c-27 0 -47 16 -64 36l-2 -189v-23c0 -79 -12 -101 -12 -101c-9 -14 -15 -14 -24 -14c-14 0 -28 2 -28 23c0 7 1 15 1 24c0 8 2 87 2 328c0 146 5 268 5 286c0 52 20 56 36 56z" />
    <glyph glyph-name="zero" unicode="0" horiz-adv-x="357" 
d="M324 535c0 -51 3 -103 3 -165c0 -218 -1 -372 -119 -372c-119 0 -120 168 -122 274v153c0 114 9 283 126 283c79 0 108 -93 112 -173zM208 48c58 0 59 166 59 318c0 73 -2 142 -9 186c-4 30 -13 104 -48 104c-45 0 -66 -102 -66 -316c0 -93 7 -292 64 -292z" />
    <glyph glyph-name="one" unicode="1" horiz-adv-x="300" 
d="M254 692c2 -2 3 -30 3 -81c0 -184 -11 -594 -11 -594s-26 -19 -47 -19c-7 0 -12 2 -16 8c-1 1 -1 10 -1 24c0 104 13 522 13 522s-101 -193 -109 -192c-6 2 -41 -3 -41 19c0 7 3 18 7 27l144 278s12 15 36 15c6 0 17 -4 22 -7z" />
    <glyph glyph-name="two" unicode="2" horiz-adv-x="318" 
d="M61 513c7 -8 14 -11 20 -11c28 0 32 39 32 39c5 92 41 103 57 103c42 0 53 -40 53 -80c0 -76 -38 -188 -110 -324c-19 -36 -40 -80 -58 -115c-11 -28 -32 -47 -32 -86c3 -20 22 -33 41 -33c20 0 154 3 197 3c14 0 28 9 28 31c0 20 -11 24 -30 24c-10 0 -21 1 -164 1
c0 0 79 167 97 203c19 36 94 180 94 300c0 105 -67 130 -108 130c-104 0 -121 -86 -121 -141c0 -26 4 -44 4 -44z" />
    <glyph glyph-name="three" unicode="3" horiz-adv-x="313" 
d="M66 563c3 -4 7 -6 12 -6c11 0 41 10 41 24c0 29 11 82 51 82c36 0 48 -48 48 -91c0 -118 -33 -139 -52 -150c-17 -9 -51 7 -51 -27c0 -15 4 -23 18 -23c77 0 94 -71 94 -138v-20c0 -72 -11 -176 -68 -176c-76 0 -29 108 -59 132c-6 6 -13 8 -19 8c-21 0 -36 -18 -36 -18
c0 -124 31 -162 116 -162c108 0 130 99 130 258c0 133 -89 141 -89 141c59 6 76 82 76 154c0 69 -15 153 -102 153c-93 0 -113 -68 -113 -109c0 -19 3 -32 3 -32z" />
    <glyph glyph-name="four" unicode="4" horiz-adv-x="375" 
d="M223 666c-3 16 -14 25 -33 25c-4 0 -8 0 -12 -1c-11 -29 -69 -181 -142 -396c-1 -6 -2 -12 -2 -18c0 -34 14 -34 52 -34l144 -1c-2 -80 -3 -157 -3 -235c3 -13 10 -13 17 -13c37 0 40 23 41 51l5 198h33c21 0 32 1 40 12c4 6 11 12 11 19c0 13 -13 16 -24 16
c-2 0 -45 0 -55 1v224c-6 2 -9 3 -14 3c-19 0 -34 -10 -38 -34c-11 -58 -7 -121 -11 -187h-107c-12 0 -25 1 -25 8l1 4c43 105 97 281 122 358z" />
    <glyph glyph-name="five" unicode="5" horiz-adv-x="304" 
d="M64 445c2 -17 13 -24 26 -25h19c107 0 113 -38 113 -160c0 -100 9 -218 -68 -218c-50 0 -63 46 -63 85c0 48 0 55 -25 55s-30 -25 -30 -25c1 -86 14 -159 116 -159c129 0 132 98 132 288c0 151 -81 167 -82 171c-28 10 -43 11 -60 12c-8 0 -19 0 -25 -1v157
c0 2 40 3 87 3h39c10 0 25 14 25 30c0 10 -4 13 -12 18c-5 3 -16 9 -60 9c-64 0 -113 -2 -125 -8c-8 -4 -8 -24 -8 -24z" />
    <glyph glyph-name="six" unicode="6" horiz-adv-x="336" 
d="M185 426c78 0 126 -50 126 -187c0 -110 -6 -233 -149 -233c-99 0 -111 122 -111 243v171c0 151 14 278 137 278c95 0 110 -74 110 -118c0 -12 -2 -36 -20 -36c-17 0 -39 19 -39 19v14c0 84 -49 84 -49 84c-72 -3 -76 -176 -76 -221v-32c25 13 50 18 71 18zM175 44
c62 0 70 121 70 166c0 100 -2 170 -64 175c-30 0 -54 -13 -69 -27c-1 -23 -2 -46 -2 -66c0 -155 23 -248 65 -248z" />
    <glyph glyph-name="seven" unicode="7" horiz-adv-x="253" 
d="M36 684h108c31 0 50 1 82 1c28 0 36 -36 36 -36l-152 -621c-8 -23 -26 -25 -41 -25c-18 0 -26 3 -26 15c0 3 1 8 2 12l156 597s-43 1 -113 1c-20 0 -36 0 -45 2c-15 3 -20 11 -20 21c0 16 13 33 13 33z" />
    <glyph glyph-name="eight" unicode="8" horiz-adv-x="341" 
d="M254 387c40 -27 61 -82 62 -140c0 -116 -2 -243 -147 -243c-105 0 -117 109 -117 225c0 67 19 128 66 158c-36 21 -56 69 -56 149c0 109 51 161 133 161c83 0 118 -67 118 -156c0 -87 -18 -133 -59 -154zM194 657c-39 0 -67 -28 -67 -116c0 -100 25 -133 56 -133h3
c50 2 64 75 66 106v33c0 48 -9 110 -58 110zM176 42c50 3 77 61 77 187c0 56 -12 137 -68 137c-35 0 -67 -31 -67 -126c0 -91 4 -198 58 -198z" />
    <glyph glyph-name="nine" unicode="9" horiz-adv-x="344" 
d="M200 698c99 0 111 -122 111 -243v-171c0 -151 -14 -278 -137 -278c-95 0 -110 74 -110 118c0 12 2 36 20 36c17 0 39 -19 39 -19v-14c0 -84 49 -84 49 -84c72 3 76 176 76 221v32c-25 -13 -50 -18 -71 -18c-78 0 -126 50 -126 187c0 110 6 233 149 233zM181 319
c30 0 54 13 69 27c1 23 2 46 2 66c0 155 -23 247 -65 247c-62 0 -70 -120 -70 -165c0 -100 2 -170 64 -175z" />
    <glyph glyph-name="fraction" unicode="&#x2044;" horiz-adv-x="605" 
d="M487 684c6 17 20 18 31 18c16 0 35 -2 35 -19c0 -2 -1 -3 -1 -5c-6 -5 -436 -642 -440 -648c-8 -14 -14 -24 -36 -24c-15 0 -29 0 -29 19c0 8 7 30 12 39z" />
    <glyph glyph-name="uni00B9" unicode="&#xb9;" horiz-adv-x="164" 
d="M129 696c1 -1 2 -14 2 -37c0 -84 -5 -280 -5 -280s-9 -7 -23 -7c-5 0 -12 0 -15 5c-1 0 -1 4 -1 11c0 47 6 234 6 234s-39 -81 -43 -80c-2 1 -25 0 -25 11c0 3 1 8 3 12l66 127s5 7 16 7c3 0 17 -2 19 -3z" />
    <glyph glyph-name="uni00B2" unicode="&#xb2;" horiz-adv-x="179" 
d="M26 611c3 -4 21 -5 24 -5c13 0 15 18 15 18c2 43 20 45 28 45c20 0 24 -15 24 -34c0 -36 -18 -88 -52 -152c-18 -33 -32 -59 -42 -95c1 -9 10 -15 19 -15l108 1c6 0 13 4 13 15c0 9 0 20 -9 22c-5 1 -50 1 -76 1l39 84c9 17 42 83 42 140c0 36 -24 62 -63 62
c-49 0 -72 -41 -72 -66c0 -13 2 -21 2 -21z" />
    <glyph glyph-name="uni00B3" unicode="&#xb3;" horiz-adv-x="181" 
d="M37 635c2 -2 3 -3 6 -3c5 0 31 5 31 11c0 14 3 33 24 33s22 -25 22 -45c0 -56 -16 -50 -26 -56c-9 -4 -26 -3 -26 -19c0 -7 2 -16 10 -16c38 0 47 -28 47 -60v-9c0 -34 0 -73 -29 -73c-34 0 -20 41 -35 52c-3 3 -7 4 -10 4c-11 0 -18 -9 -18 -9c0 -58 16 -76 59 -76
c54 0 76 35 76 109c0 73 -45 79 -45 79c30 3 39 38 39 72c0 45 -19 72 -63 72c-47 0 -63 -32 -63 -51c0 -9 1 -15 1 -15z" />
    <glyph glyph-name="asterisk" unicode="*" horiz-adv-x="351" 
d="M213 569l90 -54s-12 -32 -40 -28c-9 2 -33 15 -62 32l2 -77s-3 -17 -20 -13c-11 4 -27 -2 -28 6l-3 88l-76 -58s-33 -4 -29 18l93 74c-48 30 -91 59 -91 59s9 45 49 22c9 -5 28 -16 51 -30l-2 59s8 28 33 33c24 3 17 -25 17 -25l2 -71c39 30 71 56 77 60
c13 11 25 -20 19 -30c-2 -3 -39 -32 -82 -65z" />
    <glyph glyph-name="backslash" unicode="\" horiz-adv-x="439" 
d="M382 45c5 -9 12 -31 12 -39c0 -19 -14 -19 -29 -19c-22 0 -28 10 -36 24c-4 6 -268 676 -274 681c0 2 -1 3 -1 5c0 17 19 19 35 19c11 0 25 -1 31 -18z" />
    <glyph glyph-name="periodcentered" unicode="&#xb7;" horiz-adv-x="123" 
d="M44 372c-10 -6 -15 -17 -15 -28c0 -25 17 -53 42 -53c28 0 45 16 45 43s-4 48 -34 48c-15 0 -29 -5 -38 -10z" />
    <glyph glyph-name="bullet" unicode="&#x2022;" horiz-adv-x="270" 
d="M142 408c-38 0 -73 -26 -73 -63c0 -42 24 -79 64 -79c38 0 71 26 71 70c0 37 -15 72 -62 72z" />
    <glyph glyph-name="colon" unicode=":" horiz-adv-x="204" 
d="M74 391c-10 -6 -15 -17 -15 -28c0 -25 17 -53 42 -53c28 0 45 16 45 43s-4 48 -34 48c-15 0 -29 -5 -38 -10zM74 92c-10 -6 -15 -17 -15 -28c0 -25 17 -53 42 -53c28 0 45 16 45 43s-4 48 -34 48c-15 0 -29 -5 -38 -10z" />
    <glyph glyph-name="comma" unicode="," horiz-adv-x="161" 
d="M52 92c-10 -6 -15 -17 -15 -28c0 -19 6 -38 21 -47c0 -16 -16 -68 -16 -74c-1 -6 8 -21 22 -21c5 0 12 3 17 9c16 19 44 98 44 122c0 27 -5 49 -35 49c-15 0 -29 -5 -38 -10z" />
    <glyph glyph-name="ellipsis" unicode="&#x2026;" horiz-adv-x="480" 
d="M53 87c-10 -6 -15 -17 -15 -28c0 -25 17 -53 42 -53c28 0 45 16 45 43s-4 48 -34 48c-15 0 -29 -5 -38 -10zM213 87c-10 -6 -15 -17 -15 -28c0 -25 17 -53 42 -53c28 0 45 16 45 43s-4 48 -34 48c-15 0 -29 -5 -38 -10zM373 87c-10 -6 -15 -17 -15 -28
c0 -25 17 -53 42 -53c28 0 45 16 45 43s-4 48 -34 48c-15 0 -29 -5 -38 -10z" />
    <glyph glyph-name="exclam" unicode="!" horiz-adv-x="275" 
d="M106 688c11 10 28 15 39 15c10 0 25 -4 35 -11c-1 -6 -9 -436 -9 -442c0 -38 -8 -69 -35 -69c-15 0 -28 13 -28 66zM108 87c-10 -6 -15 -17 -15 -28c0 -25 17 -53 42 -53c28 0 45 16 45 43s-4 48 -34 48c-15 0 -29 -5 -38 -10z" />
    <glyph glyph-name="exclamdown" unicode="&#xa1;" horiz-adv-x="247" 
d="M108 367c9 -5 23 -10 38 -10c30 0 34 21 34 48s-17 43 -45 43c-25 0 -42 -28 -42 -53c0 -11 5 -22 15 -28zM106 -234l2 441c0 53 13 66 28 66c27 0 35 -31 35 -69c0 -6 8 -436 9 -442c-10 -7 -25 -11 -35 -11c-11 0 -28 5 -39 15z" />
    <glyph glyph-name="numbersign" unicode="#" horiz-adv-x="524" 
d="M435 295c22 0 51 -3 51 -15c0 -7 -8 -36 -36 -50c-21 1 -48 2 -79 2v-194c0 -24 -14 -35 -27 -35c-9 -2 -17 -4 -23 -4c-3 0 -6 1 -7 2c-5 5 -6 19 -6 33c0 13 1 27 1 35c1 24 2 87 2 164h-37h-60v-195c0 -27 -14 -31 -29 -35c-8 -2 -15 -4 -21 -4c-3 0 -6 1 -8 2
c-3 5 -4 16 -4 28c0 14 1 30 1 40c0 24 0 87 1 163h-48c-10 0 -26 -1 -40 -1c-12 0 -23 1 -28 4c-2 2 -2 5 -2 9c0 22 9 49 38 49h80v40v97h-48c-9 0 -25 -1 -39 -1c-13 0 -24 1 -29 5c-1 3 -2 7 -2 10c0 20 6 47 38 47h79c0 78 -1 143 -3 171c16 29 44 36 53 36
c12 -1 13 -23 13 -45v-29s0 -55 -1 -133c35 0 68 0 97 1c-1 77 -2 142 -4 170c15 29 44 36 51 36c12 -1 13 -23 13 -45v-161h40c3 0 13 1 25 1c22 0 49 -2 49 -14c0 -8 -8 -37 -36 -51c-22 2 -48 2 -78 3l-1 -137h41c2 0 12 1 23 1zM215 293c35 0 68 0 97 1v112v25
c-31 0 -63 -1 -93 -1h-4v-137z" />
    <glyph glyph-name="period" unicode="." horiz-adv-x="160" 
d="M53 87c-10 -6 -15 -17 -15 -28c0 -25 17 -53 42 -53c28 0 45 16 45 43s-4 48 -34 48c-15 0 -29 -5 -38 -10z" />
    <glyph glyph-name="question" unicode="?" horiz-adv-x="384" 
d="M319 588c0 -149 -131 -208 -131 -338c0 -19 2 -16 2 -35c-2 -33 -17 -33 -37 -34c-20 0 -28 13 -28 66c0 133 126 205 126 328c0 42 -14 84 -47 84c-46 0 -71 -47 -71 -119c0 -25 -2 -44 -22 -44c-36 0 -41 17 -41 56c0 116 68 158 138 158c57 0 111 -40 111 -122z
M138 87c-10 -6 -15 -17 -15 -28c0 -25 17 -53 42 -53c28 0 45 16 45 43s-4 48 -34 48c-15 0 -29 -5 -38 -10z" />
    <glyph glyph-name="questiondown" unicode="&#xbf;" horiz-adv-x="336" 
d="M251 375c10 6 15 17 15 28c0 25 -17 53 -42 53c-28 0 -45 -16 -45 -43s4 -48 34 -48c15 0 29 5 38 10zM70 -126c0 149 131 208 131 338c0 19 -2 16 -2 35c2 33 17 33 37 34c20 0 28 -13 28 -66c0 -133 -126 -205 -126 -328c0 -42 14 -84 47 -84c46 0 71 47 71 119
c0 25 2 44 22 44c36 0 41 -17 41 -56c0 -116 -68 -158 -138 -158c-57 0 -111 40 -111 122z" />
    <glyph glyph-name="quotedbl" unicode="&#x22;" horiz-adv-x="283" 
d="M55 690c-9 -6 -15 -11 -15 -27c0 -28 2 -131 11 -149c5 -12 9 -13 23 -13c5 0 19 1 22 4c13 15 18 118 18 161c0 18 -4 30 -26 30c-15 0 -24 -1 -33 -6zM172 690c-9 -6 -15 -11 -15 -27c0 -28 2 -131 11 -149c5 -12 9 -13 23 -13c5 0 19 1 22 4c13 15 18 118 18 161
c0 18 -4 30 -26 30c-15 0 -24 -1 -33 -6z" />
    <glyph glyph-name="quotesingle" unicode="'" horiz-adv-x="144" 
d="M55 690c-9 -6 -15 -11 -15 -27c0 -28 2 -131 11 -149c5 -12 9 -13 23 -13c5 0 19 1 22 4c13 15 18 118 18 161c0 18 -4 30 -26 30c-15 0 -24 -1 -33 -6z" />
    <glyph glyph-name="semicolon" unicode=";" horiz-adv-x="203" 
d="M73 391c-10 -6 -15 -17 -15 -28c0 -25 17 -53 42 -53c28 0 45 16 45 43s-4 48 -34 48c-15 0 -29 -5 -38 -10zM73 92c-10 -6 -15 -17 -15 -28c0 -19 6 -38 21 -47c0 -16 -16 -68 -16 -74c-1 -6 8 -21 22 -21c5 0 12 3 17 9c16 19 44 98 44 122c0 27 -5 49 -35 49
c-15 0 -29 -5 -38 -10z" />
    <glyph glyph-name="slash" unicode="/" horiz-adv-x="432" 
d="M328 698c6 17 20 18 31 18c16 0 35 -2 35 -19c0 -2 -1 -3 -1 -5c-6 -5 -270 -675 -274 -681c-8 -14 -14 -24 -36 -24c-15 0 -29 0 -29 19c0 8 7 30 12 39z" />
    <glyph glyph-name="underscore" unicode="_" horiz-adv-x="497" 
d="M453 36c-2 -18 -7 -33 -20 -33h-351c-21 0 -22 18 -22 34c0 15 10 25 23 25h346c13 0 24 -11 24 -26z" />
    <glyph glyph-name="braceleft" unicode="{" horiz-adv-x="336" 
d="M289 703c0 0 -20 4 -45 4c-36 0 -80 -9 -90 -53c-16 -73 -21 -232 -25 -243c-3 -11 -19 -32 -44 -37c-6 -2 -30 2 -30 -32c0 -7 2 -18 7 -26c7 -10 16 -7 24 -10c16 -6 33 -7 37 -37c3 -45 9 -182 9 -190c0 -30 9 -103 123 -104h19s18 6 18 28c0 7 -3 16 -11 27
c0 0 -22 -9 -45 -9c-24 0 -36 24 -37 66v42c0 84 -4 199 -80 217c0 0 87 0 90 143c0 27 -1 53 -1 101c0 54 10 73 33 73c10 0 24 -6 41 -10c9 0 18 12 19 26c0 8 -3 17 -12 24z" />
    <glyph glyph-name="braceright" unicode="}" horiz-adv-x="343" 
d="M86 703c-9 -7 -12 -16 -12 -24c0 -14 9 -26 18 -26c17 4 31 10 41 10c23 0 31 -19 31 -73c0 -19 -1 -41 -3 -70c-1 -11 -1 -21 -1 -31c0 -143 87 -143 87 -143c-91 -21 -84 -179 -87 -259c-2 -42 -15 -66 -39 -66c-23 0 -45 9 -45 9c-9 -12 -12 -22 -12 -30
c0 -19 18 -25 18 -25h19c126 1 126 91 126 112c0 0 9 137 14 182c4 30 21 31 38 37c8 3 17 0 24 10c6 9 8 24 8 30c0 32 -24 26 -30 28c-24 5 -40 26 -43 37s-4 170 -18 243c-9 44 -53 53 -89 53c-25 0 -45 -4 -45 -4z" />
    <glyph glyph-name="bracketleft" unicode="[" horiz-adv-x="292" 
d="M82 695c8 17 58 18 91 18h17c26 0 45 -3 47 -3c7 -1 12 -14 12 -26c0 -4 -5 -13 -6 -15c-3 -6 -54 -7 -93 -7h-6c2 -566 3 -627 6 -638c39 0 92 -1 95 -7c1 -2 6 -11 6 -15c0 -12 -5 -25 -12 -26c-2 0 -38 -2 -74 -2c-11 0 -40 0 -49 1c-26 2 -27 4 -31 32
c-1 7 0 676 -3 688z" />
    <glyph glyph-name="bracketright" unicode="]" horiz-adv-x="294" 
d="M222 695c-3 -12 -2 -681 -3 -688c-4 -28 -5 -30 -31 -32c-9 -1 -38 -1 -49 -1c-36 0 -72 2 -74 2c-7 1 -12 14 -12 26c0 4 5 13 6 15c3 6 56 7 95 7c3 11 4 72 6 638h-6c-39 0 -90 1 -93 7c-1 2 -6 11 -6 15c0 12 5 25 12 26c2 0 21 3 47 3h17c33 0 83 -1 91 -18z" />
    <glyph glyph-name="parenleft" unicode="(" horiz-adv-x="241" 
d="M201 700c-53 -106 -78 -245 -78 -346c0 -201 73 -336 73 -336c-4 -41 -36 -42 -44 -42c-80 143 -102 274 -102 385c0 199 85 333 99 348c6 6 13 8 19 8c18 0 33 -17 33 -17z" />
    <glyph glyph-name="parenright" unicode=")" horiz-adv-x="258" 
d="M50 700c0 0 15 17 33 17c6 0 13 -2 19 -8c14 -15 99 -149 99 -348c0 -111 -22 -242 -102 -385c-8 0 -40 1 -44 42c0 0 73 135 73 336c0 101 -25 240 -78 346z" />
    <glyph glyph-name="emdash" unicode="&#x2014;" horiz-adv-x="454" 
d="M410 245c-2 -18 -7 -33 -20 -33h-331c-21 0 -22 18 -22 34c0 15 10 25 23 25h326c13 0 24 -11 24 -26z" />
    <glyph glyph-name="endash" unicode="&#x2013;" horiz-adv-x="363" 
d="M326 245c-2 -18 -7 -33 -20 -33h-247c-21 0 -22 18 -22 34c0 15 10 25 23 25h242c13 0 24 -11 24 -26z" />
    <glyph glyph-name="hyphen" unicode="-" horiz-adv-x="336" 
d="M300 245c-2 -18 -7 -33 -20 -33h-221c-21 0 -22 18 -22 34c0 15 10 25 23 25h216c13 0 24 -11 24 -26z" />
    <glyph glyph-name="guillemotleft" unicode="&#xab;" horiz-adv-x="387" 
d="M173 442c8 -8 18 -18 18 -31c0 -5 -2 -11 -6 -17c-15 -23 -103 -94 -103 -94s68 -68 92 -90c13 -12 19 -23 19 -33c0 -9 -6 -18 -14 -24c-3 -2 -8 -3 -14 -3s-12 1 -16 4c-31 29 -138 119 -138 146c0 20 162 142 162 142zM320 442c8 -8 18 -18 18 -31c0 -5 -2 -11 -6 -17
c-15 -23 -103 -94 -103 -94s68 -68 92 -90c13 -12 19 -23 19 -33c0 -9 -6 -18 -14 -24c-3 -2 -8 -3 -14 -3s-12 1 -16 4c-31 29 -138 119 -138 146c0 20 162 142 162 142z" />
    <glyph glyph-name="guillemotright" unicode="&#xbb;" horiz-adv-x="418" 
d="M59 150c-8 8 -18 18 -18 31c0 5 2 11 6 17c15 23 103 94 103 94s-68 68 -92 90c-13 12 -19 23 -19 33c0 9 6 18 14 24c3 2 8 3 14 3s12 -1 16 -4c31 -29 138 -119 138 -146c0 -20 -162 -142 -162 -142zM206 150c-8 8 -18 18 -18 31c0 5 2 11 6 17c15 23 103 94 103 94
s-68 68 -92 90c-13 12 -19 23 -19 33c0 9 6 18 14 24c3 2 8 3 14 3s12 -1 16 -4c31 -29 138 -119 138 -146c0 -20 -162 -142 -162 -142z" />
    <glyph glyph-name="guilsinglleft" unicode="&#x2039;" horiz-adv-x="219" 
d="M173 442c8 -8 18 -18 18 -31c0 -5 -2 -11 -6 -17c-15 -23 -103 -94 -103 -94s68 -68 92 -90c13 -12 19 -23 19 -33c0 -9 -6 -18 -14 -24c-3 -2 -8 -3 -14 -3s-12 1 -16 4c-31 29 -138 119 -138 146c0 20 162 142 162 142z" />
    <glyph glyph-name="guilsinglright" unicode="&#x203a;" horiz-adv-x="257" 
d="M54 150c-8 8 -18 18 -18 31c0 5 2 11 6 17c15 23 103 94 103 94s-68 68 -92 90c-13 12 -19 23 -19 33c0 9 6 18 14 24c3 2 8 3 14 3s12 -1 16 -4c31 -29 138 -119 138 -146c0 -20 -162 -142 -162 -142z" />
    <glyph glyph-name="quotedblbase" unicode="&#x201e;" horiz-adv-x="285" 
d="M52 92c-10 -6 -15 -17 -15 -28c0 -19 6 -38 21 -47c0 -16 -16 -68 -16 -74c-1 -6 8 -21 22 -21c5 0 12 3 17 9c16 19 44 98 44 122c0 27 -5 49 -35 49c-15 0 -29 -5 -38 -10zM173 92c-10 -6 -15 -17 -15 -28c0 -19 6 -38 21 -47c0 -16 -16 -68 -16 -74
c-1 -6 8 -21 22 -21c5 0 12 3 17 9c16 19 44 98 44 122c0 27 -5 49 -35 49c-15 0 -29 -5 -38 -10z" />
    <glyph glyph-name="quotedblleft" unicode="&#x201c;" horiz-adv-x="292" 
d="M110 531c10 6 15 17 15 28c0 19 -6 38 -21 47c0 16 16 68 16 74c1 6 -8 21 -22 21c-5 0 -12 -3 -17 -9c-16 -19 -44 -98 -44 -122c0 -27 5 -49 35 -49c15 0 29 5 38 10zM233 531c10 6 15 17 15 28c0 19 -6 38 -21 47c0 16 16 68 16 74c1 6 -8 21 -22 21
c-5 0 -12 -3 -17 -9c-16 -19 -44 -98 -44 -122c0 -27 5 -49 35 -49c15 0 29 5 38 10z" />
    <glyph glyph-name="quotedblright" unicode="&#x201d;" horiz-adv-x="292" 
d="M52 691c-10 -6 -15 -17 -15 -28c0 -19 6 -38 21 -47c0 -16 -16 -68 -16 -74c-1 -6 8 -21 22 -21c5 0 12 3 17 9c16 19 44 98 44 122c0 27 -5 49 -35 49c-15 0 -29 -5 -38 -10zM174 691c-10 -6 -15 -17 -15 -28c0 -19 6 -38 21 -47c0 -16 -16 -68 -16 -74
c-1 -6 8 -21 22 -21c5 0 12 3 17 9c16 19 44 98 44 122c0 27 -5 49 -35 49c-15 0 -29 -5 -38 -10z" />
    <glyph glyph-name="quoteleft" unicode="&#x2018;" horiz-adv-x="161" 
d="M110 531c10 6 15 17 15 28c0 19 -6 38 -21 47c0 16 16 68 16 74c1 6 -8 21 -22 21c-5 0 -12 -3 -17 -9c-16 -19 -44 -98 -44 -122c0 -27 5 -49 35 -49c15 0 29 5 38 10z" />
    <glyph glyph-name="quoteright" unicode="&#x2019;" horiz-adv-x="162" 
d="M52 691c-10 -6 -15 -17 -15 -28c0 -19 6 -38 21 -47c0 -16 -16 -68 -16 -74c-1 -6 8 -21 22 -21c5 0 12 3 17 9c16 19 44 98 44 122c0 27 -5 49 -35 49c-15 0 -29 -5 -38 -10z" />
    <glyph glyph-name="quotesinglbase" unicode="&#x201a;" horiz-adv-x="161" 
d="M52 92c-10 -6 -15 -17 -15 -28c0 -19 6 -38 21 -47c0 -16 -16 -68 -16 -74c-1 -6 8 -21 22 -21c5 0 12 3 17 9c16 19 44 98 44 122c0 27 -5 49 -35 49c-15 0 -29 -5 -38 -10z" />
    <glyph glyph-name="currency" unicode="&#xa4;" horiz-adv-x="432" 
d="M359 494c16 -4 36 -27 33 -27l-60 -70c5 -13 7 -27 7 -42c0 -22 -4 -44 -14 -68c22 -25 63 -72 64 -74c3 0 -17 -24 -33 -29c-17 1 -49 29 -67 50c-25 -25 -53 -32 -84 -32c-29 0 -59 9 -83 25c-18 -20 -44 -44 -57 -45c-13 4 -33 22 -33 28v1c1 2 30 37 51 63
c-6 14 -10 30 -10 48c0 27 6 54 17 79c-21 25 -58 67 -59 69c-1 1 19 23 33 27c15 -1 45 -28 62 -47c22 19 49 31 83 31c32 0 64 -11 88 -32c18 19 47 44 62 45zM203 249c42 0 76 43 76 87c0 45 -15 98 -71 98c-54 0 -78 -61 -78 -105c0 -42 33 -80 73 -80z" />
    <glyph glyph-name="dollar" unicode="$" horiz-adv-x="350" 
d="M320 220c0 -87 -25 -165 -99 -186v-59c0 -10 -10 -17 -18 -17c-16 0 -33 6 -33 23v47c-67 6 -105 82 -105 149c0 22 8 43 34 43c23 0 40 -12 40 -35c2 -32 6 -108 51 -108c53 0 60 68 60 109c0 143 -176 167 -176 350c0 70 42 117 96 130v49c0 13 11 24 24 24
c8 -2 27 -7 27 -20v-52c79 -13 91 -105 93 -170c0 -13 -2 -24 -16 -24c-21 0 -40 0 -48 22c-7 31 5 132 -48 132c-35 0 -59 -38 -59 -87c0 -123 177 -170 177 -320z" />
    <glyph glyph-name="Euro" unicode="&#x20ac;" horiz-adv-x="383" 
d="M333 179c27 0 27 -5 27 -26c0 -83 -61 -149 -140 -149c-95 0 -132 58 -139 146c-3 31 -5 76 -6 123h-42c-8 0 -10 5 -10 11c0 4 1 11 1 16c0 13 7 24 20 24h30c0 18 -1 35 -1 50h-40c-8 0 -10 5 -10 11c0 4 1 11 1 16c0 13 7 22 20 22h29c0 49 3 101 15 156
c21 98 75 120 136 120c74 0 119 -65 122 -129c0 -4 1 -10 1 -17c-7 -9 -21 -14 -36 -14c-2 0 -17 2 -20 5c-8 32 0 112 -77 112c-50 0 -68 -62 -71 -99l-5 -134h123c13 0 24 -9 24 -22c-2 -7 -7 -27 -20 -27h-127c-1 -17 -1 -34 -1 -50h124c13 0 24 -11 24 -24
c-2 -8 -7 -27 -20 -27h-128c1 -8 1 -16 1 -22c3 -67 -6 -206 83 -206c54 0 85 31 85 109c0 16 9 25 27 25z" />
    <glyph glyph-name="sterling" unicode="&#xa3;" horiz-adv-x="402" 
d="M183 131c80 -10 185 -50 185 -96c0 -12 -5 -26 -22 -26c-5 0 -11 1 -15 3c-47 38 -110 62 -158 71c-14 -53 -40 -88 -87 -88c-32 0 -57 24 -57 56c0 52 47 76 95 82v149v25h-59c-8 0 -10 5 -10 11c0 4 1 11 1 16c0 13 7 22 20 22h48c0 106 6 250 66 314
c14 15 32 24 49 24c22 0 42 -15 42 -56c0 -55 -58 -138 -84 -173c-1 -25 -3 -66 -4 -109h67c13 0 24 -9 24 -22c-2 -7 -7 -27 -20 -27h-72v-7c0 -57 -1 -117 -9 -169zM232 641c-21 -13 -30 -70 -33 -116c21 36 37 85 37 107c0 2 -1 11 -4 9zM87 40c21 0 32 25 36 47
c-23 -2 -50 -8 -50 -29c0 -7 4 -18 14 -18z" />
    <glyph glyph-name="yen" unicode="&#xa5;" horiz-adv-x="406" 
d="M369 679c0 -2 0 -4 -1 -7l-125 -378h56c13 0 24 -9 24 -22c-2 -7 -7 -27 -20 -27h-63c0 -14 1 -31 1 -50h58c13 0 24 -11 24 -24c-2 -8 -7 -27 -20 -27h-61v-31c0 -36 -2 -82 -7 -93c-6 -14 -15 -15 -23 -15c-20 0 -31 6 -31 29l-1 110h-76c-8 0 -10 5 -10 11
c0 4 1 11 1 16c0 13 7 24 20 24h65l-1 50h-75c-8 0 -10 5 -10 11c0 4 1 11 1 16c0 13 7 22 20 22h56c-30 80 -136 362 -136 378c0 8 29 21 42 21c17 0 20 -14 20 -14l110 -325s91 296 112 322c10 13 19 18 30 18c9 0 20 -4 20 -15z" />
    <glyph glyph-name="asciitilde" unicode="~" horiz-adv-x="411" 
d="M27 225c25 -18 55 43 99 43s77 -58 131 -61c55 -4 108 62 115 78s-12 30 -12 30c-19 -3 -49 -50 -86 -50c-48 0 -83 58 -147 58c-57 0 -99 -54 -108 -67c-10 -15 8 -31 8 -31z" />
    <glyph glyph-name="divide" unicode="&#xf7;" horiz-adv-x="332" 
d="M142 421c-9 -5 -13 -15 -13 -24c0 -21 15 -45 36 -45c24 0 38 14 38 37s-3 40 -29 40c-12 0 -24 -4 -32 -8zM297 292c-2 -8 -7 -27 -20 -27h-227c-8 0 -20 5 -20 11c0 4 1 11 1 16c0 13 7 22 20 22h222c13 0 24 -9 24 -22zM142 215c-9 -5 -13 -14 -13 -24
c0 -21 15 -45 36 -45c24 0 38 14 38 37s-3 41 -29 41c-12 0 -24 -5 -32 -9z" />
    <glyph glyph-name="equal" unicode="=" horiz-adv-x="341" 
d="M306 340c-2 -7 -7 -27 -20 -27h-237c-8 0 -10 5 -10 11c0 4 1 11 1 16c0 13 7 22 20 22h222c13 0 24 -9 24 -22zM306 239c-2 -8 -7 -27 -20 -27h-227c-8 0 -20 5 -20 11c0 4 1 11 1 16c0 13 7 22 20 22h222c13 0 24 -9 24 -22z" />
    <glyph glyph-name="greater" unicode="&#x3e;" horiz-adv-x="338" 
d="M64 147c-10 6 -20 13 -20 22c0 5 3 11 10 18c22 22 163 92 163 92s-118 69 -150 91c-16 11 -23 14 -23 22c0 6 1 22 12 27c5 2 13 3 21 3s17 -1 22 -4c34 -20 133 -73 180 -109c10 -8 13 -13 13 -26c0 -10 -1 -17 -16 -26c-64 -40 -212 -110 -212 -110z" />
    <glyph glyph-name="less" unicode="&#x3c;" horiz-adv-x="333" 
d="M272 422c10 -6 20 -13 20 -22c0 -5 -3 -11 -10 -18c-22 -22 -163 -92 -163 -92s118 -69 150 -91c16 -11 23 -14 23 -22c0 -6 -1 -22 -12 -27c-5 -2 -13 -3 -21 -3s-17 1 -22 4c-34 20 -133 73 -180 109c-10 8 -13 13 -13 26c0 10 1 17 16 26c64 40 212 110 212 110z" />
    <glyph glyph-name="logicalnot" unicode="&#xac;" horiz-adv-x="502" 
d="M50 308c-9 11 -14 19 -14 30c0 10 4 16 13 26c40 0 79 -1 117 -1c153 0 283 3 289 3c15 0 17 -28 17 -58v-47c0 -26 -3 -45 -3 -47c-1 -7 -18 -12 -30 -12c-4 0 -13 5 -15 6c-6 3 -7 56 -7 95v6c-97 -1 -165 -1 -221 -1h-146z" />
    <glyph glyph-name="minus" unicode="&#x2212;" horiz-adv-x="354" 
d="M306 239c-2 -8 -7 -27 -20 -27h-227c-8 0 -20 5 -20 11c0 4 1 11 1 16c0 13 7 22 20 22h222c13 0 24 -9 24 -22z" />
    <glyph glyph-name="multiply" unicode="&#xd7;" horiz-adv-x="337" 
d="M277 223c5 -5 8 -11 8 -17c0 -5 -2 -12 -6 -15c-5 -4 -15 -8 -25 -8c-3 0 -7 1 -9 3l-70 71l-81 -79s-18 4 -25 13c-5 5 -8 11 -8 16s2 9 6 13l74 72l-69 70c-3 3 -5 7 -5 11c0 8 5 16 11 22c5 5 11 7 16 7s10 -2 14 -6l68 -69l64 63c5 5 11 7 17 7c4 0 13 -2 17 -8
c3 -5 7 -13 7 -21c0 -4 -1 -7 -4 -10l-67 -66z" />
    <glyph glyph-name="notequal" unicode="&#x2260;" horiz-adv-x="341" 
d="M286 313h-85l-33 -52h114c13 0 24 -9 24 -22c-2 -8 -7 -27 -20 -27h-149l-30 -47c-1 -2 -6 -6 -12 -6c-3 0 -6 1 -9 3c-6 4 -9 8 -9 13c0 3 1 7 4 12l16 25h-38c-8 0 -20 5 -20 11c0 4 1 11 1 16c0 13 7 22 20 22h68l33 52h-112c-8 0 -10 5 -10 11c0 4 1 11 1 16
c0 13 7 22 20 22h132l23 36c5 8 13 14 21 14c3 0 6 -1 9 -3c4 -3 7 -7 7 -12c0 -3 -1 -6 -3 -9l-17 -26h50c13 0 24 -9 24 -22v-1c-2 -8 -8 -26 -20 -26z" />
    <glyph glyph-name="percent" unicode="%" horiz-adv-x="585" 
d="M35 564c0 80 51 128 121 128c66 0 114 -58 114 -128c0 -58 -41 -123 -122 -123c-69 0 -110 62 -113 123zM476 672c6 17 20 18 31 18c16 0 35 -2 35 -19c0 -2 -1 -3 -1 -5c-6 -5 -425 -630 -429 -636c-8 -14 -14 -24 -36 -24c-15 0 -29 0 -29 19c0 8 7 30 12 39zM100 573
c0 -41 15 -73 50 -76c37 0 55 32 58 68c0 41 -15 70 -53 70c-35 0 -52 -20 -55 -62zM341 137c0 80 51 128 121 128c66 0 114 -58 114 -128c0 -58 -41 -123 -122 -123c-69 0 -110 62 -113 123zM406 146c0 -41 15 -73 50 -76c37 0 55 32 58 68c0 41 -15 70 -53 70
c-35 0 -52 -20 -55 -62z" />
    <glyph glyph-name="perthousand" unicode="&#x2030;" horiz-adv-x="895" 
d="M35 564c0 80 51 128 121 128c66 0 114 -58 114 -128c0 -58 -41 -123 -122 -123c-69 0 -110 62 -113 123zM476 672c6 17 20 18 31 18c16 0 35 -2 35 -19c0 -2 -1 -3 -1 -5c-6 -5 -425 -630 -429 -636c-8 -14 -14 -24 -36 -24c-15 0 -29 0 -29 19c0 8 7 30 12 39zM100 573
c0 -41 15 -73 50 -76c37 0 55 32 58 68c0 41 -15 70 -53 70c-35 0 -52 -20 -55 -62zM341 137c0 80 51 128 121 128c66 0 114 -58 114 -128c0 -58 -41 -123 -122 -123c-69 0 -110 62 -113 123zM627 137c0 80 51 128 121 128c66 0 114 -58 114 -128c0 -58 -41 -123 -122 -123
c-69 0 -110 62 -113 123zM406 146c0 -41 15 -73 50 -76c37 0 55 32 58 68c0 41 -15 70 -53 70c-35 0 -52 -20 -55 -62zM692 146c0 -41 15 -73 50 -76c37 0 55 32 58 68c0 41 -15 70 -53 70c-35 0 -52 -20 -55 -62z" />
    <glyph glyph-name="plus" unicode="+" horiz-adv-x="352" 
d="M292 318c13 0 24 -9 24 -22c-2 -8 -7 -27 -20 -27h-100v-114c0 -8 -5 -10 -11 -10c-4 0 -11 1 -16 1c-13 0 -22 7 -22 20v103h-98c-8 0 -20 5 -20 11c0 4 1 11 1 16c0 13 7 22 20 22h97v90c0 13 9 24 22 24c7 -2 27 -7 27 -20v-94h96z" />
    <glyph glyph-name="plusminus" unicode="&#xb1;" horiz-adv-x="353" 
d="M287 365c13 0 24 -9 24 -22c-2 -8 -7 -27 -20 -27h-95v-99c0 -8 -5 -10 -11 -10c-4 0 -11 1 -16 1c-13 0 -22 7 -22 20v88h-93c-8 0 -20 5 -20 11c0 4 1 11 1 16c0 13 7 22 20 22h92v85c0 13 9 24 22 24c7 -2 27 -7 27 -20v-89h91zM274 180c13 0 24 -9 24 -22
c-2 -8 -7 -24 -20 -24h-210c-16 0 -24 7 -24 18c0 2 0 5 1 8c3 13 7 20 20 20h209z" />
    <glyph glyph-name="bar" unicode="|" horiz-adv-x="224" 
d="M144 707l3 -702c0 -11 -1 -18 -3 -23c-4 -9 -9 -13 -15 -13c-27 0 -40 14 -44 33c-1 7 0 708 -3 720c5 11 15 16 26 16c16 0 36 -9 36 -31z" />
    <glyph glyph-name="brokenbar" unicode="&#xa6;" horiz-adv-x="224" 
d="M145 415c-3 -9 -24 -13 -35 -13c-10 0 -18 4 -26 12c0 163 -1 302 -2 308c5 11 15 16 26 16c16 0 36 -9 36 -31c1 -121 1 -209 1 -292zM84 280c11 19 29 20 39 20c12 0 20 -9 23 -16l1 -279c0 -11 -1 -18 -3 -23c-4 -9 -9 -13 -15 -13c-27 0 -40 14 -44 33
c-1 3 -1 136 -1 278z" />
    <glyph glyph-name="at" unicode="@" horiz-adv-x="554" 
d="M307 653c-174 0 -261 -123 -261 -327c0 -145 51 -288 255 -288c150 0 219 86 227 120c4 18 -17 28 -38 30c-46 -60 -125 -103 -182 -103c-135 0 -199 92 -199 236c0 132 55 290 197 290c110 0 147 -104 147 -216c0 -37 -18 -148 -60 -148c-24 0 -23 61 -23 92
c0 45 5 93 5 132c0 7 -2 13 -6 18c-9 2 -10 6 -19 6c-4 0 -9 -1 -13 -1c-12 5 -23 10 -35 10c-91 0 -142 -134 -140 -208c0 -6 0 -105 63 -105c38 0 65 25 99 43c11 -15 27 -28 43 -28c93 0 149 79 149 175c0 110 -38 266 -194 272h-15zM303 468c7 0 15 -3 18 -10
c-10 -36 -16 -66 -16 -96c0 -31 1 -59 6 -90c3 -17 -28 -35 -43 -35c-32 0 -42 21 -42 56c0 66 32 160 65 174z" />
    <glyph glyph-name="ampersand" unicode="&#x26;" horiz-adv-x="597" 
d="M272 205c8 35 29 56 67 57c6 -13 9 -34 9 -57c0 -32 -5 -65 -8 -79c-2 -11 -14 -83 -89 -83c-68 0 -100 62 -100 156c0 92 29 195 149 195c16 0 27 12 27 28c0 15 -13 19 -27 19c-11 0 -23 0 -30 1c-46 4 -66 47 -66 106c0 39 16 101 58 101c45 0 51 -39 53 -70
c0 -2 0 -12 1 -24c1 -7 8 -17 17 -17c18 0 36 6 36 28c0 84 -44 131 -104 131c-86 0 -121 -81 -121 -149c0 -111 53 -119 67 -132c-115 -60 -117 -147 -117 -227c0 -171 109 -190 154 -190c105 0 155 80 155 212c0 19 -1 37 -5 56h7c17 2 112 11 112 110c0 27 -27 66 -64 66
c-19 0 -23 -4 -23 -26c0 -28 43 -17 43 -55c0 -27 -22 -38 -67 -45c-46 -7 -102 -8 -144 -43c-23 -19 -40 -49 -40 -86c0 -40 19 -50 36 -50c12 0 23 5 28 21c0 11 -15 32 -14 46z" />
    <glyph glyph-name="paragraph" unicode="&#xb6;" horiz-adv-x="380" 
d="M336 656c0 -707 3 -647 3 -651c0 -11 -1 -18 -3 -23c-4 -9 -9 -13 -15 -13c-27 0 -40 14 -44 33c-1 6 0 488 -2 631l-78 1l3 -629c0 -11 -1 -18 -3 -23c-4 -9 -9 -13 -15 -13c-27 0 -40 14 -44 33c-1 4 -1 257 -1 469h-3c-61 0 -94 44 -94 108c0 70 42 96 75 103
c29 6 69 8 104 8c54 0 117 -1 117 -34z" />
    <glyph glyph-name="copyright" unicode="&#xa9;" horiz-adv-x="515" 
d="M267 689c203 0 223 -224 223 -343c0 -238 -123 -322 -235 -322c-166 0 -225 150 -225 315c0 125 36 350 237 350zM259 70c107 0 172 122 172 280c0 102 -23 292 -174 292c-73 0 -167 -87 -167 -289c0 -125 41 -283 169 -283zM366 436c2 63 -31 127 -104 127
c-51 0 -102 -39 -114 -100c-6 -29 -11 -69 -11 -111c0 -51 6 -97 27 -136c17 -30 48 -58 94 -58c71 0 113 53 113 124c0 17 -2 32 -24 32c-10 0 -25 -4 -27 -15c1 -12 1 -24 1 -33c0 -29 -29 -61 -62 -61c-56 0 -58 105 -58 151s6 159 62 159c51 0 50 -60 56 -86
c3 -3 15 -5 17 -5c12 0 24 5 30 12z" />
    <glyph glyph-name="registered" unicode="&#xae;" horiz-adv-x="342" 
d="M175 699c106 0 149 -93 149 -175c0 -125 -87 -172 -158 -172c-104 0 -148 87 -148 168c0 86 40 179 157 179zM167 390c71 0 113 48 113 134c0 87 -42 138 -110 138c-41 0 -109 -33 -109 -138c0 -63 22 -134 106 -134zM219 580c0 -32 -3 -62 -27 -72c11 -14 28 -43 33 -85
c-1 1 -16 -3 -23 -3c-4 0 -11 4 -11 7c-4 22 -13 64 -33 77h-1v-48v-23c0 -1 -12 -12 -21 -12c-7 0 -9 1 -9 6l1 179v2c0 14 17 26 41 26c28 0 50 -26 50 -54zM163 603c-6 0 -4 -2 -4 -5v-69h8c19 0 22 29 22 34c0 23 -5 40 -26 40zM225 423v0z" />
    <glyph glyph-name="section" unicode="&#xa7;" horiz-adv-x="369" 
d="M326 299c0 -53 -37 -87 -61 -104c20 -30 34 -59 36 -88v-4c0 -40 -29 -101 -111 -105h-6c-79 0 -128 94 -128 94v4c0 31 22 38 38 39c10 0 17 -1 17 -1c30 -77 63 -94 87 -94c21 0 40 15 40 40c-6 110 -190 182 -190 321c0 55 37 89 59 105c-20 30 -35 61 -35 89
c0 63 46 105 113 105c35 0 70 -14 93 -39c23 -26 35 -55 35 -55v-4c0 -30 -21 -37 -37 -38c-10 0 -18 1 -18 1c-29 78 -62 96 -86 96c-23 -2 -36 -11 -36 -39c7 -130 190 -184 190 -323zM113 415c2 -24 8 -44 20 -62c27 -37 71 -81 108 -126c8 13 16 33 16 60
c0 21 -9 46 -29 73c-26 34 -66 75 -99 116c-10 -15 -16 -38 -16 -61z" />
    <glyph glyph-name="trademark" unicode="&#x2122;" horiz-adv-x="480" 
d="M394 690c7 4 22 5 32 5c8 0 12 -7 12 -19c1 -88 3 -177 3 -267c0 -16 -7 -33 -30 -33c-4 0 -7 2 -8 8c0 248 2 251 1 256c-19 -84 -30 -132 -50 -208c-4 -12 -16 -16 -27 -16c-10 0 -16 7 -19 16c-14 45 -38 125 -53 182l-5 18c0 -74 1 -168 1 -243
c-1 -8 -11 -11 -18 -11c-10 0 -18 12 -18 19c-1 16 -1 227 -1 287c3 10 20 12 29 12s19 -2 23 -5c45 -163 65 -222 65 -222s38 170 46 192c3 12 4 24 17 29zM113 415c0 33 1 131 1 231v8c3 3 58 3 61 5c9 2 9 14 9 23c0 7 -12 9 -20 9h-142c-9 0 -14 -3 -14 -13
c0 -5 1 -19 5 -20c4 -3 27 -3 48 -3c9 0 13 -1 13 -1c1 -1 1 -6 1 -7l-1 -238v-18c0 -8 2 -15 16 -15c12 0 23 9 23 11v28z" />
    <glyph glyph-name="degree" unicode="&#xb0;" horiz-adv-x="222" 
d="M10 591c0 65 42 104 99 104c54 0 93 -47 93 -104c0 -48 -33 -101 -99 -101c-57 0 -91 51 -93 101zM62 598c0 -34 13 -62 42 -64c31 0 47 28 49 58c0 33 -14 58 -45 58c-28 0 -44 -18 -46 -52z" />
    <glyph glyph-name="asciicircum" unicode="^" horiz-adv-x="368" 
d="M359 395c-3 -14 -13 -25 -29 -25c-8 0 -16 3 -23 10c-28 28 -117 225 -117 225s-92 -166 -120 -207c-9 -14 -18 -26 -32 -26c-16 0 -24 14 -24 29c0 10 1 22 5 28c26 44 94 171 140 231c11 13 17 17 34 17c12 0 21 -1 33 -21c51 -82 133 -261 133 -261z" />
    <glyph glyph-name="dagger" unicode="&#x2020;" horiz-adv-x="300" 
d="M253 540c13 0 24 -11 24 -26c-2 -18 -7 -33 -20 -33h-81l2 -476c0 -11 -1 -18 -3 -23c-4 -9 -9 -13 -15 -13c-27 0 -40 14 -44 33c-1 4 0 271 -1 479h-79c-21 0 -22 18 -22 34c0 15 10 25 23 25h78c0 102 -1 178 -2 182c5 11 15 16 26 16c16 0 36 -9 36 -31l1 -167h77z
" />
    <glyph glyph-name="daggerdbl" unicode="&#x2021;" horiz-adv-x="287" 
d="M249 310c13 0 24 -11 24 -26c-2 -18 -7 -33 -20 -33h-77l1 -246c0 -11 -1 -18 -3 -23c-4 -9 -9 -13 -15 -13c-27 0 -40 14 -44 33c0 3 0 114 -1 249h-82c-21 0 -22 18 -22 34c0 15 10 25 23 25h81v171h-82c-21 0 -22 18 -22 34c0 15 10 25 23 25h81c0 102 -1 178 -2 182
c5 11 15 16 26 16c16 0 36 -9 36 -31l1 -167h74c13 0 24 -11 24 -26c-2 -18 -7 -33 -20 -33h-78l1 -171h73z" />
    <glyph glyph-name="acutecomb" unicode="&#x301;" 
d="M2 721c2 -2 3 -5 3 -8c0 -4 -2 -8 -5 -13c-19 -25 -74 -75 -88 -75c-15 0 -24 5 -24 13c0 11 10 26 18 36c0 0 29 41 48 52c4 2 9 4 13 4c8 0 25 -3 35 -9z" />
    <glyph glyph-name="uni0306" unicode="&#x306;" 
d="M-1 709c0 0 -21 -76 -92 -76c-62 0 -92 39 -92 75c0 4 1 8 2 10c5 5 11 7 19 6c9 -1 14 -6 17 -12c12 -22 26 -42 52 -42c23 0 46 27 56 51c2 4 9 4 13 4c11 0 20 -5 25 -16z" />
    <glyph glyph-name="uni030C" unicode="&#x30c;" 
d="M-3 711c0 0 -79 -79 -95 -78c-23 2 -61 41 -93 66c-3 2 -3 7 -3 11s1 8 2 10c5 5 10 9 18 9s15 -5 26 -13c21 -16 47 -37 47 -37s39 35 58 46c4 2 9 4 13 4c11 0 22 -7 27 -18z" />
    <glyph glyph-name="uni0327" unicode="&#x327;" 
d="M-62 -41c49 -13 59 -37 59 -68c0 -52 -41 -69 -75 -69c-25 0 -56 9 -56 34c0 12 4 17 10 17c4 0 8 -2 13 -4c6 -3 15 -6 23 -6c22 0 45 11 45 32c0 24 -30 26 -60 38c-19 8 -27 15 -27 33c0 11 5 23 12 34h43c-6 -10 -11 -24 -11 -29c0 -8 7 -6 24 -12z" />
    <glyph glyph-name="uni0302" unicode="&#x302;" 
d="M-5 650c-5 -11 -16 -18 -27 -18c-4 0 -9 2 -13 4c-19 11 -58 46 -58 46s-31 -21 -52 -37c-11 -8 -18 -13 -26 -13s-13 4 -18 9c-1 2 -2 6 -2 10s0 9 3 11c38 28 75 64 98 66c16 1 95 -78 95 -78z" />
    <glyph glyph-name="uni0326" unicode="&#x326;" 
d="M-326 -53c-9 -6 -14 -16 -14 -26c0 -17 6 -34 19 -42c0 -15 -14 -62 -14 -68c-1 -5 7 -19 20 -19c4 0 10 3 15 9c15 17 40 88 40 110c0 25 -5 45 -32 45c-13 0 -26 -5 -34 -9z" />
    <glyph glyph-name="uni0312" unicode="&#x312;" 
d="M-274 628c9 6 14 16 14 26c0 17 -6 34 -19 42c0 15 14 62 14 68c1 5 -7 19 -20 19c-4 0 -10 -3 -15 -9c-15 -17 -40 -88 -40 -110c0 -25 5 -45 32 -45c13 0 26 5 34 9z" />
    <glyph glyph-name="uni0308" unicode="&#x308;" 
d="M-162 714c-8 -6 -12 -15 -12 -23c0 -20 14 -40 34 -40c23 0 36 10 36 32s-9 36 -27 36c-12 0 -23 -2 -31 -5zM-63 714c-8 -6 -12 -15 -12 -23c0 -20 14 -40 34 -40c23 0 36 10 36 32s-8 36 -27 36c-12 0 -23 -2 -31 -5z" />
    <glyph glyph-name="uni0307" unicode="&#x307;" 
d="M-63 714c-8 -6 -12 -15 -12 -23c0 -20 14 -43 34 -43c23 0 36 13 36 35s-3 38 -27 38c-12 0 -23 -4 -31 -7z" />
    <glyph glyph-name="gravecomb" unicode="&#x300;" 
d="M-132 721c10 6 27 9 35 9c4 0 9 -2 13 -4c19 -11 48 -52 48 -52c8 -10 18 -25 18 -36c0 -8 -9 -13 -24 -13c-14 0 -69 50 -88 75c-3 5 -5 9 -5 13c0 3 1 6 3 8z" />
    <glyph glyph-name="uni030B" unicode="&#x30b;" 
d="M-105 721c2 -2 3 -5 3 -8c0 -4 -2 -8 -5 -13c-19 -25 -74 -75 -88 -75c-15 0 -24 5 -24 13c0 11 10 26 18 36c0 0 29 41 48 52c4 2 9 4 13 4c8 0 25 -3 35 -9zM6 721c2 -2 3 -5 3 -8c0 -4 -2 -8 -5 -13c-19 -25 -74 -75 -88 -75c-15 0 -24 5 -24 13c0 11 10 26 18 36
c0 0 29 41 48 52c4 2 9 4 13 4c8 0 25 -3 35 -9z" />
    <glyph glyph-name="uni0304" unicode="&#x304;" 
d="M-4 669c-2 -15 -5 -27 -16 -27h-170c-16 0 -17 15 -17 28c0 10 8 19 18 19h166c10 0 19 -10 19 -20z" />
    <glyph glyph-name="uni0328" unicode="&#x328;" 
d="M-47 34c0 -5 -8 -21 -13 -28l-30 -48c-9 -15 -12 -25 -12 -40c0 -17 7 -30 22 -30c33 0 33 24 39 50c2 10 9 15 16 15c12 0 20 -6 20 -20c0 -18 -3 -42 -14 -56s-31 -22 -67 -22c-34 0 -64 20 -64 59c0 45 29 95 64 120h39z" />
    <glyph glyph-name="uni030A" unicode="&#x30a;" 
d="M-112 682c0 33 25 52 56 54c30 0 51 -25 51 -54s-21 -53 -54 -53c-29 0 -52 24 -53 53zM-79 682c0 -11 9 -22 20 -22c12 0 21 11 21 22c0 12 -9 19 -24 21c-12 0 -17 -10 -17 -21z" />
    <glyph glyph-name="uni0337" unicode="&#x337;" 
d="M-168 424c6 5 10 12 10 20c0 27 -26 41 -45 24l-97 -79l-132 -110c-6 -5 -9 -12 -9 -20c0 -28 25 -41 44 -24z" />
    <glyph glyph-name="uni0336" unicode="&#x336;" 
d="M-138 518c-2 -17 -9 -31 -25 -31h-271c-26 0 -28 17 -28 31s13 23 29 23h266c15 0 29 -9 29 -23z" />
    <glyph glyph-name="uni0335" unicode="&#x335;" 
d="M-184 342c-2 -17 -7 -31 -20 -31h-215c-21 0 -22 17 -22 31s10 23 23 23h211c12 0 23 -9 23 -23z" />
    <glyph glyph-name="tildecomb" unicode="&#x303;" 
d="M-211 664c0 -15 9 -21 17 -21c20 0 24 30 51 30c29 0 37 -31 76 -31c29 0 64 30 64 62c0 11 -11 17 -11 17c-18 -3 -26 -27 -50 -27c-32 0 -44 29 -80 29c-42 0 -67 -43 -67 -59z" />
    <glyph glyph-name="acutecomb.case" 
d="M-98 740c-15 0 -24 5 -24 13c0 11 10 26 18 36c0 0 29 41 48 52c4 2 9 4 13 4c8 0 25 -3 35 -9c2 -2 3 -5 3 -8c0 -4 -2 -8 -5 -13c-19 -25 -74 -75 -88 -75z" />
    <glyph glyph-name="uni0306.case" 
d="M-93 748c-62 0 -92 39 -92 75c0 4 1 8 2 10c5 5 11 7 19 6c9 -1 14 -6 17 -12c12 -22 26 -42 52 -42c23 0 46 27 56 51c2 4 9 4 13 4c11 0 20 -5 25 -16c0 0 -21 -76 -92 -76z" />
    <glyph glyph-name="uni030C.case" 
d="M-98 748c-23 2 -61 41 -93 66c-3 2 -3 7 -3 11s1 8 2 10c5 5 10 9 18 9s15 -5 26 -13c21 -16 47 -37 47 -37s39 35 58 46c4 2 9 4 13 4c11 0 22 -7 27 -18c0 0 -79 -79 -95 -78z" />
    <glyph glyph-name="uni0327.case" 
d="M-78 -178c-25 0 -56 9 -56 34c0 12 4 17 10 17c4 0 8 -2 13 -4c6 -3 15 -6 23 -6c22 0 45 11 45 32c0 24 -30 26 -60 38c-19 8 -27 15 -27 33c0 11 5 23 12 34h43c-6 -10 -11 -24 -11 -29c0 -8 7 -6 24 -12c49 -13 59 -37 59 -68c0 -52 -41 -69 -75 -69z" />
    <glyph glyph-name="uni0302.case" 
d="M-181 747c-8 0 -13 4 -18 9c-1 2 -2 6 -2 10s0 9 3 11c38 28 75 64 98 66c16 1 95 -78 95 -78c-5 -11 -16 -18 -27 -18c-4 0 -9 2 -13 4c-19 11 -58 46 -58 46s-31 -21 -52 -37c-11 -8 -18 -13 -26 -13z" />
    <glyph glyph-name="uni0308.case" 
d="M-140 766c-20 0 -34 20 -34 40c0 8 4 17 12 23c8 3 19 5 31 5c18 0 27 -14 27 -36s-13 -32 -36 -32zM-41 766c-20 0 -34 20 -34 40c0 8 4 17 12 23c8 3 19 5 31 5c19 0 27 -14 27 -36s-13 -32 -36 -32z" />
    <glyph glyph-name="uni0307.case" 
d="M-41 763c-20 0 -34 23 -34 43c0 8 4 17 12 23c8 3 19 7 31 7c24 0 27 -16 27 -38s-13 -35 -36 -35z" />
    <glyph glyph-name="gravecomb.case" 
d="M-30 740c-14 0 -69 50 -88 75c-3 5 -5 9 -5 13c0 3 1 6 3 8c10 6 27 9 35 9c4 0 9 -2 13 -4c19 -11 48 -52 48 -52c8 -10 18 -25 18 -36c0 -8 -9 -13 -24 -13z" />
    <glyph glyph-name="uni030B.case" 
d="M-212 740c-15 0 -24 5 -24 13c0 11 10 26 18 36c0 0 29 41 48 52c4 2 9 4 13 4c8 0 25 -3 35 -9c2 -2 3 -5 3 -8c0 -4 -2 -8 -5 -13c-19 -25 -74 -75 -88 -75zM-101 740c-15 0 -24 5 -24 13c0 11 10 26 18 36c0 0 29 41 48 52c4 2 9 4 13 4c8 0 25 -3 35 -9
c2 -2 3 -5 3 -8c0 -4 -2 -8 -5 -13c-19 -25 -74 -75 -88 -75z" />
    <glyph glyph-name="uni0304.case" 
d="M-190 757c-16 0 -17 15 -17 28c0 10 8 19 18 19h166c10 0 19 -10 19 -20c-2 -15 -5 -27 -16 -27h-170z" />
    <glyph glyph-name="uni0328.case" 
d="M-47 34c0 -5 -8 -21 -13 -28l-30 -48c-9 -15 -12 -25 -12 -40c0 -17 7 -30 22 -30c33 0 33 24 39 50c2 10 9 15 16 15c12 0 20 -6 20 -20c0 -18 -3 -42 -14 -56s-31 -22 -67 -22c-34 0 -64 20 -64 59c0 45 29 95 64 120h39z" />
    <glyph glyph-name="uni030A.case" 
d="M-59 744c-29 0 -52 24 -53 53c0 33 25 52 56 54c30 0 51 -25 51 -54s-21 -53 -54 -53zM-59 775c12 0 21 11 21 22c0 12 -9 19 -24 21c-12 0 -17 -10 -17 -21s9 -22 20 -22z" />
    <glyph glyph-name="tildecomb.case" 
d="M-67 757c-39 0 -47 31 -76 31c-27 0 -31 -30 -51 -30c-8 0 -17 6 -17 21c0 16 25 59 67 59c36 0 48 -29 80 -29c24 0 32 24 50 27c0 0 11 -6 11 -17c0 -32 -35 -62 -64 -62z" />
    <glyph glyph-name="acute" unicode="&#xb4;" horiz-adv-x="124" 
d="M116 821c2 -2 3 -5 3 -8c0 -4 -2 -8 -5 -13c-19 -25 -74 -75 -88 -75c-15 0 -24 5 -24 13c0 11 10 26 18 36c0 0 29 41 48 52c4 2 9 4 13 4c8 0 25 -3 35 -9z" />
    <glyph glyph-name="breve" unicode="&#x2d8;" horiz-adv-x="187" 
d="M186 809c0 0 -21 -76 -92 -76c-62 0 -92 39 -92 75c0 4 1 8 2 10c5 5 11 7 19 6c9 -1 14 -6 17 -12c12 -22 26 -42 52 -42c23 0 46 27 56 51c2 4 9 4 13 4c11 0 20 -5 25 -16z" />
    <glyph glyph-name="caron" unicode="&#x2c7;" horiz-adv-x="196" 
d="M193 811c0 0 -79 -79 -95 -78c-23 2 -61 41 -93 66c-3 2 -3 7 -3 11s1 8 2 10c5 5 10 9 18 9s15 -5 26 -13c21 -16 47 -37 47 -37s39 35 58 46c4 2 9 4 13 4c11 0 22 -7 27 -18z" />
    <glyph glyph-name="cedilla" unicode="&#xb8;" horiz-adv-x="137" 
d="M75 -5c49 -13 59 -37 59 -68c0 -52 -41 -69 -75 -69c-25 0 -56 9 -56 34c0 12 4 17 10 17c4 0 8 -2 13 -4c6 -3 15 -6 23 -6c22 0 45 11 45 32c0 24 -30 26 -60 38c-19 8 -27 15 -27 33c0 11 5 23 12 34h43c-6 -10 -11 -24 -11 -29c0 -8 7 -6 24 -12z" />
    <glyph glyph-name="circumflex" unicode="&#x2c6;" horiz-adv-x="204" 
d="M199 750c-5 -11 -16 -18 -27 -18c-4 0 -9 2 -13 4c-19 11 -58 46 -58 46s-31 -21 -52 -37c-11 -8 -18 -13 -26 -13s-13 4 -18 9c-1 2 -2 6 -2 10s0 9 3 11c38 28 75 64 98 66c16 1 95 -78 95 -78z" />
    <glyph glyph-name="dieresis" unicode="&#xa8;" horiz-adv-x="178" 
d="M16 814c-8 -6 -12 -15 -12 -23c0 -20 14 -40 34 -40c23 0 36 10 36 32s-9 36 -27 36c-12 0 -23 -2 -31 -5zM115 814c-8 -6 -12 -15 -12 -23c0 -20 14 -40 34 -40c23 0 36 10 36 32s-8 36 -27 36c-12 0 -23 -2 -31 -5z" />
    <glyph glyph-name="dotaccent" unicode="&#x2d9;" horiz-adv-x="79" 
d="M16 814c-8 -6 -12 -15 -12 -23c0 -20 14 -43 34 -43c23 0 36 13 36 35s-3 38 -27 38c-12 0 -23 -4 -31 -7z" />
    <glyph glyph-name="grave" unicode="`" horiz-adv-x="132" 
d="M12 821c10 6 27 9 35 9c4 0 9 -2 13 -4c19 -11 48 -52 48 -52c8 -10 18 -25 18 -36c0 -8 -9 -13 -24 -13c-14 0 -69 50 -88 75c-3 5 -5 9 -5 13c0 3 1 6 3 8z" />
    <glyph glyph-name="hungarumlaut" unicode="&#x2dd;" horiz-adv-x="238" 
d="M116 821c2 -2 3 -5 3 -8c0 -4 -2 -8 -5 -13c-19 -25 -74 -75 -88 -75c-15 0 -24 5 -24 13c0 11 10 26 18 36c0 0 29 41 48 52c4 2 9 4 13 4c8 0 25 -3 35 -9zM227 821c2 -2 3 -5 3 -8c0 -4 -2 -8 -5 -13c-19 -25 -74 -75 -88 -75c-15 0 -24 5 -24 13c0 11 10 26 18 36
c0 0 29 41 48 52c4 2 9 4 13 4c8 0 25 -3 35 -9z" />
    <glyph glyph-name="macron" unicode="&#xaf;" horiz-adv-x="211" 
d="M207 769c-2 -15 -5 -27 -16 -27h-170c-16 0 -17 15 -17 28c0 10 8 19 18 19h166c10 0 19 -10 19 -20z" />
    <glyph glyph-name="ogonek" unicode="&#x2db;" horiz-adv-x="154" 
d="M107 34c0 -5 -8 -21 -13 -28l-30 -48c-9 -15 -12 -25 -12 -40c0 -17 7 -30 22 -30c33 0 33 24 39 50c2 10 9 15 16 15c12 0 20 -6 20 -20c0 -18 -3 -42 -14 -56s-31 -22 -67 -22c-34 0 -64 20 -64 59c0 45 29 95 64 120h39z" />
    <glyph glyph-name="ring" unicode="&#x2da;" horiz-adv-x="117" 
d="M5 782c0 33 25 52 56 54c30 0 51 -25 51 -54s-21 -53 -54 -53c-29 0 -52 24 -53 53zM38 782c0 -11 9 -22 20 -22c12 0 21 11 21 22c0 12 -9 19 -24 21c-12 0 -17 -10 -17 -21z" />
    <glyph glyph-name="tilde" unicode="&#x2dc;" horiz-adv-x="214" 
d="M3 764c0 -15 9 -21 17 -21c20 0 24 30 51 30c29 0 37 -31 76 -31c29 0 64 30 64 62c0 11 -11 17 -11 17c-18 -3 -26 -27 -50 -27c-32 0 -44 29 -80 29c-42 0 -67 -43 -67 -59z" />
    <glyph glyph-name="acute.case" horiz-adv-x="124" 
d="M26 740c-15 0 -24 5 -24 13c0 11 10 26 18 36c0 0 29 41 48 52c4 2 9 4 13 4c8 0 25 -3 35 -9c2 -2 3 -5 3 -8c0 -4 -2 -8 -5 -13c-19 -25 -74 -75 -88 -75z" />
    <glyph glyph-name="breve.case" horiz-adv-x="187" 
d="M94 748c-62 0 -92 39 -92 75c0 4 1 8 2 10c5 5 11 7 19 6c9 -1 14 -6 17 -12c12 -22 26 -42 52 -42c23 0 46 27 56 51c2 4 9 4 13 4c11 0 20 -5 25 -16c0 0 -21 -76 -92 -76z" />
    <glyph glyph-name="caron.case" horiz-adv-x="196" 
d="M98 748c-23 2 -61 41 -93 66c-3 2 -3 7 -3 11s1 8 2 10c5 5 10 9 18 9s15 -5 26 -13c21 -16 47 -37 47 -37s39 35 58 46c4 2 9 4 13 4c11 0 22 -7 27 -18c0 0 -79 -79 -95 -78z" />
    <glyph glyph-name="cedilla.case" horiz-adv-x="137" 
d="M59 -127c-25 0 -56 9 -56 34c0 12 4 17 10 17c4 0 8 -2 13 -4c6 -3 15 -6 23 -6c22 0 45 11 45 32c0 24 -30 26 -60 38c-19 8 -27 15 -27 33c0 11 5 23 12 34h43c-6 -10 -11 -24 -11 -29c0 -8 7 -6 24 -12c49 -13 59 -37 59 -68c0 -52 -41 -69 -75 -69z" />
    <glyph glyph-name="circumflex.case" horiz-adv-x="204" 
d="M23 747c-8 0 -13 4 -18 9c-1 2 -2 6 -2 10s0 9 3 11c38 28 75 64 98 66c16 1 95 -78 95 -78c-5 -11 -16 -18 -27 -18c-4 0 -9 2 -13 4c-19 11 -58 46 -58 46s-31 -21 -52 -37c-11 -8 -18 -13 -26 -13z" />
    <glyph glyph-name="dieresis.case" horiz-adv-x="178" 
d="M38 766c-20 0 -34 20 -34 40c0 8 4 17 12 23c8 3 19 5 31 5c18 0 27 -14 27 -36s-13 -32 -36 -32zM137 766c-20 0 -34 20 -34 40c0 8 4 17 12 23c8 3 19 5 31 5c19 0 27 -14 27 -36s-13 -32 -36 -32z" />
    <glyph glyph-name="dotaccent.case" horiz-adv-x="79" 
d="M38 763c-20 0 -34 23 -34 43c0 8 4 17 12 23c8 3 19 7 31 7c24 0 27 -16 27 -38s-13 -35 -36 -35z" />
    <glyph glyph-name="grave.case" horiz-adv-x="132" 
d="M102 740c-14 0 -69 50 -88 75c-3 5 -5 9 -5 13c0 3 1 6 3 8c10 6 27 9 35 9c4 0 9 -2 13 -4c19 -11 48 -52 48 -52c8 -10 18 -25 18 -36c0 -8 -9 -13 -24 -13z" />
    <glyph glyph-name="hungarumlaut.case" horiz-adv-x="238" 
d="M26 740c-15 0 -24 5 -24 13c0 11 10 26 18 36c0 0 29 41 48 52c4 2 9 4 13 4c8 0 25 -3 35 -9c2 -2 3 -5 3 -8c0 -4 -2 -8 -5 -13c-19 -25 -74 -75 -88 -75zM137 740c-15 0 -24 5 -24 13c0 11 10 26 18 36c0 0 29 41 48 52c4 2 9 4 13 4c8 0 25 -3 35 -9c2 -2 3 -5 3 -8
c0 -4 -2 -8 -5 -13c-19 -25 -74 -75 -88 -75z" />
    <glyph glyph-name="macron.case" horiz-adv-x="211" 
d="M21 757c-16 0 -17 15 -17 28c0 10 8 19 18 19h166c10 0 19 -10 19 -20c-2 -15 -5 -27 -16 -27h-170z" />
    <glyph glyph-name="ogonek.case" horiz-adv-x="154" 
d="M68 -130c-34 0 -64 20 -64 59c0 45 29 95 64 120h39c0 -5 -8 -21 -13 -28l-30 -48c-9 -15 -12 -25 -12 -40c0 -17 7 -30 22 -30c33 0 33 24 39 50c2 10 9 15 16 15c12 0 20 -6 20 -20c0 -18 -3 -42 -14 -56s-31 -22 -67 -22z" />
    <glyph glyph-name="ring.case" horiz-adv-x="117" 
d="M58 744c-29 0 -52 24 -53 53c0 33 25 52 56 54c30 0 51 -25 51 -54s-21 -53 -54 -53zM58 775c12 0 21 11 21 22c0 12 -9 19 -24 21c-12 0 -17 -10 -17 -21s9 -22 20 -22z" />
    <glyph glyph-name="tilde.case" horiz-adv-x="214" 
d="M147 757c-39 0 -47 31 -76 31c-27 0 -31 -30 -51 -30c-8 0 -17 6 -17 21c0 16 25 59 67 59c36 0 48 -29 80 -29c24 0 32 24 50 27c0 0 11 -6 11 -17c0 -32 -35 -62 -64 -62z" />
  </font>
</defs>
</svg>
